<?xml version="1.0" encoding="UTF-8"?>
<svg width="120px" height="29px" viewBox="0 0 120 29" version="1.1" xmlns="http://www.w3.org/2000/svg" xmlns:xlink="http://www.w3.org/1999/xlink">
    <!-- Generator: Sketch 50.2 (55047) - http://www.bohemiancoding.com/sketch -->
    <title>Branding/Logo/Full Logo (header bar)</title>
    <desc>Created with Sketch.</desc>
    <defs>
        <linearGradient x1="100%" y1="50%" x2="3.061617e-15%" y2="50%" id="linearGradient-1">
            <stop stop-color="#F86800" offset="0%"></stop>
            <stop stop-color="#BD4701" offset="100%"></stop>
        </linearGradient>
        <linearGradient x1="99.0074936%" y1="50%" x2="0.223214286%" y2="50%" id="linearGradient-2">
            <stop stop-color="#FFA25F" offset="0%"></stop>
            <stop stop-color="#FF6D02" offset="100%"></stop>
        </linearGradient>
        <path d="M14.1737405,0.00129299363 C14.2596641,0.000554140127 14.3245191,0 14.383145,0 C14.5641527,0 14.6847023,0.0053566879 15.1773435,0.0269681529 C15.7418015,0.0648343949 15.7925496,0.0720382166 16.6415267,0.193579618 C17.7827176,0.414127389 18.0212519,0.489859873 19.0254046,0.809414013 C19.025771,0.809414013 19.0259542,0.809598726 19.0263206,0.809598726 C19.3940153,0.950165605 19.848,1.14189809 20.2527023,1.3201465 C20.3076641,1.34656051 20.362626,1.37352866 20.4172214,1.40086624 C18.5578626,0.744394904 13.3251298,1.30610828 8.72922137,2.6556242 C5.98735878,3.4606051 4.09154198,4.36440764 3.40341985,5.10178344 L3.98345038,4.4480828 C4.76207634,3.66157325 4.94033588,3.51915924 5.79737405,2.83442675 C6.77294656,2.11164331 7.45429008,1.76235032 8.11328244,1.42432484 C8.97215267,1.01647771 9.58974046,0.798146497 10.3073588,0.577783439 C10.480855,0.526802548 10.480855,0.526802548 10.8229008,0.43666242 C10.9832061,0.396210191 10.9890687,0.394732484 11.3029008,0.323802548 C11.4600916,0.289815287 11.4600916,0.289815287 11.7755725,0.229783439 C11.9380763,0.200229299 11.9441221,0.199305732 12.2658321,0.149617834 C12.4431756,0.123573248 12.4431756,0.123573248 12.8007939,0.0820127389 C13.0059847,0.0598471338 13.0059847,0.0598471338 13.4170992,0.0291847134 C13.6726718,0.0131146497 13.6726718,0.0131146497 14.1737405,0.00129299363 Z M19.0263206,0.809598726 C19.4443969,0.957369427 19.8536794,1.12785987 20.2527023,1.3201465 C20.2528855,1.3201465 20.2530687,1.32033121 20.2532519,1.32033121 C19.854229,1.12804459 19.4445802,0.957369427 19.0259542,0.809598726 C19.0261374,0.809598726 19.0261374,0.809598726 19.0263206,0.809598726 Z M20.4172214,1.40086624 C20.3628092,1.37371338 20.3082137,1.34674522 20.2532519,1.32033121 C20.3554809,1.36540127 20.4545954,1.40936306 20.5482137,1.45166242 C20.5071756,1.43411465 20.4633893,1.41712102 20.4172214,1.40086624 Z M20.6257099,1.48657325 C20.6009771,1.47456688 20.575145,1.46292994 20.5482137,1.45166242 C20.5745954,1.46329936 20.6002443,1.47493631 20.6257099,1.48657325 Z M3.34131298,5.17197452 L3.40341985,5.10178344 C3.38143511,5.12542675 3.36073282,5.14870064 3.34131298,5.17197452 Z M14.807084,6.40271975 C12.6943511,6.77602548 10.4922137,7.28214013 8.3818626,7.90203822 C3.42540458,9.35721019 0.357984733,11.0325605 0.175328244,12.1979172 L0.109374046,12.6778025 C-0.0124580153,14.175828 -0.0146564885,14.2042739 0.0175877863,15.018121 C0.144,16.5527197 0.146198473,16.5819045 0.315664122,17.3996306 C0.663022901,18.7798089 0.735206107,19.0670382 1.29838168,20.4148917 C1.5660458,20.9492675 1.93850382,21.6484076 2.2470229,22.1718854 C1.61716031,21.017242 4.8029313,19.0999172 10.3832061,17.4611401 C12.4935573,16.8416115 14.6955115,16.3353121 16.8084275,15.9620064 C20.0619847,15.0345605 20.5412519,12.6899936 20.5374046,11.3750191 C20.5331908,10.0338153 19.5579847,6.38166242 15.3759389,6.38129299 C15.1923664,6.38110828 15.0031145,6.38812739 14.807084,6.40271975 Z M2.27230534,22.2145541 C2.26387786,22.2005159 2.25563359,22.186293 2.2470229,22.1718854 C2.25490076,22.186293 2.26332824,22.2005159 2.27230534,22.2145541 Z M7.63694656,27.0854459 C6.59487023,25.6356306 16.2589924,22.2478025 22.2322443,22.2479873 C23.2279695,22.248172 24.1220153,22.3423758 24.8458626,22.5553503 C23.0108702,25.2159618 20.3613435,27.2708981 17.1951756,28.2005605 C20.3613435,27.2708981 23.0110534,25.2159618 24.8458626,22.5553503 C25.5554198,22.8060064 25.6710229,23.1979682 25.2870229,23.6615987 L25.2850076,23.664 C24.6348092,24.4255732 24.4999695,24.5508089 23.6218626,25.3652102 C22.7829618,26.0813439 22.2412214,26.4226943 21.5556641,26.8547389 C20.4912366,27.4696497 19.5215267,27.8913503 18.3134656,28.2648408 C18.1399695,28.3158217 18.1399695,28.3158217 17.7979237,28.4059618 C17.6376183,28.4465987 17.6257099,28.4493694 17.3179237,28.5188217 C17.160916,28.5528089 17.160916,28.5528089 16.8452519,28.6130255 C16.6827481,28.6423949 16.6767023,28.6433185 16.3548092,28.6931911 C16.1776489,28.7188662 16.1776489,28.7188662 15.8200305,28.7607962 C15.6148397,28.7827771 15.6148397,28.7827771 15.203542,28.8134395 C14.9481527,28.8295096 14.9481527,28.8295096 14.4469008,28.8413312 C14.0955115,28.8442866 14.0955115,28.8442866 13.4434809,28.8158408 C12.8790229,28.7777898 12.8280916,28.7704013 11.9792977,28.6490446 C10.8381069,28.4286815 10.5997557,28.3527643 9.59541985,28.0333949 C9.10516031,27.8459108 8.46247328,27.5679172 7.98430534,27.3506943 C7.73935878,27.2276752 7.66222901,27.1205414 7.63694656,27.0854459 Z" id="path-3"></path>
    </defs>
    <g id="Chat" stroke="none" stroke-width="1" fill="none" fill-rule="evenodd">
        <g id="Branding/Logo/Full-Logo-(header-bar)" transform="translate(0.000000, -16.000000)">
            <g id="Branding/Logo/Full-Logo">
                <rect id="Bounds" x="0" y="0" width="120" height="60"></rect>
                <g id="GlobalMeet-Logo" transform="translate(0.000000, 16.000000)">
                    <g id="Logotype" transform="translate(33.709924, 6.122879)" fill="#FF6B00">
                        <path d="M48.6612458,0.372474522 C48.8180702,0.346245223 48.9976122,0.326480892 49.2002382,0.313181529 C49.4028641,0.300251592 49.5955969,0.293417197 49.7788031,0.293417197 C49.9616427,0.293417197 50.160971,0.300251592 50.3766046,0.313181529 C50.5922382,0.326480892 50.7717802,0.346245223 50.9157802,0.372474522 L54.5617649,9.26642357 L58.2277191,0.372474522 C58.3581618,0.346245223 58.5215817,0.326480892 58.7177954,0.313181529 C58.9136427,0.300251592 59.1028947,0.293417197 59.2861008,0.293417197 C59.4559328,0.293417197 59.6453679,0.300251592 59.8547725,0.313181529 C60.0634443,0.326480892 60.2398718,0.346245223 60.3838718,0.372474522 L61.0503756,14.5830287 C60.8937344,14.609258 60.733429,14.6290223 60.5701924,14.6421369 C60.4065893,14.6552516 60.2398718,14.662086 60.0702229,14.662086 C59.9003908,14.662086 59.7336733,14.6552516 59.5704366,14.6421369 C59.4068336,14.6290223 59.2533069,14.609258 59.1096733,14.5830287 L58.6588031,3.53476752 L55.2086656,11.6381433 C54.9472305,11.677672 54.6795664,11.6974363 54.4051237,11.6974363 C54.156513,11.6974363 53.9082687,11.677672 53.6600244,11.6381433 L50.3276885,3.47547452 L49.8768183,14.5830287 C49.7328183,14.609258 49.5825893,14.6290223 49.4257649,14.6421369 C49.2689405,14.6552516 49.1185282,14.662086 48.9748947,14.662086 C48.8048794,14.662086 48.641826,14.6552516 48.4848183,14.6421369 C48.3281771,14.6290223 48.1775817,14.609258 48.0339481,14.5830287 L48.6612458,0.372474522 Z" id="Fill-1"></path>
                        <path d="M69.1661863,8.53512484 C69.1661863,8.16643694 69.117087,7.81381911 69.0190718,7.47782548 C68.9210565,7.14183185 68.7772397,6.84869172 68.5878046,6.59822038 C68.3983695,6.34811847 68.1565374,6.14715032 67.8624916,5.99531592 C67.5684458,5.84422038 67.2187053,5.76811847 66.8138198,5.76811847 C66.0165069,5.76811847 65.4055145,6.01212484 64.9808427,6.49939873 C64.5559878,6.98704204 64.2978504,7.66549427 64.2066137,8.53512484 L69.1661863,8.53512484 Z M64.1868275,9.99768535 C64.213026,11.1044879 64.4973618,11.9148255 65.0398351,12.4286981 C65.581942,12.9425707 66.3825527,13.199507 67.4411176,13.199507 C68.3686901,13.199507 69.2510107,13.0347427 70.0873466,12.7053987 C70.1919573,12.9028573 70.2767817,13.1435389 70.3423695,13.4267045 C70.4074076,13.7104242 70.4467969,13.9900803 70.4599878,14.2667809 C70.0287206,14.4513096 69.5547664,14.5894752 69.038858,14.6818318 C68.5222168,14.7738191 67.9507969,14.8201822 67.323316,14.8201822 C66.4085679,14.8201822 65.6244458,14.6916217 64.9711328,14.4346854 C64.3174534,14.1779338 63.7784611,13.8155261 63.3537893,13.3478318 C62.9289344,12.8801376 62.6187664,12.3267363 62.4225527,11.6874433 C62.2267053,11.0485197 62.1286901,10.3469783 62.1286901,9.58263439 C62.1286901,8.83158981 62.2234076,8.13004841 62.413026,7.47782548 C62.6022779,6.82560255 62.8932092,6.25927134 63.285087,5.77809299 C63.6773313,5.29728408 64.1703389,4.9151121 64.7653924,4.63176178 C65.3598962,4.34841146 66.0621252,4.20673631 66.8724458,4.20673631 C67.5651481,4.20673631 68.1728427,4.32532229 68.695713,4.56249427 C69.2182168,4.79966624 69.6562626,5.12568535 70.0091176,5.54092102 C70.3617893,5.95597197 70.6296366,6.45008025 70.8126595,7.02306115 C70.9956824,7.59622675 71.0871023,8.21889554 71.0871023,8.8908828 C71.0871023,9.07559618 71.0805069,9.26991465 71.0676824,9.47402293 C71.0544916,9.67831592 71.0413008,9.85287006 71.0284763,9.99768535 L64.1868275,9.99768535 Z" id="Fill-3"></path>
                        <path d="M78.6932702,8.53512484 C78.6932702,8.16643694 78.644171,7.81381911 78.5461557,7.47782548 C78.4481405,7.14183185 78.3043237,6.84869172 78.1148885,6.59822038 C77.9254534,6.34811847 77.6836214,6.14715032 77.3895756,5.99531592 C77.0955298,5.84422038 76.7457893,5.76811847 76.3409038,5.76811847 C75.5435908,5.76811847 74.9325985,6.01212484 74.5079267,6.49939873 C74.0830718,6.98704204 73.8249344,7.66549427 73.7336977,8.53512484 L78.6932702,8.53512484 Z M73.7139115,9.99768535 C73.7401099,11.1044879 74.0244458,11.9148255 74.5669191,12.4286981 C75.109026,12.9425707 75.9096366,13.199507 76.9682015,13.199507 C77.895774,13.199507 78.7780947,13.0347427 79.6144305,12.7053987 C79.7190412,12.9028573 79.8038656,13.1435389 79.8694534,13.4267045 C79.9344916,13.7104242 79.9738809,13.9900803 79.9870718,14.2667809 C79.5558046,14.4513096 79.0818504,14.5894752 78.565942,14.6818318 C78.0493008,14.7738191 77.4778809,14.8201822 76.8504,14.8201822 C75.9356519,14.8201822 75.1515298,14.6916217 74.4982168,14.4346854 C73.8445374,14.1779338 73.305545,13.8155261 72.8808733,13.3478318 C72.4560183,12.8801376 72.1458504,12.3267363 71.9496366,11.6874433 C71.7537893,11.0485197 71.655774,10.3469783 71.655774,9.58263439 C71.655774,8.83158981 71.7504916,8.13004841 71.9401099,7.47782548 C72.1293618,6.82560255 72.4202931,6.25927134 72.812171,5.77809299 C73.2044153,5.29728408 73.6974229,4.9151121 74.2924763,4.63176178 C74.8869802,4.34841146 75.5892092,4.20673631 76.3995298,4.20673631 C77.0922321,4.20673631 77.6999267,4.32532229 78.2227969,4.56249427 C78.7453008,4.79966624 79.1833466,5.12568535 79.5362015,5.54092102 C79.8888733,5.95597197 80.1567206,6.45008025 80.3397435,7.02306115 C80.5227664,7.59622675 80.6141863,8.21889554 80.6141863,8.8908828 C80.6141863,9.07559618 80.6075908,9.26991465 80.5947664,9.47402293 C80.5815756,9.67831592 80.5683847,9.85287006 80.5555603,9.99768535 L73.7139115,9.99768535 Z" id="Fill-5"></path>
                        <path d="M85.3824366,14.7354726 C85.3914137,14.5250841 85.4077191,14.2282497 85.3998412,13.9530268 C85.3921466,13.679651 85.3485435,13.4114471 85.2706809,13.1476764 C85.1067115,13.1341924 84.9612458,13.1096255 84.8386809,13.0710204 C84.6492458,13.0117274 84.4988336,12.8931414 84.3878107,12.7152624 C84.2767878,12.5373834 84.1981924,12.2839567 84.152574,11.954428 C84.1067725,11.6252688 84.084055,11.1836191 84.084055,10.6302178 L84.084055,6.00536433 L86.0828336,6.00536433 C86.1088489,5.87366369 86.1284519,5.74196306 86.1416427,5.61007771 C86.1544672,5.47856178 86.1612458,5.34021146 86.1612458,5.19502675 C86.1612458,4.91832611 86.1348641,4.6682242 86.0828336,4.44398217 L84.084055,4.44398217 L84.084055,1.9339121 C83.9415206,1.90786752 83.7799328,1.88847261 83.5991084,1.87517325 C83.4175511,1.86242803 83.2561466,1.85559363 83.1137954,1.85559363 C82.9714443,1.85559363 82.8131542,1.86242803 82.6383756,1.87517325 C82.4637802,1.88847261 82.3053069,1.90786752 82.1631389,1.9339121 L82.1631389,4.44398217 L80.8889405,4.44398217 C80.8623756,4.5494535 80.8429557,4.67117962 80.8299481,4.80952994 C80.8167573,4.94788025 80.810345,5.08327516 80.810345,5.21479108 C80.810345,5.34667643 80.8167573,5.4815172 80.8299481,5.61986752 C80.8429557,5.75821783 80.8623756,5.90007771 80.8889405,6.00536433 L81.4145588,6.00536433 L82.1629557,6.00536433 L82.1629557,7.92564459 L82.1629557,11.7567847 C82.1629557,12.8240586 82.4275053,13.5884025 82.956971,14.0494471 C83.4860702,14.5108611 84.2212763,14.7411987 85.1622229,14.7411987 C85.237887,14.7411987 85.3087878,14.737135 85.3824366,14.7354726" id="Fill-7"></path>
                        <path d="M9.32345038,7.2505172 C9.41468702,7.23758726 9.52570992,7.22761274 9.65651908,7.22077834 C9.78714504,7.21431338 9.90476336,7.21098854 10.0095573,7.21098854 C10.1271756,7.21098854 10.2446107,7.21431338 10.3624122,7.22077834 C10.4798473,7.22761274 10.584458,7.23758726 10.6760611,7.2505172 L10.6760611,14.1680331 C10.4536489,14.2864344 10.1890992,14.3852561 9.8820458,14.4643134 C9.57480916,14.5435554 9.24815267,14.6091287 8.90189313,14.6621414 C8.55563359,14.7146 8.19929771,14.7541287 7.83361832,14.7805427 C7.46757252,14.8069567 7.10830534,14.8202561 6.75526718,14.8202561 C5.81450382,14.8202561 4.93859542,14.6686064 4.12864122,14.3656764 C3.3181374,14.0625618 2.6190229,13.6079822 2.0309313,13.0017529 C1.44283969,12.395893 0.982442748,11.6450331 0.649007634,10.7488038 C0.315755725,9.85275924 0.149221374,8.81189936 0.149221374,7.62603949 C0.149221374,6.44017962 0.312274809,5.38269554 0.63929771,4.45377197 C0.965770992,3.52484841 1.41993893,2.74110955 2.00161832,2.10181656 C2.5829313,1.46289299 3.26903817,0.975249682 4.06012214,0.639256051 C4.85047328,0.30326242 5.70970992,0.135357962 6.63783206,0.135357962 C7.46116031,0.135357962 8.14726718,0.191510828 8.69615267,0.30326242 C9.24485496,0.415383439 9.68912977,0.523994904 10.0291603,0.629466242 C10.0027786,0.866638217 9.96705344,1.07093121 9.92143511,1.24216051 C9.87545038,1.41357452 9.80674809,1.61121783 9.71551145,1.83509045 C9.42787786,1.72980382 9.04222901,1.62100764 8.5589313,1.50907134 C8.07526718,1.39713503 7.46116031,1.34098217 6.71624427,1.34098217 C5.97132824,1.34098217 5.28522137,1.48265732 4.65792366,1.76582293 C4.03044275,2.04935796 3.49145038,2.46108408 3.04058015,3.00118599 C2.58970992,3.54147261 2.23685496,4.20034522 1.98219847,4.97761911 C1.72717557,5.75526242 1.59984733,6.63782293 1.59984733,7.62603949 C1.59984733,8.64067006 1.7370687,9.52027516 2.01151145,10.2644854 C2.2859542,11.009065 2.65841221,11.6250841 3.12870229,12.1125427 C3.59935878,12.6000013 4.15135878,12.9622242 4.78525191,13.1995809 C5.41896183,13.4367529 6.09535878,13.5551541 6.81425954,13.5551541 C7.40235115,13.5551541 7.89535878,13.5324344 8.29419847,13.4860713 C8.69285496,13.4400777 9.03581679,13.3643452 9.32345038,13.2588739 L9.32345038,7.2505172 Z" id="Fill-9"></path>
                        <path d="M19.9803481,13.6739064 C21.0257221,13.6739064 21.8065466,13.3050338 22.3228214,12.5671038 C22.8390962,11.8293586 23.0972336,10.8213777 23.0972336,9.54316115 C23.0972336,8.26531401 22.8390962,7.25733312 22.3228214,6.51921847 C21.8065466,5.78147325 21.0257221,5.41241592 19.9803481,5.41241592 C18.9346076,5.41241592 18.1537832,5.78147325 17.6378748,6.51921847 C17.1214168,7.25733312 16.8634626,8.26531401 16.8634626,9.54316115 C16.8634626,10.8213777 17.1214168,11.8293586 17.6378748,12.5671038 C18.1537832,13.3050338 18.9346076,13.6739064 19.9803481,13.6739064 M19.9803481,14.8202376 C19.2354321,14.8202376 18.5817527,14.6850274 18.0200427,14.4149764 C17.4579664,14.1451102 16.990974,13.7725433 16.6183328,13.2983841 C16.2458748,12.8238554 15.9683176,12.2639892 15.7852947,11.6184159 C15.6022718,10.9728427 15.5108519,10.2812758 15.5108519,9.54316115 C15.5108519,8.80541592 15.6022718,8.11366433 15.7852947,7.46790637 C15.9683176,6.82251783 16.2458748,6.26228217 16.6183328,5.78793822 C16.990974,5.31359427 17.4579664,4.94139682 18.0200427,4.67116115 C18.5817527,4.4012949 19.2354321,4.26608471 19.9803481,4.26608471 C20.7252641,4.26608471 21.3750962,4.4012949 21.9307603,4.67116115 C22.4862412,4.94139682 22.9503023,5.31359427 23.3225771,5.78793822 C23.6950351,6.26228217 23.9760733,6.82251783 24.1656916,7.46790637 C24.3549435,8.11366433 24.4498443,8.80541592 24.4498443,9.54316115 C24.4498443,10.2812758 24.3549435,10.9728427 24.1656916,11.6184159 C23.9760733,12.2639892 23.6950351,12.8238554 23.3225771,13.2983841 C22.9503023,13.7725433 22.4862412,14.1451102 21.9307603,14.4149764 C21.3750962,14.6850274 20.7252641,14.8202376 19.9803481,14.8202376" id="Fill-11"></path>
                        <path d="M26.9586504,13.377349 C27.2592916,13.4830051 27.5762382,13.5585529 27.9094901,13.6045465 C28.242742,13.6509096 28.5987115,13.673814 28.9777649,13.673814 C29.5004519,13.673814 30.0004214,13.5882917 30.4774901,13.4168777 C30.9545588,13.2458331 31.3724519,12.9820624 31.7320855,12.6264892 C32.0913527,12.2705465 32.3789863,11.8192917 32.5946198,11.2723554 C32.8102534,10.7259732 32.9179786,10.0702408 32.9179786,9.30589682 C32.9179786,8.10710701 32.6926351,7.16488408 32.2417649,6.47959745 C31.7908947,5.79468025 31.0621008,5.45185223 30.0559328,5.45185223 C29.742284,5.45185223 29.4024366,5.50468025 29.0367573,5.60996688 C28.6707115,5.71562293 28.3339786,5.89350191 28.0271084,6.14360382 C27.7198718,6.39407516 27.4650321,6.72674395 27.2625893,7.1417949 C27.0597802,7.55684586 26.9586504,8.08050828 26.9586504,8.71315159 L26.9586504,13.377349 Z M25.6648489,0.0561898089 C25.7432611,0.0432598726 25.8511695,0.0334700637 25.9883908,0.0266356688 C26.1256122,0.0201707006 26.2333374,0.0166611465 26.3119328,0.0166611465 C26.376971,0.0166611465 26.4815817,0.0201707006 26.6255817,0.0266356688 C26.7692153,0.0334700637 26.8802382,0.0432598726 26.9586504,0.0561898089 L26.9586504,5.90643185 C27.2330931,5.48491592 27.6282687,5.10606879 28.1447267,4.77007516 C28.6608183,4.43408153 29.3306198,4.26599236 30.1539481,4.26599236 C30.7682382,4.26599236 31.3301313,4.36167389 31.8399939,4.55266752 C32.3496733,4.74384586 32.7838718,5.04363567 33.1435053,5.45185223 C33.5027725,5.86043822 33.7836275,6.37431083 33.9864366,6.99347006 C34.1888794,7.61299873 34.2903756,8.35720892 34.2903756,9.22683949 C34.2903756,10.9794 33.8131237,12.3497885 32.8591695,13.3378204 C31.9052153,14.3260369 30.5265893,14.8203299 28.7231084,14.8203299 C28.1350168,14.8203299 27.566345,14.7639924 27.0174595,14.6520561 C26.468574,14.5403045 26.0177038,14.4183936 25.6648489,14.2865083 L25.6648489,0.0561898089 Z" id="Fill-13"></path>
                        <path d="M41.0730321,9.68145605 C40.8506198,9.65522675 40.5730626,9.62567261 40.2398107,9.59260892 C39.9065588,9.55972994 39.589429,9.54310573 39.2891542,9.54310573 C38.3090015,9.54310573 37.5507115,9.72781911 37.0152,10.096507 C36.4791389,10.4655643 36.2114748,10.9927363 36.2114748,11.6776535 C36.2114748,12.1124688 36.2928183,12.4617618 36.4564214,12.7251631 C36.619658,12.988749 36.8319939,13.1895325 37.093429,13.3278828 C37.3548641,13.4662331 37.6423145,13.5585898 37.9559634,13.6045834 C38.2696122,13.6509465 38.5832611,13.673851 38.8970931,13.673851 C39.3019786,13.673851 39.6810321,13.6540866 40.033887,13.614558 C40.3869252,13.5750293 40.7330015,13.5225707 41.0730321,13.4564433 L41.0730321,9.68145605 Z M41.0730321,7.92243057 C41.0730321,7.0528 40.8702229,6.41738599 40.4653374,6.01526497 C40.0600855,5.61351338 39.4586198,5.41236051 38.6618565,5.41236051 C38.1388031,5.41236051 37.6621008,5.44874904 37.2306504,5.52115669 C36.7995664,5.59374904 36.4137344,5.68259618 36.0742534,5.7878828 C36.0084824,5.66929682 35.9533374,5.49825223 35.9075359,5.27401019 C35.8617344,5.05013758 35.8390168,4.8391949 35.8390168,4.64155159 C36.1786809,4.53626497 36.596574,4.44741783 37.093429,4.37482548 C37.5899176,4.30241783 38.0997802,4.2660293 38.6226504,4.2660293 C39.8900702,4.2660293 40.8310168,4.54623949 41.4453069,5.10592102 C42.0595969,5.66615669 42.3668336,6.54576178 42.3668336,7.74455159 L42.3668336,14.4051312 C41.9090015,14.4974879 41.3537038,14.5894752 40.700574,14.6818318 C40.0467115,14.7738191 39.4263756,14.8201822 38.838284,14.8201822 C37.6228947,14.8201822 36.6652763,14.5765452 35.966345,14.0889019 C35.2672305,13.601628 34.9174901,12.8108701 34.9174901,11.7171822 C34.9174901,11.1903796 35.0186198,10.7189911 35.2216122,10.3039401 C35.4238718,9.88888917 35.7047267,9.53996561 36.0643603,9.25661529 C36.4236275,8.97344968 36.8550779,8.75936688 37.3581618,8.61418217 C37.8612458,8.46936688 38.4132458,8.39677452 39.0147115,8.39677452 C39.4851847,8.39677452 39.8900702,8.41339873 40.2299176,8.44627771 C40.5697649,8.4793414 40.8506198,8.50889554 41.0730321,8.53512484 L41.0730321,7.92243057 Z" id="Fill-15"></path>
                        <path d="M6.37496794,8.32966815 L10.6764641,8.32966815 L10.6764641,7.20217771 L6.37496794,7.20217771 C6.37496794,7.20217771 6.27951756,7.44452166 6.27951756,7.76592293 C6.27951756,8.0873242 6.37496794,8.32966815 6.37496794,8.32966815" id="Fill-17"></path>
                        <path d="M14.8049588,14.2129 C14.8011115,14.0115624 14.7747298,13.8214924 14.7261802,13.6426898 C14.6715847,13.6378873 14.6162565,13.6325306 14.5570809,13.6244032 C14.4130809,13.6046389 14.2826382,13.5521803 14.1650198,13.4662885 C14.0474015,13.3807662 13.9493863,13.2424159 13.870974,13.0512376 C13.792745,12.8604287 13.7533557,12.5935178 13.7533557,12.2508745 L13.7533557,0.0562821656 C13.6749435,0.0433522293 13.5639206,0.033377707 13.4201038,0.0265433121 C13.2761038,0.0200783439 13.1716763,0.0167535032 13.106455,0.0167535032 C13.0280427,0.0167535032 12.9203176,0.0200783439 12.7830962,0.0265433121 C12.6458748,0.033377707 12.5379664,0.0433522293 12.4595542,0.0562821656 L12.4595542,12.5471548 C12.4595542,13.0085688 12.5249588,13.3807662 12.6557679,13.6639318 C12.7860275,13.9474669 12.9595237,14.1713395 13.1751573,14.3359191 C13.3906076,14.5008682 13.6357374,14.6126197 13.9101802,14.6719127 C14.1846229,14.7313904 14.4590656,14.7609446 14.7335084,14.7609446 C14.7549435,14.7609446 14.7783939,14.7590975 14.8001954,14.758728 C14.8066076,14.5906389 14.8082565,14.409435 14.8049588,14.2129" id="Fill-19"></path>
                        <path d="M46.299774,14.2129 C46.2959267,14.0115624 46.269545,13.8214924 46.2209954,13.6426898 C46.1662168,13.6378873 46.1108885,13.6325306 46.051713,13.6244032 C45.907713,13.6046389 45.7772702,13.5521803 45.6596519,13.4662885 C45.5420336,13.3807662 45.4440183,13.2424159 45.3656061,13.0512376 C45.2873771,12.8604287 45.2479878,12.5935178 45.2479878,12.2508745 L45.2479878,0.0562821656 C45.1695756,0.0433522293 45.0585527,0.033377707 44.9147359,0.0265433121 C44.7707359,0.0200783439 44.6663084,0.0167535032 44.6012702,0.0167535032 C44.5226748,0.0167535032 44.4149496,0.0200783439 44.2777282,0.0265433121 C44.1405069,0.033377707 44.0325985,0.0433522293 43.9541863,0.0562821656 L43.9541863,12.5471548 C43.9541863,13.0085688 44.0195908,13.3807662 44.1504,13.6639318 C44.2806595,13.9474669 44.4541557,14.1713395 44.6697893,14.3359191 C44.8852397,14.5008682 45.1303695,14.6126197 45.4048122,14.6719127 C45.679255,14.7313904 45.9536977,14.7609446 46.2281405,14.7609446 C46.2495756,14.7609446 46.273026,14.7590975 46.2948275,14.758728 C46.3012397,14.5906389 46.3030718,14.409435 46.299774,14.2129" id="Fill-21"></path>
                    </g>
                    <g id="Logo">
                        <g id="Logo-Back" fill="url(#linearGradient-1)">
                            <path d="M13.4170992,0.0291847134 C13.2075115,0.0424840764 13.1919389,0.0439617834 12.8007939,0.0820127389 C12.6203359,0.10122293 12.613374,0.102146497 12.2658321,0.149617834 C12.101313,0.17344586 12.095084,0.17455414 11.7755725,0.229783439 C11.6178321,0.258229299 11.6178321,0.258229299 11.3029008,0.323802548 C11.1433282,0.358343949 11.1433282,0.358343949 10.8229008,0.43666242 C10.6523359,0.47988535 10.6523359,0.47988535 10.3073588,0.577783439 C9.23322137,0.901216561 8.61233588,1.19121656 8.11328244,1.42432484 C7.0440916,1.94817197 6.46607634,2.35897452 5.79737405,2.83442675 C4.93758779,3.50567516 4.79175573,3.64956688 3.98345038,4.4480828 L3.34131298,5.17197452 C2.94796947,5.6398535 3.06027481,6.03532484 3.77496183,6.28782803 C5.6341374,6.94429936 10.8668702,6.38258599 15.4625954,5.03307006 C19.8694351,3.73896815 22.0904427,2.19051592 20.6257099,1.48657325 C20.1532214,1.2663949 19.5109008,1.00059236 19.0259542,0.809598726 C18.7267786,0.703942675 18.4232061,0.609923567 18.1156031,0.527910828 C17.6341374,0.391038217 17.2964885,0.323802548 16.6415267,0.193579618 C16.0688244,0.10177707 15.9673282,0.0932802548 15.1773435,0.0269681529 C14.8175267,0.00554140127 14.7810687,0.0053566879 14.1737405,0.00129299363 C13.9121221,0.00406369427 13.8934351,0.00498726115 13.4170992,0.0291847134" id="Path"></path>
                            <path d="M15.8854351,0.153127389 C14.4353588,0.0472866242 12.9317863,0.199675159 11.4254656,0.642063694 C12.9317863,0.199675159 14.4353588,0.0472866242 15.8854351,0.153127389" id="Path"></path>
                            <path d="M18.1168855,0.528280255 C18.4239389,0.60944056 18.7269618,0.702509262 19.0254046,0.807119949 C18.6447023,0.684555064 18.3621985,0.597532163 18.1168855,0.528280255" id="Path"></path>
                            <path d="M23.4655878,9.45935669 C22.1168244,10.1023439 20.3487023,10.7621401 18.2378015,11.3818535 C11.5108397,13.3573631 3.85099237,14.1795223 1.12946565,13.2184586 C0.428335878,12.9711274 0.12329771,12.6294076 0.171664122,12.2247006 L0.109374046,12.6778025 C0.0139236641,13.420535 0.0142900763,13.5716306 0.0175877863,15.018121 C0.0540458015,15.8397261 0.0540458015,15.8397261 0.315664122,17.3996306 C0.662656489,18.844828 0.784671756,19.1462803 1.29838168,20.4148917 C1.56916031,20.9658917 1.96305344,21.6844268 2.27230534,22.2145541 C2.41227481,22.4336242 2.69496183,22.6240637 3.13099237,22.7779299 C5.85251908,23.7388089 13.5121832,22.9166497 20.2389618,20.9413248 C22.3498626,20.3216115 24.1181679,19.6618153 25.4667481,19.0184586 C25.9071756,18.7299363 26.455145,18.3704841 26.9221374,17.483121 C28.4368855,14.6047325 27.3273893,9.32266879 24.3279389,9.32322293 C24.0558779,9.32322293 23.7680611,9.36663057 23.4655878,9.45935669" id="Path"></path>
                            <path d="M0.171664122,12.2244821 L0.175328244,12.1979172 C0.173862595,12.2068943 0.172580153,12.2156882 0.171664122,12.2244821" id="Path"></path>
                            <path d="M25.2839084,23.6652628 C25.2842748,23.6648964 25.2846412,23.66453 25.2850076,23.6639804 L25.2870229,23.6615987 C25.2859237,23.6628812 25.2848244,23.6641636 25.2839084,23.6652628" id="Path"></path>
                            <path d="M25.2467176,23.7068808 C25.259542,23.6929571 25.2718168,23.6792167 25.2839084,23.665293 C25.2712672,23.6793999 25.2589924,23.6931403 25.2467176,23.7068808" id="Path"></path>
                            <path d="M7.98430534,27.3506943 C8.46027481,27.572535 9.10699237,27.8411083 9.59541985,28.0333949 C10.482687,28.3512866 11.3126107,28.5162357 11.9792977,28.6490446 C12.552,28.7408471 12.6534962,28.7495287 13.4434809,28.8158408 C13.8034809,28.8370828 13.8397557,28.8374522 14.4469008,28.8413312 C14.7088855,28.8383758 14.7275725,28.8376369 15.203542,28.8134395 C15.4134962,28.8001401 15.4287023,28.7986624 15.8200305,28.7607962 C16.0006718,28.7414013 16.0072672,28.7404777 16.3548092,28.6931911 C16.5196947,28.6689936 16.5196947,28.6689936 16.8452519,28.6130255 C17.0031756,28.5842102 17.0031756,28.5842102 17.3179237,28.5188217 C17.477313,28.4842803 17.477313,28.4842803 17.7979237,28.4059618 C17.9684885,28.3627389 17.9684885,28.3627389 18.3134656,28.2648408 C19.9535267,27.7668535 20.9957863,27.1735541 21.5556641,26.8547389 C22.4847023,26.295242 22.9863206,25.8848089 23.6218626,25.3652102 C24.3491908,24.7161274 24.4625954,24.5908917 25.2467176,23.7072229 C23.2048855,25.9426242 11.460458,28.7582102 7.98430534,27.3506943" id="Path"></path>
                        </g>
                        <g id="Logo-Front">
                            <mask id="mask-4" fill="white">
                                <use xlink:href="#path-3"></use>
                            </mask>
                            <use id="Clip-27" fill="url(#linearGradient-2)" xlink:href="#path-3"></use>
                        </g>
                    </g>
                </g>
            </g>
        </g>
    </g>
</svg>