<?xml version="1.0" encoding="UTF-8"?>
<svg width="20px" height="20px" viewBox="0 0 20 20" version="1.1" xmlns="http://www.w3.org/2000/svg" xmlns:xlink="http://www.w3.org/1999/xlink">
    <!-- Generator: Sketch 51 (57462) - http://www.bohemiancoding.com/sketch -->
    <title>nav_call</title>
    <desc>Created with Sketch.</desc>
    <defs>
        <path d="M1.93528014,9.81111675 C5.09364528,8.07087866 8.73171381,7.27663419 12.8470543,7.4291391 C17.0024814,7.54410886 20.309869,8.59487816 22.7700132,10.582164 C23.9210608,11.7910846 24.4011438,13.2013292 24.2086913,14.8100106 C23.8948995,15.4611251 23.3817124,16.0121952 22.6715612,16.4624651 C21.9588782,16.4848366 21.0483723,16.3010708 19.9392689,15.9089974 C18.6321245,15.4887902 17.7996395,15.2663067 17.4442238,15.2422444 C17.1659307,14.8590735 17.1434135,14.2011039 17.3783075,13.2668628 C17.6914801,12.3309543 17.7289936,11.7594471 17.4908265,11.5537948 C14.1236676,10.344633 10.7993299,10.2741625 7.51865244,11.3401938 C7.32093178,11.4537305 7.1838198,11.8324502 7.10731648,12.4763529 C7.06990522,13.367534 6.91402663,13.9782438 6.63888457,14.3077654 C3.51693615,15.4416359 1.85683326,16.029016 1.65855436,16.0713589 C1.42094552,15.9369003 0.924987641,15.5432683 0.17068072,14.8904631 C-0.546773199,13.2752831 0.041419428,11.5826521 1.93528014,9.81111675" id="path-1"></path>
    </defs>
    <g id="Chat" stroke="none" stroke-width="1" fill="none" fill-rule="evenodd">
        <g id="nav_call" transform="translate(-3.000000, -1.000000)">
            <mask id="mask-2" fill="white">
                <use xlink:href="#path-1"></use>
            </mask>
            <use fill="#FFFFFF" transform="translate(12.062500, 11.937500) rotate(-135.000000) translate(-12.062500, -11.937500) " xlink:href="#path-1"></use>
        </g>
    </g>
</svg>