<?xml version="1.0" encoding="UTF-8"?>
<svg width="16px" height="5px" viewBox="0 0 16 5" version="1.1" xmlns="http://www.w3.org/2000/svg" xmlns:xlink="http://www.w3.org/1999/xlink">
    <!-- Generator: Sketch 51 (57462) - http://www.bohemiancoding.com/sketch -->
    <title>Icons/- Container/- Box (Small 24) w Icon (Med 16)</title>
    <desc>Created with Sketch.</desc>
    <defs>
        <path d="M2.31105878,9.92248062 C1.03469626,9.92248062 0,8.92293029 0,7.68992248 C0,6.45691467 1.03469626,5.45736434 2.31105878,5.45736434 C3.5874213,5.45736434 4.62211755,6.45691467 4.62211755,7.68992248 C4.62211755,8.92293029 3.5874213,9.92248062 2.31105878,9.92248062 Z M2.31105878,8.56353219 C2.81050498,8.56353219 3.21538613,8.1724038 3.21538613,7.68992248 C3.21538613,7.20744116 2.81050498,6.81631277 2.31105878,6.81631277 C1.81161257,6.81631277 1.40673143,7.20744116 1.40673143,7.68992248 C1.40673143,8.1724038 1.81161257,8.56353219 2.31105878,8.56353219 Z M13.5649102,9.92248062 C12.2885477,9.92248062 11.2538514,8.92293029 11.2538514,7.68992248 C11.2538514,6.45691467 12.2885477,5.45736434 13.5649102,5.45736434 C14.8412727,5.45736434 15.875969,6.45691467 15.875969,7.68992248 C15.875969,8.92293029 14.8412727,9.92248062 13.5649102,9.92248062 Z M13.5649102,8.56353219 C14.0643564,8.56353219 14.4692376,8.1724038 14.4692376,7.68992248 C14.4692376,7.20744116 14.0643564,6.81631277 13.5649102,6.81631277 C13.065464,6.81631277 12.6605829,7.20744116 12.6605829,7.68992248 C12.6605829,8.1724038 13.065464,8.56353219 13.5649102,8.56353219 Z M7.9379845,9.92248062 C6.66162198,9.92248062 5.62692572,8.92293029 5.62692572,7.68992248 C5.62692572,6.45691467 6.66162198,5.45736434 7.9379845,5.45736434 C9.21434701,5.45736434 10.2490433,6.45691467 10.2490433,7.68992248 C10.2490433,8.92293029 9.21434701,9.92248062 7.9379845,9.92248062 Z M7.9379845,8.56353219 C8.4374307,8.56353219 8.84231184,8.1724038 8.84231184,7.68992248 C8.84231184,7.20744116 8.4374307,6.81631277 7.9379845,6.81631277 C7.43853829,6.81631277 7.03365715,7.20744116 7.03365715,7.68992248 C7.03365715,8.1724038 7.43853829,8.56353219 7.9379845,8.56353219 Z" id="path-1"></path>
    </defs>
    <g id="Symbols" stroke="none" stroke-width="1" fill="none" fill-rule="evenodd">
        <g id="message_rollover/Self" transform="translate(-464.000000, -15.000000)">
            <g id="Rollover/Me">
                <g id="Overflow_24_16/Normal" transform="translate(460.000000, 6.000000)">
                    <g id="24_16_Overflow/Normal">
                        <rect id="Indicator-Bounds" x="0" y="0" width="24" height="24"></rect>
                        <g id="Icons/--Overrides/Overflow" transform="translate(4.000000, 4.000000)">
                            <g>
                                <rect id="Bounds" x="0" y="0" width="15.875969" height="15.875969"></rect>
                                <mask id="mask-2" fill="white">
                                    <use xlink:href="#path-1"></use>
                                </mask>
                                <g id="Icon" fill-rule="nonzero"></g>
                                <g id="Color/Primary/500" mask="url(#mask-2)" fill="#00AEEF">
                                    <rect x="0" y="0" width="16.0528053" height="16.0528053"></rect>
                                </g>
                            </g>
                        </g>
                    </g>
                </g>
            </g>
        </g>
    </g>
</svg>