<?xml version="1.0" encoding="UTF-8"?>
<svg width="20px" height="20px" viewBox="0 0 20 20" version="1.1" xmlns="http://www.w3.org/2000/svg" xmlns:xlink="http://www.w3.org/1999/xlink">
    <!-- Generator: Sketch 50.2 (55047) - http://www.bohemiancoding.com/sketch -->
    <title>Support Icon - State</title>
    <desc>Created with Sketch.</desc>
    <defs>
        <path d="M9.93753329,0 C15.425891,0 19.8757764,4.45004437 19.8757764,9.9378882 C19.8757764,15.4264419 15.425891,19.8757764 9.93753329,19.8757764 C4.44917562,19.8757764 0,15.4264419 0,9.9378882 C0,4.45004437 4.44917562,0 9.93753329,0 Z M10.7147904,15.9957409 C10.9689073,15.7707187 11.0959657,15.4612245 11.0959657,15.0665484 C11.0959657,14.7116238 10.973876,14.4134871 10.7318261,14.1714286 C10.4890664,13.92937 10.1909404,13.8079858 9.83602848,13.8079858 C9.47614781,13.8079858 9.1716334,13.92937 8.92390489,14.1714286 C8.67546656,14.4134871 8.55266704,14.7116238 8.55266704,15.0665484 C8.55266704,15.4669033 8.68043533,15.7778172 8.93668172,16.0007098 C9.19292811,16.2228926 9.49318358,16.3336291 9.83602848,16.3336291 C10.168226,16.3336291 10.4620931,16.2214729 10.7147904,15.9957409 Z M13.870667,8.17249335 C14.0651587,7.81188997 14.1624046,7.39236912 14.1624046,6.91322094 C14.1624046,6.30559006 13.991337,5.74196983 13.6513314,5.2230701 C13.310616,4.70559006 12.827226,4.29529725 12.2018712,3.99432121 C11.5772263,3.69334516 10.8553355,3.54214729 10.0390381,3.54214729 C9.1595664,3.54214729 8.39153704,3.72244898 7.73282054,4.08305235 C7.07339423,4.44294587 6.57225862,4.89795918 6.2287039,5.44738243 C5.88514918,5.99680568 5.71337182,6.53842059 5.71337182,7.07364685 C5.71337182,7.33274179 5.82126503,7.57409051 6.03918094,7.79627329 C6.2556772,8.01916593 6.52115131,8.1299024 6.8370229,8.1299024 C7.37223005,8.1299024 7.73565984,7.81188997 7.92731227,7.17515528 C8.12961205,6.5675244 8.37805038,6.1068323 8.67049779,5.79449867 C8.9629452,5.48074534 9.41936191,5.32528838 10.0390381,5.32528838 C10.5685667,5.32528838 11.0008493,5.48003549 11.336596,5.78952972 C11.670923,6.09973381 11.8384414,6.48021295 11.8384414,6.93025732 C11.8384414,7.1609583 11.783785,7.37533274 11.6730525,7.57196096 C11.5637396,7.76929902 11.4295829,7.94889086 11.2677431,8.10860692 C11.1080327,8.26974268 10.8468176,8.50754215 10.4869369,8.82271517 C10.0759489,9.18402839 9.74872015,9.49423248 9.50667024,9.75616681 C9.26462032,10.0181012 9.07083842,10.3226264 8.92390489,10.668323 C8.77768119,11.0154392 8.70456934,11.4250222 8.70456934,11.8984916 C8.70456934,12.2761313 8.80394467,12.5607808 9.00482481,12.7517303 C9.20357547,12.9433895 9.45059416,13.0392192 9.74375139,13.0392192 C10.3066417,13.0392192 10.6416785,12.7467613 10.7488619,12.1604259 C10.8106166,11.8842946 10.8567551,11.6912156 10.8879874,11.581189 C10.9192196,11.4711624 10.9625189,11.3618456 11.0185949,11.2525288 C11.0753808,11.1425022 11.1612695,11.021118 11.2769708,10.8890861 C11.3919623,10.7563443 11.5452842,10.602307 11.7376465,10.4276841 C12.4297247,9.80869565 12.9102754,9.36787933 13.177879,9.10523514 C13.4454825,8.84401065 13.6761753,8.53309672 13.870667,8.17249335 Z" id="path-1"></path>
    </defs>
    <g id="Symbols" stroke="none" stroke-width="1" fill="none" fill-rule="evenodd">
        <g id="Bars/Header-Bar/Overrides/Right/Notifications-and-Support" transform="translate(-65.000000, -20.000000)">
            <g id="Icons/Secondary-Icon/Light-UI/Normal">
                <g transform="translate(55.000000, 10.000000)">
                    <g>
                        <circle id="Bounds" cx="20" cy="20" r="20"></circle>
                        <g id="Icons/--Container/--Box-(Med-40)-w-Icon-(Med2-20)">
                            <g id="Icons/Sidebar-Item/Normal">
                                <rect id="Bounds" x="0" y="0" width="40" height="40"></rect>
                                <g id="Icons/--Overrides/Sidebar-Support" transform="translate(10.000000, 10.000000)">
                                    <g id="Group">
                                        <mask id="mask-2" fill="white">
                                            <use xlink:href="#path-1"></use>
                                        </mask>
                                        <g id="Icon"></g>
                                        <g id="Color/Grayscale/300" mask="url(#mask-2)" fill="#C5D1DC">
                                            <rect x="0" y="0" width="20.0131666" height="20.0131666"></rect>
                                        </g>
                                    </g>
                                </g>
                            </g>
                        </g>
                    </g>
                </g>
            </g>
        </g>
    </g>
</svg>