<?xml version="1.0" encoding="UTF-8" standalone="no"?>
<!DOCTYPE svg  PUBLIC '-//W3C//DTD SVG 1.1//EN'  'http://www.w3.org/Graphics/SVG/1.1/DTD/svg11.dtd'>
<svg xmlns="http://www.w3.org/2000/svg">
<defs>
<font id="DINNextRoundedLTPro-Medium" horiz-adv-x="549">
<font-face underline-position="-50" font-weight="500" descent="-200" panose-1="2 15 6 3 2 2 3 5 2 3" units-per-em="1000" unicode-range="U+0020-25CA" bbox="-103 -213 1028 921" x-height="482" underline-thickness="50" font-family="DINNextRoundedLTPro" ascent="800" cap-height="685"/>
<missing-glyph horiz-adv-x="1000"/>
<glyph glyph-name=".notdef" horiz-adv-x="1000"/>
<glyph glyph-name=".null" horiz-adv-x="1000"/>
<glyph glyph-name="nonmarkingreturn" horiz-adv-x="333"/>
<glyph glyph-name="space" horiz-adv-x="239" unicode=" "/>
<glyph glyph-name="exclam" horiz-adv-x="306" unicode="!" d="M84 60q0 28 20 48.5t49 20.5t49 -20.5t20 -48.5t-20 -48.5t-49 -20.5t-49 20.5t-20 48.5zM153 190q-25 0 -40.5 16t-15.5 44v376q0 27 15.5 43t40.5 16t40.5 -16t15.5 -43v-376q0 -28 -15.5 -44t-40.5 -16z"/>
<glyph glyph-name="quotedbl" horiz-adv-x="346" unicode='&quot;' d="M102 482q-18 0 -29.5 11.5t-11.5 32.5v115q0 21 11 32.5t30 11.5t30 -11.5t11 -32.5v-115q0 -21 -11.5 -32.5t-29.5 -11.5zM244 482q-18 0 -29.5 11.5t-11.5 32.5v115q0 21 11 32.5t30 11.5t30 -11.5t11 -32.5v-115q0 -21 -11.5 -32.5t-29.5 -11.5z"/>
<glyph glyph-name="numbersign" horiz-adv-x="537" unicode="#" d="M189 288h117l16 116h-117zM74 46l23 164h-42q-19 0 -30 10.5t-11 28.5t11 28.5t30 10.5h52l16 116h-42q-19 0 -30 10.5t-11 28.5t11 28.5t30 10.5h53l22 163q6 40 42 40q19 0 29.5 -11t10.5 -30q0 -2 -0.5 -5t-0.5 -5l-21 -152h117l22 163q6 40 42 40q19 0 29.5 -11 t10.5 -30q0 -2 -0.5 -5t-0.5 -5l-21 -152h44q19 0 30 -10.5t11 -28.5t-11 -28.5t-30 -10.5h-55l-15 -116h44q19 0 30 -10.5t11 -28.5t-11 -28.5t-30 -10.5h-55l-24 -175q-6 -40 -42 -40q-19 0 -29.5 11t-10.5 30q0 2 0.5 5t0.5 5l22 164h-116l-24 -175q-6 -40 -42 -40 q-19 0 -29.5 11t-10.5 30q0 2 0.5 5t0.5 5z"/>
<glyph glyph-name="dollar" d="M309 93q75 18 75 103q0 66 -75 88v-191zM250 405v183q-34 -7 -54 -32t-20 -61q0 -69 74 -90zM81 40q-25 15 -25 44q0 22 14 36.5t37 14.5q14 0 32 -9q60 -32 111 -36v205q-86 14 -134.5 65t-48.5 127q0 83 51 138.5t132 63.5v37q0 33 29 33q30 0 30 -33v-36 q66 -6 122 -36q27 -16 27 -46q0 -20 -13.5 -34.5t-34.5 -14.5q-14 0 -26 6q-40 18 -75 23v-195q90 -15 137 -65t47 -128q0 -85 -49 -140.5t-135 -67.5v-41q0 -33 -30 -33q-29 0 -29 33v38q-92 4 -169 51z" unicode="$"/>
<glyph glyph-name="percent" horiz-adv-x="781" unicode="%" d="M545 92q9 -29 44 -29t44 29q5 15 5 78t-5 78q-9 29 -44 29t-44 -29q-5 -15 -5 -78t5 -78zM468 70q-9 27 -9 100t9 100q11 36 43.5 57.5t77.5 21.5t77.5 -21.5t43.5 -57.5q9 -27 9 -100t-9 -100q-11 -36 -43.5 -57.5t-77.5 -21.5t-77.5 21.5t-43.5 57.5zM192 402 q35 0 44 29q5 15 5 78t-5 78q-9 29 -44 29t-44 -29q-5 -15 -5 -78t5 -78q9 -29 44 -29zM192 330q-45 0 -77.5 21.5t-43.5 57.5q-9 27 -9 100t9 100q11 36 43.5 57.5t77.5 21.5t77.5 -21.5t43.5 -57.5q9 -27 9 -100t-9 -100q-11 -36 -43.5 -57.5t-77.5 -21.5zM170 20 q0 12 6 23l364 630q13 22 36 22q16 0 26 -10t10 -26q0 -11 -7 -23l-364 -629q-12 -23 -35 -23q-16 0 -26 10t-10 26z"/>
<glyph glyph-name="ampersand" horiz-adv-x="646" unicode="&amp;" d="M168 177q0 -41 25 -66t68 -25q53 0 112 62l-121 155q-84 -65 -84 -126zM275 440q45 35 60 55.5t15 43.5q0 25 -18 42.5t-45 17.5q-28 0 -46.5 -17.5t-18.5 -43.5q0 -18 9.5 -36t43.5 -62zM64 171q0 56 29.5 104.5t99.5 103.5q-44 56 -60 88t-16 68q0 68 49 112t120 44 q73 0 119.5 -45t46.5 -108q0 -46 -26 -84.5t-92 -89.5l106 -136l47 56q17 20 38 20q19 0 32.5 -13t13.5 -33q0 -18 -15 -36l-57 -69l24 -31q17 -22 35 -22q24 0 38 -14t14 -36t-16 -36t-44 -14h-4q-34 0 -54.5 11t-44.5 42l-17 21q-45 -45 -85.5 -65t-91.5 -20 q-91 0 -140 50t-49 132z"/>
<glyph glyph-name="quotesingle" horiz-adv-x="204" unicode="&apos;" d="M102 482q-18 0 -29.5 11.5t-11.5 32.5v115q0 21 11 32.5t30 11.5t30 -11.5t11 -32.5v-115q0 -21 -11.5 -32.5t-29.5 -11.5z"/>
<glyph glyph-name="parenleft" horiz-adv-x="300" unicode="(" d="M154 -57q-103 188 -103 385t103 385q18 31 45 31q19 0 31 -12.5t12 -30.5q0 -11 -6 -26q-78 -177 -78 -347t78 -347q6 -15 6 -26q0 -18 -12 -30.5t-31 -12.5q-27 0 -45 31z"/>
<glyph glyph-name="parenright" horiz-adv-x="300" unicode=")" d="M57 -19q78 177 78 347t-78 347q-6 15 -6 26q0 18 12 30.5t31 12.5q27 0 45 -31q103 -188 103 -385t-103 -385q-18 -31 -45 -31q-19 0 -31 12.5t-12 30.5q0 11 6 26z"/>
<glyph glyph-name="asterisk" horiz-adv-x="336" unicode="*" d="M168 388q-14 0 -22.5 9.5t-8.5 25.5l1 61l-52 -31q-10 -6 -21 -6q-12 0 -20.5 9t-8.5 22q0 20 18 29l53 29l-52 29q-19 10 -19 30q0 13 8.5 22t21.5 9q10 0 20 -6l52 -32l-1 62q0 16 8.5 25.5t22.5 9.5t23 -9.5t9 -25.5l-1 -61l51 31q10 6 20 6q13 0 21.5 -9t8.5 -22 q0 -20 -19 -30l-53 -29l54 -29q18 -9 18 -29q0 -13 -8.5 -22t-20.5 -9q-11 0 -21 6l-51 31l1 -61q0 -16 -9 -25.5t-23 -9.5z"/>
<glyph glyph-name="plus" d="M225 106v116q0 6 -6 6h-116q-24 0 -37.5 13.5t-13.5 34.5t13.5 34.5t37.5 13.5h116q6 0 6 6v116q0 25 13.5 39t35.5 14t36 -14t14 -39v-116q0 -6 6 -6h116q24 0 37.5 -13.5t13.5 -34.5t-13.5 -34.5t-37.5 -13.5h-116q-6 0 -6 -6v-116q0 -25 -14 -39t-36 -14t-35.5 14 t-13.5 39z" unicode="+"/>
<glyph glyph-name="comma" horiz-adv-x="242" unicode="," d="M51 -52l43 136q12 39 49 39q22 0 37 -14t15 -37q0 -10 -3 -19l-47 -136q-12 -39 -49 -39q-22 0 -35 13.5t-13 37.5q0 10 3 19z"/>
<glyph glyph-name="hyphen" horiz-adv-x="385" unicode="-" d="M91 216q-25 0 -39 13.5t-14 36.5q0 22 14.5 35.5t38.5 13.5h203q24 0 38.5 -13.5t14.5 -35.5q0 -23 -14 -36.5t-39 -13.5h-203z"/>
<glyph glyph-name="period" horiz-adv-x="248" unicode="." d="M53 61q0 29 21 50t50 21t50 -21t21 -50t-21 -50t-50 -21t-50 21t-21 50z"/>
<glyph glyph-name="slash" horiz-adv-x="425" unicode="/" d="M64 30q0 8 4 22l197 606q12 38 46 38q22 0 36 -12.5t14 -33.5q0 -8 -4 -22l-197 -606q-12 -38 -46 -38q-22 0 -36 12.5t-14 33.5z"/>
<glyph glyph-name="zero" d="M191 143q19 -54 83 -54t84 54q9 27 9 197t-9 197q-20 54 -84 54t-83 -54q-9 -27 -9 -197t9 -197zM81 122q-14 44 -14 218t14 218q42 133 193 133q150 0 194 -133q14 -44 14 -218t-14 -218q-44 -133 -194 -133q-151 0 -193 133z" unicode="0"/>
<glyph glyph-name="one" d="M247 54v493h-2l-75 -53q-14 -10 -34 -10q-19 0 -33 14.5t-14 34.5q0 27 30 49l109 77q37 26 70 26q28 0 44.5 -18t16.5 -48v-565q0 -27 -15.5 -43t-40.5 -16t-40.5 16t-15.5 43z" unicode="1"/>
<glyph glyph-name="two" d="M63 49q0 29 34 70l222 275q45 56 45 106q0 41 -24.5 66t-66.5 25q-70 0 -95 -66q-15 -40 -52 -40q-24 0 -38.5 13.5t-14.5 36.5q0 4 2 16q12 57 65.5 98.5t135.5 41.5q92 0 146 -53t54 -136t-68 -166l-195 -234v-2h216q24 0 38 -14t14 -36t-14 -36t-38 -14h-313 q-24 0 -38.5 13.5t-14.5 35.5z" unicode="2"/>
<glyph glyph-name="three" d="M76 100q-5 15 -5 27q0 22 14 36t37 14q32 0 52 -36q29 -52 96 -52q47 0 74.5 28t27.5 75q0 49 -30.5 78.5t-77.5 29.5h-10q-22 0 -36 14t-14 36t14 36t36 14h10q41 0 67 27t26 72q0 43 -24.5 67.5t-67.5 24.5q-64 0 -87 -51q-17 -35 -50 -35q-22 0 -36.5 14t-14.5 36 q0 13 6 27q20 48 68 78.5t118 30.5q93 0 147 -51.5t54 -133.5q0 -95 -76 -144v-2q36 -17 63 -60.5t27 -106.5q0 -90 -60 -147t-153 -57q-73 0 -124 30t-71 81z" unicode="3"/>
<glyph glyph-name="four" d="M98 110q-28 0 -44 15.5t-16 41.5q0 21 19 63l197 419q16 36 52 36q23 0 37.5 -14t14.5 -38q0 -15 -9 -34l-183 -387v-2h153q6 0 6 6v122q0 27 15 42.5t39 15.5q25 0 41.5 -16t16.5 -42v-122q0 -6 6 -6h22q24 0 38 -14t14 -36t-14 -36t-38 -14h-22q-6 0 -6 -6v-50 q0 -27 -15.5 -43t-40.5 -16t-40.5 16t-15.5 43v50q0 6 -6 6h-221z" unicode="4"/>
<glyph glyph-name="five" d="M86 100q-4 9 -4 21q0 22 14 35.5t36 13.5q31 0 50 -30q32 -51 93 -51q69 0 87 55q10 30 10 76q0 44 -10 74q-20 57 -84 57q-50 0 -78 -38q-25 -32 -58 -32q-25 0 -39.5 15.5t-14.5 42.5v292q0 49 49 49h286q24 0 38 -14t14 -36t-14 -36t-38 -14h-226q-6 0 -6 -6v-157h2 q37 34 107 34q132 0 170 -112q14 -44 14 -119q0 -65 -14 -107q-19 -59 -71.5 -91.5t-122.5 -32.5q-73 0 -123 31.5t-67 79.5z" unicode="5"/>
<glyph glyph-name="six" d="M171 197q0 -48 28 -78t76 -30t76 30t28 78t-28 78t-76 30t-76 -30t-28 -78zM58 199q0 73 45 156l165 299q16 31 50 31q22 0 37 -13.5t15 -36.5q0 -17 -8 -32l-117 -205l2 -2q18 9 51 9q82 0 138 -55t56 -146q0 -101 -61.5 -158t-155.5 -57t-155.5 56t-61.5 154z" unicode="6"/>
<glyph glyph-name="seven" d="M157 48q0 13 4 24l202 505v3h-171q-6 0 -6 -6v-36q0 -26 -14.5 -41.5t-38.5 -15.5t-38.5 15.5t-14.5 41.5v89q0 25 14.5 39t39.5 14h291q30 0 46 -16t16 -43q0 -24 -19 -72l-206 -518q-14 -36 -52 -36q-24 0 -38.5 15t-14.5 38z" unicode="7"/>
<glyph glyph-name="eight" d="M168 198q0 -48 29 -78.5t77 -30.5t77.5 30.5t29.5 78.5t-29.5 78.5t-77.5 30.5t-77 -30.5t-29 -78.5zM274 407q41 0 66.5 27t25.5 65q0 39 -25.5 65.5t-66.5 26.5q-40 0 -65.5 -26.5t-25.5 -65.5q0 -38 25.5 -65t65.5 -27zM55 193q0 55 24 97.5t61 65.5v2 q-29 19 -49.5 56t-20.5 83q0 81 55 137.5t149 56.5q95 0 150 -56.5t55 -137.5q0 -46 -20.5 -83t-49.5 -56v-2q37 -23 61 -65.5t24 -97.5q0 -91 -61.5 -147.5t-158.5 -56.5q-96 0 -157.5 57t-61.5 147z" unicode="8"/>
<glyph glyph-name="nine" d="M274 375q48 0 76 30t28 78t-28 78t-76 30t-76 -30t-28 -78t28 -78t76 -30zM179 45q0 17 8 32l117 205l-2 2q-18 -9 -51 -9q-82 0 -138 55t-56 146q0 101 61.5 158t155.5 57t155.5 -56t61.5 -154q0 -73 -45 -156l-165 -299q-16 -31 -50 -31q-22 0 -37 13.5t-15 36.5z" unicode="9"/>
<glyph glyph-name="colon" horiz-adv-x="258" unicode=":" d="M58 61q0 29 21 50t50 21t50 -21t21 -50t-21 -50t-50 -21t-50 21t-21 50zM129 345q-29 0 -50 21t-21 50t21 50t50 21t50 -21t21 -50t-21 -50t-50 -21z"/>
<glyph glyph-name="semicolon" horiz-adv-x="258" unicode=";" d="M129 345q-29 0 -50 21t-21 50t21 50t50 21t50 -21t21 -50t-21 -50t-50 -21zM35 -52l43 136q12 39 49 39q22 0 37 -14t15 -37q0 -10 -3 -19l-47 -136q-12 -39 -49 -39q-22 0 -35 13.5t-13 37.5q0 10 3 19z"/>
<glyph glyph-name="less" d="M104 215q-52 22 -52 61t52 61l320 134q12 5 25 5q21 0 34.5 -12.5t13.5 -33.5q0 -32 -36 -48l-259 -105v-2l259 -105q36 -14 36 -48q0 -21 -13.5 -33.5t-34.5 -12.5q-13 0 -25 5z" unicode="&lt;"/>
<glyph glyph-name="equal" d="M103 127q-24 0 -37.5 13.5t-13.5 34.5t13.5 34.5t37.5 13.5h343q24 0 37.5 -13.5t13.5 -34.5t-13.5 -34.5t-37.5 -13.5h-343zM103 329q-24 0 -37.5 13.5t-13.5 34.5t13.5 34.5t37.5 13.5h343q24 0 37.5 -13.5t13.5 -34.5t-13.5 -34.5t-37.5 -13.5h-343z" unicode="="/>
<glyph glyph-name="greater" d="M100 76q-21 0 -34.5 12.5t-13.5 33.5q0 34 36 48l259 105v2l-259 105q-36 16 -36 48q0 21 13.5 33.5t34.5 12.5q13 0 25 -5l320 -134q52 -22 52 -61t-52 -61l-320 -134q-12 -5 -25 -5z" unicode="&gt;"/>
<glyph glyph-name="question" horiz-adv-x="464" unicode="?" d="M157 60q0 28 20.5 48.5t48.5 20.5t48.5 -20.5t20.5 -48.5t-20.5 -48.5t-48.5 -20.5t-48.5 20.5t-20.5 48.5zM224 186q-24 0 -39.5 14.5t-15.5 40.5v7q0 60 40 106l55 66q42 50 42 95q0 32 -21 54t-56 22q-64 0 -86 -62q-16 -39 -52 -39q-23 0 -37.5 13.5t-14.5 35.5 q0 14 4 26q18 57 67 91.5t122 34.5q84 0 136 -49.5t52 -125.5q0 -73 -55 -138l-60 -71q-26 -31 -26 -60v-6q0 -25 -16 -40t-39 -15z"/>
<glyph glyph-name="at" horiz-adv-x="902" unicode="@" d="M370 194q18 -56 77 -56q60 0 78 56q8 26 8 70t-8 70q-18 56 -78 56q-59 0 -77 -56q-8 -26 -8 -70t8 -70zM54 268q0 173 110.5 282.5t286.5 109.5q175 0 285 -109.5t110 -282.5q0 -104 -46 -159t-118 -55q-86 0 -122 64h-1q-33 -63 -133 -63q-110 0 -142 97 q-14 42 -14 112q0 68 14 112q31 97 135 97q79 0 112 -53h2v9q2 16 14 27t32 11t32 -12.5t12 -34.5v-210q0 -74 58 -74q73 0 73 131q0 141 -82 226t-221 85q-141 0 -223 -85t-82 -225t82.5 -225t223.5 -85q109 0 190 36q14 4 20 4q16 0 27 -10.5t11 -27.5q0 -25 -26 -37 q-91 -47 -222 -47q-177 0 -287.5 109t-110.5 283z"/>
<glyph glyph-name="A" horiz-adv-x="617" unicode="A" d="M215 247h187l-92 265h-3zM29 50q0 10 4 22l198 546q24 67 78 67q55 0 79 -67l196 -546q4 -12 4 -22q0 -25 -17 -40t-40 -15q-42 0 -56 41l-37 106h-260l-36 -106q-14 -41 -56 -41q-23 0 -40 15t-17 40z"/>
<glyph glyph-name="B" horiz-adv-x="607" unicode="B" d="M193 110q0 -6 6 -6h142q49 0 76 26t27 69t-27 68.5t-76 25.5h-142q-6 0 -6 -6v-177zM199 397h136q45 0 71 24.5t26 64.5q0 41 -26 65.5t-71 24.5h-136q-6 0 -6 -6v-167q0 -6 6 -6zM75 52v575q0 24 14 38.5t39 14.5h210q104 0 158 -48.5t54 -131.5q0 -104 -79 -145v-2 q39 -16 65 -57.5t26 -99.5q0 -95 -60 -145.5t-168 -50.5h-206q-25 0 -39 14t-14 38z"/>
<glyph glyph-name="C" horiz-adv-x="567" unicode="C" d="M74 153q-19 64 -19 187t19 187q26 80 87 122t149 42q70 0 124.5 -30t80.5 -81q10 -18 10 -35q0 -23 -15.5 -38t-38.5 -15q-30 0 -52 32q-40 61 -109 61q-93 0 -122 -89q-13 -42 -13 -156t13 -156q29 -89 122 -89q69 0 109 61q22 32 52 32q23 0 38.5 -15t15.5 -39 q0 -16 -10 -34q-26 -51 -80.5 -81t-124.5 -30q-88 0 -149 42t-87 122z"/>
<glyph glyph-name="D" horiz-adv-x="625" unicode="D" d="M193 112q0 -6 6 -6h90q120 0 150 91q13 45 13 143q0 97 -13 143q-30 91 -150 91h-90q-6 0 -6 -6v-456zM75 52v575q0 24 14 38.5t39 14.5h167q206 0 257 -156q20 -65 20 -184t-20 -184q-51 -156 -257 -156h-167q-25 0 -39 14t-14 38z"/>
<glyph glyph-name="E" horiz-adv-x="570" unicode="E" d="M75 53v574q0 24 14 38.5t39 14.5h339q27 0 43.5 -14.5t16.5 -38.5t-16.5 -38.5t-43.5 -14.5h-268q-6 0 -6 -6v-166q0 -6 6 -6h218q27 0 43.5 -14.5t16.5 -38.5t-16.5 -38.5t-43.5 -14.5h-218q-6 0 -6 -6v-172q0 -6 6 -6h268q27 0 43.5 -14.5t16.5 -38.5t-16.5 -38.5 t-43.5 -14.5h-339q-25 0 -39 14.5t-14 38.5z"/>
<glyph glyph-name="F" horiz-adv-x="561" unicode="F" d="M75 57v570q0 24 14 38.5t39 14.5h339q27 0 43.5 -14.5t16.5 -38.5t-16.5 -38.5t-43.5 -14.5h-268q-6 0 -6 -6v-173q0 -6 6 -6h218q27 0 43.5 -14.5t16.5 -38.5t-16.5 -38.5t-43.5 -14.5h-218q-6 0 -6 -6v-220q0 -28 -16.5 -45t-42.5 -17t-42.5 17t-16.5 45z"/>
<glyph glyph-name="G" horiz-adv-x="627" unicode="G" d="M74 152q-19 62 -19 188t19 188q26 80 88.5 121.5t152.5 41.5q77 0 134 -29.5t83 -79.5q10 -18 10 -35q0 -23 -15.5 -38t-38.5 -15q-30 0 -52 30q-41 61 -121 61q-98 0 -127 -90q-13 -42 -13 -155t13 -155q29 -90 128 -90q47 0 81 22.5t47 63.5q11 33 11 87q0 6 -6 6h-78 q-24 0 -38 14t-14 36t14 36t38 14h153q22 0 35 -13t13 -35v-19q0 -97 -18 -151q-26 -81 -88 -124t-151 -43q-90 0 -152.5 41.5t-88.5 121.5z"/>
<glyph glyph-name="H" horiz-adv-x="657" unicode="H" d="M75 57v566q0 28 16.5 45t42.5 17t42.5 -17t16.5 -45v-221q0 -6 6 -6h259q6 0 6 6v221q0 28 16.5 45t42.5 17t42.5 -17t16.5 -45v-566q0 -28 -16.5 -45t-42.5 -17t-42.5 17t-16.5 45v227q0 6 -6 6h-259q-6 0 -6 -6v-227q0 -28 -16.5 -45t-42.5 -17t-42.5 17t-16.5 45z"/>
<glyph glyph-name="I" horiz-adv-x="268" unicode="I" d="M75 57v566q0 28 16.5 45t42.5 17t42.5 -17t16.5 -45v-566q0 -28 -16.5 -45t-42.5 -17t-42.5 17t-16.5 45z"/>
<glyph glyph-name="J" horiz-adv-x="505" unicode="J" d="M54 42q-17 17 -17 43q0 21 15 35.5t37 14.5q20 0 44 -17q33 -23 75 -23q108 0 108 129v399q0 28 16.5 45t42.5 17t42.5 -17t16.5 -45v-392q0 -115 -62 -178.5t-168 -63.5q-44 0 -86 15.5t-64 37.5z"/>
<glyph glyph-name="K" horiz-adv-x="606" unicode="K" d="M75 57v566q0 28 16.5 45t42.5 17t42.5 -17t16.5 -45v-276l257 313q20 25 48 25q22 0 37.5 -14.5t15.5 -36.5t-14 -39l-159 -186l190 -321q11 -19 11 -37q0 -24 -16 -40t-41 -16q-35 0 -56 35l-166 288l-107 -131v-130q0 -28 -16.5 -45t-42.5 -17t-42.5 17t-16.5 45z"/>
<glyph glyph-name="L" horiz-adv-x="545" unicode="L" d="M75 59v564q0 28 16.5 45t42.5 17t42.5 -17t16.5 -45v-511q0 -6 6 -6h268q27 0 43.5 -14.5t16.5 -38.5t-16.5 -38.5t-43.5 -14.5h-333q-27 0 -43 16t-16 43z"/>
<glyph glyph-name="M" horiz-adv-x="756" unicode="M" d="M75 53v561q0 33 18 52t48 19q25 0 40 -14t30 -47l168 -377h4l164 377q14 33 29 47t40 14q30 0 47.5 -19t17.5 -52v-561q0 -27 -15 -42.5t-39 -15.5q-25 0 -40 15.5t-15 42.5v373h-5l-124 -282q-13 -30 -27.5 -41.5t-36.5 -11.5t-37 11.5t-28 41.5l-125 282h-5v-373 q0 -27 -15 -42.5t-39 -15.5q-25 0 -40 15.5t-15 42.5z"/>
<glyph glyph-name="N" horiz-adv-x="657" unicode="N" d="M75 53v561q0 33 18 52t49 19q44 0 78 -58l250 -424h3v424q0 27 15 42.5t40 15.5q24 0 39 -15.5t15 -42.5v-561q0 -33 -18 -52t-48 -19q-45 0 -79 58l-249 424h-4v-424q0 -27 -15 -42.5t-39 -15.5q-25 0 -40 15.5t-15 42.5z"/>
<glyph glyph-name="O" horiz-adv-x="627" unicode="O" d="M452 340q0 115 -14 156q-29 89 -125 89q-95 0 -124 -89q-14 -41 -14 -156t14 -156q29 -89 124 -89q96 0 125 89q14 41 14 156zM55 340q0 127 20 188q26 80 87.5 121.5t150.5 41.5t151 -41.5t88 -121.5q20 -61 20 -188t-20 -188q-26 -80 -88 -121.5t-151 -41.5 t-150.5 41.5t-87.5 121.5q-20 61 -20 188z"/>
<glyph glyph-name="P" horiz-adv-x="598" unicode="P" d="M333 364q52 0 82.5 28.5t30.5 76.5q0 47 -30.5 76t-82.5 29h-134q-6 0 -6 -6v-198q0 -6 6 -6h134zM134 -5q-26 0 -42.5 17t-16.5 45v570q0 24 14 38.5t38 14.5h213q99 0 161.5 -58.5t62.5 -152.5q0 -95 -62.5 -153.5t-161.5 -58.5h-141q-6 0 -6 -6v-194q0 -28 -16.5 -45 t-42.5 -17z"/>
<glyph glyph-name="Q" horiz-adv-x="627" unicode="Q" d="M453 340q0 116 -14 157q-29 89 -126 89q-96 0 -125 -89q-14 -41 -14 -157t14 -157q29 -89 125 -89q37 0 63 13l-44 42q-18 18 -18 41q0 22 16 38t38 16q23 0 42 -19l32 -32q11 38 11 147zM502 -15l-44 42q-59 -38 -145 -38q-89 0 -150.5 41.5t-87.5 121.5q-20 61 -20 188 t20 188q26 80 87.5 121.5t150.5 41.5t151 -41.5t88 -121.5q20 -61 20 -188t-20 -188q-10 -29 -20 -46l48 -45q18 -18 18 -41q0 -22 -16 -38t-38 -16q-23 0 -42 19z"/>
<glyph glyph-name="R" horiz-adv-x="619" unicode="R" d="M344 381q47 0 75.5 26.5t28.5 69.5q0 44 -28.5 70.5t-75.5 26.5h-145q-6 0 -6 -6v-181q0 -6 6 -6h145zM507 -5q-39 0 -58 37l-123 243h-127q-6 0 -6 -6v-212q0 -28 -16.5 -45t-42.5 -17t-42.5 17t-16.5 45v570q0 24 14 38.5t39 14.5h220q94 0 155.5 -57t61.5 -146 q0 -63 -32.5 -111t-88.5 -72l111 -207q9 -17 9 -36q0 -24 -15.5 -40t-41.5 -16z"/>
<glyph glyph-name="S" horiz-adv-x="587" unicode="S" d="M287 -11q-118 0 -212 61q-30 19 -30 51q0 22 15 38t38 16q19 0 38 -11q82 -49 157 -49q62 0 97 26.5t35 71.5q0 39 -27.5 62t-95.5 32l-35 5q-206 27 -206 195q0 92 62.5 148t166.5 56q114 0 185 -46q30 -17 30 -48q0 -23 -14.5 -37.5t-37.5 -14.5q-17 0 -37 9 q-64 31 -127 31q-52 0 -80 -25t-28 -66q0 -38 29 -60t95 -32l34 -5q206 -28 206 -199q0 -94 -67 -151.5t-191 -57.5z"/>
<glyph glyph-name="T" horiz-adv-x="550" unicode="T" d="M210 574h-135q-27 0 -43.5 14.5t-16.5 38.5t16.5 38.5t43.5 14.5h400q27 0 43.5 -14.5t16.5 -38.5t-16.5 -38.5t-43.5 -14.5h-135q-6 0 -6 -6v-511q0 -28 -16.5 -45t-42.5 -17t-42.5 17t-16.5 45v511q0 6 -6 6z"/>
<glyph glyph-name="U" horiz-adv-x="643" unicode="U" d="M321 -11q-110 0 -180 67t-70 183v384q0 28 16.5 45t42.5 17t42.5 -17t16.5 -45v-382q0 -69 36.5 -107.5t95.5 -38.5q60 0 96.5 38.5t36.5 107.5v382q0 28 16.5 45t42.5 17t42.5 -17t16.5 -45v-384q0 -116 -70 -183t-181 -67z"/>
<glyph glyph-name="V" horiz-adv-x="565" unicode="V" d="M283 -5q-50 0 -73 68l-185 542q-4 11 -4 25q0 23 16 39t41 16q42 0 57 -45l149 -454h3l143 454q15 45 57 45q25 0 41 -15.5t16 -39.5q0 -9 -4 -25l-185 -542q-23 -68 -72 -68z"/>
<glyph glyph-name="W" horiz-adv-x="828" unicode="W" d="M806 606l-148 -549q-9 -33 -24 -47.5t-39 -14.5q-46 0 -63 62l-117 418h-2l-117 -418q-17 -62 -63 -62q-24 0 -38.5 14t-24.5 48l-148 549q-3 12 -3 23q0 25 15.5 40.5t41.5 15.5q44 0 58 -53l104 -421h2l116 421q15 53 58 53t58 -53l119 -421h2l102 421q13 53 57 53 q26 0 41.5 -15.5t15.5 -40.5q0 -11 -3 -23z"/>
<glyph glyph-name="X" horiz-adv-x="574" unicode="X" d="M484 -5q-30 0 -49 28l-147 228h-2l-147 -228q-19 -28 -49 -28q-25 0 -40.5 15t-15.5 38q0 20 11 36l174 268l-158 244q-12 18 -12 36q0 23 15.5 38t40.5 15q30 0 49 -28l132 -205h2l132 205q18 28 49 28q24 0 40 -15t16 -38q0 -18 -12 -36l-158 -244l174 -268 q11 -18 11 -36q0 -23 -15.5 -38t-40.5 -15z"/>
<glyph glyph-name="Y" horiz-adv-x="536" unicode="Y" d="M268 -5q-26 0 -42.5 17t-16.5 45v221l-180 322q-9 16 -9 32q0 23 16 38t40 15q33 0 52 -34l140 -256h3l139 256q18 34 52 34q24 0 39 -15t15 -38q0 -16 -9 -32l-180 -322v-221q0 -28 -16.5 -45t-42.5 -17z"/>
<glyph glyph-name="Z" horiz-adv-x="538" unicode="Z" d="M443 0h-345q-29 0 -45.5 16t-16.5 40q0 32 36 86l283 430v2h-250q-26 0 -41.5 14.5t-15.5 38.5t15.5 38.5t41.5 14.5h333q29 0 45.5 -16t16.5 -40q0 -32 -34 -82l-285 -434v-2h262q26 0 41.5 -14.5t15.5 -38.5t-15.5 -38.5t-41.5 -14.5z"/>
<glyph glyph-name="bracketleft" horiz-adv-x="282" unicode="[" d="M210 654h-39q-6 0 -6 -6v-640q0 -6 6 -6h39q22 0 34.5 -11.5t12.5 -31.5t-12.5 -31.5t-34.5 -11.5h-104q-20 0 -32 11.5t-12 31.5v738q0 20 12 31.5t32 11.5h104q22 0 34.5 -11.5t12.5 -31.5t-12.5 -31.5t-34.5 -11.5z"/>
<glyph glyph-name="backslash" horiz-adv-x="425" unicode="\" d="M265 22l-197 606q-4 14 -4 22q0 21 14 33.5t36 12.5q34 0 46 -38l197 -606q4 -14 4 -22q0 -21 -14 -33.5t-36 -12.5q-34 0 -46 38z"/>
<glyph glyph-name="bracketright" horiz-adv-x="282" unicode="]" d="M111 654h-39q-22 0 -34.5 11.5t-12.5 31.5t12.5 31.5t34.5 11.5h104q20 0 32 -11.5t12 -31.5v-738q0 -20 -12 -31.5t-32 -11.5h-104q-22 0 -34.5 11.5t-12.5 31.5t12.5 31.5t34.5 11.5h39q6 0 6 6v640q0 6 -6 6z"/>
<glyph glyph-name="asciicircum" d="M430 258q-34 0 -48 36l-106 249h-2l-106 -249q-14 -36 -48 -36q-21 0 -34.5 12t-13.5 33q0 12 6 27l139 311q19 44 58 44t58 -44l139 -311q6 -15 6 -27q0 -21 -13.5 -33t-34.5 -12z" unicode="^"/>
<glyph glyph-name="underscore" horiz-adv-x="500" unicode="_" d="M500 -142h-500v72h500v-72z"/>
<glyph glyph-name="grave" horiz-adv-x="444" unicode="`" d="M248 545q-23 0 -37 20l-51 73q-11 17 -11 32q0 18 13 29.5t31 11.5q24 0 38 -20l49 -74q11 -16 11 -32q0 -18 -12 -29t-31 -11z"/>
<glyph glyph-name="a" horiz-adv-x="523" unicode="a" d="M242 80q50 0 78 19.5t28 56.5v43q0 6 -6 6h-80q-55 0 -79.5 -16t-24.5 -49q0 -60 84 -60zM479 80q9 -16 9 -33q0 -22 -16 -37t-40 -15q-31 0 -47 23l-16 24h-1q-45 -53 -142 -53q-85 0 -130 38t-45 108q0 76 50.5 115t141.5 39h99q6 0 6 6v12q0 89 -108 89q-46 0 -88 -20 q-15 -6 -29 -6q-20 0 -33 12.5t-13 33.5q0 30 28 44q57 33 147 33q101 0 151.5 -48t50.5 -139v-152q0 -29 10 -48z"/>
<glyph glyph-name="b" horiz-adv-x="545" unicode="b" d="M285 393q-69 0 -90 -64q-10 -30 -10 -88t10 -88q21 -64 90 -64q68 0 89 64q10 30 10 88t-10 88q-21 64 -89 64zM129 685q25 0 40.5 -16t15.5 -43v-190h1q39 57 130 57q60 0 103 -32.5t62 -89.5q17 -52 17 -130t-17 -130q-19 -57 -62 -89.5t-103 -32.5q-90 0 -130 57h-1 q-8 -51 -56 -51q-25 0 -40.5 16t-15.5 43v572q0 27 15.5 43t40.5 16z"/>
<glyph glyph-name="c" horiz-adv-x="476" unicode="c" d="M260 -11q-73 0 -125 34.5t-73 98.5q-15 45 -15 119t15 119q21 64 73 98.5t125 34.5q98 0 152 -61q20 -21 20 -44q0 -21 -14 -35t-35 -14q-22 0 -46 24q-27 30 -76 30q-69 0 -90 -63q-10 -30 -10 -89t10 -89q21 -63 90 -63q49 0 76 30q24 24 46 24q21 0 35 -14t14 -35 q0 -23 -20 -44q-54 -61 -152 -61z"/>
<glyph glyph-name="d" horiz-adv-x="545" unicode="d" d="M260 393q-68 0 -89 -64q-10 -30 -10 -88t10 -88q21 -64 89 -64q69 0 90 64q10 30 10 88t-10 88q-21 64 -90 64zM416 685q25 0 40.5 -16t15.5 -43v-572q0 -27 -15.5 -43t-40.5 -16q-48 0 -56 51h-1q-40 -57 -130 -57q-60 0 -103 32.5t-62 89.5q-17 52 -17 130t17 130 q19 57 62 89.5t103 32.5q91 0 130 -57h1v190q0 27 15.5 43t40.5 16z"/>
<glyph glyph-name="e" horiz-adv-x="521" unicode="e" d="M361 295q0 23 -6 41q-10 29 -35 45.5t-59 16.5q-74 0 -95 -62q-6 -18 -6 -41q0 -6 6 -6h189q6 0 6 6zM266 -11q-77 0 -129.5 35t-72.5 99q-17 53 -17 118q0 69 16 119q20 63 72.5 98t124.5 35q74 0 126 -35.5t72 -97.5q16 -51 16 -116q0 -18 -10.5 -28.5t-28.5 -10.5 h-269q-6 0 -6 -6q0 -18 7 -37q25 -73 109 -73q50 0 99 33q23 16 41 16q21 0 34 -13t13 -34q0 -26 -23 -44q-71 -58 -174 -58z"/>
<glyph glyph-name="f" horiz-adv-x="329" unicode="f" d="M248 680h4q26 0 41.5 -13.5t15.5 -36.5q0 -22 -14.5 -36t-36.5 -14q-34 0 -46 -12t-12 -46v-34q0 -6 6 -6h55q21 0 33.5 -12t12.5 -32t-12.5 -31.5t-33.5 -11.5h-55q-6 0 -6 -6v-335q0 -27 -15.5 -43t-40.5 -16t-40.5 16t-15.5 43v335q0 6 -7 6h-16q-21 0 -33.5 11.5 t-12.5 31.5t12.5 32t33.5 12h16q7 0 7 6v32q0 86 38 123t122 37z"/>
<glyph glyph-name="g" horiz-adv-x="536" unicode="g" d="M351 253q0 45 -11 76q-21 64 -85 64t-85 -64q-11 -31 -11 -76q0 -46 11 -77q21 -64 85 -64t85 64q11 31 11 77zM238 -191q-46 0 -90 16t-65 39q-15 16 -15 37q0 20 13.5 34.5t34.5 14.5t45 -16q38 -25 83 -25q107 0 107 116v44h-1q-36 -56 -128 -56q-122 0 -161 120 q-16 49 -16 119q0 72 16 121q19 58 60.5 89t100.5 31q91 0 130 -61h1v11q9 44 54 44q25 0 40.5 -16t15.5 -43v-389q0 -230 -225 -230z"/>
<glyph glyph-name="h" horiz-adv-x="548" unicode="h" d="M424 -5q-25 0 -40.5 16t-15.5 43v234q0 48 -23.5 76.5t-67.5 28.5q-43 0 -67.5 -29t-24.5 -76v-234q0 -27 -15.5 -43t-40.5 -16t-40.5 16t-15.5 43v572q0 27 15.5 43t40.5 16t40.5 -16t15.5 -43v-189h1q40 56 127 56q76 0 121.5 -50t45.5 -129v-260q0 -27 -15.5 -43 t-40.5 -16z"/>
<glyph glyph-name="i" horiz-adv-x="258" unicode="i" d="M129 -5q-25 0 -40.5 16t-15.5 43v374q0 27 15.5 43t40.5 16t40.5 -16t15.5 -43v-374q0 -27 -15.5 -43t-40.5 -16zM62 622q0 28 19.5 47.5t47.5 19.5t47.5 -19.5t19.5 -47.5t-19.5 -47.5t-47.5 -19.5t-47.5 19.5t-19.5 47.5z"/>
<glyph glyph-name="j" horiz-adv-x="258" unicode="j" d="M32 -180q-25 0 -38.5 13t-13.5 35q0 44 46 51q27 5 37 17t10 43v449q0 27 15.5 43t40.5 16t40.5 -16t15.5 -43v-448q0 -84 -37 -122t-116 -38zM62 622q0 28 19.5 47.5t47.5 19.5t47.5 -19.5t19.5 -47.5t-19.5 -47.5t-47.5 -19.5t-47.5 19.5t-19.5 47.5z"/>
<glyph glyph-name="k" horiz-adv-x="520" unicode="k" d="M185 626v-346l174 187q20 20 42 20q19 0 33.5 -13t14.5 -33q0 -19 -18 -39l-101 -102l139 -221q10 -17 10 -30q0 -23 -15.5 -38.5t-38.5 -15.5q-34 0 -52 30l-120 200l-68 -73v-98q0 -27 -15.5 -43t-40.5 -16t-40.5 16t-15.5 43v572q0 27 15.5 43t40.5 16t40.5 -16 t15.5 -43z"/>
<glyph glyph-name="l" horiz-adv-x="291" unicode="l" d="M211 -6h-8q-71 0 -101.5 34.5t-30.5 106.5v491q0 27 15.5 43t40.5 16t40.5 -16t15.5 -43v-482q0 -25 9 -36t30 -14q47 -6 47 -49q0 -23 -14.5 -37t-43.5 -14z"/>
<glyph glyph-name="m" horiz-adv-x="843" unicode="m" d="M73 54v374q0 27 15.5 43t40.5 16q47 0 56 -50h1q39 56 127 56q87 0 132 -64h1q59 64 154 64q82 0 128.5 -50t46.5 -129v-260q0 -27 -15.5 -43t-40.5 -16t-40.5 16t-15.5 43v234q0 48 -23.5 76.5t-67.5 28.5q-43 0 -67.5 -29t-24.5 -76v-234q0 -27 -15.5 -43t-40.5 -16 t-40.5 16t-15.5 43v234q0 48 -23.5 76.5t-67.5 28.5q-43 0 -67.5 -29t-24.5 -76v-234q0 -27 -15.5 -43t-40.5 -16t-40.5 16t-15.5 43z"/>
<glyph glyph-name="n" horiz-adv-x="548" unicode="n" d="M185 437h1q40 56 127 56q76 0 121.5 -50t45.5 -129v-260q0 -27 -15.5 -43t-40.5 -16t-40.5 16t-15.5 43v234q0 48 -23.5 76.5t-67.5 28.5q-43 0 -67.5 -29t-24.5 -76v-234q0 -27 -15.5 -43t-40.5 -16t-40.5 16t-15.5 43v374q0 27 15.5 43t40.5 16q47 0 56 -50z"/>
<glyph glyph-name="o" horiz-adv-x="523" unicode="o" d="M262 89q68 0 90 63q10 31 10 89q0 57 -10 89q-22 63 -90 63q-69 0 -91 -63q-10 -32 -10 -89q0 -58 10 -89q22 -63 91 -63zM262 -11q-74 0 -126.5 35t-72.5 98q-16 49 -16 119t16 119q20 63 72.5 98t126.5 35q73 0 125.5 -35t72.5 -98q16 -49 16 -119t-16 -119 q-20 -63 -72.5 -98t-125.5 -35z"/>
<glyph glyph-name="p" horiz-adv-x="545" unicode="p" d="M285 89q68 0 89 64q10 30 10 88t-10 88q-21 64 -89 64q-69 0 -90 -64q-10 -30 -10 -88t10 -88q21 -64 90 -64zM129 -185q-25 0 -40.5 16t-15.5 43v554q0 27 15.5 43t40.5 16q48 0 56 -51h1q40 57 130 57q60 0 103 -32.5t62 -89.5q17 -52 17 -130t-17 -130 q-19 -57 -62 -89.5t-103 -32.5q-91 0 -130 57h-1v-172q0 -27 -15.5 -43t-40.5 -16z"/>
<glyph glyph-name="q" horiz-adv-x="545" unicode="q" d="M260 89q69 0 90 64q10 30 10 88t-10 88q-21 64 -90 64q-68 0 -89 -64q-10 -30 -10 -88t10 -88q21 -64 89 -64zM416 -185q-25 0 -40.5 16t-15.5 43v172h-1q-39 -57 -130 -57q-60 0 -103 32.5t-62 89.5q-17 52 -17 130t17 130q19 57 62 89.5t103 32.5q90 0 130 -57h1 q8 51 56 51q25 0 40.5 -16t15.5 -43v-554q0 -27 -15.5 -43t-40.5 -16z"/>
<glyph glyph-name="r" horiz-adv-x="420" unicode="r" d="M185 428v-2h1q17 29 49 48t73 19q33 0 61 -13q30 -16 30 -46q0 -25 -15 -41t-40 -16q-11 0 -26 5q-28 8 -45 8q-88 0 -88 -122v-214q0 -27 -15.5 -43t-40.5 -16t-40.5 16t-15.5 43v374q0 27 15.5 43t40.5 16t40.5 -16t15.5 -43z"/>
<glyph glyph-name="s" horiz-adv-x="498" unicode="s" d="M250 -11q-103 0 -176 49q-27 17 -27 45q0 21 14.5 36t36.5 15q16 0 35 -11q63 -39 123 -39q41 0 65 15t24 42q0 24 -17.5 36.5t-62.5 16.5l-52 5q-148 16 -148 142q0 70 49 111t138 41q79 0 146 -36q34 -19 34 -46q0 -21 -13 -35t-34 -14q-14 0 -35 11q-54 26 -104 26 q-36 0 -54.5 -14t-18.5 -36t17.5 -34.5t61.5 -16.5l52 -5q149 -15 149 -142q0 -74 -53.5 -118t-149.5 -44z"/>
<glyph glyph-name="t" horiz-adv-x="322" unicode="t" d="M73 395h-14q-21 0 -33.5 11.5t-12.5 31.5t12.5 32t33.5 12h14q7 0 7 6v88q0 27 16 43t41 16q24 0 39.5 -16t15.5 -43v-88q0 -6 6 -6h51q21 0 33.5 -12t12.5 -32t-12.5 -31.5t-33.5 -11.5h-51q-6 0 -6 -6v-240q0 -29 10.5 -40.5t41.5 -14.5q25 -2 38 -16t13 -34 q0 -22 -15.5 -36t-45.5 -14h-9q-78 0 -111.5 36t-33.5 116v243q0 6 -7 6z"/>
<glyph glyph-name="u" horiz-adv-x="544" unicode="u" d="M415 -5q-47 0 -56 50h-1q-40 -56 -126 -56q-76 0 -120.5 50t-44.5 129v260q0 27 15.5 43t40.5 16t40.5 -16t15.5 -43v-234q0 -48 22.5 -76.5t66.5 -28.5q43 0 67 28.5t24 76.5v234q0 27 15.5 43t40.5 16t40.5 -16t15.5 -43v-374q0 -27 -15.5 -43t-40.5 -16z"/>
<glyph glyph-name="v" horiz-adv-x="487" unicode="v" d="M243 -5q-27 0 -42.5 14.5t-31.5 53.5l-135 344q-5 13 -5 27q0 23 15.5 38t39.5 15q38 0 52 -40l109 -292h2l105 292q14 40 52 40q24 0 39 -15t15 -38q0 -14 -5 -27l-135 -344q-16 -39 -32 -53.5t-43 -14.5z"/>
<glyph glyph-name="w" horiz-adv-x="755" unicode="w" d="M527 -5q-49 0 -65 54l-84 269h-2l-83 -269q-17 -54 -64 -54t-65 54l-120 361q-4 11 -4 23q0 23 15.5 38.5t39.5 15.5q40 0 54 -47l85 -286h2l83 283q15 50 58 50q41 0 57 -50l90 -283h2l80 286q14 47 54 47q24 0 39.5 -15.5t15.5 -38.5q0 -9 -4 -23l-120 -361 q-17 -54 -64 -54z"/>
<glyph glyph-name="x" horiz-adv-x="497" unicode="x" d="M401 -5q-28 0 -47 25l-105 144h-1l-105 -144q-19 -25 -47 -25q-22 0 -36 14.5t-14 34.5q0 17 14 37l124 169l-110 151q-14 19 -14 37q0 20 14.5 34.5t35.5 14.5q28 0 47 -26l91 -125h1l91 125q19 26 47 26q21 0 35 -14.5t14 -34.5q0 -18 -14 -37l-109 -151l124 -169 q14 -20 14 -37q0 -20 -14.5 -34.5t-35.5 -14.5z"/>
<glyph glyph-name="y" horiz-adv-x="488" unicode="y" d="M116 -180h-7q-24 0 -38.5 14.5t-14.5 35.5t14.5 35t38.5 15q28 1 43.5 13t28.5 47l14 39l-159 389q-6 14 -6 26q0 23 16 38t40 15q37 0 52 -40l109 -289h2l103 289q14 40 52 40q23 0 38.5 -15t15.5 -38q0 -11 -5 -26l-177 -451q-31 -79 -65.5 -108t-94.5 -29z"/>
<glyph glyph-name="z" horiz-adv-x="471" unicode="z" d="M384 0h-298q-23 0 -37 13.5t-14 35.5q0 28 35 69l222 264v2h-192q-24 0 -37.5 14t-13.5 35t13.5 35t37.5 14h284q23 0 37 -13.5t14 -35.5q0 -29 -35 -70l-219 -263v-2h203q24 0 37.5 -14t13.5 -35t-13.5 -35t-37.5 -14z"/>
<glyph glyph-name="braceleft" horiz-adv-x="346" unicode="{" d="M274 -84h-26q-59 0 -89 31.5t-30 87.5v161q0 38 -10 56.5t-35 27.5q-37 13 -37 50t37 50q25 9 35 27.5t10 56.5v157q0 56 30 87.5t89 31.5h26q23 0 35 -12t12 -31q0 -40 -43 -44l-11 -1q-19 -2 -27 -12t-8 -33v-154q0 -55 -15.5 -82t-53.5 -40v-2q38 -13 53.5 -40 t15.5 -82v-158q0 -23 8 -33t27 -12l11 -1q43 -4 43 -44q0 -19 -12 -31t-35 -12z"/>
<glyph glyph-name="bar" horiz-adv-x="330" unicode="|" d="M165 -89q-21 0 -34 13.5t-13 37.5v732q0 24 13 37.5t34 13.5t34 -13.5t13 -37.5v-732q0 -24 -13 -37.5t-34 -13.5z"/>
<glyph glyph-name="braceright" horiz-adv-x="346" unicode="}" d="M98 -84h-26q-23 0 -35 12t-12 31q0 40 43 44l11 1q19 2 27 12t8 33v158q0 55 15.5 82t53.5 40v2q-38 13 -53.5 40t-15.5 82v154q0 23 -8 33t-27 12l-11 1q-43 4 -43 44q0 19 12 31t35 12h26q59 0 89 -31.5t30 -87.5v-157q0 -38 10 -56.5t35 -27.5q37 -13 37 -50t-37 -50 q-25 -9 -35 -27.5t-10 -56.5v-161q0 -56 -30 -87.5t-89 -31.5z"/>
<glyph glyph-name="asciitilde" d="M416 320q16 22 39 22q17 0 28.5 -10.5t11.5 -28.5q0 -16 -10 -32q-20 -32 -53 -51.5t-70 -19.5q-48 0 -105 35q-43 26 -69 26q-32 0 -55 -30q-16 -22 -39 -22q-17 0 -28.5 10.5t-11.5 28.5q0 16 10 32q20 32 53 51.5t70 19.5q48 0 105 -35q43 -26 69 -26q32 0 55 30z" unicode="~"/>
<glyph glyph-name="uni00A0" horiz-adv-x="239" unicode=" "/>
<glyph glyph-name="exclamdown" horiz-adv-x="306" unicode="¡" d="M222 418q0 -28 -20 -48.5t-49 -20.5t-49 20.5t-20 48.5t20 48.5t49 20.5t49 -20.5t20 -48.5zM153 288q25 0 40.5 -16t15.5 -44v-376q0 -27 -15.5 -43t-40.5 -16t-40.5 16t-15.5 43v376q0 28 15.5 44t40.5 16z"/>
<glyph glyph-name="cent" d="M205 152q15 -50 66 -61v299q-51 -10 -66 -60q-10 -30 -10 -89t10 -89zM298 -105q-27 0 -27 29v67q-137 12 -175 131q-15 45 -15 119t15 119q38 119 175 131v65q0 29 27 29t27 -29v-64q83 -8 129 -60q20 -21 20 -44q0 -21 -14 -35t-35 -14q-22 0 -46 24t-54 28v-301 q30 5 54 29t46 24q21 0 35 -14t14 -35q0 -23 -20 -44q-46 -52 -129 -60v-66q0 -29 -27 -29z" unicode="¢"/>
<glyph glyph-name="sterling" horiz-adv-x="548" unicode="£" d="M429 0h-299q-24 0 -38 13.5t-14 35.5q0 28 30 62q26 27 26 79v79q0 6 -6 6h-21q-20 0 -32 12t-12 30t12 30t32 12h21q6 0 6 6v138q0 89 47.5 138.5t129.5 49.5q59 0 99.5 -27t54.5 -69q4 -12 4 -24q0 -22 -14 -36t-36 -14q-33 0 -49 31q-18 39 -60 39q-64 0 -64 -75v-151 q0 -6 6 -6h91q20 0 32 -12t12 -30t-12 -30t-32 -12h-91q-6 0 -6 -6v-67q0 -69 -28 -100v-2h211q24 0 38 -14t14 -36t-14 -36t-38 -14z"/>
<glyph glyph-name="currency" d="M274 208q48 0 80 33t32 82t-32 82t-80 33t-79.5 -33t-31.5 -82t31.5 -82t79.5 -33zM274 120q-61 0 -108 29l-38 -38q-15 -16 -36 -16q-20 0 -33.5 13.5t-13.5 33.5t16 36l39 39q-28 47 -28 106q0 60 29 106l-40 41q-16 16 -16 36q0 19 13.5 33t33.5 14q21 0 36 -16 l39 -40q50 29 107 29t107 -29l40 40q16 16 36 16q21 0 34.5 -14t13.5 -33q0 -18 -16 -36l-41 -41q29 -46 29 -106q0 -58 -28 -106l40 -39q16 -18 16 -36q0 -20 -13.5 -33.5t-34.5 -13.5q-20 0 -36 16l-39 38q-47 -29 -108 -29z" unicode="¤"/>
<glyph glyph-name="yen" d="M486 607l-126 -259v-2h73q19 0 30.5 -11t11.5 -28t-11.5 -28t-30.5 -11h-96q-6 0 -6 -6v-41q0 -6 6 -6h96q19 0 30.5 -11t11.5 -28t-11.5 -28t-30.5 -11h-96q-6 0 -6 -6v-77q0 -27 -15.5 -43t-40.5 -16t-40.5 16t-15.5 43v77q0 6 -6 6h-96q-19 0 -30.5 11t-11.5 28 t11.5 28t30.5 11h96q6 0 6 6v41q0 6 -6 6h-96q-19 0 -30.5 11t-11.5 28t11.5 28t30.5 11h73v2l-126 259q-6 13 -6 27q0 21 15 36t39 15q34 0 51 -36l112 -255h3l111 255q17 36 51 36q23 0 37.5 -14.5t14.5 -36.5q0 -14 -6 -27z" unicode="¥"/>
<glyph glyph-name="brokenbar" horiz-adv-x="330" unicode="¦" d="M165 -89q-21 0 -34 13.5t-13 37.5v261q0 24 13 38t34 14q22 0 34.5 -13.5t12.5 -38.5v-261q0 -24 -12.5 -37.5t-34.5 -13.5zM165 383q-21 0 -34 13.5t-13 37.5v260q0 24 13 37.5t34 13.5q22 0 34.5 -13.5t12.5 -37.5v-260q0 -24 -12.5 -37.5t-34.5 -13.5z"/>
<glyph glyph-name="section" horiz-adv-x="579" unicode="§" d="M289 156q43 0 68 25t25 71t-25 71t-68 25t-67.5 -25t-24.5 -71t24.5 -71t67.5 -25zM285 -191q-72 0 -117 34t-55 83q-2 10 -2 16q0 22 13 34.5t36 12.5q33 0 47 -37q20 -53 78 -53q36 0 56 18t20 50q0 38 -25.5 60.5t-90.5 37.5q-152 35 -152 187q0 53 24.5 95t69.5 62v1 q-69 38 -69 124q0 66 48.5 111.5t125.5 45.5q67 0 112.5 -31.5t56.5 -81.5q2 -8 2 -16q0 -22 -13 -34.5t-36 -12.5q-32 0 -45 36q-17 50 -76 50q-33 0 -52 -18t-19 -49q0 -37 24.5 -58t86.5 -37q153 -38 153 -186q0 -54 -25.5 -97t-67.5 -61v-1q72 -39 72 -125 q0 -74 -49 -117t-131 -43z"/>
<glyph glyph-name="dieresis" horiz-adv-x="444" unicode="¨" d="M122 562q-25 0 -43 18t-18 43t17.5 43t43.5 18q25 0 42.5 -18t17.5 -43t-17.5 -43t-42.5 -18zM322 562q-25 0 -43 18t-18 43t17.5 43t43.5 18q25 0 42.5 -18t17.5 -43t-17.5 -43t-42.5 -18z"/>
<glyph glyph-name="copyright" horiz-adv-x="826" unicode="©" d="M421 143q-122 0 -159 108q-11 31 -11 89t11 89q37 108 159 108q83 0 121 -52q9 -13 9 -27q0 -15 -10.5 -26t-26.5 -11q-19 0 -34 14q-24 26 -57 26q-58 0 -76 -53q-7 -18 -7 -68t7 -68q18 -53 76 -53q33 0 57 26q15 14 34 14q16 0 26.5 -11t10.5 -26q0 -14 -9 -27 q-38 -52 -121 -52zM413 65q116 0 193.5 78.5t77.5 196.5t-77.5 196.5t-193.5 78.5t-193.5 -78.5t-77.5 -196.5t77.5 -196.5t193.5 -78.5zM413 -11q-149 0 -250 100.5t-101 250.5t101 250.5t250 100.5t250 -100.5t101 -250.5t-101 -250.5t-250 -100.5z"/>
<glyph glyph-name="ordfeminine" horiz-adv-x="347" unicode="ª" d="M159 452q59 0 59 39v14q0 6 -6 6h-46q-54 0 -54 -31q0 -28 47 -28zM317 452q8 -13 8 -25q0 -17 -11 -28t-30 -11q-24 0 -37 21l-6 9h-1q-31 -31 -89 -31t-88.5 23t-30.5 66q0 92 127 92h53q6 0 6 6v6q0 39 -59 39q-31 0 -62 -13q-9 -4 -17 -4q-15 0 -24 9.5t-9 24.5 q0 21 19 31q34 21 100 21q135 0 135 -113v-73q0 -22 7 -35z"/>
<glyph glyph-name="guillemotleft" horiz-adv-x="550" unicode="«" d="M226 74q-19 0 -34 15l-136 137q-20 20 -20 38t20 38l136 137q15 15 34 15q18 0 29.5 -11.5t11.5 -29.5q0 -19 -16 -35l-108 -109q-5 -5 0 -10l108 -109q16 -16 16 -35q0 -18 -11.5 -29.5t-29.5 -11.5zM453 74q-19 0 -34 15l-136 137q-20 20 -20 38t20 38l136 137 q15 15 34 15q18 0 29.5 -11.5t11.5 -29.5q0 -19 -16 -35l-108 -109q-5 -5 0 -10l108 -109q16 -16 16 -35q0 -18 -11.5 -29.5t-29.5 -11.5z"/>
<glyph glyph-name="logicalnot" d="M103 324h342q22 0 35 -13t13 -35v-134q0 -24 -14 -38.5t-36 -14.5q-21 0 -35 14.5t-14 38.5v80q0 6 -6 6h-285q-24 0 -37.5 13.5t-13.5 34.5t13.5 34.5t37.5 13.5z" unicode="¬"/>
<glyph glyph-name="uni00AD" horiz-adv-x="385" unicode="­" d="M294 216h-203q-25 0 -39 13.5t-14 36.5q0 22 14.5 35.5t38.5 13.5h203q24 0 38.5 -13.5t14.5 -35.5q0 -23 -14 -36.5t-39 -13.5z"/>
<glyph glyph-name="registered" horiz-adv-x="447" unicode="®" d="M234 511q32 0 32 24t-32 24h-39q-3 0 -3 -4v-40q0 -4 3 -4h39zM168 385q-24 0 -24 26v166q0 23 24 23h69q36 0 55.5 -17.5t19.5 -47.5q0 -41 -36 -59l30 -55q4 -7 4 -15t-6.5 -14.5t-15.5 -6.5q-16 0 -23 17l-37 67h-33q-3 0 -3 -4v-54q0 -26 -24 -26zM223 340 q64 0 107 43.5t43 109.5q0 65 -43 108.5t-107 43.5t-107 -43.5t-43 -108.5q0 -66 43 -109.5t107 -43.5zM223 301q-81 0 -136 55.5t-55 136.5q0 80 55 135.5t136 55.5t136 -55.5t55 -135.5q0 -81 -55 -136.5t-136 -55.5z"/>
<glyph glyph-name="macron" horiz-adv-x="444" unicode="¯" d="M114 668h215q21 0 32.5 -11t11.5 -29t-11.5 -29.5t-32.5 -11.5h-215q-21 0 -32.5 11.5t-11.5 29.5t11.5 29t32.5 11z"/>
<glyph glyph-name="degree" horiz-adv-x="465" unicode="°" d="M233 460q34 0 56.5 24t22.5 59q0 36 -22.5 59.5t-56.5 23.5q-35 0 -57.5 -23.5t-22.5 -59.5t22.5 -59.5t57.5 -23.5zM233 395q-64 0 -106 42.5t-42 105.5t42 105.5t106 42.5q62 0 104.5 -42.5t42.5 -105.5t-42.5 -105.5t-104.5 -42.5z"/>
<glyph glyph-name="plusminus" d="M446 0h-343q-24 0 -37.5 13.5t-13.5 34.5t13.5 34.5t37.5 13.5h343q24 0 37.5 -13.5t13.5 -34.5t-13.5 -34.5t-37.5 -13.5zM274 145q-22 0 -35.5 14t-13.5 39v116q0 6 -6 6h-116q-24 0 -37.5 13.5t-13.5 34.5t13.5 34.5t37.5 13.5h116q6 0 6 6v116q0 25 13.5 39t35.5 14 t36 -14t14 -39v-116q0 -6 6 -6h116q24 0 37.5 -13.5t13.5 -34.5t-13.5 -34.5t-37.5 -13.5h-116q-6 0 -6 -6v-116q0 -25 -14 -39t-36 -14z" unicode="±"/>
<glyph glyph-name="twosuperior" horiz-adv-x="349" unicode="²" d="M274 430h-198q-20 0 -31 10.5t-11 28.5q0 22 32 57l128 140q28 29 28 60q0 20 -13 32.5t-35 12.5q-34 0 -53 -34q-14 -26 -39 -26q-17 0 -27.5 10t-10.5 26q0 12 4 21q11 32 45 54t82 22q59 0 96 -32.5t37 -85.5t-48 -104l-109 -117v-1h123q19 0 29.5 -10t10.5 -26 q0 -38 -40 -38z"/>
<glyph glyph-name="threesuperior" horiz-adv-x="349" unicode="³" d="M175 422q-46 0 -80.5 17.5t-47.5 48.5q-4 9 -4 19q0 15 10.5 26t28.5 11q21 0 39 -24q20 -25 52 -25q25 0 40 15t15 39t-16 38.5t-44 14.5q-18 0 -28 10t-10 26t10 26t28 10q23 0 37 13t14 36q0 22 -13.5 35t-36.5 13q-29 0 -47 -23q-19 -22 -38 -22q-16 0 -26.5 9.5 t-10.5 25.5q0 10 4 19q11 27 43.5 45.5t77.5 18.5q61 0 97 -32t36 -82q0 -51 -45 -85v-1q21 -10 37.5 -35t16.5 -61q0 -56 -38.5 -91t-100.5 -35z"/>
<glyph glyph-name="acute" horiz-adv-x="444" unicode="´" d="M233 565q-14 -20 -37 -20q-19 0 -31 11t-12 29q0 17 11 32l49 74q13 20 38 20q18 0 31 -11.5t13 -29.5q0 -16 -11 -32z"/>
<glyph glyph-name="mu" horiz-adv-x="550" unicode="µ" d="M185 19v-145q0 -27 -15.5 -43t-40.5 -16t-40.5 16t-15.5 43v554q0 27 15.5 43t40.5 16t40.5 -16t15.5 -43v-234q0 -48 22.5 -76.5t66.5 -28.5q43 0 67 28.5t24 76.5v234q0 27 15.5 43t40.5 16t40.5 -16t15.5 -43v-374q0 -27 -15.5 -43t-40.5 -16q-47 0 -56 50h-1 q-41 -56 -106 -56q-49 0 -72 30h-1z"/>
<glyph glyph-name="mu" horiz-adv-x="550" unicode="μ" d="M185 19v-145q0 -27 -15.5 -43t-40.5 -16t-40.5 16t-15.5 43v554q0 27 15.5 43t40.5 16t40.5 -16t15.5 -43v-234q0 -48 22.5 -76.5t66.5 -28.5q43 0 67 28.5t24 76.5v234q0 27 15.5 43t40.5 16t40.5 -16t15.5 -43v-374q0 -27 -15.5 -43t-40.5 -16q-47 0 -56 50h-1 q-41 -56 -106 -56q-49 0 -72 30h-1z"/>
<glyph glyph-name="paragraph" horiz-adv-x="634" unicode="¶" d="M450 -134v714q0 6 -6 6h-71q-6 0 -6 -6v-714q0 -23 -13.5 -37t-35.5 -14t-35 14t-13 37v392q-89 5 -143.5 64.5t-54.5 146.5q0 91 60 151t165 60h202q23 0 35.5 -13t12.5 -35v-766q0 -23 -13.5 -37t-35.5 -14t-35 14t-13 37z"/>
<glyph glyph-name="periodcentered" horiz-adv-x="248" unicode="·" d="M53 265q0 29 21 50t50 21t50 -21t21 -50t-21 -50t-50 -21t-50 21t-21 50z"/>
<glyph glyph-name="cedilla" horiz-adv-x="444" unicode="¸" d="M242 -137q-9 -33 -43 -33q-19 0 -32 11.5t-13 30.5q0 13 4 22l41 106q4 10 13 10h71q8 0 8 -7q0 -1 -1 -3z"/>
<glyph glyph-name="onesuperior" horiz-adv-x="349" unicode="¹" d="M200 425q-19 0 -31 13t-12 34v263h-2l-32 -21q-13 -8 -25 -8q-16 0 -26.5 11.5t-10.5 27.5q0 22 23 38l53 36q31 22 56 22q23 0 36.5 -13.5t13.5 -37.5v-318q0 -21 -12 -34t-31 -13z"/>
<glyph glyph-name="ordmasculine" horiz-adv-x="356" unicode="º" d="M232 536q0 22 -5 40q-11 33 -49 33t-49 -33q-5 -18 -5 -40t5 -40q11 -33 49 -33t49 33q5 18 5 40zM324 536q0 -39 -9 -65q-29 -87 -137 -87t-137 87q-9 26 -9 65q0 40 9 65q29 87 137 87t137 -87q9 -25 9 -65z"/>
<glyph glyph-name="guillemotright" horiz-adv-x="550" unicode="»" d="M97 74q-18 0 -29.5 11.5t-11.5 29.5q0 19 16 35l108 109q5 5 0 10l-108 109q-16 16 -16 35q0 18 11.5 29.5t29.5 11.5q19 0 34 -15l136 -137q20 -20 20 -38t-20 -38l-136 -137q-15 -15 -34 -15zM324 74q-18 0 -29.5 11.5t-11.5 29.5q0 19 16 35l108 109q5 5 0 10 l-108 109q-16 16 -16 35q0 18 11.5 29.5t29.5 11.5q19 0 34 -15l136 -137q20 -20 20 -38t-20 -38l-136 -137q-15 -15 -34 -15z"/>
<glyph glyph-name="onequarter" horiz-adv-x="858" unicode="¼" d="M237 -16q-16 0 -26 10t-10 26q0 12 6 23l364 630q13 22 36 22q16 0 26 -10t10 -26q0 -11 -7 -23l-364 -629q-14 -23 -35 -23zM697 -5q-18 0 -30 11.5t-12 31.5v18q0 6 -6 6h-136q-19 0 -30 10t-11 27q0 19 17 56l106 227q13 29 40 29q17 0 28.5 -10.5t11.5 -28.5 q0 -14 -5 -24l-102 -211v-1h81q6 0 6 6v49q0 21 11.5 32.5t30.5 11.5q18 0 29 -11.5t11 -32.5v-49q0 -6 6 -6h7q18 0 28 -10t10 -27t-10 -27t-28 -10h-7q-6 0 -6 -6v-18q0 -20 -11 -31.5t-29 -11.5zM215 269q-19 0 -31 13t-12 34v263h-2l-32 -21q-13 -8 -25 -8 q-16 0 -26.5 11.5t-10.5 27.5q0 22 23 38l53 36q31 22 56 22q23 0 36.5 -13.5t13.5 -37.5v-318q0 -21 -12 -34t-31 -13z"/>
<glyph glyph-name="onehalf" horiz-adv-x="891" unicode="½" d="M237 -16q-16 0 -26 10t-10 26q0 12 6 23l364 630q13 22 36 22q16 0 26 -10t10 -26q0 -11 -7 -23l-364 -629q-14 -23 -35 -23zM771 0h-198q-20 0 -31 10.5t-11 28.5q0 22 32 57l128 140q28 29 28 60q0 20 -13 32.5t-35 12.5q-34 0 -53 -34q-14 -26 -39 -26q-17 0 -27.5 10 t-10.5 26q0 12 4 21q11 32 45 54t82 22q59 0 96 -32.5t37 -85.5t-48 -104l-109 -117v-1h123q19 0 29.5 -10t10.5 -26q0 -38 -40 -38zM215 269q-19 0 -31 13t-12 34v263h-2l-32 -21q-13 -8 -25 -8q-16 0 -26.5 11.5t-10.5 27.5q0 22 23 38l53 36q31 22 56 22q23 0 36.5 -13.5 t13.5 -37.5v-318q0 -21 -12 -34t-31 -13z"/>
<glyph glyph-name="threequarters" horiz-adv-x="927" unicode="¾" d="M225 266q-46 0 -80.5 17.5t-47.5 48.5q-4 9 -4 19q0 15 10.5 26t28.5 11q21 0 39 -24q20 -25 52 -25q25 0 40 15t15 39t-16 38.5t-44 14.5q-18 0 -28 10t-10 26t10 26t28 10q23 0 37 13t14 36q0 22 -13.5 35t-36.5 13q-29 0 -47 -23q-19 -22 -38 -22q-16 0 -26.5 9.5 t-10.5 25.5q0 10 4 19q11 27 43.5 45.5t77.5 18.5q61 0 97 -32t36 -82q0 -51 -45 -85v-1q21 -10 37.5 -35t16.5 -61q0 -56 -38.5 -91t-100.5 -35zM294 -16q-16 0 -26 10t-10 26q0 12 6 23l364 630q13 22 36 22q16 0 26 -10t10 -26q0 -11 -7 -23l-364 -629q-14 -23 -35 -23z M751 -5q-18 0 -30 11.5t-12 31.5v18q0 6 -6 6h-136q-19 0 -30 10t-11 27q0 19 17 56l106 227q13 29 40 29q17 0 28.5 -10.5t11.5 -28.5q0 -14 -5 -24l-102 -211v-1h81q6 0 6 6v49q0 21 11.5 32.5t30.5 11.5q18 0 29 -11.5t11 -32.5v-49q0 -6 6 -6h7q18 0 28 -10t10 -27 t-10 -27t-28 -10h-7q-6 0 -6 -6v-18q0 -20 -11 -31.5t-29 -11.5z"/>
<glyph glyph-name="questiondown" horiz-adv-x="464" unicode="¿" d="M307 418q0 -28 -20.5 -48.5t-48.5 -20.5t-48.5 20.5t-20.5 48.5t20.5 48.5t48.5 20.5t48.5 -20.5t20.5 -48.5zM240 292q24 0 39.5 -14.5t15.5 -40.5v-7q0 -60 -40 -106l-55 -66q-42 -50 -42 -95q0 -32 21 -54t56 -22q64 0 86 62q16 39 52 39q23 0 37.5 -13.5t14.5 -35.5 q0 -14 -4 -26q-18 -57 -67 -91.5t-122 -34.5q-84 0 -136 49.5t-52 125.5q0 73 55 138l60 71q26 31 26 60v6q0 25 16 40t39 15z"/>
<glyph glyph-name="Agrave" horiz-adv-x="617" unicode="À" d="M266 888l58 -66q14 -17 14 -36q0 -17 -12 -29t-29 -12q-20 0 -38 19l-59 63q-14 15 -14 35q0 19 13 31t32 12q20 0 35 -17zM215 247h187l-92 265h-3zM29 50q0 10 4 22l198 546q24 67 78 67q55 0 79 -67l196 -546q4 -12 4 -22q0 -25 -17 -40t-40 -15q-42 0 -56 41l-37 106 h-260l-36 -106q-14 -41 -56 -41q-23 0 -40 15t-17 40z"/>
<glyph glyph-name="Aacute" horiz-adv-x="617" unicode="Á" d="M298 822l58 66q15 17 35 17q19 0 32 -12t13 -31q0 -20 -14 -35l-59 -63q-18 -19 -38 -19q-17 0 -29 12t-12 29q0 19 14 36zM215 247h187l-92 265h-3zM29 50q0 10 4 22l198 546q24 67 78 67q55 0 79 -67l196 -546q4 -12 4 -22q0 -25 -17 -40t-40 -15q-42 0 -56 41l-37 106 h-260l-36 -106q-14 -41 -56 -41q-23 0 -40 15t-17 40z"/>
<glyph glyph-name="Acircumflex" horiz-adv-x="617" unicode="Â" d="M405 740q-17 0 -32 15l-64 68h-2l-64 -68q-15 -15 -32 -15q-14 0 -24 9.5t-10 23.5t12 29l64 76q27 32 55 32t55 -32l64 -76q12 -15 12 -29t-10 -23.5t-24 -9.5zM215 247h187l-92 265h-3zM29 50q0 10 4 22l198 546q24 67 78 67q55 0 79 -67l196 -546q4 -12 4 -22 q0 -25 -17 -40t-40 -15q-42 0 -56 41l-37 106h-260l-36 -106q-14 -41 -56 -41q-23 0 -40 15t-17 40z"/>
<glyph glyph-name="Atilde" horiz-adv-x="617" unicode="Ã" d="M365 758q-29 0 -66 22q-28 18 -43 18q-16 0 -34 -19q-15 -15 -32 -15q-16 0 -26 9.5t-10 25.5q0 15 11 31q37 50 86 50q29 0 66 -22q28 -18 43 -18q16 0 34 19q15 15 32 15q16 0 26 -9.5t10 -25.5q0 -15 -11 -31q-37 -50 -86 -50zM215 247h187l-92 265h-3zM29 50 q0 10 4 22l198 546q24 67 78 67q55 0 79 -67l196 -546q4 -12 4 -22q0 -25 -17 -40t-40 -15q-42 0 -56 41l-37 106h-260l-36 -106q-14 -41 -56 -41q-23 0 -40 15t-17 40z"/>
<glyph glyph-name="Adieresis" horiz-adv-x="617" unicode="Ä" d="M209 760q-25 0 -43 18t-18 43t18 42.5t43 17.5t42.5 -17.5t17.5 -42.5t-17.5 -43t-42.5 -18zM409 760q-25 0 -43 18t-18 43t18 42.5t43 17.5t42.5 -17.5t17.5 -42.5t-17.5 -43t-42.5 -18zM215 247h187l-92 265h-3zM29 50q0 10 4 22l198 546q24 67 78 67q55 0 79 -67 l196 -546q4 -12 4 -22q0 -25 -17 -40t-40 -15q-42 0 -56 41l-37 106h-260l-36 -106q-14 -41 -56 -41q-23 0 -40 15t-17 40z"/>
<glyph glyph-name="Aring" horiz-adv-x="617" unicode="Å" d="M308 770q22 0 35.5 14t13.5 37t-13.5 37t-35.5 14t-35.5 -14t-13.5 -37t13.5 -37t35.5 -14zM308 721q-44 0 -73 28.5t-29 71.5t29 71.5t73 28.5t73 -28.5t29 -71.5t-29 -71.5t-73 -28.5zM215 247h187l-92 265h-3zM29 50q0 10 4 22l198 546q24 67 78 67q55 0 79 -67 l196 -546q4 -12 4 -22q0 -25 -17 -40t-40 -15q-42 0 -56 41l-37 106h-260l-36 -106q-14 -41 -56 -41q-23 0 -40 15t-17 40z"/>
<glyph glyph-name="AE" horiz-adv-x="922" unicode="Æ" d="M424 575l-170 -328h167q6 0 6 6v322h-3zM819 0h-340q-24 0 -38 14t-14 38v84q0 6 -6 6h-221l-56 -110q-19 -37 -55 -37q-24 0 -41 15.5t-17 40.5q0 15 9 33l286 543q27 53 85 53h408q27 0 43.5 -14.5t16.5 -38.5t-16.5 -38.5t-43.5 -14.5h-268q-6 0 -6 -6v-166q0 -6 6 -6 h218q27 0 43.5 -14.5t16.5 -38.5t-16.5 -38.5t-43.5 -14.5h-218q-6 0 -6 -6v-172q0 -6 6 -6h268q27 0 43.5 -14.5t16.5 -38.5t-16.5 -38.5t-43.5 -14.5z"/>
<glyph glyph-name="Ccedilla" horiz-adv-x="567" unicode="Ç" d="M305 -137q-9 -33 -43 -33q-19 0 -32 11.5t-13 30.5q0 13 4 22l38 99q-141 22 -185 160q-19 64 -19 187t19 187q26 80 87 122t149 42q70 0 124.5 -30t80.5 -81q10 -18 10 -35q0 -23 -15.5 -38t-38.5 -15q-30 0 -52 32q-40 61 -109 61q-93 0 -122 -89q-13 -42 -13 -156 t13 -156q29 -89 122 -89q69 0 109 61q22 32 52 32q23 0 38.5 -15t15.5 -39q0 -16 -10 -34q-46 -92 -165 -108z"/>
<glyph glyph-name="Egrave" horiz-adv-x="570" unicode="È" d="M267 888l58 -66q14 -17 14 -36q0 -17 -12 -29t-29 -12q-20 0 -38 19l-59 63q-14 15 -14 35q0 19 13 31t32 12q20 0 35 -17zM75 53v574q0 24 14 38.5t39 14.5h339q27 0 43.5 -14.5t16.5 -38.5t-16.5 -38.5t-43.5 -14.5h-268q-6 0 -6 -6v-166q0 -6 6 -6h218 q27 0 43.5 -14.5t16.5 -38.5t-16.5 -38.5t-43.5 -14.5h-218q-6 0 -6 -6v-172q0 -6 6 -6h268q27 0 43.5 -14.5t16.5 -38.5t-16.5 -38.5t-43.5 -14.5h-339q-25 0 -39 14.5t-14 38.5z"/>
<glyph glyph-name="Eacute" horiz-adv-x="570" unicode="É" d="M255 822l58 66q15 17 35 17q19 0 32 -12t13 -31q0 -20 -14 -35l-59 -63q-18 -19 -38 -19q-17 0 -29 12t-12 29q0 19 14 36zM75 53v574q0 24 14 38.5t39 14.5h339q27 0 43.5 -14.5t16.5 -38.5t-16.5 -38.5t-43.5 -14.5h-268q-6 0 -6 -6v-166q0 -6 6 -6h218 q27 0 43.5 -14.5t16.5 -38.5t-16.5 -38.5t-43.5 -14.5h-218q-6 0 -6 -6v-172q0 -6 6 -6h268q27 0 43.5 -14.5t16.5 -38.5t-16.5 -38.5t-43.5 -14.5h-339q-25 0 -39 14.5t-14 38.5z"/>
<glyph glyph-name="Ecircumflex" horiz-adv-x="570" unicode="Ê" d="M396 740q-17 0 -32 15l-64 68h-2l-64 -68q-15 -15 -32 -15q-14 0 -24 9.5t-10 23.5t12 29l64 76q27 32 55 32t55 -32l64 -76q12 -15 12 -29t-10 -23.5t-24 -9.5zM75 53v574q0 24 14 38.5t39 14.5h339q27 0 43.5 -14.5t16.5 -38.5t-16.5 -38.5t-43.5 -14.5h-268 q-6 0 -6 -6v-166q0 -6 6 -6h218q27 0 43.5 -14.5t16.5 -38.5t-16.5 -38.5t-43.5 -14.5h-218q-6 0 -6 -6v-172q0 -6 6 -6h268q27 0 43.5 -14.5t16.5 -38.5t-16.5 -38.5t-43.5 -14.5h-339q-25 0 -39 14.5t-14 38.5z"/>
<glyph glyph-name="Edieresis" horiz-adv-x="570" unicode="Ë" d="M197 760q-25 0 -43 18t-18 43t18 42.5t43 17.5t42.5 -17.5t17.5 -42.5t-17.5 -43t-42.5 -18zM397 760q-25 0 -43 18t-18 43t18 42.5t43 17.5t42.5 -17.5t17.5 -42.5t-17.5 -43t-42.5 -18zM75 53v574q0 24 14 38.5t39 14.5h339q27 0 43.5 -14.5t16.5 -38.5t-16.5 -38.5 t-43.5 -14.5h-268q-6 0 -6 -6v-166q0 -6 6 -6h218q27 0 43.5 -14.5t16.5 -38.5t-16.5 -38.5t-43.5 -14.5h-218q-6 0 -6 -6v-172q0 -6 6 -6h268q27 0 43.5 -14.5t16.5 -38.5t-16.5 -38.5t-43.5 -14.5h-339q-25 0 -39 14.5t-14 38.5z"/>
<glyph glyph-name="Igrave" horiz-adv-x="268" unicode="Ì" d="M97 888l58 -66q14 -17 14 -36q0 -17 -12 -29t-29 -12q-20 0 -38 19l-59 63q-14 15 -14 35q0 19 13 31t32 12q20 0 35 -17zM75 57v566q0 28 16.5 45t42.5 17t42.5 -17t16.5 -45v-566q0 -28 -16.5 -45t-42.5 -17t-42.5 17t-16.5 45z"/>
<glyph glyph-name="Iacute" horiz-adv-x="268" unicode="Í" d="M116 822l58 66q15 17 35 17q19 0 32 -12t13 -31q0 -20 -14 -35l-59 -63q-18 -19 -38 -19q-17 0 -29 12t-12 29q0 19 14 36zM75 57v566q0 28 16.5 45t42.5 17t42.5 -17t16.5 -45v-566q0 -28 -16.5 -45t-42.5 -17t-42.5 17t-16.5 45z"/>
<glyph glyph-name="Icircumflex" horiz-adv-x="268" unicode="Î" d="M231 740q-17 0 -32 15l-64 68h-2l-64 -68q-15 -15 -32 -15q-14 0 -24 9.5t-10 23.5t12 29l64 76q27 32 55 32t55 -32l64 -76q12 -15 12 -29t-10 -23.5t-24 -9.5zM75 57v566q0 28 16.5 45t42.5 17t42.5 -17t16.5 -45v-566q0 -28 -16.5 -45t-42.5 -17t-42.5 17t-16.5 45z "/>
<glyph glyph-name="Idieresis" horiz-adv-x="268" unicode="Ï" d="M35 760q-25 0 -43 18t-18 43t18 42.5t43 17.5t42.5 -17.5t17.5 -42.5t-17.5 -43t-42.5 -18zM235 760q-25 0 -43 18t-18 43t18 42.5t43 17.5t42.5 -17.5t17.5 -42.5t-17.5 -43t-42.5 -18zM75 57v566q0 28 16.5 45t42.5 17t42.5 -17t16.5 -45v-566q0 -28 -16.5 -45 t-42.5 -17t-42.5 17t-16.5 45z"/>
<glyph glyph-name="Eth" horiz-adv-x="625" unicode="Ð" d="M268 298h-69q-6 0 -6 -6v-180q0 -6 6 -6h89q121 0 151 91q13 45 13 143q0 97 -13 143q-30 91 -151 91h-89q-6 0 -6 -6v-174q0 -6 6 -6h69q22 0 34.5 -12.5t12.5 -32.5t-12.5 -32.5t-34.5 -12.5zM69 298h-9q-22 0 -34.5 12.5t-12.5 32.5t12.5 32.5t34.5 12.5h9q6 0 6 6 v233q0 24 14 38.5t39 14.5h166q207 0 258 -156q20 -65 20 -184t-20 -184q-51 -156 -258 -156h-166q-25 0 -39 14t-14 38v240q0 6 -6 6z"/>
<glyph glyph-name="Ntilde" horiz-adv-x="657" unicode="Ñ" d="M387 758q-29 0 -66 22q-28 18 -43 18q-16 0 -34 -19q-15 -15 -32 -15q-16 0 -26 9.5t-10 25.5q0 15 11 31q38 50 86 50q29 0 66 -22q28 -18 43 -18q16 0 34 19q15 15 32 15q16 0 26 -9.5t10 -25.5q0 -15 -11 -31q-37 -50 -86 -50zM75 53v561q0 33 18 52t49 19 q44 0 78 -58l250 -424h3v424q0 27 15 42.5t40 15.5q24 0 39 -15.5t15 -42.5v-561q0 -33 -18 -52t-48 -19q-45 0 -79 58l-249 424h-4v-424q0 -27 -15 -42.5t-39 -15.5q-25 0 -40 15.5t-15 42.5z"/>
<glyph glyph-name="Ograve" horiz-adv-x="627" unicode="Ò" d="M287 888l58 -66q14 -17 14 -36q0 -17 -12 -29t-29 -12q-20 0 -38 19l-59 63q-14 15 -14 35q0 19 13 31t32 12q20 0 35 -17zM452 340q0 115 -14 156q-29 89 -125 89q-95 0 -124 -89q-14 -41 -14 -156t14 -156q29 -89 124 -89q96 0 125 89q14 41 14 156zM55 340 q0 127 20 188q26 80 87.5 121.5t150.5 41.5t151 -41.5t88 -121.5q20 -61 20 -188t-20 -188q-26 -80 -88 -121.5t-151 -41.5t-150.5 41.5t-87.5 121.5q-20 61 -20 188z"/>
<glyph glyph-name="Oacute" horiz-adv-x="627" unicode="Ó" d="M281 822l58 66q15 17 35 17q19 0 32 -12t13 -31q0 -20 -14 -35l-59 -63q-18 -19 -38 -19q-17 0 -29 12t-12 29q0 19 14 36zM452 340q0 115 -14 156q-29 89 -125 89q-95 0 -124 -89q-14 -41 -14 -156t14 -156q29 -89 124 -89q96 0 125 89q14 41 14 156zM55 340 q0 127 20 188q26 80 87.5 121.5t150.5 41.5t151 -41.5t88 -121.5q20 -61 20 -188t-20 -188q-26 -80 -88 -121.5t-151 -41.5t-150.5 41.5t-87.5 121.5q-20 61 -20 188z"/>
<glyph glyph-name="Ocircumflex" horiz-adv-x="627" unicode="Ô" d="M410 740q-17 0 -32 15l-64 68h-2l-64 -68q-15 -15 -32 -15q-14 0 -24 9.5t-10 23.5t12 29l64 76q27 32 55 32t55 -32l64 -76q12 -15 12 -29t-10 -23.5t-24 -9.5zM452 340q0 115 -14 156q-29 89 -125 89q-95 0 -124 -89q-14 -41 -14 -156t14 -156q29 -89 124 -89 q96 0 125 89q14 41 14 156zM55 340q0 127 20 188q26 80 87.5 121.5t150.5 41.5t151 -41.5t88 -121.5q20 -61 20 -188t-20 -188q-26 -80 -88 -121.5t-151 -41.5t-150.5 41.5t-87.5 121.5q-20 61 -20 188z"/>
<glyph glyph-name="Otilde" horiz-adv-x="627" unicode="Õ" d="M368 758q-29 0 -66 22q-28 18 -43 18q-16 0 -34 -19q-15 -15 -32 -15q-16 0 -26 9.5t-10 25.5q0 15 11 31q38 50 86 50q29 0 66 -22q28 -18 43 -18q16 0 34 19q15 15 32 15q16 0 26 -9.5t10 -25.5q0 -15 -11 -31q-37 -50 -86 -50zM452 340q0 115 -14 156q-29 89 -125 89 q-95 0 -124 -89q-14 -41 -14 -156t14 -156q29 -89 124 -89q96 0 125 89q14 41 14 156zM55 340q0 127 20 188q26 80 87.5 121.5t150.5 41.5t151 -41.5t88 -121.5q20 -61 20 -188t-20 -188q-26 -80 -88 -121.5t-151 -41.5t-150.5 41.5t-87.5 121.5q-20 61 -20 188z"/>
<glyph glyph-name="Odieresis" horiz-adv-x="627" unicode="Ö" d="M214 760q-26 0 -43.5 18t-17.5 43t18 42.5t43 17.5t42.5 -17.5t17.5 -42.5t-17.5 -43t-42.5 -18zM414 760q-26 0 -43.5 18t-17.5 43t18 42.5t43 17.5t42.5 -17.5t17.5 -42.5t-17.5 -43t-42.5 -18zM452 340q0 115 -14 156q-29 89 -125 89q-95 0 -124 -89q-14 -41 -14 -156 t14 -156q29 -89 124 -89q96 0 125 89q14 41 14 156zM55 340q0 127 20 188q26 80 87.5 121.5t150.5 41.5t151 -41.5t88 -121.5q20 -61 20 -188t-20 -188q-26 -80 -88 -121.5t-151 -41.5t-150.5 41.5t-87.5 121.5q-20 61 -20 188z"/>
<glyph glyph-name="multiply" d="M373 112l-95 94q-4 4 -8 0l-94 -94q-18 -18 -38 -18t-33 13.5t-13 32.5q0 21 18 38l94 94q4 4 0 8l-94 95q-18 17 -18 38q0 19 13 32.5t33 13.5t38 -18l94 -95q4 -4 8 0l95 94q18 18 38 18t33 -13.5t13 -32.5q0 -21 -18 -38l-94 -94q-4 -4 0 -8l94 -94q18 -18 18 -38 q0 -19 -13 -32.5t-33 -13.5t-38 18z" unicode="×"/>
<glyph glyph-name="Oslash" horiz-adv-x="627" unicode="Ø" d="M453 340q0 111 -13 153l-217 -368q34 -31 90 -31q97 0 126 89q14 41 14 157zM174 340q0 -111 11 -149l216 366q-35 29 -88 29q-96 0 -125 -89q-14 -41 -14 -157zM135 -16q-13 -19 -31 -19q-14 0 -23.5 8.5t-9.5 23.5q0 11 7 22l35 58q-25 33 -38 75q-20 61 -20 188 t20 188q26 80 87.5 121.5t150.5 41.5q85 0 147 -40l27 45q12 20 30 20q14 0 23.5 -9t9.5 -24q0 -11 -6 -22l-33 -55q26 -34 41 -78q20 -61 20 -188t-20 -188q-26 -80 -88 -121.5t-151 -41.5q-88 0 -150 41z"/>
<glyph glyph-name="Ugrave" horiz-adv-x="643" unicode="Ù" d="M291 888l58 -66q14 -17 14 -36q0 -17 -12 -29t-29 -12q-20 0 -38 19l-59 63q-14 15 -14 35q0 19 13 31t32 12q20 0 35 -17zM321 -11q-110 0 -180 67t-70 183v384q0 28 16.5 45t42.5 17t42.5 -17t16.5 -45v-382q0 -69 36.5 -107.5t95.5 -38.5q60 0 96.5 38.5t36.5 107.5 v382q0 28 16.5 45t42.5 17t42.5 -17t16.5 -45v-384q0 -116 -70 -183t-181 -67z"/>
<glyph glyph-name="Uacute" horiz-adv-x="643" unicode="Ú" d="M299 822l58 66q15 17 35 17q19 0 32 -12t13 -31q0 -20 -14 -35l-59 -63q-18 -19 -38 -19q-17 0 -29 12t-12 29q0 19 14 36zM321 -11q-110 0 -180 67t-70 183v384q0 28 16.5 45t42.5 17t42.5 -17t16.5 -45v-382q0 -69 36.5 -107.5t95.5 -38.5q60 0 96.5 38.5t36.5 107.5 v382q0 28 16.5 45t42.5 17t42.5 -17t16.5 -45v-384q0 -116 -70 -183t-181 -67z"/>
<glyph glyph-name="Ucircumflex" horiz-adv-x="643" unicode="Û" d="M418 740q-17 0 -32 15l-64 68h-2l-64 -68q-15 -15 -32 -15q-14 0 -24 9.5t-10 23.5t12 29l64 76q27 32 55 32t55 -32l64 -76q12 -15 12 -29t-10 -23.5t-24 -9.5zM321 -11q-110 0 -180 67t-70 183v384q0 28 16.5 45t42.5 17t42.5 -17t16.5 -45v-382q0 -69 36.5 -107.5 t95.5 -38.5q60 0 96.5 38.5t36.5 107.5v382q0 28 16.5 45t42.5 17t42.5 -17t16.5 -45v-384q0 -116 -70 -183t-181 -67z"/>
<glyph glyph-name="Udieresis" horiz-adv-x="643" unicode="Ü" d="M222 760q-26 0 -43.5 18t-17.5 43t18 42.5t43 17.5t42.5 -17.5t17.5 -42.5t-17.5 -43t-42.5 -18zM422 760q-26 0 -43.5 18t-17.5 43t18 42.5t43 17.5t42.5 -17.5t17.5 -42.5t-17.5 -43t-42.5 -18zM321 -11q-110 0 -180 67t-70 183v384q0 28 16.5 45t42.5 17t42.5 -17 t16.5 -45v-382q0 -69 36.5 -107.5t95.5 -38.5q60 0 96.5 38.5t36.5 107.5v382q0 28 16.5 45t42.5 17t42.5 -17t16.5 -45v-384q0 -116 -70 -183t-181 -67z"/>
<glyph glyph-name="Yacute" horiz-adv-x="536" unicode="Ý" d="M246 822l58 66q15 17 35 17q19 0 32 -12t13 -31q0 -20 -14 -35l-59 -63q-18 -19 -38 -19q-17 0 -29 12t-12 29q0 19 14 36zM268 -5q-26 0 -42.5 17t-16.5 45v221l-180 322q-9 16 -9 32q0 23 16 38t40 15q33 0 52 -34l140 -256h3l139 256q18 34 52 34q24 0 39 -15t15 -38 q0 -16 -9 -32l-180 -322v-221q0 -28 -16.5 -45t-42.5 -17z"/>
<glyph glyph-name="Thorn" horiz-adv-x="598" unicode="Þ" d="M333 250q52 0 82.5 28.5t30.5 76.5q0 47 -30.5 76t-82.5 29h-134q-6 0 -6 -6v-198q0 -6 6 -6h134zM340 143h-141q-6 0 -6 -6v-80q0 -28 -16.5 -45t-42.5 -17t-42.5 17t-16.5 45v566q0 28 16.5 45t42.5 17t42.5 -17t16.5 -45v-51q0 -6 6 -6h141q99 0 161.5 -58.5 t62.5 -152.5q0 -95 -62.5 -153.5t-161.5 -58.5z"/>
<glyph glyph-name="germandbls" horiz-adv-x="553" unicode="ß" d="M308 364q-24 0 -38 14t-14 36t14 35.5t38 14.5q66 2 66 63q0 65 -90 65q-54 0 -76.5 -23.5t-22.5 -77.5v-437q0 -27 -15.5 -43t-40.5 -16t-40.5 16t-15.5 43v434q0 203 210 203q99 0 151 -42t52 -119t-61 -113v-2q39 -19 56 -71q13 -41 13 -120q0 -86 -13 -127 q-32 -100 -176 -100q-23 0 -36 13.5t-13 35.5q0 44 49 49q58 6 70 45q7 21 7 85q0 63 -9 94q-14 45 -65 45z"/>
<glyph glyph-name="agrave" horiz-adv-x="523" unicode="à" d="M277 545q-23 0 -37 20l-51 73q-11 17 -11 32q0 18 13 29.5t31 11.5q24 0 38 -20l49 -74q11 -16 11 -32q0 -18 -12 -29t-31 -11zM242 80q50 0 78 19.5t28 56.5v43q0 6 -6 6h-80q-55 0 -79.5 -16t-24.5 -49q0 -60 84 -60zM479 80q9 -16 9 -33q0 -22 -16 -37t-40 -15 q-31 0 -47 23l-16 24h-1q-45 -53 -142 -53q-85 0 -130 38t-45 108q0 76 50.5 115t141.5 39h99q6 0 6 6v12q0 89 -108 89q-46 0 -88 -20q-15 -6 -29 -6q-20 0 -33 12.5t-13 33.5q0 30 28 44q57 33 147 33q101 0 151.5 -48t50.5 -139v-152q0 -29 10 -48z"/>
<glyph glyph-name="aacute" horiz-adv-x="523" unicode="á" d="M301 565q-14 -20 -37 -20q-19 0 -31 11t-12 29q0 17 11 32l49 74q13 20 38 20q18 0 31 -11.5t13 -29.5q0 -16 -11 -32zM242 80q50 0 78 19.5t28 56.5v43q0 6 -6 6h-80q-55 0 -79.5 -16t-24.5 -49q0 -60 84 -60zM479 80q9 -16 9 -33q0 -22 -16 -37t-40 -15q-31 0 -47 23 l-16 24h-1q-45 -53 -142 -53q-85 0 -130 38t-45 108q0 76 50.5 115t141.5 39h99q6 0 6 6v12q0 89 -108 89q-46 0 -88 -20q-15 -6 -29 -6q-20 0 -33 12.5t-13 33.5q0 30 28 44q57 33 147 33q101 0 151.5 -48t50.5 -139v-152q0 -29 10 -48z"/>
<glyph glyph-name="acircumflex" horiz-adv-x="523" unicode="â" d="M358 543q-17 0 -32 15l-64 68h-2l-64 -68q-15 -15 -32 -15q-14 0 -24 9.5t-10 23.5t12 29l64 76q27 32 55 32t55 -32l64 -76q12 -15 12 -29t-10 -23.5t-24 -9.5zM242 80q50 0 78 19.5t28 56.5v43q0 6 -6 6h-80q-55 0 -79.5 -16t-24.5 -49q0 -60 84 -60zM479 80 q9 -16 9 -33q0 -22 -16 -37t-40 -15q-31 0 -47 23l-16 24h-1q-45 -53 -142 -53q-85 0 -130 38t-45 108q0 76 50.5 115t141.5 39h99q6 0 6 6v12q0 89 -108 89q-46 0 -88 -20q-15 -6 -29 -6q-20 0 -33 12.5t-13 33.5q0 30 28 44q57 33 147 33q101 0 151.5 -48t50.5 -139v-152 q0 -29 10 -48z"/>
<glyph glyph-name="atilde" horiz-adv-x="523" unicode="ã" d="M318 566q-29 0 -66 22q-28 18 -43 18q-16 0 -34 -19q-15 -15 -32 -15q-16 0 -26 9.5t-10 25.5q0 15 11 31q38 50 86 50q29 0 66 -22q28 -18 43 -18q16 0 34 19q15 15 32 15q16 0 26 -9.5t10 -25.5q0 -15 -11 -31q-38 -50 -86 -50zM242 80q50 0 78 19.5t28 56.5v43 q0 6 -6 6h-80q-55 0 -79.5 -16t-24.5 -49q0 -60 84 -60zM479 80q9 -16 9 -33q0 -22 -16 -37t-40 -15q-31 0 -47 23l-16 24h-1q-45 -53 -142 -53q-85 0 -130 38t-45 108q0 76 50.5 115t141.5 39h99q6 0 6 6v12q0 89 -108 89q-46 0 -88 -20q-15 -6 -29 -6q-20 0 -33 12.5 t-13 33.5q0 30 28 44q57 33 147 33q101 0 151.5 -48t50.5 -139v-152q0 -29 10 -48z"/>
<glyph glyph-name="adieresis" horiz-adv-x="523" unicode="ä" d="M161 562q-25 0 -43 18t-18 43t18 43t43 18t42.5 -18t17.5 -43t-17.5 -43t-42.5 -18zM361 562q-25 0 -43 18t-18 43t18 43t43 18t42.5 -18t17.5 -43t-17.5 -43t-42.5 -18zM242 80q50 0 78 19.5t28 56.5v43q0 6 -6 6h-80q-55 0 -79.5 -16t-24.5 -49q0 -60 84 -60zM479 80 q9 -16 9 -33q0 -22 -16 -37t-40 -15q-31 0 -47 23l-16 24h-1q-45 -53 -142 -53q-85 0 -130 38t-45 108q0 76 50.5 115t141.5 39h99q6 0 6 6v12q0 89 -108 89q-46 0 -88 -20q-15 -6 -29 -6q-20 0 -33 12.5t-13 33.5q0 30 28 44q57 33 147 33q101 0 151.5 -48t50.5 -139v-152 q0 -29 10 -48z"/>
<glyph glyph-name="aring" horiz-adv-x="523" unicode="å" d="M266 578q22 0 35.5 14t13.5 37t-13.5 37t-35.5 14t-35.5 -14t-13.5 -37t13.5 -37t35.5 -14zM266 529q-44 0 -73 28.5t-29 71.5t29 71.5t73 28.5t73 -28.5t29 -71.5t-29 -71.5t-73 -28.5zM242 80q50 0 78 19.5t28 56.5v43q0 6 -6 6h-80q-55 0 -79.5 -16t-24.5 -49 q0 -60 84 -60zM479 80q9 -16 9 -33q0 -22 -16 -37t-40 -15q-31 0 -47 23l-16 24h-1q-45 -53 -142 -53q-85 0 -130 38t-45 108q0 76 50.5 115t141.5 39h99q6 0 6 6v12q0 89 -108 89q-46 0 -88 -20q-15 -6 -29 -6q-20 0 -33 12.5t-13 33.5q0 30 28 44q57 33 147 33 q101 0 151.5 -48t50.5 -139v-152q0 -29 10 -48z"/>
<glyph glyph-name="ae" horiz-adv-x="815" unicode="æ" d="M242 80q50 0 78 19.5t28 56.5v43q0 6 -6 6h-80q-55 0 -79.5 -16t-24.5 -49q0 -60 84 -60zM460 289h189q6 0 6 6q0 23 -6 41q-10 29 -35.5 45.5t-59.5 16.5t-59 -16.5t-35 -45.5q-6 -18 -6 -41q0 -6 6 -6zM564 -11q-113 0 -167 68h-2q-32 -38 -71.5 -53t-97.5 -15 q-85 0 -130 38t-45 108q0 76 50.5 115t141.5 39h99q6 0 6 6v12q0 89 -108 89q-41 0 -88 -20q-15 -6 -29 -6q-20 0 -33 12.5t-13 33.5q0 30 28 44q57 33 147 33q107 0 155 -56h1q54 56 147 56q74 0 125.5 -35t72.5 -98q15 -48 15 -116q0 -18 -10.5 -28.5t-28.5 -10.5h-269 q-6 0 -6 -6q0 -17 7 -37q24 -73 110 -73q49 0 98 33q23 16 41 16q21 0 34 -13t13 -34q0 -26 -23 -44q-71 -58 -170 -58z"/>
<glyph glyph-name="ccedilla" horiz-adv-x="476" unicode="ç" d="M255 -137q-9 -33 -43 -33q-19 0 -32 11.5t-13 30.5q0 13 4 22l38 100q-53 10 -91.5 43t-55.5 85q-15 45 -15 119t15 119q21 64 73 98.5t125 34.5q98 0 152 -61q20 -21 20 -44q0 -21 -14 -35t-35 -14q-22 0 -46 24q-27 30 -76 30q-69 0 -90 -63q-10 -30 -10 -89t10 -89 q21 -63 90 -63q49 0 76 30q24 24 46 24q21 0 35 -14t14 -35q0 -23 -20 -44q-41 -46 -112 -58z"/>
<glyph glyph-name="egrave" horiz-adv-x="521" unicode="è" d="M263 545q-23 0 -37 20l-51 73q-11 17 -11 32q0 18 13 29.5t31 11.5q24 0 38 -20l49 -74q11 -16 11 -32q0 -18 -12 -29t-31 -11zM361 295q0 23 -6 41q-10 29 -35 45.5t-59 16.5q-74 0 -95 -62q-6 -18 -6 -41q0 -6 6 -6h189q6 0 6 6zM266 -11q-77 0 -129.5 35t-72.5 99 q-17 53 -17 118q0 69 16 119q20 63 72.5 98t124.5 35q74 0 126 -35.5t72 -97.5q16 -51 16 -116q0 -18 -10.5 -28.5t-28.5 -10.5h-269q-6 0 -6 -6q0 -18 7 -37q25 -73 109 -73q50 0 99 33q23 16 41 16q21 0 34 -13t13 -34q0 -26 -23 -44q-71 -58 -174 -58z"/>
<glyph glyph-name="eacute" horiz-adv-x="521" unicode="é" d="M294 565q-14 -20 -37 -20q-19 0 -31 11t-12 29q0 17 11 32l49 74q13 20 38 20q18 0 31 -11.5t13 -29.5q0 -16 -11 -32zM361 295q0 23 -6 41q-10 29 -35 45.5t-59 16.5q-74 0 -95 -62q-6 -18 -6 -41q0 -6 6 -6h189q6 0 6 6zM266 -11q-77 0 -129.5 35t-72.5 99 q-17 53 -17 118q0 69 16 119q20 63 72.5 98t124.5 35q74 0 126 -35.5t72 -97.5q16 -51 16 -116q0 -18 -10.5 -28.5t-28.5 -10.5h-269q-6 0 -6 -6q0 -18 7 -37q25 -73 109 -73q50 0 99 33q23 16 41 16q21 0 34 -13t13 -34q0 -26 -23 -44q-71 -58 -174 -58z"/>
<glyph glyph-name="ecircumflex" horiz-adv-x="521" unicode="ê" d="M357 543q-17 0 -32 15l-64 68h-2l-64 -68q-15 -15 -32 -15q-14 0 -24 9.5t-10 23.5t12 29l64 76q27 32 55 32t55 -32l64 -76q12 -15 12 -29t-10 -23.5t-24 -9.5zM361 295q0 23 -6 41q-10 29 -35 45.5t-59 16.5q-74 0 -95 -62q-6 -18 -6 -41q0 -6 6 -6h189q6 0 6 6z M266 -11q-77 0 -129.5 35t-72.5 99q-17 53 -17 118q0 69 16 119q20 63 72.5 98t124.5 35q74 0 126 -35.5t72 -97.5q16 -51 16 -116q0 -18 -10.5 -28.5t-28.5 -10.5h-269q-6 0 -6 -6q0 -18 7 -37q25 -73 109 -73q50 0 99 33q23 16 41 16q21 0 34 -13t13 -34q0 -26 -23 -44 q-71 -58 -174 -58z"/>
<glyph glyph-name="edieresis" horiz-adv-x="521" unicode="ë" d="M161 562q-25 0 -43 18t-18 43t18 43t43 18t42.5 -18t17.5 -43t-17.5 -43t-42.5 -18zM361 562q-25 0 -43 18t-18 43t18 43t43 18t42.5 -18t17.5 -43t-17.5 -43t-42.5 -18zM361 295q0 23 -6 41q-10 29 -35 45.5t-59 16.5q-74 0 -95 -62q-6 -18 -6 -41q0 -6 6 -6h189 q6 0 6 6zM266 -11q-77 0 -129.5 35t-72.5 99q-17 53 -17 118q0 69 16 119q20 63 72.5 98t124.5 35q74 0 126 -35.5t72 -97.5q16 -51 16 -116q0 -18 -10.5 -28.5t-28.5 -10.5h-269q-6 0 -6 -6q0 -18 7 -37q25 -73 109 -73q50 0 99 33q23 16 41 16q21 0 34 -13t13 -34 q0 -26 -23 -44q-71 -58 -174 -58z"/>
<glyph glyph-name="igrave" horiz-adv-x="258" unicode="ì" d="M120 545q-23 0 -37 20l-51 73q-11 16 -11 32q0 18 13 29.5t31 11.5q24 0 38 -20l49 -74q11 -16 11 -32q0 -18 -12 -29t-31 -11zM129 -5q-25 0 -40.5 16t-15.5 43v374q0 27 15.5 43t40.5 16t40.5 -16t15.5 -43v-374q0 -27 -15.5 -43t-40.5 -16z"/>
<glyph glyph-name="iacute" horiz-adv-x="258" unicode="í" d="M177 565q-14 -20 -37 -20q-19 0 -31 11t-12 29q0 17 11 32l49 74q13 20 38 20q18 0 31 -11.5t13 -29.5q0 -16 -11 -32zM129 -5q-25 0 -40.5 16t-15.5 43v374q0 27 15.5 43t40.5 16t40.5 -16t15.5 -43v-374q0 -27 -15.5 -43t-40.5 -16z"/>
<glyph glyph-name="icircumflex" horiz-adv-x="258" unicode="î" d="M226 543q-17 0 -32 15l-64 68h-2l-64 -68q-15 -15 -32 -15q-14 0 -24 9.5t-10 23.5t12 29l64 76q27 32 55 32t55 -32l64 -76q12 -15 12 -29t-10 -23.5t-24 -9.5zM129 -5q-25 0 -40.5 16t-15.5 43v374q0 27 15.5 43t40.5 16t40.5 -16t15.5 -43v-374q0 -27 -15.5 -43 t-40.5 -16z"/>
<glyph glyph-name="idieresis" horiz-adv-x="258" unicode="ï" d="M30 562q-25 0 -43 18t-18 43t17.5 43t43.5 18q25 0 42.5 -18t17.5 -43t-17.5 -43t-42.5 -18zM230 562q-25 0 -43 18t-18 43t17.5 43t43.5 18q25 0 42.5 -18t17.5 -43t-17.5 -43t-42.5 -18zM129 -5q-25 0 -40.5 16t-15.5 43v374q0 27 15.5 43t40.5 16t40.5 -16t15.5 -43 v-374q0 -27 -15.5 -43t-40.5 -16z"/>
<glyph glyph-name="eth" horiz-adv-x="523" unicode="ð" d="M262 89q72 0 92 64q9 27 9 73q0 43 -10 73q-20 64 -91 64t-91 -64q-10 -30 -10 -73t10 -73q20 -64 91 -64zM385 567l-44 -13l19 -26q117 -160 117 -287q0 -71 -15 -118q-20 -63 -72.5 -98.5t-127.5 -35.5t-126.5 34.5t-72.5 96.5q-16 50 -16 106t15 106q20 59 63 93 t103 34q43 0 68 -18h2l-61 82l-68 -20q-12 -4 -20 -4q-16 0 -27 11t-11 28q0 31 31 39l45 13l-9 13q-11 16 -11 33q0 21 15 35.5t38 14.5q24 0 43 -26l28 -39l67 20q12 4 20 4q16 0 27 -11t11 -28q0 -31 -31 -39z"/>
<glyph glyph-name="ntilde" horiz-adv-x="548" unicode="ñ" d="M330 566q-29 0 -66 22q-28 18 -43 18q-16 0 -34 -19q-15 -15 -32 -15q-16 0 -26 9.5t-10 25.5q0 15 11 31q38 50 86 50q29 0 66 -22q28 -18 43 -18q16 0 34 19q15 15 32 15q16 0 26 -9.5t10 -25.5q0 -15 -11 -31q-38 -50 -86 -50zM185 437h1q40 56 127 56q76 0 121.5 -50 t45.5 -129v-260q0 -27 -15.5 -43t-40.5 -16t-40.5 16t-15.5 43v234q0 48 -23.5 76.5t-67.5 28.5q-43 0 -67.5 -29t-24.5 -76v-234q0 -27 -15.5 -43t-40.5 -16t-40.5 16t-15.5 43v374q0 27 15.5 43t40.5 16q47 0 56 -50z"/>
<glyph glyph-name="ograve" horiz-adv-x="523" unicode="ò" d="M263 545q-23 0 -37 20l-51 73q-11 17 -11 32q0 18 13 29.5t31 11.5q24 0 38 -20l49 -74q11 -16 11 -32q0 -18 -12 -29t-31 -11zM262 89q68 0 90 63q10 31 10 89q0 57 -10 89q-22 63 -90 63q-69 0 -91 -63q-10 -32 -10 -89q0 -58 10 -89q22 -63 91 -63zM262 -11 q-74 0 -126.5 35t-72.5 98q-16 49 -16 119t16 119q20 63 72.5 98t126.5 35q73 0 125.5 -35t72.5 -98q16 -49 16 -119t-16 -119q-20 -63 -72.5 -98t-125.5 -35z"/>
<glyph glyph-name="oacute" horiz-adv-x="523" unicode="ó" d="M296 565q-14 -20 -37 -20q-19 0 -31 11t-12 29q0 17 11 32l49 74q13 20 38 20q18 0 31 -11.5t13 -29.5q0 -16 -11 -32zM262 89q68 0 90 63q10 31 10 89q0 57 -10 89q-22 63 -90 63q-69 0 -91 -63q-10 -32 -10 -89q0 -58 10 -89q22 -63 91 -63zM262 -11q-74 0 -126.5 35 t-72.5 98q-16 49 -16 119t16 119q20 63 72.5 98t126.5 35q73 0 125.5 -35t72.5 -98q16 -49 16 -119t-16 -119q-20 -63 -72.5 -98t-125.5 -35z"/>
<glyph glyph-name="ocircumflex" horiz-adv-x="523" unicode="ô" d="M358 543q-17 0 -32 15l-64 68h-2l-64 -68q-15 -15 -32 -15q-14 0 -24 9.5t-10 23.5t12 29l64 76q27 32 55 32t55 -32l64 -76q12 -15 12 -29t-10 -23.5t-24 -9.5zM262 89q68 0 90 63q10 31 10 89q0 57 -10 89q-22 63 -90 63q-69 0 -91 -63q-10 -32 -10 -89q0 -58 10 -89 q22 -63 91 -63zM262 -11q-74 0 -126.5 35t-72.5 98q-16 49 -16 119t16 119q20 63 72.5 98t126.5 35q73 0 125.5 -35t72.5 -98q16 -49 16 -119t-16 -119q-20 -63 -72.5 -98t-125.5 -35z"/>
<glyph glyph-name="otilde" horiz-adv-x="523" unicode="õ" d="M318 566q-29 0 -66 22q-28 18 -43 18q-16 0 -34 -19q-15 -15 -32 -15q-16 0 -26 9.5t-10 25.5q0 15 11 31q38 50 86 50q29 0 66 -22q28 -18 43 -18q16 0 34 19q15 15 32 15q16 0 26 -9.5t10 -25.5q0 -15 -11 -31q-38 -50 -86 -50zM262 89q68 0 90 63q10 31 10 89 q0 57 -10 89q-22 63 -90 63q-69 0 -91 -63q-10 -32 -10 -89q0 -58 10 -89q22 -63 91 -63zM262 -11q-74 0 -126.5 35t-72.5 98q-16 49 -16 119t16 119q20 63 72.5 98t126.5 35q73 0 125.5 -35t72.5 -98q16 -49 16 -119t-16 -119q-20 -63 -72.5 -98t-125.5 -35z"/>
<glyph glyph-name="odieresis" horiz-adv-x="523" unicode="ö" d="M162 562q-25 0 -43 18t-18 43t17.5 43t43.5 18q25 0 42.5 -18t17.5 -43t-17.5 -43t-42.5 -18zM362 562q-25 0 -43 18t-18 43t17.5 43t43.5 18q25 0 42.5 -18t17.5 -43t-17.5 -43t-42.5 -18zM262 89q68 0 90 63q10 31 10 89q0 57 -10 89q-22 63 -90 63q-69 0 -91 -63 q-10 -32 -10 -89q0 -58 10 -89q22 -63 91 -63zM262 -11q-74 0 -126.5 35t-72.5 98q-16 49 -16 119t16 119q20 63 72.5 98t126.5 35q73 0 125.5 -35t72.5 -98q16 -49 16 -119t-16 -119q-20 -63 -72.5 -98t-125.5 -35z"/>
<glyph glyph-name="divide" d="M208 102q0 27 19.5 46.5t46.5 19.5t46.5 -19.5t19.5 -46.5t-19.5 -46.5t-46.5 -19.5t-46.5 19.5t-19.5 46.5zM446 228h-343q-24 0 -37.5 13.5t-13.5 34.5t13.5 34.5t37.5 13.5h343q24 0 37.5 -13.5t13.5 -34.5t-13.5 -34.5t-37.5 -13.5zM209 450q0 27 19 46.5t46 19.5 t46.5 -19.5t19.5 -46.5t-19.5 -46.5t-46.5 -19.5t-46 19.5t-19 46.5z" unicode="÷"/>
<glyph glyph-name="oslash" horiz-adv-x="523" unicode="ø" d="M261 88q72 0 92 66q10 31 10 87t-10 87q-1 0 -1 1l-151 -222q23 -19 60 -19zM160 241q0 -56 10 -87v-2l152 223q-25 19 -61 19q-71 0 -91 -66q-10 -31 -10 -87zM261 -11q-73 0 -123 32l-31 -43q-9 -13 -23 -13q-10 0 -17.5 7t-7.5 17t7 20l33 47q-24 29 -36 67 q-16 49 -16 118t16 118q21 64 72.5 99t125.5 35q72 0 122 -32l31 43q11 14 24 14q10 0 17.5 -7t7.5 -17q0 -9 -8 -20l-33 -47q25 -29 38 -68q16 -49 16 -118t-16 -118q-21 -65 -72.5 -99.5t-126.5 -34.5z"/>
<glyph glyph-name="ugrave" horiz-adv-x="544" unicode="ù" d="M271 545q-23 0 -37 20l-51 73q-11 17 -11 32q0 18 13 29.5t31 11.5q24 0 38 -20l49 -74q11 -16 11 -32q0 -18 -12 -29t-31 -11zM415 -5q-47 0 -56 50h-1q-40 -56 -126 -56q-76 0 -120.5 50t-44.5 129v260q0 27 15.5 43t40.5 16t40.5 -16t15.5 -43v-234q0 -48 22.5 -76.5 t66.5 -28.5q43 0 67 28.5t24 76.5v234q0 27 15.5 43t40.5 16t40.5 -16t15.5 -43v-374q0 -27 -15.5 -43t-40.5 -16z"/>
<glyph glyph-name="uacute" horiz-adv-x="544" unicode="ú" d="M309 565q-14 -20 -37 -20q-19 0 -31 11t-12 29q0 17 11 32l49 74q13 20 38 20q18 0 31 -11.5t13 -29.5q0 -16 -11 -32zM415 -5q-47 0 -56 50h-1q-40 -56 -126 -56q-76 0 -120.5 50t-44.5 129v260q0 27 15.5 43t40.5 16t40.5 -16t15.5 -43v-234q0 -48 22.5 -76.5 t66.5 -28.5q43 0 67 28.5t24 76.5v234q0 27 15.5 43t40.5 16t40.5 -16t15.5 -43v-374q0 -27 -15.5 -43t-40.5 -16z"/>
<glyph glyph-name="ucircumflex" horiz-adv-x="544" unicode="û" d="M369 543q-17 0 -32 15l-64 68h-2l-64 -68q-15 -15 -32 -15q-14 0 -24 9.5t-10 23.5t12 29l64 76q27 32 55 32t55 -32l64 -76q12 -15 12 -29t-10 -23.5t-24 -9.5zM415 -5q-47 0 -56 50h-1q-40 -56 -126 -56q-76 0 -120.5 50t-44.5 129v260q0 27 15.5 43t40.5 16t40.5 -16 t15.5 -43v-234q0 -48 22.5 -76.5t66.5 -28.5q43 0 67 28.5t24 76.5v234q0 27 15.5 43t40.5 16t40.5 -16t15.5 -43v-374q0 -27 -15.5 -43t-40.5 -16z"/>
<glyph glyph-name="udieresis" horiz-adv-x="544" unicode="ü" d="M172 562q-25 0 -43 18t-18 43t17.5 43t43.5 18q25 0 42.5 -18t17.5 -43t-17.5 -43t-42.5 -18zM372 562q-25 0 -43 18t-18 43t17.5 43t43.5 18q25 0 42.5 -18t17.5 -43t-17.5 -43t-42.5 -18zM415 -5q-47 0 -56 50h-1q-40 -56 -126 -56q-76 0 -120.5 50t-44.5 129v260 q0 27 15.5 43t40.5 16t40.5 -16t15.5 -43v-234q0 -48 22.5 -76.5t66.5 -28.5q43 0 67 28.5t24 76.5v234q0 27 15.5 43t40.5 16t40.5 -16t15.5 -43v-374q0 -27 -15.5 -43t-40.5 -16z"/>
<glyph glyph-name="yacute" horiz-adv-x="488" unicode="ý" d="M283 565q-14 -20 -37 -20q-19 0 -31 11t-12 29q0 17 11 32l49 74q13 20 38 20q18 0 31 -11.5t13 -29.5q0 -16 -11 -32zM116 -180h-7q-24 0 -38.5 14.5t-14.5 35.5t14.5 35t38.5 15q28 1 43.5 13t28.5 47l14 39l-159 389q-6 14 -6 26q0 23 16 38t40 15q37 0 52 -40 l109 -289h2l103 289q14 40 52 40q23 0 38.5 -15t15.5 -38q0 -11 -5 -26l-177 -451q-31 -79 -65.5 -108t-94.5 -29z"/>
<glyph glyph-name="thorn" horiz-adv-x="545" unicode="þ" d="M285 89q68 0 89 64q10 30 10 88t-10 88q-21 64 -89 64q-69 0 -90 -64q-10 -30 -10 -88t10 -88q21 -64 90 -64zM73 -126v752q0 27 15.5 43t40.5 16t40.5 -16t15.5 -43v-190h1q40 57 130 57q60 0 103 -32.5t62 -89.5q17 -52 17 -130t-17 -130q-19 -57 -62 -89.5t-103 -32.5 q-91 0 -130 57h-1v-172q0 -27 -15.5 -43t-40.5 -16t-40.5 16t-15.5 43z"/>
<glyph glyph-name="OE" horiz-adv-x="947" unicode="Œ" d="M313 95q96 0 125 89q14 41 14 156t-14 156q-29 89 -125 89q-95 0 -124 -89q-14 -41 -14 -156t14 -156q29 -89 124 -89zM300 -11q-81 0 -140 42t-85 121q-20 61 -20 188t20 188q26 79 85 121t140 42q105 0 151 -64h1q0 24 14 38.5t39 14.5h339q27 0 43.5 -14.5t16.5 -38.5 t-16.5 -38.5t-43.5 -14.5h-268q-6 0 -6 -6v-166q0 -6 6 -6h218q27 0 43.5 -14.5t16.5 -38.5t-16.5 -38.5t-43.5 -14.5h-218q-6 0 -6 -6v-172q0 -6 6 -6h268q27 0 43.5 -14.5t16.5 -38.5t-16.5 -38.5t-43.5 -14.5h-339q-25 0 -39 14.5t-14 38.5h-1q-46 -64 -151 -64z"/>
<glyph glyph-name="oe" horiz-adv-x="834" unicode="œ" d="M261 89q71 0 91 66q10 31 10 86t-10 86q-20 66 -91 66q-70 0 -90 -66q-10 -31 -10 -86t10 -86q20 -66 90 -66zM479 289h189q6 0 6 6q0 23 -6 41q-10 29 -35.5 45.5t-59.5 16.5t-59 -16.5t-35 -45.5q-6 -18 -6 -41q0 -6 6 -6zM573 493q75 0 126.5 -35t72.5 -98 q15 -48 15 -116q0 -18 -10.5 -28.5t-28.5 -10.5h-269q-6 0 -6 -6q0 -17 7 -37q24 -73 110 -73q49 0 98 33q23 16 41 16q21 0 34 -13t13 -34q0 -26 -23 -44q-71 -58 -171 -58q-107 0 -162 66h-2q-53 -66 -158 -66q-73 0 -124.5 35t-72.5 99q-16 49 -16 118t16 118 q21 64 72.5 99t124.5 35q99 0 157 -63h2q52 63 154 63z"/>
<glyph glyph-name="Scaron" horiz-adv-x="587" unicode="Š" d="M294 734q-28 0 -55 32l-64 76q-12 15 -12 29t10 23.5t24 9.5q17 0 32 -15l64 -68h2l64 68q15 15 32 15q14 0 24 -9.5t10 -23.5t-12 -29l-64 -76q-27 -32 -55 -32zM287 -11q-118 0 -212 61q-30 19 -30 51q0 22 15 38t38 16q19 0 38 -11q82 -49 157 -49q62 0 97 26.5 t35 71.5q0 39 -27.5 62t-95.5 32l-35 5q-206 27 -206 195q0 92 62.5 148t166.5 56q114 0 185 -46q30 -17 30 -48q0 -23 -14.5 -37.5t-37.5 -14.5q-17 0 -37 9q-64 31 -127 31q-52 0 -80 -25t-28 -66q0 -38 29 -60t95 -32l34 -5q206 -28 206 -199q0 -94 -67 -151.5 t-191 -57.5z"/>
<glyph glyph-name="scaron" horiz-adv-x="498" unicode="š" d="M251 538q-28 0 -55 32l-64 76q-12 15 -12 29t10 23.5t24 9.5q17 0 32 -15l64 -68h2l64 68q15 15 32 15q14 0 24 -9.5t10 -23.5t-12 -29l-64 -76q-27 -32 -55 -32zM250 -11q-103 0 -176 49q-27 17 -27 45q0 21 14.5 36t36.5 15q16 0 35 -11q63 -39 123 -39q41 0 65 15 t24 42q0 24 -17.5 36.5t-62.5 16.5l-52 5q-148 16 -148 142q0 70 49 111t138 41q79 0 146 -36q34 -19 34 -46q0 -21 -13 -35t-34 -14q-14 0 -35 11q-54 26 -104 26q-36 0 -54.5 -14t-18.5 -36t17.5 -34.5t61.5 -16.5l52 -5q149 -15 149 -142q0 -74 -53.5 -118t-149.5 -44z "/>
<glyph glyph-name="Ydieresis" horiz-adv-x="536" unicode="Ÿ" d="M169 760q-25 0 -43 18t-18 43t18 42.5t43 17.5t42.5 -17.5t17.5 -42.5t-17.5 -43t-42.5 -18zM369 760q-25 0 -43 18t-18 43t18 42.5t43 17.5t42.5 -17.5t17.5 -42.5t-17.5 -43t-42.5 -18zM268 -5q-26 0 -42.5 17t-16.5 45v221l-180 322q-9 16 -9 32q0 23 16 38t40 15 q33 0 52 -34l140 -256h3l139 256q18 34 52 34q24 0 39 -15t15 -38q0 -16 -9 -32l-180 -322v-221q0 -28 -16.5 -45t-42.5 -17z"/>
<glyph glyph-name="circumflex" horiz-adv-x="444" unicode="ˆ" d="M319 543q-17 0 -32 15l-64 68h-2l-64 -68q-15 -15 -32 -15q-14 0 -24 9.5t-10 23.5t12 29l64 76q27 32 55 32t55 -32l64 -76q12 -15 12 -29t-10 -23.5t-24 -9.5z"/>
<glyph glyph-name="tilde" horiz-adv-x="444" unicode="˜" d="M279 566q-29 0 -66 22q-28 18 -43 18q-16 0 -34 -19q-15 -15 -32 -15q-16 0 -26 9.5t-10 25.5q0 15 11 31q37 50 86 50q29 0 66 -22q28 -18 43 -18q16 0 34 19q15 15 32 15q16 0 26 -9.5t10 -25.5q0 -15 -11 -31q-37 -50 -86 -50z"/>
<glyph glyph-name="pi" horiz-adv-x="593" unicode="π" d="M509 382h-14q-6 0 -6 -6v-260q0 -20 20 -21q47 -5 47 -50q0 -23 -15 -37t-44 -14h-8q-60 0 -86 32t-26 99v251q0 6 -6 6h-151q-6 0 -6 -6v-322q0 -27 -15.5 -43t-40.5 -16t-40.5 16t-15.5 43v322q0 6 -7 6h-13q-25 0 -39 14t-14 36t14 36t39 14h427q25 0 39 -14t14 -36 t-14 -36t-39 -14z"/>
<glyph glyph-name="endash" horiz-adv-x="519" unicode="–" d="M452 216h-385q-24 0 -38 13t-14 35t14 35t38 13h385q24 0 38 -13t14 -35t-14 -35t-38 -13z"/>
<glyph glyph-name="emdash" horiz-adv-x="867" unicode="—" d="M800 216h-733q-24 0 -38 13t-14 35t14 35t38 13h733q24 0 38 -13t14 -35t-14 -35t-38 -13z"/>
<glyph glyph-name="quoteleft" horiz-adv-x="224" unicode="‘" d="M103 483q-21 0 -35 13.5t-14 34.5q0 11 3 21l30 95q12 38 48 38q21 0 35 -13.5t14 -34.5q0 -11 -3 -21l-30 -95q-12 -38 -48 -38z"/>
<glyph glyph-name="quotesinglbase" horiz-adv-x="224" unicode="‚" d="M103 -101q-21 0 -35 13.5t-14 34.5q0 11 3 21l30 95q12 38 48 38q21 0 35 -13.5t14 -34.5q0 -11 -3 -21l-30 -95q-12 -38 -48 -38z"/>
<glyph glyph-name="quotedblleft" horiz-adv-x="393" unicode="“" d="M103 483q-21 0 -35 13.5t-14 34.5q0 11 3 21l30 95q12 38 48 38q21 0 35 -13.5t14 -34.5q0 -11 -3 -21l-30 -95q-12 -38 -48 -38zM272 483q-21 0 -35 13.5t-14 34.5q0 11 3 21l30 95q12 38 48 38q21 0 35 -13.5t14 -34.5q0 -11 -3 -21l-30 -95q-12 -38 -48 -38z"/>
<glyph glyph-name="quotedblright" horiz-adv-x="393" unicode="”" d="M103 483q-21 0 -35 13.5t-14 34.5q0 11 3 21l30 95q12 38 48 38q21 0 35 -13.5t14 -34.5q0 -11 -3 -21l-30 -95q-12 -38 -48 -38zM272 483q-21 0 -35 13.5t-14 34.5q0 11 3 21l30 95q12 38 48 38q21 0 35 -13.5t14 -34.5q0 -11 -3 -21l-30 -95q-12 -38 -48 -38z"/>
<glyph glyph-name="dagger" horiz-adv-x="535" unicode="†" d="M327 451h108q22 0 36 -13.5t14 -33.5q0 -21 -14 -34.5t-36 -13.5h-108q-6 0 -6 -6v-478q0 -26 -15 -41.5t-39 -15.5t-38.5 15.5t-14.5 41.5v478q0 6 -6 6h-108q-22 0 -36 13.5t-14 34.5q0 20 14 33.5t36 13.5h108q6 0 6 6v172q0 25 15 40.5t39 15.5t38.5 -15.5 t14.5 -40.5v-172q0 -6 6 -6z"/>
<glyph glyph-name="daggerdbl" horiz-adv-x="535" unicode="‡" d="M214 -129v142q0 6 -6 6h-108q-22 0 -36 13.5t-14 34.5q0 20 14 33.5t36 13.5h108q6 0 6 6v260q0 6 -6 6h-108q-22 0 -36 13.5t-14 34.5q0 20 14 33.5t36 13.5h108q6 0 6 6v142q0 25 15 40.5t39 15.5t38.5 -15.5t14.5 -40.5v-142q0 -6 6 -6h108q22 0 36 -13.5t14 -33.5 q0 -21 -14 -34.5t-36 -13.5h-108q-6 0 -6 -6v-260q0 -6 6 -6h108q22 0 36 -13.5t14 -33.5q0 -21 -14 -34.5t-36 -13.5h-108q-6 0 -6 -6v-142q0 -25 -14.5 -40.5t-38.5 -15.5t-39 15.5t-15 40.5z"/>
<glyph glyph-name="ellipsis" horiz-adv-x="740" unicode="…" d="M126 -9q-28 0 -48.5 20.5t-20.5 49.5t20.5 49.5t48.5 20.5q29 0 49.5 -20.5t20.5 -49.5t-20.5 -49.5t-49.5 -20.5zM373 -9q-29 0 -49.5 20.5t-20.5 49.5t20.5 49.5t49.5 20.5t49.5 -20.5t20.5 -49.5t-20.5 -49.5t-49.5 -20.5zM620 -9q-28 0 -49 20.5t-21 49.5t21 49.5 t49 20.5t48.5 -20.5t20.5 -49.5t-20.5 -49.5t-48.5 -20.5z"/>
<glyph glyph-name="perthousand" horiz-adv-x="1090" unicode="‰" d="M589 63q35 0 44 29q5 15 5 78t-5 78q-9 29 -44 29t-44 -29q-5 -15 -5 -78t5 -78q9 -29 44 -29zM898 63q35 0 44 29q5 15 5 78t-5 78q-9 29 -44 29t-44 -29q-5 -15 -5 -78t5 -78q9 -29 44 -29zM589 -9q-45 0 -77.5 21.5t-43.5 57.5q-9 27 -9 100t9 100q11 36 43.5 57.5 t77.5 21.5t77.5 -21.5t43.5 -57.5q9 -27 9 -100t-9 -100q-11 -36 -43.5 -57.5t-77.5 -21.5zM898 -9q-45 0 -77.5 21.5t-43.5 57.5q-9 27 -9 100t9 100q11 36 43.5 57.5t77.5 21.5t77.5 -21.5t43.5 -57.5q9 -27 9 -100t-9 -100q-11 -36 -43.5 -57.5t-77.5 -21.5zM192 402 q35 0 44 29q5 15 5 78t-5 78q-9 29 -44 29t-44 -29q-5 -15 -5 -78t5 -78q9 -29 44 -29zM192 330q-45 0 -77.5 21.5t-43.5 57.5q-9 27 -9 100t9 100q11 36 43.5 57.5t77.5 21.5t77.5 -21.5t43.5 -57.5q9 -27 9 -100t-9 -100q-11 -36 -43.5 -57.5t-77.5 -21.5zM206 -16 q-16 0 -26 10t-10 26q0 12 6 23l364 630q13 22 36 22q16 0 26 -10t10 -26q0 -11 -7 -23l-364 -629q-12 -23 -35 -23z"/>
<glyph glyph-name="guilsinglleft" horiz-adv-x="323" unicode="‹" d="M226 74q-19 0 -34 15l-136 137q-20 20 -20 38t20 38l136 137q15 15 34 15q18 0 29.5 -11.5t11.5 -29.5q0 -19 -16 -35l-108 -109q-5 -5 0 -10l108 -109q16 -16 16 -35q0 -18 -11.5 -29.5t-29.5 -11.5z"/>
<glyph glyph-name="guilsinglright" horiz-adv-x="323" unicode="›" d="M97 74q-18 0 -29.5 11.5t-11.5 29.5q0 19 16 35l108 109q5 5 0 10l-108 109q-16 16 -16 35q0 18 11.5 29.5t29.5 11.5q19 0 34 -15l136 -137q20 -20 20 -38t-20 -38l-136 -137q-15 -15 -34 -15z"/>
<glyph glyph-name="fraction" horiz-adv-x="236" unicode="⁄" d="M-67 -16q-16 0 -26 10t-10 26q0 12 6 23l364 630q13 22 36 22q16 0 26 -10t10 -26q0 -11 -7 -23l-364 -629q-14 -23 -35 -23z"/>
<glyph glyph-name="Euro" d="M101 232q0 6 -6 6h-18q-19 0 -30.5 11t-11.5 28t11.5 28t30.5 11h18q6 0 6 6v41q0 6 -6 6h-18q-19 0 -30.5 11t-11.5 28t11.5 28t30.5 11h18q6 0 6 6q0 54 13 94q22 69 74.5 106.5t129.5 37.5q67 0 115.5 -30t65.5 -72q4 -11 4 -23q0 -19 -14 -32.5t-34 -13.5 q-27 0 -48 28q-32 43 -89 43q-73 0 -95 -70q-9 -27 -9 -68q0 -6 6 -6h165q19 0 30.5 -11t11.5 -28t-11.5 -28t-30.5 -11h-165q-6 0 -6 -6v-41q0 -6 6 -6h125q19 0 30.5 -11t11.5 -28t-11.5 -28t-30.5 -11h-125q-6 0 -6 -6q0 -46 9 -73q22 -70 95 -70q57 0 89 43q21 28 48 28 q20 0 34 -13.5t14 -32.5q0 -12 -4 -23q-17 -42 -65.5 -72t-115.5 -30q-77 0 -129.5 37.5t-74.5 106.5q-13 40 -13 99z" unicode="€"/>
<glyph glyph-name="trademark" horiz-adv-x="850" unicode="™" d="M78 680h245q17 0 28 -10t11 -26t-11 -26.5t-28 -10.5h-75q-6 0 -6 -6v-277q0 -19 -12 -31t-30 -12t-29.5 12t-11.5 31v277q0 6 -6 6h-75q-17 0 -28 10.5t-11 26.5t11 26t28 10zM717 322v178h-2l-62 -134q-14 -29 -41 -29t-41 29l-64 134h-2v-178q0 -19 -10.5 -30 t-28.5 -11t-28.5 11t-10.5 30v320q0 19 11 31t30 12q30 0 45 -34l98 -211h4l94 211q15 34 45 34q19 0 30 -12t11 -31v-320q0 -19 -10.5 -30t-28.5 -11t-28.5 11t-10.5 30z"/>
<glyph glyph-name="partialdiff" horiz-adv-x="547" unicode="∂" d="M261 90q57 0 90 50t41 144q-52 44 -119 44q-55 0 -87 -33t-32 -94q0 -50 29 -80.5t78 -30.5zM251 -11q-92 0 -148 59t-56 151q0 93 58.5 157t149.5 64q85 0 139 -54h2q-1 105 -38.5 166.5t-107.5 61.5q-43 0 -87 -28q-17 -9 -31 -9q-19 0 -32 14t-13 33q0 26 22 42 q57 45 145 45q118 0 182 -85t64 -246q0 -169 -63 -270t-186 -101z"/>
<glyph glyph-name="product" horiz-adv-x="667" unicode="∏" d="M528 -185q-26 0 -42.5 17t-16.5 45v751q0 6 -6 6h-259q-6 0 -6 -6v-751q0 -28 -16.5 -45t-42.5 -17t-42.5 17t-16.5 45v804q0 26 16.5 42.5t42.5 16.5h390q26 0 42 -16.5t16 -42.5v-804q0 -28 -16.5 -45t-42.5 -17z"/>
<glyph glyph-name="summation" horiz-adv-x="538" unicode="∑" d="M438 -180h-341q-29 0 -45.5 15t-16.5 40q0 30 28 91l158 352l-152 280q-32 57 -32 87q0 24 16 39.5t45 15.5h340q26 0 41 -14.5t15 -38.5t-14.5 -38.5t-41.5 -14.5h-259l145 -266q13 -23 13 -44q0 -20 -11 -45l-159 -353h271q27 0 41.5 -14.5t14.5 -38.5t-14.5 -38.5 t-41.5 -14.5z"/>
<glyph glyph-name="minus" d="M446 228h-343q-24 0 -37.5 13.5t-13.5 34.5t13.5 34.5t37.5 13.5h343q24 0 37.5 -13.5t13.5 -34.5t-13.5 -34.5t-37.5 -13.5z" unicode="−"/>
<glyph glyph-name="radical" horiz-adv-x="641" unicode="√" d="M320 -185q-41 0 -66 54l-112 228q-3 6 -9 3l-45 -22q-12 -5 -21 -5q-18 0 -29.5 12t-11.5 30q0 27 27 40l91 44q16 8 26 8q22 0 36 -26l105 -218h3l200 742q11 40 48 40q21 0 35 -13t14 -34q0 -5 -2 -17l-225 -811q-15 -55 -64 -55z"/>
<glyph glyph-name="infinity" horiz-adv-x="763" unicode="∞" d="M204 161q47 0 124 86q-41 47 -69 66t-55 19q-39 0 -62 -24t-23 -60q0 -37 23 -62t62 -25zM560 161q38 0 61 25.5t23 61.5t-22.5 60t-61.5 24q-27 0 -55 -19.5t-70 -67.5q44 -47 71 -65.5t54 -18.5zM564 84q-91 0 -182 100q-94 -100 -184 -100q-69 0 -114.5 45.5 t-45.5 116.5q0 72 46 117.5t116 45.5q85 0 181 -103q53 56 94.5 79.5t87.5 23.5q69 0 115.5 -45.5t46.5 -117.5q0 -71 -46 -116.5t-115 -45.5z"/>
<glyph glyph-name="approxequal" d="M362 103q-48 0 -105 35q-43 26 -69 26q-32 0 -55 -30q-16 -22 -39 -22q-17 0 -28.5 10.5t-11.5 28.5q0 16 10 32q20 32 53 51.5t70 19.5q48 0 105 -35q43 -26 69 -26q32 0 55 30q16 22 39 22q17 0 28.5 -10.5t11.5 -28.5q0 -16 -10 -32q-20 -32 -53 -51.5t-70 -19.5z M362 298q-48 0 -105 35q-43 26 -69 26q-32 0 -55 -30q-16 -22 -39 -22q-17 0 -28.5 10.5t-11.5 28.5q0 16 10 32q20 32 53 51.5t70 19.5q48 0 105 -35q43 -26 69 -26q32 0 55 30q16 22 39 22q17 0 28.5 -10.5t11.5 -28.5q0 -16 -10 -32q-20 -32 -53 -51.5t-70 -19.5z" unicode="≈"/>
<glyph glyph-name="notequal" d="M193 35q-13 -24 -35 -24q-15 0 -26 10t-11 25q0 9 5 21l31 60h-54q-24 0 -37.5 13.5t-13.5 34.5t13.5 34.5t37.5 13.5h103l55 106h-158q-24 0 -37.5 13.5t-13.5 34.5t13.5 34.5t37.5 13.5h207l47 91q11 24 35 24q15 0 26 -10t11 -25q0 -11 -6 -21l-31 -59h54 q24 0 37.5 -13.5t13.5 -34.5t-13.5 -34.5t-37.5 -13.5h-103l-54 -106h157q24 0 37.5 -13.5t13.5 -34.5t-13.5 -34.5t-37.5 -13.5h-206z" unicode="≠"/>
<glyph glyph-name="lessequal" d="M446 0h-343q-24 0 -37.5 13.5t-13.5 34.5t13.5 34.5t37.5 13.5h343q24 0 37.5 -13.5t13.5 -34.5t-13.5 -34.5t-37.5 -13.5zM202 364v-2l259 -105q36 -12 36 -48q0 -21 -13.5 -33.5t-34.5 -12.5q-9 0 -23 4l-322 135q-52 22 -52 61t52 61l322 135q14 4 23 4 q21 0 34.5 -12.5t13.5 -33.5q0 -36 -36 -48z" unicode="≤"/>
<glyph glyph-name="greaterequal" d="M446 0h-343q-24 0 -37.5 13.5t-13.5 34.5t13.5 34.5t37.5 13.5h343q24 0 37.5 -13.5t13.5 -34.5t-13.5 -34.5t-37.5 -13.5zM347 362v2l-259 105q-36 12 -36 48q0 21 13.5 33.5t34.5 12.5q9 0 23 -4l322 -135q52 -22 52 -61t-52 -61l-322 -135q-14 -4 -23 -4 q-21 0 -34.5 12.5t-13.5 33.5q0 36 36 48z" unicode="≥"/>
<glyph glyph-name="lozenge" horiz-adv-x="561" unicode="◊" d="M283 58l124 271l-126 271h-2l-125 -271l127 -271h2zM280 -57q-24 0 -41 13.5t-34 48.5l-142 292q-8 18 -8 32t8 32l142 292q17 35 34 48.5t41 13.5q25 0 42 -13.5t34 -48.5l142 -292q8 -18 8 -32t-8 -32l-142 -292q-17 -35 -34 -48.5t-42 -13.5z"/>
</font>
</defs>
</svg>
