<?xml version="1.0" standalone="no"?>
<!DOCTYPE svg PUBLIC "-//W3C//DTD SVG 1.1//EN" "http://www.w3.org/Graphics/SVG/1.1/DTD/svg11.dtd" >
<svg xmlns="http://www.w3.org/2000/svg" xmlns:xlink="http://www.w3.org/1999/xlink" version="1.1">
<metadata></metadata>
<defs>
<font id="grota_sans_bookbook" horiz-adv-x="1271" >
<font-face units-per-em="2048" ascent="1536" descent="-512" />
<missing-glyph horiz-adv-x="405" />
<glyph unicode="&#xfb01;" horiz-adv-x="1071" d="M43 909v107h147v170q0 323 336 323q27 0 56 -3t44 -6l15 -3v-111q-51 15 -104 15q-122 0 -177 -55.5t-55 -161.5v-168h295v-107h-295v-909h-115v909h-147zM776 1298q0 42 29.5 71.5t71.5 29.5q41 0 70.5 -30t29.5 -71q0 -40 -29.5 -69t-70.5 -29q-42 0 -71.5 29t-29.5 69 zM821 0v1016h117v-1016h-117z" />
<glyph unicode="&#xfb02;" horiz-adv-x="1040" d="M43 909v107h147v170q0 323 336 323q27 0 56 -3t44 -6l15 -3v-111q-51 15 -104 15q-122 0 -177 -55.5t-55 -161.5v-168h295v-107h-295v-909h-115v909h-147zM762 125v1378h115v-1349q0 -32 13.5 -45t41.5 -13q12 0 23 2.5t17 5.5l5 2v-102q-29 -14 -86 -14q-129 0 -129 135 z" />
<glyph horiz-adv-x="0" />
<glyph horiz-adv-x="682" />
<glyph unicode=" "  horiz-adv-x="405" />
<glyph unicode="&#x09;" horiz-adv-x="405" />
<glyph unicode="&#xa0;" horiz-adv-x="405" />
<glyph unicode="!" horiz-adv-x="387" d="M96 86q0 40 27 68t67 28t67.5 -28t27.5 -68q0 -41 -27.5 -70.5t-67.5 -29.5t-67 29.5t-27 70.5zM133 1499h127l-27 -1173h-77z" />
<glyph unicode="&#x22;" horiz-adv-x="583" d="M102 1722h109l-21 -567h-69zM375 1722h108l-20 -567h-72z" />
<glyph unicode="#" horiz-adv-x="1478" d="M63 446v99h279l154 399h-308v98h344l170 441h125l-170 -441h377l170 441h125l-170 -441h256v-98h-295l-153 -399h321v-99h-360l-172 -446h-121l170 446h-379l-172 -446h-121l170 446h-240zM465 545h379l153 399h-379z" />
<glyph unicode="$" horiz-adv-x="1083" d="M74 358l121 21q0 -51 16 -97.5t49.5 -86.5t91.5 -66.5t135 -32.5v625q-44 17 -71.5 28t-67.5 29.5t-65.5 36t-56.5 41t-50 51t-36.5 61t-25.5 74.5t-8 88q0 65 22 125t65.5 112.5t117.5 88t170 43.5v98h129v-100q185 -20 281 -130.5t96 -283.5l-121 -20 q0 130 -66.5 215.5t-197.5 103.5v-577q49 -19 83 -34t78 -38.5t73.5 -47t61.5 -57t50.5 -71t30.5 -87.5t12 -108q0 -73 -20.5 -135t-63.5 -114t-118.5 -85.5t-178.5 -43.5v-111h-129v109q-106 6 -187 40.5t-127.5 88.5t-69.5 116.5t-23 130.5zM236 1128q0 -56 18.5 -100 t56 -76.5t77.5 -55t99 -46.5v534q-127 -13 -189 -85t-62 -171zM602 96q75 8 128.5 35.5t80.5 68t39 82.5t12 91q0 61 -20 110t-58.5 84.5t-80.5 60t-101 48.5v-580z" />
<glyph unicode="%" horiz-adv-x="1200" d="M82 0l919 1483h127l-923 -1483h-123zM94 1143q0 191 52 274.5t178 83.5t179.5 -83.5t53.5 -274.5q0 -185 -53 -264.5t-180 -79.5q-121 0 -175.5 80.5t-54.5 263.5zM190 1143q0 -134 32.5 -195t101.5 -61q73 0 104 60t31 196q0 144 -31 207t-104 63t-103.5 -63t-30.5 -207 zM639 328q0 190 52.5 274t178.5 84t179 -84t53 -274q0 -186 -52.5 -266t-179.5 -80q-121 0 -176 81.5t-55 264.5zM737 328q0 -134 32 -195t101 -61q73 0 104.5 60t31.5 196q0 143 -31.5 206.5t-104.5 63.5t-103 -63t-30 -207z" />
<glyph unicode="&#x26;" horiz-adv-x="1323" d="M84 410q0 82 27 156t63.5 122t86.5 89t84 60.5t67 34.5q-15 18 -31 42t-43.5 71t-44.5 104.5t-17 110.5q0 123 87 212t239 89q153 0 234.5 -81t81.5 -201q0 -60 -27 -117.5t-63.5 -97t-86 -76t-82 -54.5t-63.5 -32l440 -545q127 186 127 440l113 -30q0 -135 -41 -270.5 t-125 -239.5l160 -197h-137l-99 119q-163 -137 -407 -137q-113 0 -206 25.5t-154.5 67.5t-103.5 98t-60.5 115.5t-18.5 121.5zM213 416q0 -43 12.5 -85t43 -84.5t76 -74.5t118.5 -52t164 -20q196 0 331 109l-477 577q-29 -13 -58 -30.5t-69 -51t-69.5 -72t-50.5 -96 t-21 -120.5zM408 1188q0 -125 118 -266q27 12 55 28t67 44t68 58t49.5 71.5t20.5 84.5q0 71 -46.5 122.5t-137.5 51.5q-96 0 -145 -57.5t-49 -136.5z" />
<glyph unicode="'" horiz-adv-x="311" d="M102 1722h109l-21 -567h-69z" />
<glyph unicode="(" horiz-adv-x="661" d="M86 766q0 111 16 216t43.5 189t62.5 161t74.5 135t78.5 108t74 84t62.5 58t43.5 35l16 11l78 -82q-9 -6 -24 -17t-58.5 -51.5t-83.5 -88t-88.5 -127t-83 -167t-58.5 -210t-24 -254.5q0 -104 14.5 -202.5t38.5 -175.5t55.5 -147.5t66.5 -123.5t70 -97.5t66.5 -74.5 t55.5 -51.5t38 -31.5l15 -9l-78 -84q-10 6 -27 18.5t-66 57.5t-93.5 97t-98.5 139t-93 182.5t-66 228t-27 274.5z" />
<glyph unicode=")" horiz-adv-x="661" d="M27 -147q9 6 24 16.5t58.5 50.5t83 87t88 126.5t83 167t58.5 210t24 255.5q0 132 -23 254t-60 211t-81.5 166t-89.5 128t-82 87.5t-60 52.5l-23 16l77 82q10 -6 27 -18.5t66 -58t94 -98t99.5 -139.5t94 -182.5t66.5 -227.5t27 -273q0 -142 -26 -274t-68 -229t-92.5 -181 t-101 -140t-92.5 -96.5t-68 -58.5l-26 -18z" />
<glyph unicode="*" horiz-adv-x="1292" d="M82 1006l2 108l489 -24l-362 333l76 74l331 -367l-22 494h109l-27 -494l334 363l75 -78l-366 -328l491 21l-2 -107l-491 27l364 -334l-77 -76l-330 367l22 -493h-108l26 493l-333 -362l-76 77l364 328z" />
<glyph unicode="+" horiz-adv-x="1011" d="M82 711v114h367v379h129v-379h354v-114h-354v-385h-129v385h-367z" />
<glyph unicode="," horiz-adv-x="423" d="M92 104q0 51 34.5 86t82.5 35q49 0 83 -35t34 -86v-106q0 -229 -176 -229q-11 0 -22 1.5t-16 3.5l-6 1v69q17 -6 46 -6q52 0 77 30.5t25 80.5v49q-28 -8 -45 -8q-48 0 -82.5 33.5t-34.5 80.5z" />
<glyph unicode="-" horiz-adv-x="1021" d="M121 573v115h780v-115h-780z" />
<glyph unicode="." horiz-adv-x="417" d="M94 104q0 51 33.5 86t81.5 35q50 0 84.5 -35t34.5 -86q0 -47 -35 -80.5t-84 -33.5q-47 0 -81 33.5t-34 80.5z" />
<glyph unicode="/" horiz-adv-x="1134" d="M37 0l919 1483h142l-924 -1483h-137z" />
<glyph unicode="0" horiz-adv-x="1198" d="M104 721q0 398 120.5 588t375.5 190q254 0 375 -190.5t121 -587.5q0 -385 -120 -561t-376 -176q-250 0 -373 177.5t-123 559.5zM233 721q0 -320 92.5 -470.5t274.5 -150.5q190 0 277.5 148.5t87.5 472.5q0 339 -88.5 500t-276.5 161q-189 0 -278 -161t-89 -500z" />
<glyph unicode="1" horiz-adv-x="673" d="M49 1100v121q60 0 119.5 22.5t102.5 55t79.5 70t55.5 64.5t26 42l4 8h105v-1483h-129v1264q-18 -21 -47 -44.5t-75.5 -52.5t-110.5 -48t-130 -19z" />
<glyph unicode="2" horiz-adv-x="1060" d="M84 1057q0 131 44 228t144.5 155.5t251.5 58.5q111 0 197.5 -34t138.5 -91.5t78.5 -128.5t26.5 -151q0 -107 -38.5 -205t-100 -172.5t-136 -142t-149.5 -125t-136.5 -109.5t-100 -106.5t-38.5 -106.5v-12h697v-115h-861v90q0 77 40.5 149t105 131.5t142.5 119.5 t156 123.5t142.5 131.5t105 156.5t40.5 185.5q0 56 -19 107.5t-56 94t-99 68t-142 25.5q-151 0 -229 -97.5t-78 -258.5z" />
<glyph unicode="3" horiz-adv-x="1130" d="M94 1108q2 187 120 289t337 102q210 0 331.5 -108t121.5 -279q0 -143 -76.5 -229t-208.5 -117q147 -33 230 -128t83 -247q0 -179 -129.5 -293t-349.5 -114q-219 0 -338 102.5t-119 288.5l129 31q0 -131 82 -219t250 -87q153 0 248.5 82t95.5 228q0 97 -56.5 164 t-147.5 96.5t-208 29.5h-67v127h67q172 0 277.5 66.5t105.5 200.5q0 133 -91.5 210.5t-233.5 77.5q-83 0 -147.5 -26t-102 -70.5t-56 -97t-18.5 -111.5z" />
<glyph unicode="4" horiz-adv-x="1079" d="M47 428v94l690 961h135v-940h138v-115h-138v-428h-129v428h-696zM205 543h538v747z" />
<glyph unicode="5" horiz-adv-x="1110" d="M94 391l121 23q0 -61 19.5 -115.5t59 -99.5t106 -72t153.5 -27q158 0 254 91t96 258q0 78 -21 142t-64.5 113.5t-116 77t-169.5 27.5q-63 0 -131.5 -15t-104 -28t-38.5 -16h-121v733h826v-117h-697v-494q149 54 279 54q241 0 364 -131.5t123 -343.5q0 -218 -126.5 -342.5 t-346.5 -124.5q-222 0 -343.5 108t-121.5 299z" />
<glyph unicode="6" horiz-adv-x="1179" d="M106 782q0 86 4 154.5t17.5 145.5t36 135t61.5 113t91.5 90.5t129 57t172.5 21.5q110 0 192.5 -27t131.5 -69.5t80 -104.5t41.5 -122t11.5 -132l-121 -30q0 58 -7.5 106t-29 98t-57 84.5t-96 56t-141.5 21.5q-75 0 -134.5 -19t-99.5 -48.5t-68.5 -77.5t-44.5 -95.5 t-24.5 -113.5t-11 -119t-2.5 -125v-67q20 29 47.5 56t74.5 60t117 53.5t152 20.5q195 0 324.5 -129t129.5 -330q0 -202 -129.5 -332t-349.5 -130q-92 0 -165.5 22t-125 59t-89.5 96t-60.5 122.5t-35.5 149.5t-17.5 166.5t-4.5 182.5zM242 565q6 -85 18.5 -150.5t38.5 -126.5 t64.5 -101t99 -63.5t139.5 -23.5q156 0 251 102t95 253q0 145 -99 239t-249 94q-66 0 -126 -21t-98 -48.5t-70 -63t-44.5 -55.5t-19.5 -35z" />
<glyph unicode="7" horiz-adv-x="942" d="M39 1362v121h872v-80l-530 -1403h-137l514 1362h-719z" />
<glyph unicode="8" horiz-adv-x="1218" d="M92 412q0 139 86 244t223 139q-113 33 -183.5 122t-70.5 213q0 159 130 264t335 105q203 0 333 -105.5t130 -263.5q0 -124 -70.5 -213t-183.5 -122q135 -36 220 -140.5t85 -242.5q0 -197 -143 -312.5t-373 -115.5q-232 0 -375 115.5t-143 312.5zM227 432 q0 -150 108.5 -241t274.5 -91q164 0 272.5 91t108.5 241q0 130 -96 219.5t-231 89.5h-103q-137 0 -235.5 -89.5t-98.5 -219.5zM283 1116q0 -109 80.5 -183.5t197.5 -74.5h103q117 0 196.5 74.5t79.5 183.5t-94 187.5t-234 78.5q-142 0 -235.5 -78t-93.5 -188z" />
<glyph unicode="9" horiz-adv-x="1179" d="M96 1036q0 203 129.5 333t349.5 130q92 0 165.5 -22t124.5 -59t89 -96t60 -123t35 -150t17.5 -166t4.5 -183q0 -86 -4 -154t-17 -145.5t-35.5 -135t-61 -113t-91.5 -90.5t-129 -56.5t-172 -21.5q-110 0 -193 25.5t-132 65.5t-80 98.5t-42 116t-12 126.5l123 28 q0 -342 330 -342q76 0 135.5 19t99.5 48.5t69 78t45 95t24.5 113t11 119.5t2.5 125v68q-20 -29 -47.5 -56t-74.5 -60t-117 -53.5t-152 -20.5q-195 0 -325 128.5t-130 329.5zM231 1028q0 -146 99 -240t250 -94q65 0 124 20t96.5 47t69.5 61t45.5 55t20.5 36 q-6 85 -18.5 151.5t-38.5 128t-65 101.5t-99.5 64t-139.5 24q-156 0 -250 -101.5t-94 -252.5z" />
<glyph unicode=":" horiz-adv-x="479" d="M123 104q0 51 33.5 86t81.5 35q50 0 84 -35t34 -86q0 -47 -34.5 -80.5t-83.5 -33.5q-47 0 -81 33.5t-34 80.5zM123 907q0 51 33.5 86t81.5 35q50 0 84 -35t34 -86q0 -47 -34.5 -80.5t-83.5 -33.5q-47 0 -81 33.5t-34 80.5z" />
<glyph unicode=";" horiz-adv-x="489" d="M125 907q0 51 33.5 86t81.5 35q50 0 84 -35t34 -86q0 -47 -34.5 -80.5t-83.5 -33.5q-47 0 -81 33.5t-34 80.5zM127 104q0 51 34.5 86t82.5 35q49 0 82.5 -35t33.5 -86v-106q0 -229 -176 -229q-11 0 -22 1.5t-16 3.5l-5 1v69q16 -6 45 -6q52 0 77.5 30.5t25.5 80.5v49 q-28 -8 -45 -8q-48 0 -82.5 33.5t-34.5 80.5z" />
<glyph unicode="&#x3c;" horiz-adv-x="1013" d="M53 487v105l873 534v-135l-750 -452l750 -453v-135z" />
<glyph unicode="=" horiz-adv-x="1423" d="M127 436v119h1167v-119h-1167zM129 934v117h1165v-117h-1165z" />
<glyph unicode="&#x3e;" horiz-adv-x="1013" d="M88 -49v135l750 451l-750 454v133l873 -534v-105z" />
<glyph unicode="?" horiz-adv-x="1013" d="M51 1071q1 224 120.5 326t346.5 102q59 0 116 -12t116.5 -43t103.5 -79t72 -127t28 -179q0 -72 -24.5 -137t-64 -115.5t-87 -97t-95 -89.5t-87 -85.5t-64 -93t-24.5 -103.5v-66h-129v64q0 65 24.5 123.5t63.5 104.5t86.5 90t95 87.5t86.5 88.5t63.5 102.5t24.5 120.5 q0 79 -21.5 140t-54 95.5t-76.5 56.5t-82 29.5t-77 7.5q-163 0 -251.5 -78.5t-88.5 -263.5zM346 37q0 45 32 77.5t75 32.5q44 0 76 -32t32 -78q0 -45 -31.5 -77t-76.5 -32q-43 0 -75 32t-32 77z" />
<glyph unicode="@" horiz-adv-x="1843" d="M86 504q0 257 105.5 447.5t291.5 289t430 98.5q245 0 432.5 -92t293.5 -269.5t106 -416.5q0 -127 -22.5 -226t-60 -161.5t-90.5 -103t-110 -56.5t-123 -16q-48 0 -84.5 13.5t-55.5 32.5t-30.5 38.5t-14.5 33.5l-3 13h-8q-11 -23 -28 -44.5t-46 -44.5t-74.5 -36.5 t-101.5 -13.5q-145 0 -238.5 93.5t-93.5 231.5q0 140 95.5 233t244.5 93q95 0 151.5 -35t80.5 -80l4 -8h2v164q0 114 -51.5 177t-176.5 63q-45 0 -80.5 -10t-57.5 -24.5t-37.5 -38.5t-23 -42t-11.5 -46t-4.5 -40.5t-0.5 -34.5l-100 16q0 37 5 72.5t24 84t51 83.5t93.5 60.5 t143.5 25.5q338 0 338 -334v-481q0 -113 107 -113q56 0 102.5 23.5t85 75t60.5 144t22 218.5q0 307 -197.5 489.5t-517.5 182.5q-208 0 -368.5 -88t-251 -254t-90.5 -387q0 -213 84 -375.5t246 -254t380 -91.5q73 0 139.5 6.5t109 16t74.5 18.5t46 16l14 6l35 -108 q-6 -3 -16.5 -7t-49 -14.5t-83 -19t-117.5 -15t-152 -6.5q-191 0 -347 61.5t-261 171.5t-162 262t-57 333zM676 315q0 -98 62.5 -159.5t164.5 -61.5q69 0 119.5 21t76 56t37 70.5t11.5 73.5q1 37 -11 73.5t-38.5 70.5t-76.5 55t-118 21q-102 0 -164.5 -61.5t-62.5 -158.5z " />
<glyph unicode="A" horiz-adv-x="1097" d="M57 0l426 1483h129l426 -1483h-135l-90 326h-530l-90 -326h-136zM313 440h467l-231 844z" />
<glyph unicode="B" horiz-adv-x="1189" d="M156 0v1483h366q482 0 482 -377q0 -122 -61 -203t-171 -119q166 -27 261 -125.5t95 -263.5q0 -204 -142 -299.5t-400 -95.5h-430zM285 115h295q197 0 307 70t110 216q0 312 -415 312h-297v-598zM285 813h204q175 0 279 68t104 204q0 146 -91.5 213.5t-250.5 67.5h-245 v-553z" />
<glyph unicode="C" horiz-adv-x="1157" d="M104 731q0 68 2 123t8.5 121t17 118t29.5 108t45 98.5t64 81.5t85 63.5t109.5 39.5t137.5 15q473 0 473 -479l-129 -29q0 63 -9 117t-33 106t-62 88t-99 58t-141 22q-59 0 -107.5 -13.5t-84 -34.5t-63.5 -57t-46 -69.5t-31 -86t-19.5 -92t-10 -100t-4 -98.5t-0.5 -100 q0 -75 0.5 -118t4 -107t10 -100.5t19.5 -85.5t31 -77t45.5 -59t63 -47t83.5 -26.5t107 -10.5q99 0 168.5 29.5t106.5 85t53 122t16 152.5l129 -22q0 -81 -12 -148t-44.5 -131t-84.5 -107.5t-136.5 -70t-195.5 -26.5q-74 0 -135.5 11.5t-108.5 31.5t-84 53t-63.5 70t-45.5 89 t-30.5 102.5t-18 118t-8.5 129.5t-2 142z" />
<glyph unicode="D" horiz-adv-x="1267" d="M156 0v1483h370q137 0 257.5 -57t207 -156t137 -239t50.5 -300q0 -213 -86 -380.5t-234.5 -259t-331.5 -91.5h-370zM285 115h223q236 0 387.5 171t151.5 445q0 181 -69 326.5t-192.5 227t-277.5 81.5h-223v-1251z" />
<glyph unicode="E" horiz-adv-x="1075" d="M156 0v1483h843v-115h-714v-553h604v-115h-604v-585h714v-115h-843z" />
<glyph unicode="F" horiz-adv-x="1036" d="M156 0v1483h823v-117h-694v-551h608v-115h-608v-700h-129z" />
<glyph unicode="G" horiz-adv-x="1177" d="M104 731q0 68 2 123t8.5 121t17 118t29.5 108t45 98.5t64 81.5t85 63.5t109.5 39.5t137.5 15q112 0 197 -27t137 -71t84 -109t43.5 -132t11.5 -148l-123 -21q0 391 -350 391q-59 0 -107.5 -13.5t-84 -34.5t-63.5 -57t-46 -69.5t-31 -86t-19.5 -92t-10 -100t-4 -98.5 t-0.5 -100q0 -75 0.5 -118t4 -107t10 -100.5t19.5 -85.5t31 -77t45.5 -59t63 -47t83.5 -26.5t107 -10.5q83 0 145.5 21t101 55.5t62 85t32.5 103t9 116.5v142h-407v114h530v-252q0 -501 -473 -501q-74 0 -135.5 11.5t-108.5 31.5t-84 53t-63.5 70t-45.5 89t-30.5 102.5 t-18 118t-8.5 129.5t-2 142z" />
<glyph unicode="H" horiz-adv-x="1312" d="M156 0v1483h129v-674h743v674h129v-1483h-129v694h-743v-694h-129z" />
<glyph unicode="I" horiz-adv-x="440" d="M156 0v1483h129v-1483h-129z" />
<glyph unicode="J" horiz-adv-x="772" d="M31 -2v119q5 -1 23 -4.5t33 -6t37 -4.5t42 -2q330 0 330 353v1030h129v-1032q0 -467 -445 -467q-62 0 -149 14z" />
<glyph unicode="K" horiz-adv-x="1120" d="M156 0v1483h131v-865l633 865h159l-532 -703l551 -780h-158l-473 676l-180 -240v-436h-131z" />
<glyph unicode="L" horiz-adv-x="954" d="M156 0v1483h129v-1368h643v-115h-772z" />
<glyph unicode="M" horiz-adv-x="1478" d="M156 0v1483h110l473 -727l475 727h111v-1483h-129v1227l-457 -692l-454 692v-1227h-129z" />
<glyph unicode="N" horiz-adv-x="1306" d="M156 0v1483h110l756 -1243v1243h129v-1483h-129l-737 1214v-1214h-129z" />
<glyph unicode="O" d="M100 735q0 395 129.5 579.5t407.5 184.5t406 -184.5t128 -579.5q0 -394 -127.5 -572.5t-406.5 -178.5t-408 179t-129 572zM231 735q0 -333 97 -484t309 -151t308.5 151t96.5 484q0 337 -96.5 492t-308.5 155t-309 -155t-97 -492z" />
<glyph unicode="P" horiz-adv-x="1185" d="M156 0v1483h438q121 0 216.5 -23.5t168.5 -74t112 -135.5t39 -201q0 -111 -39.5 -195.5t-112.5 -136t-170.5 -77.5t-217.5 -26h-305v-614h-129zM285 733h305q189 0 299 76.5t110 239.5q0 164 -110 240.5t-303 76.5h-301v-633z" />
<glyph unicode="Q" horiz-adv-x="1267" d="M98 739q0 394 129.5 577t407.5 183t406 -183.5t128 -578.5q0 -369 -111.5 -549t-352.5 -200q4 -46 21.5 -84.5t51.5 -71.5t93 -51q56 -17 129 -17h8v-118h-7q-104 0 -181 28q-81 30 -126 81.5t-67.5 108.5t-26.5 122q-260 11 -381 191t-121 562zM229 739q0 -333 97 -486 t309 -153q211 0 307 152t96 485q0 337 -96 491t-307 154q-212 0 -309 -154t-97 -489z" />
<glyph unicode="R" horiz-adv-x="1193" d="M156 0v1483h434q122 0 217.5 -23.5t168 -74t111.5 -135.5t39 -201q0 -166 -89 -266.5t-249 -137.5l306 -645h-133l-295 627q-27 -2 -78 -2h-303v-625h-129zM285 741h301q190 0 299.5 74.5t109.5 233.5q0 164 -110 240.5t-303 76.5h-297v-625z" />
<glyph unicode="S" horiz-adv-x="1087" d="M78 371l123 20q0 -56 18.5 -106.5t56.5 -93.5t105.5 -68t157.5 -25q76 0 134.5 16.5t94 43.5t58 64.5t30.5 75t8 79.5q0 68 -26 121t-69.5 87.5t-100 62t-119.5 50.5t-125.5 47t-119 57t-100 75t-69.5 106.5t-26 146.5q0 69 25 132.5t74 117.5t134 86.5t195 32.5 q224 0 338 -112.5t114 -305.5l-125 -18q0 149 -80.5 234t-244.5 85q-151 0 -226 -73t-75 -181q0 -61 26 -109t69.5 -80t100.5 -58.5t119.5 -50t125.5 -49t120 -61.5t100.5 -82t69.5 -115t26 -156q0 -80 -24 -146t-75.5 -120.5t-142.5 -86t-216 -32.5h-8q-91 0 -167 22 q-78 22 -130.5 59.5t-87.5 89t-50.5 106t-15.5 112.5z" />
<glyph unicode="T" horiz-adv-x="1048" d="M33 1368v115h983v-115h-428v-1368h-129v1368h-426z" />
<glyph unicode="U" d="M145 504v979h129v-969q0 -186 96 -300t265 -114t265.5 113.5t96.5 300.5v969h129v-979q0 -239 -125.5 -379.5t-365.5 -140.5q-161 0 -272.5 66t-164.5 181.5t-53 272.5z" />
<glyph unicode="V" horiz-adv-x="1138" d="M51 1483h144l378 -1299l379 1299h135l-448 -1483h-139z" />
<glyph unicode="W" horiz-adv-x="1798" d="M57 1483h138l340 -1297l303 1297h118l314 -1297l334 1297h135l-400 -1483h-137l-301 1286l-303 -1286h-135z" />
<glyph unicode="X" horiz-adv-x="1091" d="M29 0l436 750l-422 733h145l357 -637l356 637h148l-422 -735l438 -748h-147l-373 651l-371 -651h-145z" />
<glyph unicode="Y" horiz-adv-x="1148" d="M61 1483h142l375 -740l374 740h135l-448 -875v-608h-129v604z" />
<glyph unicode="Z" horiz-adv-x="1001" d="M70 1366v117h860v-111l-721 -1257h723v-115h-860v106l716 1260h-718z" />
<glyph unicode="[" horiz-adv-x="704" d="M129 -88v1692h518v-115h-389v-1462h389v-115h-518z" />
<glyph unicode="\" horiz-adv-x="1134" d="M37 1483h139l920 -1483h-138z" />
<glyph unicode="]" horiz-adv-x="704" d="M57 27h387v1462h-387v115h516v-1692h-516v115z" />
<glyph unicode="^" horiz-adv-x="720" d="M92 1147l182 344h172l183 -344h-88l-179 250l-180 -250h-90z" />
<glyph unicode="_" horiz-adv-x="1148" d="M106 -23h936v-114h-936v114z" />
<glyph unicode="`" horiz-adv-x="866" d="M246 1532h164l182 -344h-105z" />
<glyph unicode="a" horiz-adv-x="978" d="M84 303q0 131 99.5 220t262.5 89q60 0 110 -11t78.5 -27t48.5 -32t27 -27l7 -11h6v182q0 107 -64 170.5t-200 63.5q-71 0 -122.5 -18.5t-76.5 -42t-39.5 -59t-17 -57t-2.5 -47.5l-105 25q0 37 5 70t26.5 79.5t58.5 78.5t108 55.5t167 23.5q102 0 177 -25t118.5 -71 t63.5 -103.5t20 -128.5v-538q0 -36 13 -51t42 -15q11 0 22.5 2.5t16.5 5.5l6 2v-102q-29 -14 -86 -14q-56 0 -86.5 32.5t-30.5 79.5v25h-6q-2 -6 -7 -15t-27 -32.5t-50.5 -41.5t-82 -33t-118.5 -15q-165 0 -263.5 89.5t-98.5 223.5zM201 301q0 -85 68 -144t180 -59 q140 0 208 58.5t68 144.5t-68 144.5t-208 58.5q-112 0 -180 -59t-68 -144z" />
<glyph unicode="b" horiz-adv-x="1001" d="M133 0v1503h115v-624h8q25 63 93.5 106t180.5 43q195 0 287 -129.5t92 -384.5q0 -258 -87 -391t-290 -133q-114 0 -187 46t-95 107h-6v-143h-111zM236 514q0 -74 7 -133t26.5 -114t50.5 -91.5t82 -58t118 -21.5q65 0 113 19.5t78.5 54t49.5 88t26.5 115t7.5 141.5 q0 203 -64 304.5t-211 101.5q-284 0 -284 -406z" />
<glyph unicode="c" horiz-adv-x="948" d="M92 504q0 270 97.5 397t304.5 127q108 0 184 -27.5t115.5 -77.5t56 -106.5t16.5 -128.5l-112 -24q0 256 -260 256q-149 0 -217 -99.5t-68 -316.5q0 -214 68 -311t217 -97q75 0 127 19t80 55t39.5 79.5t11.5 100.5l112 -20q0 -58 -9.5 -105t-34 -92t-65 -75.5t-107 -49 t-154.5 -18.5q-210 0 -306 122.5t-96 391.5z" />
<glyph unicode="d" horiz-adv-x="1003" d="M92 514q0 255 92 384.5t287 129.5q113 0 182 -43t92 -106h9v624h116v-1503h-112v143h-4q-23 -61 -96.5 -107t-186.5 -46q-204 0 -291.5 132.5t-87.5 391.5zM207 514q0 -80 7.5 -141.5t26 -115t49.5 -88t78.5 -54t112.5 -19.5q84 0 141.5 31.5t88 91.5t43 130.5 t12.5 164.5q0 406 -285 406q-146 0 -210 -102t-64 -304z" />
<glyph unicode="e" horiz-adv-x="956" d="M90 504q0 270 97.5 397t306.5 127q92 0 160 -27.5t108 -72t64.5 -112t33 -135.5t8.5 -155v-24h-661q0 -213 68.5 -309.5t218.5 -96.5q72 0 127 18.5t84 48t43 60.5t14 62l104 -19q0 -47 -19.5 -92.5t-60 -88t-116.5 -69t-176 -26.5q-210 0 -307 122.5t-97 391.5zM211 598 h543q-2 71 -14 124.5t-39.5 100.5t-79.5 72t-127 25q-132 0 -201 -78t-82 -244z" />
<glyph unicode="f" horiz-adv-x="630" d="M43 909v107h147v170q0 323 336 323q27 0 56 -3t44 -6l15 -3v-111q-51 15 -104 15q-122 0 -177 -55.5t-55 -161.5v-168h295v-107h-295v-909h-115v909h-147z" />
<glyph unicode="g" horiz-adv-x="1003" d="M90 502q0 262 88 394t297 132q112 0 180.5 -47t94.5 -111h10v146h108v-1118q0 -328 -366 -328q-73 0 -132 12.5t-96.5 30.5t-64.5 46t-40.5 52t-21 56t-9 50.5t-1.5 41.5l107 22q0 -27 3 -49.5t18 -54.5t40.5 -53.5t76.5 -37.5t120 -16q133 0 193.5 62t60.5 168v241h-8 q-26 -62 -94.5 -106.5t-180.5 -44.5q-199 0 -291 129.5t-92 382.5zM205 502q0 -201 62.5 -303.5t211.5 -102.5q83 0 141 31t89 89t44 127t13 159q0 73 -8 133t-28.5 114.5t-52.5 91t-82 58t-116 21.5q-82 0 -136.5 -28t-84 -85.5t-41.5 -129.5t-12 -175z" />
<glyph unicode="h" horiz-adv-x="1026" d="M133 0v1489h113v-633h4q7 23 23.5 48t49 55t91 49.5t133.5 19.5q96 0 167 -28t110.5 -78t58 -111t18.5 -135v-676h-115v653q0 56 -12.5 101t-41.5 84t-82 60.5t-128 21.5q-62 0 -111.5 -19.5t-78.5 -49t-48.5 -67t-26.5 -70t-7 -61.5v-653h-117z" />
<glyph unicode="i" horiz-adv-x="382" d="M88 1298q0 42 29 71.5t71 29.5q41 0 71 -30t30 -71q0 -40 -30 -69t-71 -29q-42 0 -71 29t-29 69zM133 0v1016h117v-1016h-117z" />
<glyph unicode="j" horiz-adv-x="382" d="M-199 -307q75 -15 125 -15q207 0 207 224v1114h117v-1114q0 -332 -311 -332q-42 0 -138 12v111zM88 1298q0 42 30 71.5t72 29.5q41 0 71 -30t30 -71q0 -40 -30 -69t-71 -29q-42 0 -72 29t-30 69z" />
<glyph unicode="k" horiz-adv-x="911" d="M133 0v1503h117v-1071l483 584h139l-413 -490l424 -526h-140l-356 442l-137 -163v-279h-117z" />
<glyph unicode="l" horiz-adv-x="407" d="M131 125v1378h115v-1349q0 -32 13 -45t42 -13q12 0 23.5 2.5t16.5 5.5l5 2v-102q-29 -14 -86 -14q-129 0 -129 135z" />
<glyph unicode="m" horiz-adv-x="1660" d="M133 0v1016h105v-166h6q6 17 17 36.5t35.5 46t56.5 46.5t83.5 34.5t112.5 14.5q239 0 319 -178q17 34 41.5 62.5t61 56t91 43.5t120.5 16q78 0 138.5 -18.5t100.5 -50.5t65.5 -77.5t36.5 -96t11 -109.5v-676h-115v653q0 56 -12.5 101t-41.5 84t-82 60.5t-128 21.5 q-107 0 -169.5 -51t-88.5 -126q4 -46 4 -67v-676h-115v653q0 56 -12.5 101t-41.5 84t-82 60.5t-128 21.5q-59 0 -107.5 -17.5t-78 -45t-50 -62t-28.5 -66.5t-8 -61v-668h-117z" />
<glyph unicode="n" horiz-adv-x="1026" d="M133 0v1016h105v-166h6q6 17 17 36.5t35.5 46t56.5 46.5t83.5 34.5t112.5 14.5q96 0 166 -27.5t109.5 -77.5t58 -111t18.5 -136v-676h-115v653q0 56 -12.5 101t-41.5 84t-82 60.5t-128 21.5q-59 0 -107.5 -17.5t-78 -45t-50 -62t-28.5 -66.5t-8 -61v-668h-117z" />
<glyph unicode="o" horiz-adv-x="987" d="M90 504q0 270 97.5 397t306.5 127t305 -126.5t96 -397.5q0 -270 -95.5 -392t-305.5 -122t-307 122.5t-97 391.5zM207 504q0 -213 68.5 -310.5t218.5 -97.5q149 0 217.5 97t68.5 311q0 217 -68.5 316.5t-217.5 99.5t-218 -99.5t-69 -316.5z" />
<glyph unicode="p" horiz-adv-x="1003" d="M133 -406v1424h113v-144h4q24 61 96.5 108.5t185.5 47.5q104 0 178 -35.5t118 -105.5t63.5 -164.5t19.5 -220.5q0 -255 -92 -384.5t-287 -129.5q-113 0 -182 43t-94 106h-6v-545h-117zM238 504q0 -408 284 -408q146 0 210.5 102.5t64.5 305.5q0 101 -12.5 173t-42.5 129 t-85 85.5t-135 28.5q-68 0 -118.5 -21.5t-81.5 -57.5t-50.5 -90.5t-26.5 -113.5t-7 -133z" />
<glyph unicode="q" horiz-adv-x="1001" d="M92 502q0 127 19.5 221t63.5 164t118 105.5t178 35.5q113 0 186 -47.5t97 -108.5h4v144h112v-1422h-116v543h-9q-23 -62 -92 -104.5t-182 -42.5q-195 0 -287 128.5t-92 383.5zM207 502q0 -202 64 -304t210 -102q285 0 285 406q0 94 -12.5 164.5t-43 130.5t-88 91.5 t-141.5 31.5q-65 0 -112.5 -19.5t-78.5 -54t-49.5 -88t-26 -115t-7.5 -141.5z" />
<glyph unicode="r" horiz-adv-x="667" d="M133 0v1016h105v-191h6q9 28 26.5 57t52.5 65t97 58.5t141 22.5q21 0 57 -6v-117q-48 8 -67 8q-73 0 -129 -23.5t-88 -58t-51.5 -82.5t-26 -89.5t-6.5 -86.5v-573h-117z" />
<glyph unicode="s" horiz-adv-x="888" d="M76 262l108 19q0 -79 63 -133t195 -54q71 0 121.5 15t76 41t36 54t10.5 62q0 53 -32.5 91.5t-84.5 61.5t-114.5 42t-125 42t-114.5 53t-84.5 83t-32.5 125q0 50 19.5 95.5t59 84t107 61.5t154.5 23q179 0 269 -78.5t90 -212.5l-111 -18q0 95 -60.5 149t-183.5 54 q-115 0 -171 -45t-56 -113q0 -48 32.5 -83.5t84 -57.5t114 -42t125 -45t114 -58.5t84 -90t32.5 -131.5q0 -56 -19 -102.5t-60 -84t-113 -59t-171 -22.5h-8q-90 0 -160 22q-72 24 -113 65t-61 88t-20 99z" />
<glyph unicode="t" horiz-adv-x="653" d="M41 909v107h147v266h115v-266h318v-107h-318v-575q0 -238 205 -238q53 0 104 17v-111q-36 -12 -116 -12q-308 0 -308 309v610h-147z" />
<glyph unicode="u" horiz-adv-x="1026" d="M127 340v676h115v-654q0 -266 260 -266q62 0 111.5 19.5t79 49.5t49 67.5t27 70.5t7.5 62v651h117v-1016h-107v168h-6q-3 -13 -12 -30t-32.5 -44.5t-55 -49.5t-85 -38t-118.5 -16q-96 0 -166 27.5t-109 77.5t-57 110.5t-18 134.5z" />
<glyph unicode="v" horiz-adv-x="931" d="M53 1016h131l285 -844l287 844h121l-349 -1016h-125z" />
<glyph unicode="w" horiz-adv-x="1443" d="M57 1016h123l256 -840l228 840h112l238 -840l248 840h120l-305 -1016h-125l-229 842l-231 -842h-119z" />
<glyph unicode="x" horiz-adv-x="890" d="M35 0l344 510l-334 506h131l270 -408l271 408h131l-336 -506l346 -510h-131l-281 414q-13 -26 -83.5 -129.5t-134.5 -194.5l-64 -90h-129z" />
<glyph unicode="y" horiz-adv-x="931" d="M53 1016h131l285 -844l287 844h121l-349 -1016l-59 -184q-43 -130 -102 -189t-162 -59q-29 0 -56 3.5t-39 6.5l-12 4v111q40 -15 99 -15q63 0 101 31t62 107l60 184h-17z" />
<glyph unicode="z" horiz-adv-x="837" d="M76 909v107h682v-101l-551 -809h553v-106h-682v98l547 811h-549z" />
<glyph unicode="{" horiz-adv-x="710" d="M29 709v143q24 0 51 7.5t56.5 27t53 47.5t39 74t15.5 102v203q0 90 25 160t65 113.5t96.5 71.5t113 39t120.5 11v-117q-58 0 -106.5 -13.5t-92 -43.5t-68 -87.5t-24.5 -137.5v-211q0 -67 -17.5 -122.5t-43 -89.5t-57 -58.5t-56 -34.5t-43.5 -13q20 -4 44 -14t56 -35 t57 -58.5t42.5 -89t17.5 -122.5v-209q0 -65 17 -115.5t44 -82t66 -51.5t78.5 -28t85.5 -8v-114q-64 0 -120.5 10.5t-113 38.5t-96.5 71t-65 113t-25 160v205q0 56 -15.5 102t-39 74t-53 47.5t-56.5 27t-51 7.5z" />
<glyph unicode="|" horiz-adv-x="391" d="M131 -346v2003h129v-2003h-129z" />
<glyph unicode="}" horiz-adv-x="710" d="M47 -33q58 0 107 13.5t92.5 44t68.5 88.5t25 139v209q0 82 25 146.5t62.5 99t69 51.5t56.5 22q-19 3 -43 13t-55 34.5t-55.5 58.5t-42 89.5t-17.5 122.5v211q0 80 -25 137.5t-68.5 87.5t-92.5 43.5t-107 13.5v117q63 0 120 -11t113.5 -39t97 -71.5t66 -113.5t25.5 -160 v-203q0 -56 15.5 -102t39 -74t53 -47.5t56.5 -27t51 -7.5v-143q-24 0 -51 -7.5t-56.5 -27t-53 -47.5t-39 -74t-15.5 -102v-205q0 -90 -25.5 -160t-66 -113t-97 -71t-113.5 -38.5t-120 -10.5v114z" />
<glyph unicode="~" horiz-adv-x="1036" d="M125 612q0 30 12 63t35 63.5t64.5 50.5t93.5 20q49 0 99.5 -21t85.5 -45.5t80.5 -45.5t86.5 -21q70 0 106.5 38t36.5 74h95q0 -24 -12 -56t-36.5 -67t-74.5 -59t-115 -24q-52 0 -102.5 21t-84.5 45.5t-78.5 45.5t-86.5 21q-55 0 -84 -31.5t-29 -71.5h-92z" />
<glyph unicode="&#xa1;" horiz-adv-x="370" d="M88 928q0 41 27 70.5t67 29.5t67 -29.5t27 -70.5q0 -40 -27.5 -68.5t-66.5 -28.5t-66.5 28.5t-27.5 68.5zM125 -485l22 1173h78l27 -1173h-127z" />
<glyph unicode="&#xa2;" horiz-adv-x="1150" d="M94 729q0 72 3 128.5t13.5 125t29 120t51.5 103.5t78 87t111.5 60t149.5 31v191h129v-193q406 -33 406 -485l-119 -23q0 56 -8 106t-29 100t-53.5 87.5t-84.5 64t-120 34.5v-1084q293 32 293 387l119 -22q0 -451 -404 -484v-176h-129v176q-83 5 -148 26t-110.5 51.5 t-78 79t-51.5 99t-30 121.5t-14.5 136t-3.5 153zM225 729q0 -78 1 -123t7.5 -109t18.5 -101t34.5 -80.5t55.5 -67.5t82 -42.5t113 -23.5v1084q-50 -5 -91 -20t-71.5 -34t-54 -50t-39 -59t-26.5 -69t-17 -73t-9 -78.5t-3.5 -77t-0.5 -76.5z" />
<glyph unicode="&#xa3;" horiz-adv-x="1124" d="M84 545v114h219q-2 6 -16 45.5t-17 49t-15 44.5t-16 48.5t-12.5 43.5t-11.5 47.5t-8 42.5t-6.5 46t-1.5 41q0 196 112 314t340 118q176 0 279 -68.5t137 -179.5l-109 -39q-33 74 -106 122t-186 48q-92 0 -159.5 -25.5t-105.5 -71.5t-55.5 -103.5t-17.5 -128.5 q0 -58 19 -135t34 -118.5t53 -140.5h387v-114h-348q35 -116 35 -195q0 -149 -98 -235h581v-115h-903v96q59 0 109 13.5t91.5 41.5t65 78t23.5 117q0 86 -37 199h-256z" />
<glyph unicode="&#xa4;" horiz-adv-x="1429" d="M82 63l217 220q-113 137 -113 354q0 225 125 369l-219 217l74 71l219 -221q134 98 328 98q193 0 327 -98l222 221l73 -71l-217 -217q129 -145 129 -369q0 -214 -114 -350l215 -219l-72 -70l-219 217q-136 -106 -344 -106q-205 0 -340 104l-217 -219zM301 637 q0 -189 111.5 -301.5t300.5 -112.5q190 0 303.5 112.5t113.5 301.5q0 192 -113 306t-304 114q-189 0 -300.5 -114t-111.5 -306z" />
<glyph unicode="&#xa5;" horiz-adv-x="1155" d="M68 1483h141l375 -740l374 740h136l-414 -805h350v-115h-385v-180h385v-117h-385v-266h-129v266h-395v117h395v180h-395v115h356z" />
<glyph unicode="&#xa6;" horiz-adv-x="397" d="M137 -342v877h121v-877h-121zM137 780v871h121v-871h-121z" />
<glyph unicode="&#xa7;" horiz-adv-x="1105" d="M84 -37l123 19q0 -57 18.5 -107t56.5 -93t106 -68t159 -25q94 0 160.5 24.5t100 67t48 88t14.5 98.5q0 68 -26 121t-69.5 87.5t-100 62t-119.5 51t-125.5 47.5t-119 57t-100 75t-69.5 106.5t-26 146.5q0 113 59 201q-59 85 -59 208q0 69 25 132.5t74 117.5t134 86.5 t195 32.5q224 0 338 -112.5t114 -305.5l-125 -18q0 149 -80 234t-243 85q-153 0 -228 -73t-75 -181q0 -61 26 -109t69.5 -80t100.5 -58.5t119.5 -50t125.5 -49t120 -61.5t100.5 -82t69.5 -115t26 -156q0 -117 -51 -203q51 -85 51 -207q0 -80 -24 -146t-75.5 -120.5 t-142.5 -86t-216 -32.5q-97 -1 -175.5 21.5t-130.5 60.5t-87 89.5t-50.5 106.5t-15.5 113zM244 719q0 -78 41 -134t112 -92t146.5 -64.5t164.5 -68.5t146 -86q16 44 16 103q0 72 -30 128t-77 89.5t-113 64t-128.5 51.5t-134.5 52.5t-121 66.5q-22 -55 -22 -110z" />
<glyph unicode="&#xa8;" horiz-adv-x="1112" d="M225 1284q0 43 31 74t74 31t74.5 -31t31.5 -74q0 -41 -31.5 -70.5t-74.5 -29.5t-74 29.5t-31 70.5zM621 1284q0 43 31 74t75 31q43 0 73.5 -31t30.5 -74q0 -41 -30.5 -70.5t-73.5 -29.5q-44 0 -75 29.5t-31 70.5z" />
<glyph unicode="&#xa9;" horiz-adv-x="1327" d="M100 637q0 254 153 407.5t406 153.5q257 0 412.5 -154t155.5 -407q0 -252 -155.5 -403.5t-412.5 -151.5q-254 0 -406.5 151.5t-152.5 403.5zM184 637q0 -218 128.5 -347.5t346.5 -129.5q220 0 352 129.5t132 347.5q0 220 -132 351.5t-352 131.5q-218 0 -346.5 -131.5 t-128.5 -351.5zM410 631q0 64 3.5 111t18.5 102t40.5 90t73 58.5t113.5 23.5q236 0 236 -242l-84 -18q0 74 -39.5 127t-112.5 53q-37 0 -65 -13t-44.5 -38t-27.5 -52.5t-16 -66t-6.5 -67.5t-1.5 -68q0 -64 6.5 -112t23 -91.5t49 -66.5t80.5 -23q74 0 112 45t38 133l86 -16 q0 -244 -236 -244q-59 0 -103 18t-71 49.5t-43.5 80.5t-23 103t-6.5 124z" />
<glyph unicode="&#xaa;" horiz-adv-x="770" d="M92 1012q0 89 66.5 150t173.5 61q39 0 71.5 -7.5t51 -18.5t31.5 -22t18 -19l4 -7h4v121q0 129 -160 129q-157 0 -157 -121l-95 16q0 25 3.5 47.5t18.5 53.5t40.5 53t74.5 37.5t115 15.5q264 0 264 -221v-342q0 -26 9 -35.5t30 -9.5l29 6v-88q-23 -10 -66 -10 q-45 0 -70.5 23t-25.5 57v10h-4q-1 -4 -4.5 -10t-18 -21.5t-33 -27.5t-53.5 -21.5t-77 -9.5q-108 0 -174 60.5t-66 150.5zM197 1012q0 -49 38.5 -84t100.5 -35q84 0 123 34.5t39 84.5t-39 83t-123 33q-63 0 -101 -33.5t-38 -82.5z" />
<glyph unicode="&#xab;" horiz-adv-x="1218" d="M63 584v104l519 328v-115l-420 -266l420 -266v-117zM588 584v104l520 328v-115l-420 -264l420 -266v-117z" />
<glyph unicode="&#xac;" horiz-adv-x="1345" d="M76 911v117h1138v-616h-129v499h-1009z" />
<glyph unicode="&#xad;" horiz-adv-x="1021" d="M121 573v115h780v-115h-780z" />
<glyph unicode="&#xae;" horiz-adv-x="1327" d="M100 782q0 254 153 407.5t406 153.5q257 0 412.5 -154t155.5 -407q0 -252 -155.5 -404.5t-412.5 -152.5q-253 0 -406 152.5t-153 404.5zM184 782q0 -219 128.5 -349t346.5 -130q220 0 352 130.5t132 348.5q0 220 -132 352t-352 132q-218 0 -346.5 -132t-128.5 -352z M449 440v731h198q62 0 109.5 -10t87 -33.5t60 -66.5t20.5 -105q0 -150 -148 -192l174 -324h-90l-166 310h-162v-310h-83zM532 823h115q92 0 142.5 30t50.5 105q0 74 -50 104t-145 30h-113v-269z" />
<glyph unicode="&#xaf;" horiz-adv-x="1370" d="M338 1190v115h647v-115h-647z" />
<glyph unicode="&#xb0;" horiz-adv-x="657" d="M82 1055q0 101 72.5 174.5t173.5 73.5t174 -73.5t73 -174.5t-73 -173.5t-174 -72.5t-173.5 72.5t-72.5 173.5zM176 1055q0 -63 44.5 -107.5t107.5 -44.5t108 44.5t45 107.5t-45 108t-108 45t-107.5 -45t-44.5 -108z" />
<glyph unicode="&#xb1;" horiz-adv-x="1099" d="M129 262v117h840v-117h-840zM129 860v115h356v375h129v-375h355v-115h-355v-366h-129v366h-356z" />
<glyph unicode="&#xb2;" horiz-adv-x="745" d="M102 1241q0 112 66 185t192 73q137 0 202 -66.5t65 -164.5q0 -56 -27.5 -103.5t-68.5 -77.5t-89.5 -59t-89.5 -50t-68.5 -49.5t-27.5 -58.5h379v-92h-520v53q1 54 31.5 98.5t75.5 72.5t98 58t97.5 55t74.5 63.5t30 83.5q0 60 -41.5 100.5t-126.5 40.5q-71 0 -117.5 -51.5 t-46.5 -132.5z" />
<glyph unicode="&#xb3;" horiz-adv-x="667" d="M94 1311q0 90 62 139t170 49t170.5 -52t62.5 -134q0 -128 -123 -174q64 -21 100.5 -70.5t36.5 -120.5q0 -84 -64 -132t-183 -48q-111 0 -170.5 46.5t-59.5 133.5l82 21q0 -50 40.5 -84.5t113.5 -34.5q64 0 101.5 32t37.5 93q0 126 -164 129h-41v70h41q72 2 110 30t38 94 q0 57 -36.5 86t-92.5 29q-78 0 -113 -34t-35 -87z" />
<glyph unicode="&#xb4;" horiz-adv-x="714" d="M190 1190l181 344h164l-240 -344h-105z" />
<glyph unicode="&#xb5;" horiz-adv-x="1017" d="M127 -406v1422h115v-654q0 -266 260 -266q62 0 111.5 19.5t79 49.5t49 67.5t27 70.5t7.5 62v651h117v-1016h-107v168h-6q-3 -13 -12 -30t-32.5 -44.5t-55 -49.5t-85 -38t-118.5 -16q-151 0 -235 65v-461h-115z" />
<glyph unicode="&#xb6;" horiz-adv-x="1265" d="M55 983q0 126 44 222.5t124.5 157t189 90.5t242.5 30h246v-1645h-110v641h-136q-179 -1 -312 52.5t-210.5 168.5t-77.5 283zM1018 -162v1645h112v-1645h-112z" />
<glyph unicode="&#xb7;" horiz-adv-x="434" d="M100 907q0 49 34 84t81 35q51 0 85 -34.5t34 -84.5q0 -48 -34 -81t-85 -33q-47 0 -81 33.5t-34 80.5z" />
<glyph unicode="&#xb8;" horiz-adv-x="1265" d="M311 -256l92 14q0 -45 33 -75.5t101 -30.5q55 0 91 22.5t36 63.5t-29.5 68.5t-87.5 27.5q-48 0 -68 -8l47 178h97l-31 -96q78 -11 124 -56t46 -120q0 -84 -66.5 -128t-160.5 -44q-61 0 -106.5 16.5t-70 44.5t-36 58.5t-11.5 64.5z" />
<glyph unicode="&#xb9;" horiz-adv-x="512" d="M55 1243v98q46 0 91 19.5t74 45.5t47 47.5t20 29.5h98v-719h-109v579q-12 -17 -35 -37t-75 -41.5t-111 -21.5z" />
<glyph unicode="&#xba;" horiz-adv-x="735" d="M90 1151q0 174 66.5 261t210.5 87t212 -87.5t68 -260.5q0 -177 -67.5 -263.5t-212.5 -86.5q-144 0 -210.5 86.5t-66.5 263.5zM205 1151q0 -127 39 -188.5t123 -61.5q85 0 124 61t39 189q0 124 -39 186t-124 62q-162 0 -162 -248z" />
<glyph unicode="&#xbb;" horiz-adv-x="1218" d="M111 254v117l419 266l-419 264v115l520 -328v-104zM637 252v117l420 266l-420 266v115l518 -328v-104z" />
<glyph unicode="&#xbc;" horiz-adv-x="1245" d="M61 1243v98q46 0 91 19.5t74 45.5t47 47.5t20 29.5h100v-719h-110v579q-8 -12 -23.5 -26t-42.5 -32t-68.5 -30t-87.5 -12zM158 0l919 1483h125l-921 -1483h-123zM575 188v80l322 434h123v-430h63v-84h-63v-188h-102v188h-343zM684 272h234v322z" />
<glyph unicode="&#xbd;" horiz-adv-x="1275" d="M78 0l919 1483h127l-921 -1483h-125zM78 1243v98q46 0 91 20t74 46t47 47.5t19 28.5h99v-719h-109v579q-12 -17 -35 -37t-75 -41.5t-111 -21.5zM664 463q0 112 66 185t192 73q137 0 201.5 -66.5t64.5 -165.5q0 -49 -20.5 -90.5t-53 -70.5t-72.5 -54.5t-79.5 -46.5 t-72.5 -41t-54 -44t-21 -50h381v-92h-520v51q1 54 31.5 99t75.5 73t98 58t97.5 55t74.5 63.5t30 83.5q0 60 -41.5 101t-126.5 41q-71 0 -117 -52t-46 -133z" />
<glyph unicode="&#xbe;" horiz-adv-x="1230" d="M94 1311q0 90 62 139t170 49t170.5 -52t62.5 -134q0 -128 -123 -174q64 -21 100.5 -70.5t36.5 -120.5q0 -84 -64 -132t-183 -48q-111 0 -170.5 46.5t-59.5 133.5l82 21q0 -50 40.5 -84.5t113.5 -34.5q64 0 101.5 32t37.5 93q0 126 -164 129h-41v70h41q72 2 110 30t38 94 q0 57 -36.5 86t-92.5 29q-78 0 -113 -34t-35 -87zM141 0l920 1483h127l-924 -1483h-123zM565 188v80l320 434h123v-430h65v-84h-65v-188h-101v188h-342zM674 272h233v322z" />
<glyph unicode="&#xbf;" horiz-adv-x="1003" d="M53 -102q0 72 24.5 137t64 115t87 97t95.5 90t87.5 85t64 92.5t24.5 103.5v66h129v-63q0 -65 -24.5 -123.5t-64 -104.5t-87 -90t-94.5 -87.5t-86.5 -88.5t-64 -102.5t-24.5 -120.5q0 -79 22 -140t54.5 -96t76.5 -57t82 -29.5t77 -7.5q163 0 251.5 78.5t88.5 263.5 l120 -31q-1 -224 -120.5 -326t-346.5 -102q-59 0 -116 12t-116.5 43.5t-103.5 79.5t-72 127t-28 179zM446 920q0 45 32 76.5t77 31.5q43 0 75 -31.5t32 -76.5t-32 -78t-75 -33q-44 0 -76.5 32.5t-32.5 78.5z" />
<glyph unicode="&#xc0;" horiz-adv-x="1097" d="M57 0l426 1483h129l426 -1483h-135l-90 326h-530l-90 -326h-136zM258 1927h164l182 -344h-104zM313 440h467l-231 844z" />
<glyph unicode="&#xc1;" horiz-adv-x="1097" d="M57 0l426 1483h129l426 -1483h-135l-90 326h-530l-90 -326h-136zM313 440h467l-231 844zM494 1583l180 344h164l-240 -344h-104z" />
<glyph unicode="&#xc2;" horiz-adv-x="1097" d="M57 0l426 1483h129l426 -1483h-135l-90 326h-530l-90 -326h-136zM279 1583l182 344h172l182 -344h-88l-178 250l-180 -250h-90zM313 440h467l-231 844z" />
<glyph unicode="&#xc3;" horiz-adv-x="1097" d="M57 0l426 1483h129l426 -1483h-135l-90 326h-530l-90 -326h-136zM182 1599q0 41 18.5 82t65.5 74t113 33q43 0 88.5 -18.5t77.5 -40t71.5 -40t71.5 -18.5q66 0 99.5 36.5t33.5 70.5h94q0 -24 -11 -54.5t-35 -65t-71.5 -58t-109.5 -23.5q-47 0 -92.5 18.5t-75.5 41 t-68.5 41t-72.5 18.5q-50 0 -77.5 -29.5t-27.5 -67.5h-92zM313 440h467l-231 844z" />
<glyph unicode="&#xc4;" horiz-adv-x="1097" d="M57 0l426 1483h129l426 -1483h-135l-90 326h-530l-90 -326h-136zM248 1677q0 43 30.5 74t73.5 31t75 -31t32 -74q0 -41 -32 -70.5t-75 -29.5t-73.5 29.5t-30.5 70.5zM313 440h467l-231 844zM643 1677q0 43 31.5 74t75.5 31q43 0 73.5 -31t30.5 -74q0 -41 -30.5 -70.5 t-73.5 -29.5q-44 0 -75.5 29.5t-31.5 70.5z" />
<glyph unicode="&#xc5;" horiz-adv-x="1097" d="M57 0l426 1483h129l426 -1483h-135l-90 326h-530l-90 -326h-136zM313 440h467l-231 844zM367 1759q0 75 54 129t128 54q75 0 129.5 -54t54.5 -129q0 -74 -54.5 -128t-129.5 -54q-73 0 -127.5 54.5t-54.5 127.5zM457 1759q0 -37 27.5 -64.5t64.5 -27.5q38 0 66 27.5 t28 64.5q0 38 -28 66t-66 28q-37 0 -64.5 -28t-27.5 -66z" />
<glyph unicode="&#xc6;" horiz-adv-x="1738" d="M18 0l738 1483h907v-115h-717v-553h604v-115h-604v-585h717v-115h-846v338h-493l-166 -338h-140zM369 430h448v911z" />
<glyph unicode="&#xc7;" horiz-adv-x="1157" d="M104 731q0 68 2 123t8.5 121t17 118t29.5 108t45 98.5t64 81.5t85 63.5t109.5 39.5t137.5 15q473 0 473 -479l-129 -29q0 63 -9 117t-33 106t-62 88t-99 58t-141 22q-59 0 -107.5 -13.5t-84 -34.5t-63.5 -57t-46 -69.5t-31 -86t-19.5 -92t-10 -100t-4 -98.5t-0.5 -100 q0 -75 0.5 -118t4 -107t10 -100.5t19.5 -85.5t31 -77t45.5 -59t63 -47t83.5 -26.5t107 -10.5q99 0 168.5 29.5t106.5 85t53 122t16 152.5l129 -22q0 -78 -11 -142.5t-40 -126.5t-75.5 -105.5t-122 -72.5t-175.5 -34l-20 -68q78 -11 124 -56t46 -120q0 -84 -67 -128t-161 -44 q-116 0 -169.5 55t-53.5 129l92 15q0 -45 32.5 -76t100.5 -31q55 0 91 22.5t36 63.5q0 42 -29 69t-87 27q-48 0 -68 -8l39 150q-86 4 -153.5 25.5t-114.5 55t-80.5 87t-53.5 110t-31 137.5t-14.5 155t-3.5 175z" />
<glyph unicode="&#xc8;" horiz-adv-x="1075" d="M156 0v1483h843v-115h-714v-553h604v-115h-604v-585h714v-115h-843zM295 1927h164l182 -344h-104z" />
<glyph unicode="&#xc9;" horiz-adv-x="1075" d="M156 0v1483h843v-115h-714v-553h604v-115h-604v-585h714v-115h-843zM518 1583l180 344h164l-239 -344h-105z" />
<glyph unicode="&#xca;" horiz-adv-x="1075" d="M156 0v1483h843v-115h-714v-553h604v-115h-604v-585h714v-115h-843zM309 1583l183 344h172l182 -344h-88l-178 250l-181 -250h-90z" />
<glyph unicode="&#xcb;" horiz-adv-x="1075" d="M156 0v1483h843v-115h-714v-553h604v-115h-604v-585h714v-115h-843zM276 1677q0 43 31 74t74 31t74.5 -31t31.5 -74q0 -41 -31.5 -70.5t-74.5 -29.5t-74 29.5t-31 70.5zM672 1677q0 43 31 74t75 31q43 0 74 -31t31 -74q0 -41 -31 -70.5t-74 -29.5q-44 0 -75 29.5 t-31 70.5z" />
<glyph unicode="&#xcc;" horiz-adv-x="440" d="M-76 1927h164l182 -344h-104zM156 0v1483h129v-1483h-129z" />
<glyph unicode="&#xcd;" horiz-adv-x="440" d="M156 0v1483h129v-1483h-129zM168 1583l180 344h164l-240 -344h-104z" />
<glyph unicode="&#xce;" horiz-adv-x="440" d="M-51 1583l182 344h172l182 -344h-88l-178 250l-180 -250h-90zM156 0v1483h129v-1483h-129z" />
<glyph unicode="&#xcf;" horiz-adv-x="440" d="M-82 1677q0 43 31 74t74 31t74.5 -31t31.5 -74q0 -41 -31.5 -70.5t-74.5 -29.5t-74 29.5t-31 70.5zM156 0v1483h129v-1483h-129zM313 1677q0 43 31.5 74t75.5 31q43 0 73.5 -31t30.5 -74q0 -41 -30.5 -70.5t-73.5 -29.5q-44 0 -75.5 29.5t-31.5 70.5z" />
<glyph unicode="&#xd0;" horiz-adv-x="1286" d="M31 705v114h143v664h371q182 0 331 -96.5t234.5 -269.5t85.5 -386t-85.5 -380.5t-234 -259t-331.5 -91.5h-371v705h-143zM303 115h223q236 0 387.5 171t151.5 445q0 181 -69 326.5t-192.5 227t-277.5 81.5h-223v-547h238v-114h-238v-590z" />
<glyph unicode="&#xd1;" horiz-adv-x="1306" d="M156 0v1483h110l756 -1243v1243h129v-1483h-129l-737 1214v-1214h-129zM289 1599q0 30 11.5 61t33.5 60.5t61.5 48.5t89.5 19q43 0 89 -18.5t78 -40t71.5 -40t71.5 -18.5q66 0 99.5 36.5t33.5 70.5h94q0 -24 -11 -54.5t-35 -65t-71.5 -58t-109.5 -23.5q-47 0 -92.5 18.5 t-76 41t-69 41t-72.5 18.5q-50 0 -77 -29.5t-27 -67.5h-92z" />
<glyph unicode="&#xd2;" d="M100 735q0 395 129.5 579.5t407.5 184.5t406 -184.5t128 -579.5q0 -394 -127.5 -572.5t-406.5 -178.5t-408 179t-129 572zM231 735q0 -333 97 -484t309 -151t308.5 151t96.5 484q0 337 -96.5 492t-308.5 155t-309 -155t-97 -492zM354 1927h164l182 -344h-104z" />
<glyph unicode="&#xd3;" d="M100 735q0 395 129.5 579.5t407.5 184.5t406 -184.5t128 -579.5q0 -394 -127.5 -572.5t-406.5 -178.5t-408 179t-129 572zM231 735q0 -333 97 -484t309 -151t308.5 151t96.5 484q0 337 -96.5 492t-308.5 155t-309 -155t-97 -492zM573 1583l181 344h164l-240 -344h-105z " />
<glyph unicode="&#xd4;" d="M100 735q0 395 129.5 579.5t407.5 184.5t406 -184.5t128 -579.5q0 -394 -127.5 -572.5t-406.5 -178.5t-408 179t-129 572zM231 735q0 -333 97 -484t309 -151t308.5 151t96.5 484q0 337 -96.5 492t-308.5 155t-309 -155t-97 -492zM367 1583l182 344h172l182 -344h-88 l-178 250l-180 -250h-90z" />
<glyph unicode="&#xd5;" d="M100 735q0 395 129.5 579.5t407.5 184.5t406 -184.5t128 -579.5q0 -394 -127.5 -572.5t-406.5 -178.5t-408 179t-129 572zM231 735q0 -333 97 -484t309 -151t308.5 151t96.5 484q0 337 -96.5 492t-308.5 155t-309 -155t-97 -492zM270 1599q0 41 18.5 82t65.5 74t113 33 q43 0 88.5 -18.5t77.5 -40t71.5 -40t71.5 -18.5q66 0 99.5 36.5t33.5 70.5h95q0 -24 -11.5 -54.5t-35 -65t-71.5 -58t-110 -23.5q-47 0 -92.5 18.5t-75.5 41t-68.5 41t-72.5 18.5q-50 0 -77.5 -29.5t-27.5 -67.5h-92z" />
<glyph unicode="&#xd6;" d="M100 735q0 395 129.5 579.5t407.5 184.5t406 -184.5t128 -579.5q0 -394 -127.5 -572.5t-406.5 -178.5t-408 179t-129 572zM231 735q0 -333 97 -484t309 -151t308.5 151t96.5 484q0 337 -96.5 492t-308.5 155t-309 -155t-97 -492zM334 1677q0 43 30.5 74t73.5 31t75 -31 t32 -74q0 -41 -32 -70.5t-75 -29.5t-73.5 29.5t-30.5 70.5zM729 1677q0 43 31.5 74t75.5 31q43 0 73.5 -31t30.5 -74q0 -41 -30.5 -70.5t-73.5 -29.5q-44 0 -75.5 29.5t-31.5 70.5z" />
<glyph unicode="&#xd7;" horiz-adv-x="1210" d="M100 367l422 417l-422 420l80 84l424 -422l426 422l80 -84l-424 -420l424 -417l-80 -84l-426 422l-424 -422z" />
<glyph unicode="&#xd8;" d="M90 0l119 193q-109 181 -109 542q0 395 129.5 579.5t407.5 184.5q202 0 324 -98l59 96h141l-117 -186q127 -185 127 -576q0 -394 -127.5 -572.5t-406.5 -178.5q-227 0 -350 112l-60 -96h-137zM231 735q0 -265 60 -411l602 968q-93 90 -256 90q-212 0 -309 -155t-97 -492z M358 211q96 -111 279 -111q212 0 308.5 151t96.5 484q0 297 -75 453z" />
<glyph unicode="&#xd9;" d="M145 504v979h129v-969q0 -186 96 -300t265 -114t265.5 113.5t96.5 300.5v969h129v-979q0 -239 -125.5 -379.5t-365.5 -140.5q-161 0 -272.5 66t-164.5 181.5t-53 272.5zM338 1927h164l182 -344h-104z" />
<glyph unicode="&#xda;" d="M145 504v979h129v-969q0 -186 96 -300t265 -114t265.5 113.5t96.5 300.5v969h129v-979q0 -239 -125.5 -379.5t-365.5 -140.5q-161 0 -272.5 66t-164.5 181.5t-53 272.5zM590 1583l180 344h164l-240 -344h-104z" />
<glyph unicode="&#xdb;" d="M145 504v979h129v-969q0 -186 96 -300t265 -114t265.5 113.5t96.5 300.5v969h129v-979q0 -239 -125.5 -379.5t-365.5 -140.5q-161 0 -272.5 66t-164.5 181.5t-53 272.5zM367 1583l182 344h172l182 -344h-88l-178 250l-180 -250h-90z" />
<glyph unicode="&#xdc;" d="M145 504v979h129v-969q0 -186 96 -300t265 -114t265.5 113.5t96.5 300.5v969h129v-979q0 -239 -125.5 -379.5t-365.5 -140.5q-161 0 -272.5 66t-164.5 181.5t-53 272.5zM334 1677q0 43 30.5 74t73.5 31t75 -31t32 -74q0 -41 -32 -70.5t-75 -29.5t-73.5 29.5t-30.5 70.5z M729 1677q0 43 31.5 74t75.5 31q43 0 73.5 -31t30.5 -74q0 -41 -30.5 -70.5t-73.5 -29.5q-44 0 -75.5 29.5t-31.5 70.5z" />
<glyph unicode="&#xdd;" horiz-adv-x="1148" d="M61 1483h142l375 -740l374 740h135l-448 -875v-608h-129v604zM528 1583l181 344h163l-239 -344h-105z" />
<glyph unicode="&#xde;" horiz-adv-x="1200" d="M156 2v1483h129v-318h309q96 0 176 -14.5t147.5 -47.5t114 -83t72.5 -124t26 -167q0 -110 -39.5 -194t-112.5 -135.5t-170.5 -77t-217.5 -25.5h-305v-297h-129zM285 416h305q189 0 299 77t110 240t-110.5 240.5t-302.5 77.5h-301v-635z" />
<glyph unicode="&#xdf;" horiz-adv-x="1144" d="M133 0v1059q0 205 118 322.5t324 117.5q210 0 330.5 -105.5t120.5 -275.5q0 -135 -70 -221t-196 -123q142 -36 223.5 -133.5t81.5 -247.5q0 -187 -121 -298t-334 -111q-21 0 -55 3t-39 3v108q64 -8 88 -8q146 0 238 84t92 227q0 154 -106 230t-285 76h-41v116h37 q161 0 258.5 68.5t97.5 206.5q0 135 -86.5 209.5t-222.5 74.5q-85 0 -149.5 -28t-101.5 -76.5t-55 -105.5t-18 -121v-1051h-129z" />
<glyph unicode="&#xe0;" horiz-adv-x="978" d="M84 303q0 131 99.5 220t262.5 89q60 0 110 -11t78.5 -27t48.5 -32t27 -27l7 -11h6v182q0 107 -64 170.5t-200 63.5q-71 0 -122.5 -18.5t-76.5 -42t-39.5 -59t-17 -57t-2.5 -47.5l-105 25q0 37 5 70t26.5 79.5t58.5 78.5t108 55.5t167 23.5q102 0 177 -25t118.5 -71 t63.5 -103.5t20 -128.5v-538q0 -36 13 -51t42 -15q11 0 22.5 2.5t16.5 5.5l6 2v-102q-29 -14 -86 -14q-56 0 -86.5 32.5t-30.5 79.5v25h-6q-2 -6 -7 -15t-27 -32.5t-50.5 -41.5t-82 -33t-118.5 -15q-165 0 -263.5 89.5t-98.5 223.5zM164 1534h164l182 -344h-104zM201 301 q0 -85 68 -144t180 -59q140 0 208 58.5t68 144.5t-68 144.5t-208 58.5q-112 0 -180 -59t-68 -144z" />
<glyph unicode="&#xe1;" horiz-adv-x="978" d="M84 303q0 131 99.5 220t262.5 89q60 0 110 -11t78.5 -27t48.5 -32t27 -27l7 -11h6v182q0 107 -64 170.5t-200 63.5q-71 0 -122.5 -18.5t-76.5 -42t-39.5 -59t-17 -57t-2.5 -47.5l-105 25q0 37 5 70t26.5 79.5t58.5 78.5t108 55.5t167 23.5q102 0 177 -25t118.5 -71 t63.5 -103.5t20 -128.5v-538q0 -36 13 -51t42 -15q11 0 22.5 2.5t16.5 5.5l6 2v-102q-29 -14 -86 -14q-56 0 -86.5 32.5t-30.5 79.5v25h-6q-2 -6 -7 -15t-27 -32.5t-50.5 -41.5t-82 -33t-118.5 -15q-165 0 -263.5 89.5t-98.5 223.5zM201 301q0 -85 68 -144t180 -59 q140 0 208 58.5t68 144.5t-68 144.5t-208 58.5q-112 0 -180 -59t-68 -144zM410 1190l180 344h164l-240 -344h-104z" />
<glyph unicode="&#xe2;" horiz-adv-x="978" d="M84 303q0 131 99.5 220t262.5 89q60 0 110 -11t78.5 -27t48.5 -32t27 -27l7 -11h6v182q0 107 -64 170.5t-200 63.5q-71 0 -122.5 -18.5t-76.5 -42t-39.5 -59t-17 -57t-2.5 -47.5l-105 25q0 37 5 70t26.5 79.5t58.5 78.5t108 55.5t167 23.5q102 0 177 -25t118.5 -71 t63.5 -103.5t20 -128.5v-538q0 -36 13 -51t42 -15q11 0 22.5 2.5t16.5 5.5l6 2v-102q-29 -14 -86 -14q-56 0 -86.5 32.5t-30.5 79.5v25h-6q-2 -6 -7 -15t-27 -32.5t-50.5 -41.5t-82 -33t-118.5 -15q-165 0 -263.5 89.5t-98.5 223.5zM201 301q0 -85 68 -144t180 -59 q140 0 208 58.5t68 144.5t-68 144.5t-208 58.5q-112 0 -180 -59t-68 -144zM217 1190l182 344h172l183 -344h-88l-179 250l-180 -250h-90z" />
<glyph unicode="&#xe3;" horiz-adv-x="978" d="M84 303q0 131 99.5 220t262.5 89q60 0 110 -11t78.5 -27t48.5 -32t27 -27l7 -11h6v182q0 107 -64 170.5t-200 63.5q-71 0 -122.5 -18.5t-76.5 -42t-39.5 -59t-17 -57t-2.5 -47.5l-105 25q0 37 5 70t26.5 79.5t58.5 78.5t108 55.5t167 23.5q102 0 177 -25t118.5 -71 t63.5 -103.5t20 -128.5v-538q0 -36 13 -51t42 -15q11 0 22.5 2.5t16.5 5.5l6 2v-102q-29 -14 -86 -14q-56 0 -86.5 32.5t-30.5 79.5v25h-6q-2 -6 -7 -15t-27 -32.5t-50.5 -41.5t-82 -33t-118.5 -15q-165 0 -263.5 89.5t-98.5 223.5zM94 1206q0 41 18.5 82t65.5 74t113 33 q55 0 111.5 -29.5t107 -58.5t90.5 -29q66 0 99.5 36t33.5 70h94q0 -18 -6 -41.5t-23 -52t-41 -51.5t-65 -39t-92 -16q-47 0 -92.5 18.5t-75.5 41t-68.5 41t-72.5 18.5q-50 0 -77.5 -29.5t-27.5 -67.5h-92zM201 301q0 -85 68 -144t180 -59q140 0 208 58.5t68 144.5t-68 144.5 t-208 58.5q-112 0 -180 -59t-68 -144z" />
<glyph unicode="&#xe4;" horiz-adv-x="978" d="M84 303q0 131 99.5 220t262.5 89q60 0 110 -11t78.5 -27t48.5 -32t27 -27l7 -11h6v182q0 107 -64 170.5t-200 63.5q-71 0 -122.5 -18.5t-76.5 -42t-39.5 -59t-17 -57t-2.5 -47.5l-105 25q0 37 5 70t26.5 79.5t58.5 78.5t108 55.5t167 23.5q102 0 177 -25t118.5 -71 t63.5 -103.5t20 -128.5v-538q0 -36 13 -51t42 -15q11 0 22.5 2.5t16.5 5.5l6 2v-102q-29 -14 -86 -14q-56 0 -86.5 32.5t-30.5 79.5v25h-6q-2 -6 -7 -15t-27 -32.5t-50.5 -41.5t-82 -33t-118.5 -15q-165 0 -263.5 89.5t-98.5 223.5zM156 1284q0 43 30.5 74t73.5 31t75 -31 t32 -74q0 -41 -32 -70.5t-75 -29.5t-73.5 29.5t-30.5 70.5zM201 301q0 -85 68 -144t180 -59q140 0 208 58.5t68 144.5t-68 144.5t-208 58.5q-112 0 -180 -59t-68 -144zM551 1284q0 43 31 74t75 31q43 0 74 -31t31 -74q0 -41 -31 -70.5t-74 -29.5q-44 0 -75 29.5t-31 70.5z " />
<glyph unicode="&#xe5;" horiz-adv-x="978" d="M84 303q0 131 99.5 220t262.5 89q60 0 110 -11t78.5 -27t48.5 -32t27 -27l7 -11h6v182q0 107 -64 170.5t-200 63.5q-71 0 -122.5 -18.5t-76.5 -42t-39.5 -59t-17 -57t-2.5 -47.5l-105 25q0 37 5 70t26.5 79.5t58.5 78.5t108 55.5t167 23.5q102 0 177 -25t118.5 -71 t63.5 -103.5t20 -128.5v-538q0 -36 13 -51t42 -15q11 0 22.5 2.5t16.5 5.5l6 2v-102q-29 -14 -86 -14q-56 0 -86.5 32.5t-30.5 79.5v25h-6q-2 -6 -7 -15t-27 -32.5t-50.5 -41.5t-82 -33t-118.5 -15q-165 0 -263.5 89.5t-98.5 223.5zM201 301q0 -85 68 -144t180 -59 q140 0 208 58.5t68 144.5t-68 144.5t-208 58.5q-112 0 -180 -59t-68 -144zM279 1366q0 75 54 128.5t128 53.5q75 0 129.5 -53.5t54.5 -128.5q0 -74 -54.5 -128t-129.5 -54q-73 0 -127.5 54t-54.5 128zM369 1366q0 -37 27.5 -64.5t64.5 -27.5q38 0 66 27.5t28 64.5 q0 38 -28 66t-66 28q-37 0 -64.5 -28t-27.5 -66z" />
<glyph unicode="&#xe6;" horiz-adv-x="1601" d="M84 301q0 133 100 222t265 89q60 0 110 -11t78 -27t47.5 -32t25.5 -27l7 -11h8v182q0 107 -64 170.5t-200 63.5q-260 0 -260 -224l-105 25q0 37 5 70t26.5 79.5t58.5 78.5t108 55.5t167 23.5q253 0 338 -156q101 156 338 156q92 0 160 -27t109.5 -73t66 -115t32.5 -143 t6 -168h-665q4 -56 8 -88q17 -164 86.5 -241t198.5 -77q72 0 126.5 18.5t83.5 48t42.5 60.5t13.5 62l104 -19q0 -47 -19.5 -92.5t-60 -88t-116.5 -69t-176 -26.5q-121 0 -203 42t-131 132h-4q-3 -7 -9 -19t-33 -42t-62.5 -52.5t-102 -41.5t-146.5 -19q-164 0 -263 89 t-99 222zM201 301q0 -85 68 -144t180 -59q140 0 208 59.5t68 143.5q0 86 -68 144.5t-208 58.5q-112 0 -180 -59t-68 -144zM846 598h551q-2 71 -13.5 124.5t-39 100.5t-79 72t-126.5 25q-144 0 -214.5 -80.5t-78.5 -241.5z" />
<glyph unicode="&#xe7;" horiz-adv-x="948" d="M92 504q0 270 97.5 397t304.5 127q108 0 184 -27.5t115.5 -77.5t56 -106.5t16.5 -128.5l-112 -24q0 256 -260 256q-149 0 -217 -99.5t-68 -316.5q0 -214 68 -311t217 -97q75 0 127 19t80 55t39.5 79.5t11.5 100.5l112 -20q0 -68 -13.5 -121.5t-46.5 -101.5t-96 -77 t-153 -36l-27 -86q78 -11 124 -56t46 -120q0 -84 -66.5 -128t-160.5 -44q-116 0 -169.5 55t-53.5 129l92 14q0 -45 32.5 -75.5t100.5 -30.5q55 0 91 22.5t36 63.5t-29.5 68.5t-87.5 27.5q-47 0 -67 -8l43 166q-191 8 -279 130.5t-88 381.5z" />
<glyph unicode="&#xe8;" horiz-adv-x="956" d="M90 504q0 270 97.5 397t306.5 127q92 0 160 -27.5t108 -72t64.5 -112t33 -135.5t8.5 -155v-24h-661q0 -213 68.5 -309.5t218.5 -96.5q72 0 127 18.5t84 48t43 60.5t14 62l104 -19q0 -47 -19.5 -92.5t-60 -88t-116.5 -69t-176 -26.5q-210 0 -307 122.5t-97 391.5z M201 1534h164l182 -344h-105zM211 598h543q-2 71 -14 124.5t-39.5 100.5t-79.5 72t-127 25q-132 0 -201 -78t-82 -244z" />
<glyph unicode="&#xe9;" horiz-adv-x="956" d="M90 504q0 270 97.5 397t306.5 127q92 0 160 -27.5t108 -72t64.5 -112t33 -135.5t8.5 -155v-24h-661q0 -213 68.5 -309.5t218.5 -96.5q72 0 127 18.5t84 48t43 60.5t14 62l104 -19q0 -47 -19.5 -92.5t-60 -88t-116.5 -69t-176 -26.5q-210 0 -307 122.5t-97 391.5zM211 598 h543q-2 71 -14 124.5t-39.5 100.5t-79.5 72t-127 25q-132 0 -201 -78t-82 -244zM442 1190l181 344h163l-239 -344h-105z" />
<glyph unicode="&#xea;" horiz-adv-x="956" d="M90 504q0 270 97.5 397t306.5 127q92 0 160 -27.5t108 -72t64.5 -112t33 -135.5t8.5 -155v-24h-661q0 -213 68.5 -309.5t218.5 -96.5q72 0 127 18.5t84 48t43 60.5t14 62l104 -19q0 -47 -19.5 -92.5t-60 -88t-116.5 -69t-176 -26.5q-210 0 -307 122.5t-97 391.5zM211 598 h543q-2 71 -14 124.5t-39.5 100.5t-79.5 72t-127 25q-132 0 -201 -78t-82 -244zM225 1190l183 344h172l182 -344h-88l-178 250l-181 -250h-90z" />
<glyph unicode="&#xeb;" horiz-adv-x="956" d="M90 504q0 270 97.5 397t306.5 127q92 0 160 -27.5t108 -72t64.5 -112t33 -135.5t8.5 -155v-24h-661q0 -213 68.5 -309.5t218.5 -96.5q72 0 127 18.5t84 48t43 60.5t14 62l104 -19q0 -47 -19.5 -92.5t-60 -88t-116.5 -69t-176 -26.5q-210 0 -307 122.5t-97 391.5z M193 1284q0 43 30.5 74t73.5 31t74.5 -31t31.5 -74q0 -41 -31.5 -70.5t-74.5 -29.5t-73.5 29.5t-30.5 70.5zM211 598h543q-2 71 -14 124.5t-39.5 100.5t-79.5 72t-127 25q-132 0 -201 -78t-82 -244zM588 1284q0 43 31 74t75 31q43 0 74 -31t31 -74q0 -41 -31 -70.5 t-74 -29.5q-44 0 -75 29.5t-31 70.5z" />
<glyph unicode="&#xec;" horiz-adv-x="382" d="M-106 1534h163l183 -344h-105zM135 0v1016h117v-1016h-117z" />
<glyph unicode="&#xed;" horiz-adv-x="382" d="M133 0v1016h117v-1016h-117zM143 1190l181 344h163l-239 -344h-105z" />
<glyph unicode="&#xee;" horiz-adv-x="385" d="M-78 1190l182 344h172l183 -344h-88l-178 250l-181 -250h-90zM133 0v1016h117v-1016h-117z" />
<glyph unicode="&#xef;" horiz-adv-x="385" d="M-109 1284q0 43 31 74t74 31t74.5 -31t31.5 -74q0 -41 -31.5 -70.5t-74.5 -29.5t-74 29.5t-31 70.5zM133 0v1016h117v-1016h-117zM287 1284q0 43 31 74t75 31q43 0 74 -31t31 -74q0 -41 -31 -70.5t-74 -29.5q-44 0 -75 29.5t-31 70.5z" />
<glyph unicode="&#xf0;" horiz-adv-x="1150" d="M84 446q0 197 130.5 323t326.5 126q138 0 240.5 -65.5t146.5 -157.5q-13 164 -95 321t-210 264l-246 -172l-49 74l221 154q-152 100 -320 100l56 121q205 0 385 -137l168 119l49 -74l-148 -103q146 -137 234 -334.5t88 -392.5q0 -138 -26.5 -248.5t-83.5 -197.5 t-155.5 -134.5t-232.5 -47.5q-219 0 -349 130t-130 332zM219 455q0 -150 95 -251.5t251 -101.5q89 0 156.5 32t109.5 91t65 133t30 166q-19 112 -122 195.5t-237 83.5q-149 0 -248.5 -98.5t-99.5 -249.5z" />
<glyph unicode="&#xf1;" horiz-adv-x="1026" d="M133 0v1016h105v-166h6q6 17 17 36.5t35.5 46t56.5 46.5t83.5 34.5t112.5 14.5q96 0 166 -27.5t109.5 -77.5t58 -111t18.5 -136v-676h-115v653q0 56 -12.5 101t-41.5 84t-82 60.5t-128 21.5q-59 0 -107.5 -17.5t-78 -45t-50 -62t-28.5 -66.5t-8 -61v-668h-117zM147 1212 q0 41 18.5 82t65.5 74t113 33q55 0 111.5 -29.5t107 -58.5t90.5 -29q66 0 99.5 36.5t33.5 70.5h95q0 -24 -11.5 -54.5t-35 -65t-71.5 -58t-110 -23.5q-47 0 -92.5 18.5t-75.5 41t-68.5 41t-72.5 18.5q-50 0 -77 -29.5t-27 -67.5h-93z" />
<glyph unicode="&#xf2;" horiz-adv-x="987" d="M90 504q0 270 97.5 397t306.5 127t305 -126.5t96 -397.5q0 -270 -95.5 -392t-305.5 -122t-307 122.5t-97 391.5zM199 1534h163l183 -344h-105zM207 504q0 -213 68.5 -310.5t218.5 -97.5q149 0 217.5 97t68.5 311q0 217 -68.5 316.5t-217.5 99.5t-218 -99.5t-69 -316.5z " />
<glyph unicode="&#xf3;" horiz-adv-x="987" d="M90 504q0 270 97.5 397t306.5 127t305 -126.5t96 -397.5q0 -270 -95.5 -392t-305.5 -122t-307 122.5t-97 391.5zM207 504q0 -213 68.5 -310.5t218.5 -97.5q149 0 217.5 97t68.5 311q0 217 -68.5 316.5t-217.5 99.5t-218 -99.5t-69 -316.5zM442 1190l181 344h163 l-239 -344h-105z" />
<glyph unicode="&#xf4;" horiz-adv-x="987" d="M90 504q0 270 97.5 397t306.5 127t305 -126.5t96 -397.5q0 -270 -95.5 -392t-305.5 -122t-307 122.5t-97 391.5zM207 504q0 -213 68.5 -310.5t218.5 -97.5q149 0 217.5 97t68.5 311q0 217 -68.5 316.5t-217.5 99.5t-218 -99.5t-69 -316.5zM225 1190l183 344h172l182 -344 h-88l-178 250l-181 -250h-90z" />
<glyph unicode="&#xf5;" horiz-adv-x="987" d="M90 504q0 270 97.5 397t306.5 127t305 -126.5t96 -397.5q0 -270 -95.5 -392t-305.5 -122t-307 122.5t-97 391.5zM127 1206q0 41 18.5 82t65.5 74t113 33q55 0 111.5 -29.5t107 -58.5t90.5 -29q66 0 99.5 36t33.5 70h94q0 -18 -6 -41.5t-23 -52t-41 -51.5t-65 -39t-92 -16 q-47 0 -92.5 18.5t-75.5 41t-68.5 41t-72.5 18.5q-50 0 -77.5 -29.5t-27.5 -67.5h-92zM207 504q0 -213 68.5 -310.5t218.5 -97.5q149 0 217.5 97t68.5 311q0 217 -68.5 316.5t-217.5 99.5t-218 -99.5t-69 -316.5z" />
<glyph unicode="&#xf6;" horiz-adv-x="987" d="M90 504q0 270 97.5 397t306.5 127t305 -126.5t96 -397.5q0 -270 -95.5 -392t-305.5 -122t-307 122.5t-97 391.5zM193 1284q0 43 30.5 74t73.5 31t74.5 -31t31.5 -74q0 -41 -31.5 -70.5t-74.5 -29.5t-73.5 29.5t-30.5 70.5zM207 504q0 -213 68.5 -310.5t218.5 -97.5 q149 0 217.5 97t68.5 311q0 217 -68.5 316.5t-217.5 99.5t-218 -99.5t-69 -316.5zM588 1284q0 43 31 74t75 31q43 0 74 -31t31 -74q0 -41 -31 -70.5t-74 -29.5q-44 0 -75 29.5t-31 70.5z" />
<glyph unicode="&#xf7;" horiz-adv-x="1050" d="M104 588v114h840v-114h-840zM418 104q0 51 33.5 86t80.5 35q50 0 84.5 -35t34.5 -86q0 -47 -35 -80.5t-84 -33.5q-47 0 -80.5 33.5t-33.5 80.5zM418 1143q0 51 33.5 86t80.5 35q50 0 84.5 -35t34.5 -86q0 -47 -35 -81t-84 -34q-47 0 -80.5 34t-33.5 81z" />
<glyph unicode="&#xf8;" horiz-adv-x="987" d="M90 504q0 270 97.5 397t306.5 127q137 0 225 -55l29 43h126l-73 -119q94 -128 94 -393q0 -270 -95.5 -392t-305.5 -122q-143 0 -226 49l-24 -39h-127l69 113q-96 122 -96 391zM207 504q0 -187 49 -279l403 647q-67 48 -165 48q-149 0 -218 -99.5t-69 -316.5zM328 139 q64 -43 166 -43q149 0 217.5 97t68.5 311q0 179 -49 280z" />
<glyph unicode="&#xf9;" horiz-adv-x="1026" d="M127 340v676h115v-654q0 -266 260 -266q62 0 111.5 19.5t79 49.5t49 67.5t27 70.5t7.5 62v651h117v-1016h-107v168h-6q-3 -13 -12 -30t-32.5 -44.5t-55 -49.5t-85 -38t-118.5 -16q-96 0 -166 27.5t-109 77.5t-57 110.5t-18 134.5zM213 1534h164l182 -344h-104z" />
<glyph unicode="&#xfa;" horiz-adv-x="1026" d="M127 340v676h115v-654q0 -266 260 -266q62 0 111.5 19.5t79 49.5t49 67.5t27 70.5t7.5 62v651h117v-1016h-107v168h-6q-3 -13 -12 -30t-32.5 -44.5t-55 -49.5t-85 -38t-118.5 -16q-96 0 -166 27.5t-109 77.5t-57 110.5t-18 134.5zM461 1190l180 344h164l-240 -344h-104z " />
<glyph unicode="&#xfb;" horiz-adv-x="1026" d="M127 340v676h115v-654q0 -266 260 -266q62 0 111.5 19.5t79 49.5t49 67.5t27 70.5t7.5 62v651h117v-1016h-107v168h-6q-3 -13 -12 -30t-32.5 -44.5t-55 -49.5t-85 -38t-118.5 -16q-96 0 -166 27.5t-109 77.5t-57 110.5t-18 134.5zM240 1190l182 344h172l182 -344h-88 l-178 250l-180 -250h-90z" />
<glyph unicode="&#xfc;" horiz-adv-x="1026" d="M127 340v676h115v-654q0 -266 260 -266q62 0 111.5 19.5t79 49.5t49 67.5t27 70.5t7.5 62v651h117v-1016h-107v168h-6q-3 -13 -12 -30t-32.5 -44.5t-55 -49.5t-85 -38t-118.5 -16q-96 0 -166 27.5t-109 77.5t-57 110.5t-18 134.5zM209 1284q0 43 30.5 74t73.5 31t75 -31 t32 -74q0 -41 -32 -70.5t-75 -29.5t-73.5 29.5t-30.5 70.5zM604 1284q0 43 31.5 74t75.5 31q43 0 73.5 -31t30.5 -74q0 -41 -30.5 -70.5t-73.5 -29.5q-44 0 -75.5 29.5t-31.5 70.5z" />
<glyph unicode="&#xfd;" horiz-adv-x="931" d="M53 1016h131l285 -844l287 844h121l-349 -1016l-59 -184q-43 -130 -102 -189t-162 -59q-29 0 -56 3.5t-39 6.5l-12 4v111q40 -15 99 -15q63 0 101 31t62 107l60 184h-17zM418 1190l180 344h164l-240 -344h-104z" />
<glyph unicode="&#xfe;" horiz-adv-x="980" d="M133 -406v1909h113v-629h4q24 61 96.5 108.5t185.5 47.5q104 0 178 -35.5t118 -105.5t63.5 -164.5t19.5 -220.5q0 -255 -92 -384.5t-287 -129.5q-113 0 -182 43t-94 106h-6v-545h-117zM238 504q0 -408 284 -408q146 0 210.5 102.5t64.5 305.5q0 101 -12.5 173t-42.5 129 t-85 85.5t-135 28.5q-68 0 -118.5 -21.5t-81.5 -57.5t-50.5 -90.5t-26.5 -113.5t-7 -133z" />
<glyph unicode="&#xff;" horiz-adv-x="931" d="M53 1016h131l285 -844l287 844h121l-349 -1016l-59 -184q-43 -130 -102 -189t-162 -59q-29 0 -56 3.5t-39 6.5l-12 4v111q40 -15 99 -15q63 0 101 31t62 107l60 184h-17zM168 1284q0 43 30.5 74t73.5 31t75 -31t32 -74q0 -41 -32 -70.5t-75 -29.5t-73.5 29.5t-30.5 70.5z M563 1284q0 43 31.5 74t75.5 31q43 0 73.5 -31t30.5 -74q0 -41 -30.5 -70.5t-73.5 -29.5q-44 0 -75.5 29.5t-31.5 70.5z" />
<glyph unicode="&#x152;" horiz-adv-x="1972" d="M92 774q0 361 131.5 543t413.5 182q285 0 416 -213v197h843v-115h-714v-553h604v-115h-604v-585h714v-115h-843l-2 152q-128 -168 -414 -168q-283 0 -414 187t-131 603zM223 776q0 -356 99 -516t315 -160q217 0 315.5 149t98.5 445q0 359 -99.5 523.5t-314.5 164.5 q-217 0 -315.5 -153t-98.5 -453z" />
<glyph unicode="&#x153;" horiz-adv-x="1658" d="M84 528q0 249 99 374.5t309 125.5q249 0 342 -199q90 199 360 199q77 0 137.5 -18t101.5 -53.5t69 -81t42.5 -107t20.5 -125.5t4 -141h-666q4 -56 8 -88q17 -164 86.5 -241t198.5 -77q72 0 126.5 18.5t83.5 48t42.5 60.5t13.5 62l105 -19q0 -47 -19.5 -92.5t-60.5 -88 t-117 -69t-176 -26.5q-251 0 -342 190q-88 -190 -360 -190q-211 0 -309.5 127t-98.5 411zM201 528q0 -228 70 -330t223 -102q151 0 220.5 96.5t69.5 290.5q0 228 -70 332.5t-220 104.5q-152 0 -222.5 -98.5t-70.5 -293.5zM903 598h551q-2 71 -13.5 124.5t-39 100.5t-79 72 t-126.5 25q-144 0 -214.5 -80.5t-78.5 -241.5z" />
<glyph unicode="&#x178;" horiz-adv-x="1148" d="M61 1483h142l375 -740l374 740h135l-448 -875v-608h-129v604zM276 1677q0 43 31 74t74 31t74.5 -31t31.5 -74q0 -41 -31.5 -70.5t-74.5 -29.5t-74 29.5t-31 70.5zM672 1677q0 43 31 74t75 31q43 0 74 -31t31 -74q0 -41 -31 -70.5t-74 -29.5q-44 0 -75 29.5t-31 70.5z" />
<glyph unicode="&#x2c6;" horiz-adv-x="958" d="M223 1190l183 344h172l182 -344h-88l-178 250l-181 -250h-90z" />
<glyph unicode="&#x2dc;" horiz-adv-x="899" d="M76 1214q0 30 11.5 61t33.5 60.5t61.5 48.5t89.5 19q43 0 89 -18.5t78 -40t71.5 -40t71.5 -18.5q66 0 99.5 36.5t33.5 70.5h94q0 -24 -11 -54.5t-35 -65t-71.5 -58t-109.5 -23.5q-47 0 -92.5 18.5t-76 41t-69 41t-72.5 18.5q-50 0 -77 -29.5t-27 -67.5h-92z" />
<glyph unicode="&#x2000;" horiz-adv-x="971" />
<glyph unicode="&#x2001;" horiz-adv-x="1942" />
<glyph unicode="&#x2002;" horiz-adv-x="971" />
<glyph unicode="&#x2003;" horiz-adv-x="1942" />
<glyph unicode="&#x2004;" horiz-adv-x="647" />
<glyph unicode="&#x2005;" horiz-adv-x="485" />
<glyph unicode="&#x2006;" horiz-adv-x="323" />
<glyph unicode="&#x2007;" horiz-adv-x="323" />
<glyph unicode="&#x2008;" horiz-adv-x="242" />
<glyph unicode="&#x2009;" horiz-adv-x="388" />
<glyph unicode="&#x200a;" horiz-adv-x="107" />
<glyph unicode="&#x2010;" horiz-adv-x="1021" d="M121 573v115h780v-115h-780z" />
<glyph unicode="&#x2011;" horiz-adv-x="1021" d="M121 573v115h780v-115h-780z" />
<glyph unicode="&#x2012;" horiz-adv-x="1021" d="M121 573v115h780v-115h-780z" />
<glyph unicode="&#x2013;" horiz-adv-x="1163" d="M121 573v115h919v-115h-919z" />
<glyph unicode="&#x2014;" horiz-adv-x="1855" d="M121 573v115h1612v-115h-1612z" />
<glyph unicode="&#x2018;" horiz-adv-x="405" d="M90 1292v107q0 229 176 229q11 0 22 -1.5t16 -2.5l5 -2v-70q-16 7 -45 7q-52 0 -77 -30.5t-25 -80.5v-49q28 8 45 8q47 0 82 -34t35 -81q0 -51 -34.5 -86t-82.5 -35q-49 0 -83 35t-34 86z" />
<glyph unicode="&#x2019;" horiz-adv-x="411" d="M90 1509q0 51 34.5 86t82.5 35q49 0 83 -35t34 -86v-106q0 -229 -177 -229q-11 0 -22 1.5t-16 2.5l-5 2v69q17 -6 46 -6q52 0 77 30.5t25 80.5v49q-28 -8 -45 -8q-48 0 -82.5 33.5t-34.5 80.5z" />
<glyph unicode="&#x201a;" horiz-adv-x="423" d="M92 104q0 51 34.5 86t82.5 35q49 0 83 -35t34 -86v-106q0 -229 -176 -229q-11 0 -22 1.5t-16 3.5l-6 1v69q17 -6 46 -6q52 0 77 30.5t25 80.5v49q-28 -8 -45 -8q-48 0 -82.5 33.5t-34.5 80.5z" />
<glyph unicode="&#x201c;" horiz-adv-x="720" d="M90 1292v107q0 229 176 229q11 0 22 -1.5t16 -2.5l5 -2v-70q-16 7 -45 7q-52 0 -77 -30.5t-25 -80.5v-49q28 8 45 8q47 0 82 -34t35 -81q0 -51 -34.5 -86t-82.5 -35q-49 0 -83 35t-34 86zM403 1292v107q0 229 177 229q11 0 22 -1.5t16 -2.5l5 -2v-70q-16 7 -45 7 q-52 0 -77.5 -30.5t-25.5 -80.5v-49q28 8 45 8q47 0 82 -34t35 -81q0 -51 -34.5 -86t-82.5 -35q-49 0 -83 35t-34 86z" />
<glyph unicode="&#x201d;" horiz-adv-x="727" d="M90 1509q0 51 34.5 86t82.5 35q49 0 83 -35t34 -86v-106q0 -229 -177 -229q-11 0 -22 1.5t-16 2.5l-5 2v69q17 -6 46 -6q52 0 77 30.5t25 80.5v49q-28 -8 -45 -8q-48 0 -82.5 33.5t-34.5 80.5zM406 1509q0 51 34 86t82 35q49 0 83 -35t34 -86v-106q0 -229 -176 -229 q-11 0 -22 1.5t-16 2.5l-5 2v69q16 -6 45 -6q52 0 77 30.5t25 80.5v49q-28 -8 -45 -8q-47 0 -81.5 33.5t-34.5 80.5z" />
<glyph unicode="&#x201e;" horiz-adv-x="737" d="M90 104q0 51 34.5 86t82.5 35q49 0 83 -35t34 -86v-106q0 -229 -177 -229q-11 0 -22 1.5t-16 3.5l-5 1v69q17 -6 46 -6q52 0 77 30.5t25 80.5v49q-28 -8 -45 -8q-48 0 -82.5 33.5t-34.5 80.5zM406 104q0 51 34 86t82 35q49 0 83 -35t34 -86v-106q0 -229 -176 -229 q-11 0 -22 1.5t-16 3.5l-5 1v69q16 -6 45 -6q52 0 77 30.5t25 80.5v49q-28 -8 -45 -8q-47 0 -81.5 33.5t-34.5 80.5z" />
<glyph unicode="&#x2022;" horiz-adv-x="665" d="M145 707q0 75 55.5 128.5t133.5 53.5q77 0 131.5 -53.5t54.5 -128.5q0 -76 -54.5 -130.5t-131.5 -54.5q-78 0 -133.5 54.5t-55.5 130.5z" />
<glyph unicode="&#x2026;" horiz-adv-x="1521" d="M94 113q0 53 36.5 90t88.5 37q54 0 90.5 -37t36.5 -90t-36.5 -89t-90.5 -36q-53 0 -89 36t-36 89zM635 113q0 52 37 89.5t88 37.5q54 0 90.5 -37t36.5 -90t-36.5 -89t-90.5 -36q-51 0 -88 36.5t-37 88.5zM1178 113q0 53 36.5 90t88.5 37q53 0 90 -37t37 -90 q0 -52 -37 -88.5t-90 -36.5t-89 36t-36 89z" />
<glyph unicode="&#x202f;" horiz-adv-x="388" />
<glyph unicode="&#x205f;" horiz-adv-x="485" />
<glyph unicode="&#x20ac;" horiz-adv-x="1138" d="M80 510v115h168q-8 52 -8 123q0 32 4 94h-164v114h186q65 246 275 393.5t512 147.5v-119q-245 0 -417.5 -113t-234.5 -309h514v-114h-538q-6 -47 -6 -94q0 -74 10 -123h424v-115h-395q69 -189 238 -299.5t405 -110.5v-118q-291 0 -499 144.5t-280 383.5h-194z" />
<glyph unicode="&#x2122;" horiz-adv-x="1673" d="M90 1384v99h602v-99h-248v-790h-110v790h-244zM786 594v889h91l284 -436l285 436h90v-889h-109v670l-266 -394l-264 394v-670h-111z" />
<glyph unicode="&#x25fc;" horiz-adv-x="1013" d="M0 0v1014h1014v-1014h-1014z" />
</font>
</defs>
</svg>
