<?xml version="1.0" standalone="no"?>
<!DOCTYPE svg PUBLIC "-//W3C//DTD SVG 1.1//EN" "http://www.w3.org/Graphics/SVG/1.1/DTD/svg11.dtd" >
<svg xmlns="http://www.w3.org/2000/svg">
<metadata></metadata>
<defs>
<font id="modernicabook" horiz-adv-x="1433" >
<font-face units-per-em="2048" ascent="1621" descent="-427" />
<missing-glyph horiz-adv-x="426" />
<glyph unicode="&#xfb01;" horiz-adv-x="918" d="M63 775v95h120v123q0 261 283 261q76 0 140.5 -13t91.5 -25l27 -13q0 -28 -6.5 -54t-12.5 -38l-6 -12q-10 6 -28.5 15t-78 24.5t-120.5 15.5q-97 0 -142.5 -44t-45.5 -134v-106h492v-870h-103v775h-389v-775h-102v775h-120z" />
<glyph unicode="&#xfb02;" horiz-adv-x="967" d="M63 775v95h120v111q0 139 71 206t249 67q82 0 150.5 -8t96.5 -16l27 -8v-1065q0 -39 14 -54.5t50 -15.5q26 0 48 4.5t31 8.5l10 4q14 -39 14 -95q-36 -23 -128 -23q-75 0 -108.5 31.5t-33.5 113.5v644h-389v-775h-102v775h-120zM285 870h389v270q-78 14 -165 14 q-125 0 -174.5 -43t-49.5 -142v-99z" />
<glyph unicode="&#xfb03;" horiz-adv-x="1387" d="M63 775v95h120v111q0 139 70 206t242 67q134 0 244 -51q70 51 196 51q76 0 141 -13t92 -25l27 -13q0 -28 -6.5 -54t-12.5 -38l-7 -12q-10 6 -28.5 15t-78 24.5t-120.5 15.5q-97 0 -142.5 -44t-45.5 -134v-106h492v-870h-103v775h-389v-775h-102v775h-367v-775h-102v775 h-120zM285 870h367v123q0 76 24 130q-85 31 -176 31q-119 0 -167 -43.5t-48 -141.5v-99z" />
<glyph unicode="&#xfb04;" horiz-adv-x="1437" d="M63 775v95h120v111q0 139 70 206t242 67q147 0 246 -53q79 53 232 53q82 0 150 -8t95 -16l28 -8v-1065q0 -38 14.5 -54t50.5 -16q26 0 48 4.5t31 8.5l9 4q14 -39 14 -95q-36 -23 -128 -23q-75 0 -108.5 31.5t-33.5 113.5v644h-389v-775h-102v775h-367v-775h-102v775h-120 zM285 870h367v111q0 86 24 140q-76 33 -176 33q-119 0 -167 -43.5t-48 -141.5v-99zM754 870h389v270q-78 14 -165 14q-125 0 -174.5 -43t-49.5 -142v-99z" />
<glyph horiz-adv-x="0" />
<glyph horiz-adv-x="682" />
<glyph unicode=" "  horiz-adv-x="426" />
<glyph unicode="&#x09;" horiz-adv-x="426" />
<glyph unicode="&#xa0;" horiz-adv-x="426" />
<glyph unicode="!" horiz-adv-x="397" d="M114 77q0 40 23.5 62.5t62.5 22.5t62 -22t23 -63t-23 -63.5t-62 -22.5t-62.5 22.5t-23.5 63.5zM142 1246h116q0 -144 -5 -375.5t-9 -391.5l-5 -160h-79q-18 604 -18 927z" />
<glyph unicode="&#x22;" horiz-adv-x="580" d="M114 887v359h104l-22 -359h-82zM362 887v359h104l-22 -359h-82z" />
<glyph unicode="#" horiz-adv-x="1046" d="M114 251l14 95h167l48 246h-177l13 96h183l42 217h103l-43 -217h205l43 217h102l-43 -217h163l-16 -96h-165l-48 -246h177l-15 -95h-181l-43 -217h-102l43 217h-205l-43 -217h-102l42 217h-162zM398 346h204l48 246h-205z" />
<glyph unicode="$" horiz-adv-x="1080" d="M148 328q40 18 103 25q22 -263 295 -263q290 0 290 226q0 58 -23 100.5t-62.5 67.5t-90.5 43.5t-107.5 33t-112.5 30.5t-107 41.5t-90.5 61.5t-62.5 94.5t-23 136.5q0 139 85.5 222.5t247.5 96.5v173h102v-173q167 -12 244 -104t77 -235q-32 -26 -102 -26 q-2 131 -63.5 203.5t-209.5 72.5q-139 0 -209 -60t-70 -173q0 -78 37 -130.5t97 -79.5t131.5 -46.5t143.5 -41.5t132 -54t97 -95t37 -154q0 -144 -87.5 -226t-254.5 -93v-173h-102v173q-156 13 -244.5 98.5t-97.5 227.5z" />
<glyph unicode="%" horiz-adv-x="1558" d="M137 870q0 172 64 261t203 89q267 0 267 -350q0 -349 -267 -349q-139 0 -203 88.5t-64 260.5zM227 870q0 -136 43.5 -200t133.5 -64t133 64t43 200q0 137 -43 201t-133 64t-133.5 -64.5t-43.5 -200.5zM316 0l885 1246h105l-886 -1246h-104zM887 341q0 172 64.5 261 t203.5 89q267 0 267 -350t-267 -350q-139 0 -203.5 89t-64.5 261zM978 341q0 -136 43.5 -200t133.5 -64t133 64t43 200q0 137 -43 201t-133 64t-133.5 -64.5t-43.5 -200.5z" />
<glyph unicode="&#x26;" horiz-adv-x="1237" d="M114 299q0 52 16 98t40 78.5t64 64.5t75.5 53t86.5 47q-123 170 -123 336q0 131 79.5 209t227.5 78q147 0 220.5 -71t73.5 -188q0 -44 -10.5 -84t-26.5 -71t-43.5 -61.5t-53 -51.5t-64 -45.5t-67 -39.5t-71.5 -37q120 -144 382 -360q92 143 92 434q51 -9 97 -43 q0 -285 -114 -450q26 -21 92.5 -73.5t103.5 -82.5q-39 -36 -107 -48l-154 128q-141 -136 -392 -136q-208 0 -316 72.5t-108 243.5zM218 311q0 -231 320 -231q209 0 320 101q-284 238 -409 389q-113 -58 -172 -116t-59 -143zM377 968q0 -135 108 -285q54 26 87.5 44.5 t75.5 48t65.5 58.5t40 69.5t16.5 86.5q0 80 -47.5 128t-142.5 48q-101 0 -152 -51.5t-51 -146.5z" />
<glyph unicode="'" horiz-adv-x="332" d="M114 887v359h104l-22 -359h-82z" />
<glyph unicode="(" horiz-adv-x="756" d="M148 478q0 101 14.5 194t38.5 164t55.5 134t66.5 108.5t70 83.5t66.5 62t55.5 40.5t39 23.5l14 7l75 -49q-8 -3 -22 -10.5t-53.5 -36.5t-76 -65.5t-81 -101t-76 -139t-53.5 -183.5t-22 -232t21 -231.5t55 -184.5t75 -138.5t82 -101t75 -65t55 -37.5l21 -10l-75 -50 q-9 4 -24 12t-58.5 40t-83.5 71t-88.5 108t-83 148.5t-58.5 194.5t-24 244z" />
<glyph unicode=")" horiz-adv-x="790" d="M148 -290q8 3 22 10.5t53.5 36.5t76 65.5t81 101t76 139t53.5 183.5t22 232t-21 231.5t-55 184.5t-75 138.5t-82 101t-75 65t-55 37.5l-21 10l74 49q9 -4 24 -12t59 -40t83.5 -71t88 -108t83.5 -148t59 -194t24 -244t-23 -243.5t-60.5 -195t-82.5 -148t-89.5 -109 t-82 -70.5t-60.5 -40l-23 -12z" />
<glyph unicode="*" horiz-adv-x="692" d="M90 990v85l185 -5l-104 164l76 44l99 -189l103 189l77 -44l-108 -164l183 5v-85l-183 5l108 -164l-77 -44l-103 189l-99 -189l-76 44l104 164z" />
<glyph unicode="+" horiz-adv-x="984" d="M171 459v94h273v288h97v-288h273v-94h-273v-288h-97v288h-273z" />
<glyph unicode="," horiz-adv-x="337" d="M73 72q0 40 23.5 62.5t63.5 22.5q50 0 77.5 -34.5t27.5 -93.5q0 -80 -45.5 -141.5t-111.5 -92.5l-28 48q53 27 88 71t40 100q-25 -23 -60 -23q-30 0 -52.5 22t-22.5 59z" />
<glyph unicode="-" horiz-adv-x="733" d="M125 447v96h484v-96h-484z" />
<glyph unicode="." horiz-adv-x="319" d="M73 77q0 40 23.5 62.5t62.5 22.5t62 -22t23 -63t-23 -63.5t-62 -22.5t-62.5 22.5t-23.5 63.5z" />
<glyph unicode="/" horiz-adv-x="926" d="M114 -307l598 1715h102l-597 -1715h-103z" />
<glyph unicode="0" horiz-adv-x="1109" d="M125 623q0 322 106 476.5t324 154.5t324 -154.5t106 -476.5q0 -632 -430 -632t-430 632zM236 623q0 -526 319 -526t319 526q0 278 -81 402t-238 124t-238 -124t-81 -402z" />
<glyph unicode="1" horiz-adv-x="694" d="M22 1046q109 32 213 86.5t169 113.5h96v-1246h-111v1114q-45 -39 -140 -86t-206 -77q-21 39 -21 95z" />
<glyph unicode="2" horiz-adv-x="1012" d="M125 939q0 63 22 118t66 100t119.5 71t174.5 26q192 0 286 -94.5t94 -260.5q0 -90 -35 -165.5t-91 -128.5t-123.5 -99t-135 -88t-123.5 -85.5t-91 -100.5t-35 -123h634v-109h-745v80q0 90 35 164t91 124.5t124 95.5t135.5 87.5t123.5 88t91 109.5t35 142q0 123 -68 192 t-202 69q-141 0 -209 -60t-68 -167q0 -51 13 -92.5t26 -57.5l13 -16h-106q-2 2 -5.5 6.5t-12.5 20t-15.5 34.5t-12 51t-5.5 68z" />
<glyph unicode="3" horiz-adv-x="989" d="M125 338q46 26 109 26q0 -270 258 -270q127 0 194.5 59.5t67.5 179.5q0 111 -71.5 174t-192.5 63h-72v97h72q118 0 187 63t69 192q0 104 -63 167t-191 63q-130 0 -194 -58.5t-64 -158.5q0 -40 9 -73.5t19 -46.5l9 -13h-104q-5 5 -12 15t-18.5 48.5t-11.5 85.5 q0 131 92.5 217t274.5 86q96 0 168.5 -26t114 -71.5t62 -101t20.5 -120.5q0 -79 -22.5 -140t-60 -95.5t-79.5 -53t-89 -23.5v-9q46 -4 90 -21.5t83 -50.5t62.5 -88t23.5 -125q0 -164 -99 -251t-274 -87t-271 86t-96 261z" />
<glyph unicode="4" horiz-adv-x="1003" d="M56 469l536 777h156v-756h199v-103h-199v-387h-111v387h-552zM188 490h449v653z" />
<glyph unicode="5" horiz-adv-x="1032" d="M125 329q44 28 109 28q13 -135 81 -199t197 -64q132 0 208.5 71.5t76.5 221.5q0 129 -69.5 206.5t-210.5 77.5q-45 0 -87 -9t-69.5 -21.5t-48 -25.5t-30.5 -22l-9 -9l-97 18l25 644h647v-109h-543l-18 -441q9 8 27.5 20t81 32t133.5 20q182 0 280.5 -101.5t98.5 -273.5 q0 -109 -33 -189.5t-90.5 -125.5t-126 -66t-149.5 -21q-169 0 -270 86.5t-114 251.5z" />
<glyph unicode="6" horiz-adv-x="1032" d="M125 563q0 187 33.5 324t94.5 215.5t138 115t172 36.5q169 0 248.5 -89.5t79.5 -234.5q-42 -34 -103 -34q0 117 -53.5 185.5t-171.5 68.5q-68 0 -124 -30t-102.5 -94.5t-73 -178.5t-27.5 -270q121 126 314 126q173 0 265.5 -94t92.5 -247q0 -170 -97 -270.5t-279 -100.5 q-407 0 -407 572zM239 459q30 -365 295 -365q127 0 195 64.5t68 187.5q0 117 -64.5 188.5t-191.5 71.5q-186 0 -302 -147z" />
<glyph unicode="7" horiz-adv-x="832" d="M39 1137v109h732l23 -91q-13 -17 -35 -49t-84.5 -143.5t-119.5 -235.5t-125 -321.5t-114 -405.5h-111q39 181 99.5 364.5t119 316.5t111 240t85.5 161l32 55h-613z" />
<glyph unicode="8" horiz-adv-x="1024" d="M125 311q0 58 16 107.5t41.5 83t56.5 60.5t62.5 43t57 26.5t41.5 14.5l16 3q-5 1 -14 3.5t-35 13.5t-49.5 25t-52 40t-49.5 57t-35 76.5t-14 98.5q0 140 89.5 215.5t255.5 75.5t255.5 -75.5t89.5 -215.5q0 -53 -13.5 -98.5t-35.5 -76.5t-49 -56.5t-53.5 -40.5t-48.5 -25 t-35 -14l-14 -3q6 -1 16.5 -3.5t40.5 -14t57.5 -26.5t61.5 -42.5t58 -61t40.5 -83t16.5 -107.5q0 -156 -99.5 -238t-287.5 -82t-287.5 82t-99.5 238zM234 321q0 -227 278 -227t278 227q0 64 -28.5 116t-69.5 80.5t-82 47.5t-70 25l-28 6q-6 -1 -16 -3t-39 -11.5t-55 -21.5 t-58 -34.5t-55 -49.5t-39 -67.5t-16 -87.5zM276 961q0 -59 24.5 -108t59 -76t69 -45.5t59.5 -24.5l24 -6q5 1 13.5 3t33 11.5t47 21t49.5 33t46.5 47t33 63.5t13.5 81q0 88 -60 139.5t-176 51.5q-115 0 -175.5 -52t-60.5 -139z" />
<glyph unicode="9" horiz-adv-x="1032" d="M125 870q0 172 96.5 278t273.5 106q98 0 172 -30t129 -95.5t83.5 -176t28.5 -264.5q0 -193 -30.5 -330t-89.5 -216.5t-138 -115t-184 -35.5q-160 0 -239 83.5t-79 219.5q40 30 103 30q0 -116 54.5 -173t167.5 -57q71 0 126 26.5t99 86.5t69.5 166.5t29.5 256.5 q-127 -118 -319 -118q-173 0 -263 93.5t-90 264.5zM236 884q0 -275 250 -275q62 0 117 15.5t92.5 40t60.5 45t39 41.5q-5 119 -30 200.5t-67.5 124t-91.5 59.5t-114 17q-120 0 -188 -71t-68 -197z" />
<glyph unicode=":" horiz-adv-x="370" d="M108 77q0 41 23 63t62 22t62 -22t23 -63t-23 -63.5t-62 -22.5t-62 22.5t-23 63.5zM108 720q0 40 23 63t62 23t62 -23t23 -63q0 -41 -23 -63t-62 -22t-62 22t-23 63z" />
<glyph unicode=";" horiz-adv-x="389" d="M108 72q0 40 23.5 62.5t63.5 22.5q49 0 76.5 -34.5t27.5 -93.5q0 -80 -45.5 -141.5t-111.5 -92.5l-28 48q53 27 88 71t40 100q-25 -23 -59 -23q-30 0 -52.5 22t-22.5 59zM108 720q0 40 23 63t62 23t62 -23t23 -63q0 -41 -23 -63t-62 -22t-62 22t-23 63z" />
<glyph unicode="&#x3c;" horiz-adv-x="950" d="M148 398v92l654 317v-95l-572 -268l572 -256v-98z" />
<glyph unicode="=" horiz-adv-x="1006" d="M171 328v95h665v-95h-665zM171 594v97h665v-97h-665z" />
<glyph unicode="&#x3e;" horiz-adv-x="950" d="M148 90v98l572 256l-572 268v95l654 -317v-92z" />
<glyph unicode="?" horiz-adv-x="759" d="M80 1012q0 111 77.5 181t209.5 70q139 0 217 -72.5t78 -204.5q0 -59 -16.5 -108.5t-43 -84t-58.5 -65t-64 -58.5t-58.5 -57t-43 -68t-16.5 -84v-142h-92v133q0 57 16 104t41.5 79t56.5 61t62 56.5t56.5 58t41.5 74t16 96.5q0 91 -52 141t-141 50q-86 0 -135 -45.5 t-49 -124.5q0 -37 8.5 -68.5t16.5 -44.5l9 -13h-103q-4 5 -9.5 14.5t-15 44.5t-9.5 77zM230 77q0 40 23.5 62.5t62.5 22.5t62 -22t23 -63t-23 -63.5t-62 -22.5t-62.5 22.5t-23.5 63.5z" />
<glyph unicode="@" horiz-adv-x="1821" d="M183 435q0 193 57.5 341.5t161 240t240 137.5t300.5 46q331 0 513.5 -181t182.5 -538q0 -498 -269 -498q-149 0 -186 128q-109 -128 -292 -128q-80 0 -147.5 26t-120 78.5t-82 139.5t-29.5 200q0 224 113 342t291 118q165 0 263 -102l19 89l77 -16v-633q0 -84 23 -118 t81 -34q38 0 66 16.5t52 59t36.5 126t12.5 206.5q0 633 -604 633q-116 0 -215.5 -24t-183.5 -76.5t-143.5 -131t-93 -192.5t-33.5 -255q0 -144 34 -257t90 -185.5t134 -119.5t160.5 -66.5t175.5 -19.5q56 0 105 6t79 14.5t52 17.5t31 15l9 6q0 -24 -2.5 -46t-5.5 -32l-3 -10 q-9 -6 -27 -14.5t-86.5 -23t-151.5 -14.5q-110 0 -207 23t-185.5 77.5t-152.5 136.5t-101.5 208t-37.5 284zM614 418q0 -88 23.5 -154t65.5 -104.5t93.5 -56.5t113.5 -18q164 0 262 115v484q-95 101 -250 101q-63 0 -117 -21t-97.5 -64t-68.5 -115t-25 -167z" />
<glyph unicode="A" horiz-adv-x="1194" d="M22 0q131 344 257 655.5t187 450.5l61 140h140q212 -475 505 -1246h-117q-31 82 -86 224t-73 189h-597q-18 -47 -73 -189t-86 -224h-118zM340 515h517q-66 168 -131 327t-97 234l-32 76q-109 -261 -257 -637z" />
<glyph unicode="B" horiz-adv-x="1100" d="M154 0v1246h418q186 0 280.5 -87.5t94.5 -250.5q0 -68 -20.5 -120.5t-51.5 -80t-53.5 -40.5t-41.5 -18q120 -25 192 -103t72 -218q0 -170 -93 -249t-285 -79h-512zM263 109h391q141 0 210.5 49.5t69.5 174.5q0 118 -76 180t-223 62h-372v-466zM263 679h317 q123 0 189.5 54.5t66.5 167.5q0 117 -67.5 176.5t-213.5 59.5h-292v-458z" />
<glyph unicode="C" horiz-adv-x="1314" d="M114 623q0 150 46.5 271t129.5 199t195 119.5t245 41.5q96 0 179.5 -18t134.5 -41.5t94.5 -56.5t61 -53t32.5 -41q-7 -29 -22 -56.5t-26 -40.5l-12 -13q-133 211 -442 211q-105 0 -195.5 -32.5t-160.5 -95t-110 -164t-40 -230.5q0 -138 40 -241t111.5 -163t161 -89 t197.5 -29q98 0 179 20.5t133.5 53.5t85 65t51.5 65q40 -39 59 -97q-15 -22 -32.5 -42t-61.5 -54.5t-96 -59t-136 -43t-182 -18.5q-132 0 -243 38.5t-196 114.5t-133 198.5t-48 280.5z" />
<glyph unicode="D" horiz-adv-x="1276" d="M154 0v1246h324q343 0 514.5 -152t171.5 -471t-171.5 -471t-514.5 -152h-324zM263 109h249q265 0 403 123.5t138 390.5t-138 390.5t-403 123.5h-249v-1028z" />
<glyph unicode="E" horiz-adv-x="1041" d="M154 0v1246h785v-109h-676v-482h590v-107h-590v-439h701v-109h-810z" />
<glyph unicode="F" horiz-adv-x="967" d="M154 0v1246h802v-109h-693v-482h599v-107h-599v-548h-109z" />
<glyph unicode="G" horiz-adv-x="1334" d="M114 623q0 203 80 347t217.5 214t318.5 70q315 0 482 -167q-6 -27 -19.5 -54.5t-23.5 -42.5l-10 -14q-32 35 -64.5 60.5t-83.5 52.5t-122 41.5t-159 14.5q-107 0 -196.5 -30t-160 -91.5t-110 -163.5t-39.5 -237q0 -265 138 -397t380 -132q222 0 383 101v353h-371v104h475 v-507q-6 -6 -19 -16.5t-58 -37t-96.5 -47t-136.5 -37t-177 -16.5q-138 0 -252 40t-198.5 117t-131 198.5t-46.5 276.5z" />
<glyph unicode="H" horiz-adv-x="1326" d="M154 0v1246h109v-591h799v591h110v-1246h-110v548h-799v-548h-109z" />
<glyph unicode="I" horiz-adv-x="416" d="M154 0v1246h109v-1246h-109z" />
<glyph unicode="J" horiz-adv-x="1000" d="M39 372q37 26 104 26q0 -165 71.5 -234.5t220.5 -69.5q77 0 131.5 16t96.5 55.5t62.5 110.5t20.5 176v794h109v-814q0 -231 -106.5 -336t-325.5 -105q-384 0 -384 381z" />
<glyph unicode="K" horiz-adv-x="1146" d="M154 0v1246h109v-727q122 30 222 80.5t191 134.5t160.5 212.5t112.5 299.5h109q-117 -420 -357 -623q275 -392 422 -623h-130q-159 249 -380 556q-139 -91 -350 -146v-410h-109z" />
<glyph unicode="L" horiz-adv-x="901" d="M154 0v1246h109v-1137h630v-109h-739z" />
<glyph unicode="M" horiz-adv-x="1517" d="M154 0v1246h90l515 -632l514 632h91v-1246h-110v1051l-486 -590h-17l-488 590v-1051h-109z" />
<glyph unicode="N" horiz-adv-x="1309" d="M154 0v1246h76l814 -1039v1039h111v-1246h-76l-816 1039v-1039h-109z" />
<glyph unicode="O" d="M114 623q0 304 163.5 467.5t439.5 163.5t439 -163.5t163 -467.5q0 -303 -163.5 -467.5t-438.5 -164.5t-439 164.5t-164 467.5zM224 623q0 -136 37.5 -239t105.5 -164t155.5 -91t194.5 -30t194.5 30t155.5 91t105.5 164t37.5 239q0 135 -37.5 237.5t-105 164t-155.5 92 t-195 30.5t-195 -30.5t-155.5 -92t-105 -164t-37.5 -237.5z" />
<glyph unicode="P" horiz-adv-x="1066" d="M154 0v1246h370q232 0 347 -102t115 -313q0 -213 -115.5 -316.5t-346.5 -103.5h-261v-411h-109zM263 519h288q326 0 326 312q0 306 -326 306h-288v-618z" />
<glyph unicode="Q" d="M114 623q0 304 163.5 467.5t439.5 163.5t439 -163.5t163 -467.5q0 -229 -95.5 -380t-267.5 -212q74 -147 170 -270q-54 -39 -131 -39q-79 123 -148 280q-64 -11 -130 -11q-275 0 -439 164.5t-164 467.5zM224 623q0 -136 37.5 -239t105.5 -164t155.5 -91t194.5 -30 t194.5 30t155.5 91t105.5 164t37.5 239q0 135 -37.5 237.5t-105 164t-155.5 92t-195 30.5t-195 -30.5t-155.5 -92t-105 -164t-37.5 -237.5z" />
<glyph unicode="R" horiz-adv-x="1158" d="M154 0v1246h421q233 0 348 -96t115 -300q0 -279 -227 -364q104 -179 259 -486h-135q-111 247 -232 459q-62 -8 -128 -8h-312v-451h-109zM263 560h339q159 0 242.5 74t83.5 216q0 149 -81.5 218t-244.5 69h-339v-577z" />
<glyph unicode="S" horiz-adv-x="1075" d="M89 338q36 20 109 34q1 -151 86 -216.5t257 -65.5q175 0 255.5 58.5t80.5 179.5q0 73 -42.5 119t-110.5 67.5t-150 36.5t-164.5 35.5t-150.5 53.5t-110.5 101t-42.5 169q0 163 109 253.5t340 90.5q113 0 196 -22.5t130.5 -63.5t69.5 -91.5t22 -112.5q0 -43 -7 -78 t-14 -48l-7 -14h-107q26 38 26 111q0 96 -72.5 157.5t-236.5 61.5q-176 0 -258 -62t-82 -184q0 -63 26.5 -108.5t71 -71.5t102.5 -43.5t121.5 -29.5t127.5 -25t122 -34.5t102.5 -53t71 -86t26.5 -128.5q0 -163 -111.5 -250t-340.5 -87q-224 0 -333.5 90.5t-111.5 256.5z" />
<glyph unicode="T" horiz-adv-x="1018" d="M12 1137v109h986v-109h-438v-1137h-109v1137h-439z" />
<glyph unicode="U" horiz-adv-x="1331" d="M145 538v708h109v-688q0 -130 26.5 -220t81 -141.5t128 -73.5t176.5 -22t176.5 22t127.5 73.5t80.5 141t26.5 220.5v688h109v-708q0 -153 -32 -258.5t-99 -169t-161.5 -91.5t-227.5 -28t-227.5 28t-161.5 91.5t-99.5 169t-32.5 258.5z" />
<glyph unicode="V" horiz-adv-x="1092" d="M-29 1246h118q99 -273 213 -561t179 -439l65 -152q236 539 458 1152h117q-123 -337 -248.5 -648.5t-190.5 -454.5l-64 -143h-144q-25 55 -70.5 156.5t-177.5 427t-255 662.5z" />
<glyph unicode="W" horiz-adv-x="1506" d="M-20 1246h117q68 -237 154 -525t137 -457l52 -170q128 568 253 1152h121l253 -1152q189 619 343 1152h117q-91 -304 -186.5 -615.5t-145.5 -470.5l-50 -160h-150q-135 542 -241 1080q-47 -240 -107 -510t-97 -420l-36 -150h-150q-179 564 -384 1246z" />
<glyph unicode="X" horiz-adv-x="1058" d="M5 0q192 288 439 623q-214 284 -439 623h120q89 -132 190 -274t157 -218l57 -76q205 272 405 568h119q-225 -339 -439 -623q247 -335 439 -623h-119q-89 132 -190 274t-158 218l-57 76q-204 -272 -404 -568h-120z" />
<glyph unicode="Y" horiz-adv-x="1012" d="M-29 1246h125q85 -162 187.5 -334t162.5 -263l61 -91q218 325 409 688h125q-112 -199 -231.5 -395t-183.5 -293l-63 -97v-461h-112v461q-226 339 -480 785z" />
<glyph unicode="Z" horiz-adv-x="1027" d="M29 94l826 1043h-817v109h952l3 -94l-819 -1043h816v-109h-952z" />
<glyph unicode="[" horiz-adv-x="653" d="M183 -304v1567h358v-102h-256v-1362h256v-103h-358z" />
<glyph unicode="\" horiz-adv-x="926" d="M114 1408h103l597 -1715h-102z" />
<glyph unicode="]" horiz-adv-x="653" d="M114 -201h256v1362h-256v102h359v-1567h-359v103z" />
<glyph unicode="^" horiz-adv-x="858" d="M148 870l222 393h120l222 -393h-98l-184 328l-186 -328h-96z" />
<glyph unicode="_" horiz-adv-x="819" d="M73 -17v97h673v-97h-673z" />
<glyph unicode="`" horiz-adv-x="631" d="M171 1280h119l171 -290h-91z" />
<glyph unicode="a" horiz-adv-x="933" d="M125 201q0 117 71 171.5t210 54.5h282v124q0 122 -49.5 177t-181.5 55q-221 0 -221 -157q0 -26 5 -47t10 -29l5 -9h-102q-21 39 -21 99q0 109 82.5 174t241.5 65q178 0 255.5 -72.5t77.5 -229.5v-577h-90l-9 128q-49 -54 -131.5 -95.5t-201.5 -41.5q-110 0 -171.5 52.5 t-61.5 157.5zM227 205q0 -125 157 -125q62 0 117 15.5t92.5 40t59 43.5t35.5 36v133h-278q-97 0 -140 -34.5t-43 -108.5z" />
<glyph unicode="b" horiz-adv-x="1027" d="M142 0v1246h102v-471q112 104 273 104q194 0 291 -114t97 -318q0 -232 -107.5 -344t-302.5 -112q-166 0 -265 89l-17 -80h-71zM244 177q96 -85 239 -85q160 0 239.5 83t79.5 264q0 169 -77.5 253.5t-221.5 84.5q-146 0 -259 -108v-492z" />
<glyph unicode="c" horiz-adv-x="926" d="M123 435q0 213 104.5 328.5t296.5 115.5q64 0 119.5 -11.5t89 -27.5t58.5 -32.5t35 -27.5l10 -12q-14 -63 -46 -102q-3 5 -10 12.5t-31.5 26.5t-52.5 34t-74.5 27t-97.5 12q-143 0 -221 -86.5t-78 -256.5q0 -95 23.5 -163t67 -106.5t99.5 -56t128 -17.5q49 0 93.5 9.5 t73.5 23.5t50.5 28t31.5 23l10 10q31 -37 46 -92l-11 -11t-35 -25t-61 -31.5t-89 -24.5t-120 -11q-192 0 -300.5 107.5t-108.5 336.5z" />
<glyph unicode="d" horiz-adv-x="1053" d="M123 435q0 222 105 333t275 111q176 0 279 -97v464h102v-1246h-90l-9 133q-115 -142 -304 -142q-172 0 -265 108.5t-93 335.5zM225 427q0 -335 273 -335q178 0 284 138v436q-22 25 -51.5 47t-88 43.5t-125.5 21.5q-292 0 -292 -351z" />
<glyph unicode="e" horiz-adv-x="981" d="M123 440q0 211 106.5 325t292.5 114q74 0 131.5 -17t94.5 -45.5t61 -68.5t34 -83.5t10 -92.5q0 -36 -3.5 -65t-6.5 -40l-3 -11h-615v-16q0 -187 81 -271t235 -84q54 0 102.5 10.5t79 25.5t53.5 30.5t33 26.5l10 10q25 -31 39 -91q-4 -4 -12.5 -11.5t-38 -25.5t-63 -32 t-88.5 -25.5t-115 -11.5q-418 0 -418 449zM232 534h517l2 33q0 45 -9.5 80.5t-33.5 68.5t-73 51t-121 18q-120 0 -191 -64t-91 -187z" />
<glyph unicode="f" horiz-adv-x="558" d="M63 775v95h120v116q0 130 66 199t200 69q61 0 111 -13t70 -25l19 -13q0 -20 -5.5 -44.5t-10.5 -38.5l-5 -14q-7 5 -20.5 13t-58.5 21.5t-93 13.5q-91 0 -131 -43.5t-40 -134.5v-106h295v-95h-295v-775h-102v775h-120z" />
<glyph unicode="g" horiz-adv-x="841" d="M80 -89q0 136 120 202q-26 34 -26 83q0 77 65 133q-116 79 -116 255q0 137 81 216t223 79q108 0 182 -48q36 30 70 66.5t51 58.5l16 22q5 -3 13 -10t26.5 -33.5t30.5 -58.5q-51 -55 -135 -113q49 -73 49 -179q0 -142 -79.5 -224t-223.5 -82q-71 0 -125 21 q-39 -35 -39 -84q0 -43 34.5 -60t115.5 -17h150q137 0 194 -50t57 -148q0 -247 -382 -247q-181 0 -266.5 50.5t-85.5 167.5zM179 -72q0 -75 60.5 -107.5t204.5 -32.5q268 0 268 147q0 56 -36 83.5t-126 27.5h-140q-89 0 -145 22q-86 -49 -86 -140zM218 584 q0 -103 53.5 -157.5t155.5 -54.5t155 54.5t53 157.5q0 99 -54.5 150t-153.5 51q-100 0 -154.5 -51.5t-54.5 -149.5z" />
<glyph unicode="h" horiz-adv-x="1010" d="M142 0v1246h102v-526q105 159 297 159q172 0 249 -87t77 -258v-534h-102v515q0 263 -239 263q-101 0 -176.5 -61t-105.5 -142v-575h-102z" />
<glyph unicode="i" horiz-adv-x="387" d="M118 1171q0 38 21 56.5t56 18.5q34 0 54.5 -18.5t20.5 -56.5t-20.5 -57.5t-54.5 -19.5q-35 0 -56 19.5t-21 57.5zM142 0v870h102v-870h-102z" />
<glyph unicode="j" horiz-adv-x="414" d="M-26 -205q106 0 147 33t41 121v921h103v-955q0 -116 -62.5 -169t-182.5 -53q-5 3 -12.5 10t-20.5 33.5t-13 58.5zM137 1171q0 75 76 75q34 0 54.5 -18.5t20.5 -56.5t-20.5 -57.5t-54.5 -19.5q-35 0 -55.5 19.5t-20.5 57.5z" />
<glyph unicode="k" horiz-adv-x="853" d="M142 0v1246h102v-852q352 105 449 476h104q-53 -240 -229 -401l263 -469h-118l-227 403q-106 -73 -242 -116v-287h-102z" />
<glyph unicode="l" horiz-adv-x="430" d="M142 137v1109h102v-1084q0 -38 15 -54t52 -16q23 0 43.5 4t29.5 8l9 5q13 -37 13 -95q-36 -23 -128 -23q-71 0 -103.5 32t-32.5 114z" />
<glyph unicode="m" horiz-adv-x="1575" d="M142 0v870h78l21 -150q101 159 293 159q111 0 183 -53t102 -133q104 186 307 186q308 0 308 -338v-541h-103v512q0 266 -230 266q-89 0 -160.5 -59t-100.5 -139v-580h-103v503q0 275 -230 275q-92 0 -163.5 -59.5t-99.5 -141.5v-577h-102z" />
<glyph unicode="n" horiz-adv-x="1010" d="M142 0v870h78l22 -163q111 172 309 172q164 0 240 -86.5t76 -254.5v-538h-102v507q0 135 -57 203t-182 68q-100 0 -176 -62t-106 -143v-573h-102z" />
<glyph unicode="o" horiz-adv-x="1058" d="M123 435q0 223 111.5 333.5t294.5 110.5t294.5 -110.5t111.5 -333.5t-111.5 -333.5t-294.5 -110.5t-294.5 110.5t-111.5 333.5zM225 435q0 -170 79 -256.5t225 -86.5t225 86.5t79 256.5q0 167 -79.5 255t-224.5 88t-224.5 -88t-79.5 -255z" />
<glyph unicode="p" horiz-adv-x="1027" d="M142 -299v1169h90l9 -114q111 123 276 123q194 0 291 -114t97 -325q0 -218 -108.5 -333.5t-298.5 -115.5q-152 0 -254 82v-372h-102zM244 179q82 -87 242 -87q316 0 316 340q0 172 -80 259t-224 87q-160 0 -254 -126v-473z" />
<glyph unicode="q" horiz-adv-x="1027" d="M123 430q0 217 108 333t281 116q165 0 273 -108l10 99h89v-1169h-102v407q-110 -120 -287 -120q-173 0 -272.5 107t-99.5 335zM225 422q0 -332 282 -332q170 0 275 120v445q-21 27 -49 51t-85.5 48t-123.5 24q-134 0 -216.5 -91t-82.5 -265z" />
<glyph unicode="r" horiz-adv-x="645" d="M142 0v870h90l9 -138q90 147 228 147q85 0 125.5 -40.5t40.5 -109.5q0 -36 -6 -64.5t-12 -39.5l-6 -11h-96q17 31 17 77q0 87 -88 87q-64 0 -121 -55t-79 -117v-606h-102z" />
<glyph unicode="s" horiz-adv-x="824" d="M90 628q0 118 80 184.5t243 66.5q180 0 312 -77q-6 -58 -32 -97q-113 78 -280 78q-112 0 -166 -41t-54 -114q0 -56 31 -91t80 -50t108.5 -24t119 -20.5t108.5 -32.5t80 -67.5t31 -117.5q0 -234 -319 -234q-207 0 -326 81q2 23 10 46.5t15 35.5l7 13q131 -80 294 -80 q217 0 217 135q0 50 -31 80t-80 43t-109 21.5t-119.5 22t-108.5 37t-80 74.5t-31 128z" />
<glyph unicode="t" horiz-adv-x="648" d="M63 775v95h120q0 56 3.5 113.5t6.5 87.5l3 30h89v-231h307v-95h-307v-531q0 -83 37.5 -117.5t121.5 -34.5q47 0 89 12t60 24l18 12q26 -34 26 -97q-8 -6 -23 -14.5t-71 -23t-121 -14.5q-126 0 -182.5 52.5t-56.5 174.5v557h-120z" />
<glyph unicode="u" horiz-adv-x="993" d="M142 276v594h102v-559q0 -122 50.5 -170.5t154.5 -48.5q177 0 299 145v633h102v-870h-79l-17 138q-142 -147 -331 -147q-140 0 -210.5 64.5t-70.5 220.5z" />
<glyph unicode="v" horiz-adv-x="836" d="M12 870h109q69 -203 143 -399.5t114 -290.5l40 -95q142 329 297 785h109q-71 -211 -154 -428.5t-130 -329.5l-48 -112h-147q-174 397 -333 870z" />
<glyph unicode="w" horiz-adv-x="1121" d="M20 870h110q52 -218 101.5 -415.5t73.5 -286.5l24 -88q89 284 188 611h85l188 -611q84 301 202 790h109q-67 -252 -128.5 -469.5t-89.5 -308.5l-28 -92h-125q-81 252 -170 567q-38 -140 -80 -282t-66 -213l-23 -72h-126q-97 304 -245 870z" />
<glyph unicode="x" horiz-adv-x="819" d="M31 0q154 234 310 428q-180 229 -310 442h112q71 -108 138 -204.5t98 -139.5l31 -43q106 145 266 387h112q-130 -213 -310 -442q156 -194 310 -428h-112q-76 108 -142.5 199.5t-95.5 129.5l-28 38q-96 -125 -267 -367h-112z" />
<glyph unicode="y" horiz-adv-x="836" d="M22 870h123q22 -55 73 -185.5t78 -200t69 -172t79 -186.5l259 744h121l-322 -865q-33 -90 -78.5 -153t-99.5 -96.5t-108 -48t-117 -14.5q-4 3 -10.5 9t-17.5 32.5t-11 60.5q117 0 195.5 40t131.5 148q-121 278 -365 887z" />
<glyph unicode="z" horiz-adv-x="773" d="M51 0v97l551 678h-551v95h662v-97l-551 -677h560v-96h-671z" />
<glyph unicode="{" horiz-adv-x="704" d="M148 415v126h31q43 0 73 25t30 83q0 46 -34.5 170.5t-34.5 199.5q0 244 265 244h114v-102h-102q-174 0 -174 -154q0 -84 34 -207.5t34 -173.5q0 -75 -37.5 -109t-87.5 -34v-10q50 0 87.5 -34.5t37.5 -109.5q0 -50 -34 -173t-34 -207q0 -154 174 -154h102v-102h-114 q-265 0 -265 244q0 75 34.5 199.5t34.5 170.5q0 58 -30 83t-73 25h-31z" />
<glyph unicode="|" horiz-adv-x="397" d="M148 -307v1715h103v-1715h-103z" />
<glyph unicode="}" horiz-adv-x="704" d="M114 -205h103q172 0 172 154q0 84 -34 207t-34 173q0 75 37.5 109.5t88.5 34.5v10q-51 0 -88.5 34t-37.5 109q0 50 34 173.5t34 207.5q0 154 -172 154h-103v102h113q134 0 199.5 -60.5t65.5 -183.5q0 -75 -34.5 -199.5t-34.5 -170.5q0 -58 30 -83t73 -25h32v-126h-32 q-43 0 -73 -25t-30 -83q0 -46 34.5 -170.5t34.5 -199.5q0 -123 -65.5 -183.5t-199.5 -60.5h-113v102z" />
<glyph unicode="~" horiz-adv-x="1035" d="M171 398q28 97 70.5 144t120.5 47q56 0 158.5 -39.5t139.5 -39.5q46 0 73 27t52 100l80 -19q-27 -98 -69.5 -144.5t-116.5 -46.5q-64 0 -165 39t-139 39q-42 0 -70.5 -28t-53.5 -98z" />
<glyph unicode="&#xa1;" horiz-adv-x="397" d="M114 794q0 40 23.5 62.5t62.5 22.5t62 -22t23 -63t-23 -63.5t-62 -22.5t-62.5 22.5t-23.5 63.5zM142 -299q0 144 4.5 361t9.5 362l4 144h79q19 -544 19 -867h-116z" />
<glyph unicode="&#xa2;" horiz-adv-x="1044" d="M148 531q0 167 94.5 282.5t257.5 131.5v175h102v-173q76 -7 135.5 -32t91.5 -58t46.5 -54t20.5 -37q-9 -27 -22 -49.5t-22 -31.5l-9 -9q-4 15 -11.5 32t-29.5 46.5t-51.5 51.5t-82 39t-117.5 17q-134 0 -217 -94t-83 -237q0 -159 83.5 -241t216.5 -82q69 0 125 18.5 t89 47.5t51.5 53t26.5 45q39 -34 53 -75q-8 -17 -25 -39t-50.5 -52t-91 -53t-127.5 -30v-172h-102v172q-165 15 -258.5 119t-93.5 289z" />
<glyph unicode="&#xa3;" horiz-adv-x="926" d="M114 73q5 7 13.5 20.5t31 55t40.5 83t34.5 101t20.5 114.5h-129v91h128q-6 52 -25.5 110.5t-39 101t-35.5 102t-16 117.5q0 133 82.5 213.5t253.5 80.5q341 0 341 -261q0 -42 -9 -80.5t-18 -55.5l-9 -18h-99q31 60 31 142q0 87 -56 131.5t-181 44.5q-121 0 -176.5 -55 t-55.5 -150q0 -58 25 -129.5t54.5 -150t37.5 -143.5h330v-91h-328q-6 -85 -37.5 -171t-60.5 -130l-28 -44h580v-102h-686z" />
<glyph unicode="&#xa4;" horiz-adv-x="1131" d="M148 159l120 121q-72 95 -72 232t72 232l-120 121l65 65l120 -119q94 71 234 71q138 0 232 -71l119 119l67 -65l-121 -121q71 -94 71 -232t-71 -232l121 -121l-67 -65l-119 119q-94 -71 -232 -71q-140 0 -234 71l-120 -119zM294 512q0 -121 74 -197t199 -76t199 76 t74 197t-74.5 197t-198.5 76q-125 0 -199 -76t-74 -197z" />
<glyph unicode="&#xa5;" horiz-adv-x="1182" d="M73 1246h127q97 -169 195 -320t147 -218l50 -66q173 224 393 604h124q-213 -348 -409 -623h290l-14 -97h-327v-171h295l-14 -96h-281v-259h-113v259h-277l-15 96h292v171h-323l-13 97h285q-217 305 -412 623z" />
<glyph unicode="&#xa6;" horiz-adv-x="397" d="M148 -307v1715h103v-1715h-103z" />
<glyph unicode="&#xa7;" horiz-adv-x="1109" d="M148 986q0 151 99 239.5t299 88.5q202 0 295.5 -80t93.5 -215q0 -47 -6.5 -84.5t-13.5 -50.5l-7 -14h-106q26 35 26 120q0 102 -66.5 164.5t-215.5 62.5q-146 0 -218 -61t-72 -170q0 -76 37.5 -126.5t97.5 -75.5t132.5 -42t144.5 -36t132 -47.5t97.5 -85.5t37.5 -141 q0 -107 -70 -179q96 -81 96 -231q0 -329 -394 -329q-200 0 -292 82t-92 225q0 43 8 79.5t16 50.5l8 15h104q-29 -47 -29 -136q0 -219 277 -219q151 0 218.5 55t67.5 177q0 53 -19 93.5t-51.5 65t-76 43.5t-92.5 29.5t-100.5 23.5t-100.5 25.5t-92.5 35t-76 51.5t-51.5 76.5 t-19 109.5q0 101 65 184q-91 81 -91 227zM282 580q0 -53 24.5 -91t63 -59t94 -37.5t108 -26.5t115.5 -28t107 -39q39 53 39 128q0 52 -25 89.5t-64 57.5t-95 37t-109.5 27.5t-116 29t-107.5 40.5q-34 -48 -34 -128z" />
<glyph unicode="&#xa8;" horiz-adv-x="824" d="M171 1171q0 38 20.5 56.5t54.5 18.5q35 0 56 -18.5t21 -56.5t-21 -57.5t-56 -19.5q-34 0 -54.5 19.5t-20.5 57.5zM502 1171q0 38 20.5 56.5t54.5 18.5q35 0 56 -18.5t21 -56.5t-21 -57.5t-56 -19.5q-34 0 -54.5 19.5t-20.5 57.5z" />
<glyph unicode="&#xa9;" horiz-adv-x="1650" d="M114 478q0 328 189.5 520t520.5 192t521.5 -192t190.5 -520t-191 -520t-521 -192q-331 0 -520.5 192t-189.5 520zM205 478q0 -292 163 -459t456 -167t457.5 167t164.5 459t-164.5 459t-457.5 167t-456 -167t-163 -459zM418 478q0 208 112.5 323t305.5 115q244 0 359 -162 q-6 -23 -21 -46.5t-27 -35.5l-12 -12q-21 30 -42.5 52.5t-57 48t-86.5 39.5t-113 14q-148 0 -231.5 -86t-83.5 -250q0 -163 84.5 -249.5t230.5 -86.5q204 0 311 148q40 -36 60 -89q-120 -162 -371 -162q-193 0 -305.5 115t-112.5 324z" />
<glyph unicode="&#xaa;" horiz-adv-x="703" d="M90 370v89h541v-89h-541zM90 725q0 95 57.5 137.5t168.5 42.5h205v93q0 91 -41 135.5t-134 44.5q-86 0 -124 -32.5t-38 -95.5q0 -19 4 -36.5t8 -25.5l5 -7h-85q-17 34 -17 89q0 91 61 142t186 51q145 0 205 -62.5t60 -185.5v-452h-79l-6 89q-104 -97 -248 -97 q-87 0 -137.5 43.5t-50.5 126.5zM183 730q0 -50 29 -73.5t90 -23.5q72 0 130 29t89 63v106h-209q-66 0 -97.5 -23t-31.5 -78z" />
<glyph unicode="&#xab;" horiz-adv-x="773" d="M97 415v58l299 295l8 -106l-227 -218l227 -202l-8 -105zM370 415v58l299 295l9 -106l-227 -218l227 -202l-9 -105z" />
<glyph unicode="&#xac;" horiz-adv-x="1155" d="M171 543v97h814v-404h-106v307h-708z" />
<glyph unicode="&#xad;" horiz-adv-x="733" d="M125 447v96h484v-96h-484z" />
<glyph unicode="&#xae;" horiz-adv-x="921" d="M73 922q0 185 102 281.5t286 96.5t285.5 -96t101.5 -282t-101.5 -282.5t-285.5 -96.5t-286 96.5t-102 282.5zM119 922q0 -162 84.5 -249.5t257.5 -87.5t257 87.5t84 249.5t-84 249t-257 87t-257.5 -87.5t-84.5 -248.5zM295 683v478h183q182 0 182 -168q0 -106 -78 -146 q48 -120 63 -164h-94q-10 40 -44 143q-12 -2 -38 -2h-94v-141h-80zM375 898h99q56 0 81 23.5t25 71.5q0 47 -25 70.5t-81 23.5h-99v-189z" />
<glyph unicode="&#xaf;" horiz-adv-x="773" d="M171 1099v89h431v-89h-431z" />
<glyph unicode="&#xb0;" horiz-adv-x="670" d="M114 1041q0 103 59.5 162.5t162.5 59.5t162.5 -59.5t59.5 -162.5t-59.5 -162.5t-162.5 -59.5t-162.5 59.5t-59.5 162.5zM200 1041q0 -62 34.5 -99t101.5 -37q63 0 100 37.5t37 98.5t-37 99t-100 38t-99.5 -38t-36.5 -99z" />
<glyph unicode="&#xb1;" horiz-adv-x="984" d="M171 14v97h643v-97h-643zM171 476v94h273v283h97v-283h273v-94h-273v-283h-97v283h-273z" />
<glyph unicode="&#xb2;" horiz-adv-x="651" d="M90 1157q0 81 57.5 132t171.5 51q239 0 239 -210q0 -45 -16 -84t-41.5 -65.5t-58.5 -50t-67.5 -40.5t-67.5 -35.5t-58.5 -34.5t-41.5 -38.5t-16 -47.5h364v-85h-456v64q0 67 38 114t91.5 74.5t107.5 53.5t92 68t38 100q0 131 -147 131q-69 0 -102.5 -29.5t-33.5 -77.5 q0 -24 6.5 -44t12.5 -28l6 -8h-92q-26 25 -26 90z" />
<glyph unicode="&#xb3;" horiz-adv-x="645" d="M90 845q38 20 93 20q0 -141 141 -141q140 0 140 111q0 50 -35 80t-101 30h-69v79h69q128 0 128 116q0 114 -137 114q-69 0 -102.5 -28.5t-33.5 -76.5q0 -21 4.5 -39.5t8.5 -26.5l4 -8h-92q-18 25 -18 80q0 83 57 134t172 51q118 0 172.5 -52.5t54.5 -140.5 q0 -65 -32.5 -105t-81.5 -52q54 -12 88.5 -52.5t34.5 -104.5q0 -99 -62.5 -146t-173.5 -47t-170 55t-59 150z" />
<glyph unicode="&#xb4;" horiz-adv-x="631" d="M171 990l170 290h120l-200 -290h-90z" />
<glyph unicode="&#xb6;" horiz-adv-x="1010" d="M114 918q0 328 401 328h335v-1442h-99v1343h-137v-1343h-99v788q-401 0 -401 326z" />
<glyph unicode="&#xb7;" horiz-adv-x="465" d="M148 486q0 39 23.5 62.5t62.5 23.5q38 0 61.5 -23t23.5 -63q0 -41 -23 -63t-62 -22t-62.5 22.5t-23.5 62.5z" />
<glyph unicode="&#xb8;" horiz-adv-x="570" d="M171 -102l36 145h80l-24 -94q67 -1 101.5 -32.5t34.5 -87.5q0 -136 -196 -136l-19 71q62 0 90 16t28 49q0 69 -131 69z" />
<glyph unicode="&#xb9;" horiz-adv-x="447" d="M22 1229q156 44 237 102h70v-682h-90v571q-89 -51 -201 -77q-16 40 -16 86z" />
<glyph unicode="&#xba;" horiz-adv-x="785" d="M90 370v89h605v-89h-605zM90 913q0 174 81.5 262t221.5 88q139 0 220.5 -88t81.5 -262t-82 -266t-220 -92q-139 0 -221 92t-82 266zM183 913q0 -131 53.5 -199.5t156.5 -68.5t156 68.5t53 199.5q0 259 -209 259q-210 0 -210 -259z" />
<glyph unicode="&#xbb;" horiz-adv-x="773" d="M97 242l226 202l-226 218l9 106l298 -295v-58l-298 -278zM370 242l226 202l-226 218l9 106l299 -295v-58l-299 -278z" />
<glyph unicode="&#xbc;" horiz-adv-x="1455" d="M137 1109q154 44 237 103h70v-683h-91v572q-89 -51 -201 -77q-15 39 -15 85zM261 0l888 1246h102l-886 -1246h-104zM785 265l307 418h116v-400h111v-83h-111v-200h-90v200h-312zM901 283h217v302z" />
<glyph unicode="&#xbd;" horiz-adv-x="1542" d="M137 1109q154 44 237 103h70v-683h-91v572q-89 -51 -201 -77q-15 39 -15 85zM265 0l885 1246h104l-885 -1246h-104zM937 509q0 -29 6.5 -51.5t12.5 -31.5l7 -8h90q-26 27 -26 80q0 48 34 78t103 30q148 0 148 -132q0 -38 -16 -69t-41.5 -51t-58.5 -39.5t-67.5 -34.5 t-67.5 -35.5t-58.5 -43.5t-41.5 -58t-16 -78v-65h456v85h-365q0 25 16 47.5t41.5 38.5t58.5 34.5t67.5 35.5t67.5 40.5t58.5 50t41.5 65.5t16 84q0 210 -239 210q-114 0 -170.5 -50.5t-56.5 -131.5z" />
<glyph unicode="&#xbe;" horiz-adv-x="1547" d="M137 725q37 21 92 21q0 -142 141 -142q140 0 140 111q0 50 -35 80.5t-101 30.5h-69v79h69q128 0 128 116q0 114 -137 114q-69 0 -102.5 -29t-33.5 -77q0 -21 4.5 -39.5t8.5 -25.5l4 -8h-92q-17 25 -17 80q0 83 56.5 133.5t171.5 50.5q118 0 172.5 -52.5t54.5 -140.5 q0 -65 -32.5 -105t-81.5 -52q54 -12 88.5 -52.5t34.5 -104.5q0 -192 -236 -192q-111 0 -169.5 54.5t-58.5 149.5zM355 0l887 1246h103l-886 -1246h-104zM876 265l307 418h117v-400h111v-83h-111v-200h-92v200h-312zM993 283h215v302z" />
<glyph unicode="&#xbf;" horiz-adv-x="737" d="M97 -20q0 -141 79 -214t217 -73q135 0 210.5 70.5t75.5 185.5q0 40 -8.5 72.5t-16.5 45.5l-9 13h-102q34 -42 34 -126q0 -83 -48 -127t-136 -44t-140.5 49t-52.5 148q0 70 26 124.5t63 90t73.5 70.5t62.5 86.5t26 117.5v99h-94v-102q0 -53 -27 -97t-65 -78.5t-76 -73 t-65 -99.5t-27 -138zM319 811q0 41 23 63t62 22t62.5 -22.5t23.5 -62.5q0 -41 -23.5 -63.5t-62.5 -22.5t-62 22.5t-23 63.5z" />
<glyph unicode="&#xc0;" horiz-adv-x="1194" d="M22 0q131 344 257 655.5t187 450.5l61 140h140q212 -475 505 -1246h-117q-31 82 -86 224t-73 189h-597q-18 -47 -73 -189t-86 -224h-118zM340 515h517q-66 168 -131 327t-97 234l-32 76q-109 -261 -257 -637zM362 1536h126l161 -230h-93z" />
<glyph unicode="&#xc1;" horiz-adv-x="1194" d="M22 0q131 344 257 655.5t187 450.5l61 140h140q212 -475 505 -1246h-117q-31 82 -86 224t-73 189h-597q-18 -47 -73 -189t-86 -224h-118zM340 515h517q-66 168 -131 327t-97 234l-32 76q-109 -261 -257 -637zM546 1306l161 230h126l-195 -230h-92z" />
<glyph unicode="&#xc2;" horiz-adv-x="1194" d="M22 0q131 344 257 655.5t187 450.5l61 140h140q212 -475 505 -1246h-117q-31 82 -86 224t-73 189h-597q-18 -47 -73 -189t-86 -224h-118zM340 515h517q-66 168 -131 327t-97 234l-32 76q-109 -261 -257 -637zM357 1306l187 227h105l187 -227h-97l-142 167l-143 -167h-97z " />
<glyph unicode="&#xc3;" horiz-adv-x="1194" d="M22 0q131 344 257 655.5t187 450.5l61 140h140q212 -475 505 -1246h-117q-31 82 -86 224t-73 189h-597q-18 -47 -73 -189t-86 -224h-118zM331 1314q0 83 34 131t104 48q45 0 128.5 -31.5t119.5 -31.5q71 0 71 118l74 -21q0 -86 -34 -132.5t-99 -46.5q-54 0 -139 31.5 t-116 31.5q-70 0 -70 -117zM340 515h517q-66 168 -131 327t-97 234l-32 76q-109 -261 -257 -637z" />
<glyph unicode="&#xc4;" horiz-adv-x="1194" d="M22 0q131 344 257 655.5t187 450.5l61 140h140q212 -475 505 -1246h-117q-31 82 -86 224t-73 189h-597q-18 -47 -73 -189t-86 -224h-118zM340 515h517q-66 168 -131 327t-97 234l-32 76q-109 -261 -257 -637zM362 1422q0 35 19 52.5t51 17.5t51 -17.5t19 -52.5t-19 -52.5 t-51 -17.5t-51 17.5t-19 52.5zM693 1422q0 35 19 52.5t51 17.5t51 -17.5t19 -52.5t-19 -52.5t-51 -17.5t-51 17.5t-19 52.5z" />
<glyph unicode="&#xc5;" horiz-adv-x="1194" d="M22 0q131 344 257 655.5t187 450.5l61 140h140q212 -475 505 -1246h-117q-31 82 -86 224t-73 189h-597q-18 -47 -73 -189t-86 -224h-118zM340 515h517q-66 168 -131 327t-97 234l-32 76q-109 -261 -257 -637zM445 1417q0 65 40 100.5t112 35.5t113 -35.5t41 -100.5 t-40.5 -100t-113.5 -35q-72 0 -112 35t-40 100zM519 1417q0 -34 21.5 -54t56.5 -20q36 0 58.5 20t22.5 54q0 35 -22 55t-59 20q-35 0 -56.5 -20t-21.5 -55z" />
<glyph unicode="&#xc6;" horiz-adv-x="1667" d="M22 0q131 344 257 655.5t187 450.5l60 140h1039v-104h-625v-519h540v-99h-540v-415h651v-109h-760v524h-488q-67 -166 -203 -524h-118zM382 623h449v519h-239q-85 -208 -210 -519z" />
<glyph unicode="&#xc7;" horiz-adv-x="1314" d="M114 623q0 150 46.5 271t129.5 199t195 119.5t245 41.5q96 0 179.5 -18t134.5 -41.5t94.5 -56.5t61 -53t32.5 -41q-7 -29 -22 -56.5t-26 -40.5l-12 -13q-133 211 -442 211q-105 0 -195.5 -32.5t-160.5 -95t-110 -164t-40 -230.5q0 -138 40 -241t111.5 -163t161 -89 t197.5 -29q98 0 179 20.5t133.5 53.5t85 65t51.5 65q40 -39 59 -97q-14 -20 -31.5 -40.5t-58.5 -53.5t-90.5 -57.5t-129 -43.5t-171.5 -22l-8 -34q67 -1 101.5 -32.5t34.5 -86.5q0 -137 -196 -137l-19 72q62 0 90 16t28 49q0 68 -132 68l23 87q-123 7 -225 49.5 t-179.5 118.5t-121 194t-43.5 268z" />
<glyph unicode="&#xc8;" horiz-adv-x="1041" d="M154 0v1246h785v-109h-676v-482h590v-107h-590v-439h701v-109h-810zM299 1536h126l160 -230h-92z" />
<glyph unicode="&#xc9;" horiz-adv-x="1041" d="M154 0v1246h785v-109h-676v-482h590v-107h-590v-439h701v-109h-810zM483 1306l160 230h127l-195 -230h-92z" />
<glyph unicode="&#xca;" horiz-adv-x="1041" d="M154 0v1246h785v-109h-676v-482h590v-107h-590v-439h701v-109h-810zM295 1306l188 227h104l188 -227h-97l-142 167l-143 -167h-98z" />
<glyph unicode="&#xcb;" horiz-adv-x="1041" d="M154 0v1246h785v-109h-676v-482h590v-107h-590v-439h701v-109h-810zM299 1422q0 35 19 52.5t51 17.5t51 -17.5t19 -52.5t-19 -52.5t-51 -17.5t-51 17.5t-19 52.5zM630 1422q0 35 19 52.5t51 17.5t51 -17.5t19 -52.5t-19 -52.5t-51 -17.5t-51 17.5t-19 52.5z" />
<glyph unicode="&#xcc;" horiz-adv-x="416" d="M-27 1536h126l160 -230h-92zM154 0v1246h109v-1246h-109z" />
<glyph unicode="&#xcd;" horiz-adv-x="416" d="M154 0v1246h109v-1246h-109zM157 1306l160 230h127l-195 -230h-92z" />
<glyph unicode="&#xce;" horiz-adv-x="416" d="M-31 1306l188 227h104l188 -227h-97l-142 167l-143 -167h-98zM154 0v1246h109v-1246h-109z" />
<glyph unicode="&#xcf;" horiz-adv-x="416" d="M-26 1422q0 35 19 52.5t51 17.5t51 -17.5t19 -52.5t-19 -52.5t-51 -17.5t-51 17.5t-19 52.5zM154 0v1246h109v-1246h-109zM305 1422q0 35 19 52.5t51 17.5t51 -17.5t19 -52.5t-19 -52.5t-51 -17.5t-51 17.5t-19 52.5z" />
<glyph unicode="&#xd0;" horiz-adv-x="1293" d="M56 548v107h115v591h324q343 0 514.5 -152t171.5 -471t-171.5 -471t-514.5 -152h-324v548h-115zM282 111h247q265 0 403 122.5t138 389.5t-138 389.5t-403 122.5h-247v-480h469v-107h-469v-437z" />
<glyph unicode="&#xd1;" horiz-adv-x="1309" d="M154 0v1246h76l814 -1039v1039h111v-1246h-76l-816 1039v-1039h-109zM389 1314q0 83 34 131t104 48q45 0 128.5 -31.5t119.5 -31.5q72 0 72 118l73 -21q0 -86 -34 -132.5t-99 -46.5q-54 0 -139 31.5t-116 31.5q-69 0 -69 -117z" />
<glyph unicode="&#xd2;" d="M114 623q0 304 163.5 467.5t439.5 163.5t439 -163.5t163 -467.5q0 -303 -163.5 -467.5t-438.5 -164.5t-439 164.5t-164 467.5zM224 623q0 -136 37.5 -239t105.5 -164t155.5 -91t194.5 -30t194.5 30t155.5 91t105.5 164t37.5 239q0 135 -37.5 237.5t-105 164t-155.5 92 t-195 30.5t-195 -30.5t-155.5 -92t-105 -164t-37.5 -237.5zM481 1536h127l160 -230h-92z" />
<glyph unicode="&#xd3;" d="M114 623q0 304 163.5 467.5t439.5 163.5t439 -163.5t163 -467.5q0 -303 -163.5 -467.5t-438.5 -164.5t-439 164.5t-164 467.5zM224 623q0 -136 37.5 -239t105.5 -164t155.5 -91t194.5 -30t194.5 30t155.5 91t105.5 164t37.5 239q0 135 -37.5 237.5t-105 164t-155.5 92 t-195 30.5t-195 -30.5t-155.5 -92t-105 -164t-37.5 -237.5zM666 1306l160 230h126l-194 -230h-92z" />
<glyph unicode="&#xd4;" d="M114 623q0 304 163.5 467.5t439.5 163.5t439 -163.5t163 -467.5q0 -303 -163.5 -467.5t-438.5 -164.5t-439 164.5t-164 467.5zM224 623q0 -136 37.5 -239t105.5 -164t155.5 -91t194.5 -30t194.5 30t155.5 91t105.5 164t37.5 239q0 135 -37.5 237.5t-105 164t-155.5 92 t-195 30.5t-195 -30.5t-155.5 -92t-105 -164t-37.5 -237.5zM476 1306l188 227h104l188 -227h-98l-141 167l-144 -167h-97z" />
<glyph unicode="&#xd5;" d="M114 623q0 304 163.5 467.5t439.5 163.5t439 -163.5t163 -467.5q0 -303 -163.5 -467.5t-438.5 -164.5t-439 164.5t-164 467.5zM224 623q0 -136 37.5 -239t105.5 -164t155.5 -91t194.5 -30t194.5 30t155.5 91t105.5 164t37.5 239q0 135 -37.5 237.5t-105 164t-155.5 92 t-195 30.5t-195 -30.5t-155.5 -92t-105 -164t-37.5 -237.5zM451 1314q0 83 34 131t104 48q45 0 128 -31.5t119 -31.5q72 0 72 118l73 -21q0 -86 -34 -132.5t-99 -46.5q-54 0 -138.5 31.5t-115.5 31.5q-70 0 -70 -117z" />
<glyph unicode="&#xd6;" d="M114 623q0 304 163.5 467.5t439.5 163.5t439 -163.5t163 -467.5q0 -303 -163.5 -467.5t-438.5 -164.5t-439 164.5t-164 467.5zM224 623q0 -136 37.5 -239t105.5 -164t155.5 -91t194.5 -30t194.5 30t155.5 91t105.5 164t37.5 239q0 135 -37.5 237.5t-105 164t-155.5 92 t-195 30.5t-195 -30.5t-155.5 -92t-105 -164t-37.5 -237.5zM481 1422q0 35 19 52.5t51 17.5t51 -17.5t19 -52.5t-19 -52.5t-51 -17.5t-51 17.5t-19 52.5zM812 1422q0 35 19 52.5t51 17.5t51 -17.5t19 -52.5t-19 -52.5t-51 -17.5t-51 17.5t-19 52.5z" />
<glyph unicode="&#xd7;" horiz-adv-x="919" d="M171 275l228 228l-228 231l59 60l229 -231l230 231l60 -60l-230 -231l230 -228l-60 -60l-230 229l-229 -229z" />
<glyph unicode="&#xd8;" d="M114 623q0 304 163.5 467.5t439.5 163.5q210 0 355 -95l148 189l77 -65l-147 -187q169 -166 169 -473q0 -303 -163.5 -467.5t-438.5 -164.5q-209 0 -355 96l-149 -189l-76 64l146 188q-169 166 -169 473zM224 623q0 -251 126 -387l655 837q-121 74 -288 74 q-107 0 -195 -30.5t-155.5 -92t-105 -164t-37.5 -237.5zM428 172q115 -73 289 -73q107 0 194.5 30t155.5 91t105.5 164t37.5 239q0 250 -128 386z" />
<glyph unicode="&#xd9;" horiz-adv-x="1331" d="M145 538v708h109v-688q0 -130 26.5 -220t81 -141.5t128 -73.5t176.5 -22t176.5 22t127.5 73.5t80.5 141t26.5 220.5v688h109v-708q0 -153 -32 -258.5t-99 -169t-161.5 -91.5t-227.5 -28t-227.5 28t-161.5 91.5t-99.5 169t-32.5 258.5zM430 1536h126l161 -230h-92z" />
<glyph unicode="&#xda;" horiz-adv-x="1331" d="M145 538v708h109v-688q0 -130 26.5 -220t81 -141.5t128 -73.5t176.5 -22t176.5 22t127.5 73.5t80.5 141t26.5 220.5v688h109v-708q0 -153 -32 -258.5t-99 -169t-161.5 -91.5t-227.5 -28t-227.5 28t-161.5 91.5t-99.5 169t-32.5 258.5zM614 1306l161 230h126l-194 -230 h-93z" />
<glyph unicode="&#xdb;" horiz-adv-x="1331" d="M145 538v708h109v-688q0 -130 26.5 -220t81 -141.5t128 -73.5t176.5 -22t176.5 22t127.5 73.5t80.5 141t26.5 220.5v688h109v-708q0 -153 -32 -258.5t-99 -169t-161.5 -91.5t-227.5 -28t-227.5 28t-161.5 91.5t-99.5 169t-32.5 258.5zM425 1306l188 227h104l188 -227h-98 l-141 167l-144 -167h-97z" />
<glyph unicode="&#xdc;" horiz-adv-x="1331" d="M145 538v708h109v-688q0 -130 26.5 -220t81 -141.5t128 -73.5t176.5 -22t176.5 22t127.5 73.5t80.5 141t26.5 220.5v688h109v-708q0 -153 -32 -258.5t-99 -169t-161.5 -91.5t-227.5 -28t-227.5 28t-161.5 91.5t-99.5 169t-32.5 258.5zM430 1422q0 35 19 52.5t51 17.5 t51 -17.5t19 -52.5t-19 -52.5t-51 -17.5t-51 17.5t-19 52.5zM761 1422q0 35 19 52.5t51 17.5t51 -17.5t19 -52.5t-19 -52.5t-51 -17.5t-51 17.5t-19 52.5z" />
<glyph unicode="&#xdd;" horiz-adv-x="1012" d="M-29 1246h125q85 -162 187.5 -334t162.5 -263l61 -91q218 325 409 688h125q-112 -199 -231.5 -395t-183.5 -293l-63 -97v-461h-112v461q-226 339 -480 785zM454 1306l160 230h127l-195 -230h-92z" />
<glyph unicode="&#xde;" horiz-adv-x="1066" d="M154 0v1246h109v-161h261q232 0 347 -101t115 -313q0 -420 -462 -420h-261v-251h-109zM263 360h288q326 0 326 311q0 156 -82 230.5t-244 74.5h-288v-616z" />
<glyph unicode="&#xdf;" horiz-adv-x="925" d="M142 0v857q0 194 90 295.5t254 101.5q149 0 221.5 -63t72.5 -170q0 -63 -26 -121.5t-63 -99.5t-73.5 -75t-62.5 -61.5t-26 -45.5q0 -13 26.5 -33.5t65.5 -43t85.5 -55.5t85.5 -68.5t65.5 -85t26.5 -102.5q0 -239 -292 -239q-56 0 -104 8.5t-68 17.5l-19 9v97 q71 -36 184 -36q98 0 147.5 34t49.5 109q0 52 -36 101.5t-87.5 87t-103 70.5t-87.5 64.5t-36 57.5q0 24 24.5 55.5t60 65.5t70.5 72.5t59.5 88t24.5 100.5q0 77 -45.5 121.5t-142.5 44.5q-112 0 -175.5 -81.5t-63.5 -241.5v-836h-102z" />
<glyph unicode="&#xe0;" horiz-adv-x="933" d="M125 201q0 117 71 171.5t210 54.5h282v124q0 122 -49.5 177t-181.5 55q-221 0 -221 -157q0 -26 5 -47t10 -29l5 -9h-102q-21 39 -21 99q0 109 82.5 174t241.5 65q178 0 255.5 -72.5t77.5 -229.5v-577h-90l-9 128q-49 -54 -131.5 -95.5t-201.5 -41.5q-110 0 -171.5 52.5 t-61.5 157.5zM227 205q0 -125 157 -125q62 0 117 15.5t92.5 40t59 43.5t35.5 36v133h-278q-97 0 -140 -34.5t-43 -108.5zM227 1280h119l171 -290h-90z" />
<glyph unicode="&#xe1;" horiz-adv-x="933" d="M125 201q0 117 71 171.5t210 54.5h282v124q0 122 -49.5 177t-181.5 55q-221 0 -221 -157q0 -26 5 -47t10 -29l5 -9h-102q-21 39 -21 99q0 109 82.5 174t241.5 65q178 0 255.5 -72.5t77.5 -229.5v-577h-90l-9 128q-49 -54 -131.5 -95.5t-201.5 -41.5q-110 0 -171.5 52.5 t-61.5 157.5zM227 205q0 -125 157 -125q62 0 117 15.5t92.5 40t59 43.5t35.5 36v133h-278q-97 0 -140 -34.5t-43 -108.5zM398 990l170 290h120l-200 -290h-90z" />
<glyph unicode="&#xe2;" horiz-adv-x="933" d="M125 201q0 117 71 171.5t210 54.5h282v124q0 122 -49.5 177t-181.5 55q-221 0 -221 -157q0 -26 5 -47t10 -29l5 -9h-102q-21 39 -21 99q0 109 82.5 174t241.5 65q178 0 255.5 -72.5t77.5 -229.5v-577h-90l-9 128q-49 -54 -131.5 -95.5t-201.5 -41.5q-110 0 -171.5 52.5 t-61.5 157.5zM227 205q0 -125 157 -125q62 0 117 15.5t92.5 40t59 43.5t35.5 36v133h-278q-97 0 -140 -34.5t-43 -108.5zM227 990l171 273h119l171 -273h-89l-142 193l-141 -193h-89z" />
<glyph unicode="&#xe3;" horiz-adv-x="933" d="M125 201q0 117 71 171.5t210 54.5h282v124q0 122 -49.5 177t-181.5 55q-221 0 -221 -157q0 -26 5 -47t10 -29l5 -9h-102q-21 39 -21 99q0 109 82.5 174t241.5 65q178 0 255.5 -72.5t77.5 -229.5v-577h-90l-9 128q-49 -54 -131.5 -95.5t-201.5 -41.5q-110 0 -171.5 52.5 t-61.5 157.5zM166 1058q0 190 143 190q51 0 144 -38.5t126 -38.5q45 0 64 26t19 95l72 -15q0 -190 -138 -190q-58 0 -150 39.5t-125 39.5q-84 0 -84 -122zM227 205q0 -125 157 -125q62 0 117 15.5t92.5 40t59 43.5t35.5 36v133h-278q-97 0 -140 -34.5t-43 -108.5z" />
<glyph unicode="&#xe4;" horiz-adv-x="933" d="M125 201q0 117 71 171.5t210 54.5h282v124q0 122 -49.5 177t-181.5 55q-221 0 -221 -157q0 -26 5 -47t10 -29l5 -9h-102q-21 39 -21 99q0 109 82.5 174t241.5 65q178 0 255.5 -72.5t77.5 -229.5v-577h-90l-9 128q-49 -54 -131.5 -95.5t-201.5 -41.5q-110 0 -171.5 52.5 t-61.5 157.5zM217 1171q0 38 21 56.5t56 18.5q34 0 54.5 -18.5t20.5 -56.5t-20.5 -57.5t-54.5 -19.5q-35 0 -56 19.5t-21 57.5zM227 205q0 -125 157 -125q62 0 117 15.5t92.5 40t59 43.5t35.5 36v133h-278q-97 0 -140 -34.5t-43 -108.5zM548 1171q0 38 21 56.5t56 18.5 q34 0 54.5 -18.5t20.5 -56.5t-20.5 -57.5t-54.5 -19.5q-35 0 -56 19.5t-21 57.5z" />
<glyph unicode="&#xe5;" horiz-adv-x="933" d="M125 201q0 117 71 171.5t210 54.5h282v124q0 122 -49.5 177t-181.5 55q-221 0 -221 -157q0 -26 5 -47t10 -29l5 -9h-102q-21 39 -21 99q0 109 82.5 174t241.5 65q178 0 255.5 -72.5t77.5 -229.5v-577h-90l-9 128q-49 -54 -131.5 -95.5t-201.5 -41.5q-110 0 -171.5 52.5 t-61.5 157.5zM227 205q0 -125 157 -125q62 0 117 15.5t92.5 40t59 43.5t35.5 36v133h-278q-97 0 -140 -34.5t-43 -108.5zM305 1118q0 69 41 109.5t111 40.5q71 0 112.5 -40.5t41.5 -109.5t-41.5 -109.5t-112.5 -40.5q-70 0 -111 40.5t-41 109.5zM372 1118q0 -41 22.5 -63 t62.5 -22t63 22t23 63t-23 63t-63 22t-62.5 -22t-22.5 -63z" />
<glyph unicode="&#xe6;" horiz-adv-x="1547" d="M125 201q0 117 70.5 171.5t208.5 54.5h284v124q0 121 -51.5 176t-180.5 55q-115 0 -167.5 -41t-52.5 -110q0 -28 5 -50.5t10 -30.5l5 -9h-102q-21 39 -21 104q0 108 82.5 171t241.5 63q130 0 205 -35.5t106 -111.5q104 147 321 147q74 0 131.5 -17t94.5 -45.5t61 -68.5 t34 -83.5t10 -92.5q0 -36 -4 -65t-8 -40l-3 -11h-615v-16q0 -186 81 -269.5t235 -83.5q53 0 102 10t80 24.5t54 29.5t34 25l10 10q25 -30 39 -90q-4 -4 -12.5 -11t-38.5 -25.5t-64 -32t-89 -25t-115 -11.5q-258 0 -355 169q-20 -24 -47 -47.5t-74 -54t-116 -49t-147 -18.5 q-242 0 -242 210zM227 208q0 -66 41 -97t125 -31q63 0 120.5 17t98.5 43.5t65.5 48t41.5 41.5q-18 49 -26 111h-283q-97 0 -140 -32t-43 -101zM799 534h519v17q0 227 -238 227q-116 0 -188.5 -63.5t-92.5 -180.5z" />
<glyph unicode="&#xe7;" horiz-adv-x="926" d="M123 435q0 213 104.5 328.5t296.5 115.5q64 0 119.5 -11.5t89 -27.5t58.5 -32.5t35 -27.5l10 -12q-14 -63 -46 -102q-3 5 -10 12.5t-31.5 26.5t-52.5 34t-74.5 27t-97.5 12q-143 0 -221 -86.5t-78 -256.5q0 -95 23.5 -163t67 -106.5t99.5 -56t128 -17.5q49 0 93.5 9.5 t73.5 23.5t50.5 28t31.5 23l10 10q31 -37 46 -92q-3 -4 -10 -10.5t-32.5 -23.5t-56 -30t-82.5 -25t-111 -14l-8 -34q67 -1 101.5 -32.5t34.5 -86.5q0 -137 -196 -137l-19 72q62 0 90 16t28 49q0 68 -131 68l22 87q-168 15 -261.5 122.5t-93.5 319.5z" />
<glyph unicode="&#xe8;" horiz-adv-x="981" d="M123 440q0 211 106.5 325t292.5 114q74 0 131.5 -17t94.5 -45.5t61 -68.5t34 -83.5t10 -92.5q0 -36 -3.5 -65t-6.5 -40l-3 -11h-615v-16q0 -187 81 -271t235 -84q54 0 102.5 10.5t79 25.5t53.5 30.5t33 26.5l10 10q25 -31 39 -91q-4 -4 -12.5 -11.5t-38 -25.5t-63 -32 t-88.5 -25.5t-115 -11.5q-418 0 -418 449zM232 534h517l2 33q0 45 -9.5 80.5t-33.5 68.5t-73 51t-121 18q-120 0 -191 -64t-91 -187zM290 1280h120l170 -290h-90z" />
<glyph unicode="&#xe9;" horiz-adv-x="981" d="M123 440q0 211 106.5 325t292.5 114q74 0 131.5 -17t94.5 -45.5t61 -68.5t34 -83.5t10 -92.5q0 -36 -3.5 -65t-6.5 -40l-3 -11h-615v-16q0 -187 81 -271t235 -84q54 0 102.5 10.5t79 25.5t53.5 30.5t33 26.5l10 10q25 -31 39 -91q-4 -4 -12.5 -11.5t-38 -25.5t-63 -32 t-88.5 -25.5t-115 -11.5q-418 0 -418 449zM232 534h517l2 33q0 45 -9.5 80.5t-33.5 68.5t-73 51t-121 18q-120 0 -191 -64t-91 -187zM461 990l170 290h120l-200 -290h-90z" />
<glyph unicode="&#xea;" horiz-adv-x="981" d="M123 440q0 211 106.5 325t292.5 114q74 0 131.5 -17t94.5 -45.5t61 -68.5t34 -83.5t10 -92.5q0 -36 -3.5 -65t-6.5 -40l-3 -11h-615v-16q0 -187 81 -271t235 -84q54 0 102.5 10.5t79 25.5t53.5 30.5t33 26.5l10 10q25 -31 39 -91q-4 -4 -12.5 -11.5t-38 -25.5t-63 -32 t-88.5 -25.5t-115 -11.5q-418 0 -418 449zM232 534h517l2 33q0 45 -9.5 80.5t-33.5 68.5t-73 51t-121 18q-120 0 -191 -64t-91 -187zM290 990l171 273h119l171 -273h-89l-141 193l-142 -193h-89z" />
<glyph unicode="&#xeb;" horiz-adv-x="981" d="M123 440q0 211 106.5 325t292.5 114q74 0 131.5 -17t94.5 -45.5t61 -68.5t34 -83.5t10 -92.5q0 -36 -3.5 -65t-6.5 -40l-3 -11h-615v-16q0 -187 81 -271t235 -84q54 0 102.5 10.5t79 25.5t53.5 30.5t33 26.5l10 10q25 -31 39 -91q-4 -4 -12.5 -11.5t-38 -25.5t-63 -32 t-88.5 -25.5t-115 -11.5q-418 0 -418 449zM232 534h517l2 33q0 45 -9.5 80.5t-33.5 68.5t-73 51t-121 18q-120 0 -191 -64t-91 -187zM280 1171q0 38 21 56.5t56 18.5q34 0 54.5 -18.5t20.5 -56.5t-20.5 -57.5t-54.5 -19.5q-35 0 -56 19.5t-21 57.5zM611 1171q0 38 21 56.5 t56 18.5q34 0 54.5 -18.5t20.5 -56.5t-20.5 -57.5t-54.5 -19.5q-35 0 -56 19.5t-21 57.5z" />
<glyph unicode="&#xec;" horiz-adv-x="387" d="M-38 1280h120l171 -290h-91zM142 0v870h102v-870h-102z" />
<glyph unicode="&#xed;" horiz-adv-x="387" d="M133 990l171 290h119l-199 -290h-91zM142 0v870h102v-870h-102z" />
<glyph unicode="&#xee;" horiz-adv-x="387" d="M-38 990l171 273h120l170 -273h-88l-142 193l-142 -193h-89zM142 0v870h102v-870h-102z" />
<glyph unicode="&#xef;" horiz-adv-x="392" d="M22 1171q0 75 70 75t70 -75q0 -77 -70 -77t-70 77zM160 0v870h103v-870h-103zM261 1171q0 75 70 75t70 -75q0 -77 -70 -77t-70 77z" />
<glyph unicode="&#xf0;" horiz-adv-x="1041" d="M123 413q0 108 30 190t83.5 131.5t123 74t152.5 24.5q155 0 265 -94q-66 197 -217 311l-179 -89l-40 83l125 62q-91 46 -215 68l25 89q166 -29 294 -104l169 83l39 -83l-123 -62q263 -214 263 -658q0 -121 -30 -209t-85 -139.5t-124.5 -75.5t-157.5 -24q-86 0 -157 24.5 t-126 74.5t-85 132.5t-30 190.5zM225 413q0 -157 78 -239t218 -82t217.5 82t77.5 239q0 156 -75 237.5t-224 81.5q-137 0 -214.5 -82.5t-77.5 -236.5z" />
<glyph unicode="&#xf1;" horiz-adv-x="1010" d="M142 0v870h78l22 -163q111 172 309 172q164 0 240 -86.5t76 -254.5v-538h-102v507q0 135 -57 203t-182 68q-100 0 -176 -62t-106 -143v-573h-102zM217 1058q0 190 143 190q51 0 144 -38.5t126 -38.5q45 0 64 26t19 95l72 -15q0 -190 -138 -190q-58 0 -150 39.5t-125 39.5 q-84 0 -84 -122z" />
<glyph unicode="&#xf2;" horiz-adv-x="1058" d="M123 435q0 223 111.5 333.5t294.5 110.5t294.5 -110.5t111.5 -333.5t-111.5 -333.5t-294.5 -110.5t-294.5 110.5t-111.5 333.5zM225 435q0 -170 79 -256.5t225 -86.5t225 86.5t79 256.5q0 167 -79.5 255t-224.5 88t-224.5 -88t-79.5 -255zM299 1280h119l171 -290h-91z " />
<glyph unicode="&#xf3;" horiz-adv-x="1058" d="M123 435q0 223 111.5 333.5t294.5 110.5t294.5 -110.5t111.5 -333.5t-111.5 -333.5t-294.5 -110.5t-294.5 110.5t-111.5 333.5zM225 435q0 -170 79 -256.5t225 -86.5t225 86.5t79 256.5q0 167 -79.5 255t-224.5 88t-224.5 -88t-79.5 -255zM469 990l171 290h119l-199 -290 h-91z" />
<glyph unicode="&#xf4;" horiz-adv-x="1058" d="M123 435q0 223 111.5 333.5t294.5 110.5t294.5 -110.5t111.5 -333.5t-111.5 -333.5t-294.5 -110.5t-294.5 110.5t-111.5 333.5zM225 435q0 -170 79 -256.5t225 -86.5t225 86.5t79 256.5q0 167 -79.5 255t-224.5 88t-224.5 -88t-79.5 -255zM299 990l170 273h120l170 -273 h-88l-142 193l-142 -193h-88z" />
<glyph unicode="&#xf5;" horiz-adv-x="1058" d="M123 435q0 223 111.5 333.5t294.5 110.5t294.5 -110.5t111.5 -333.5t-111.5 -333.5t-294.5 -110.5t-294.5 110.5t-111.5 333.5zM225 435q0 -170 79 -256.5t225 -86.5t225 86.5t79 256.5q0 167 -79.5 255t-224.5 88t-224.5 -88t-79.5 -255zM236 1058q0 190 143 190 q51 0 144 -38.5t126 -38.5q45 0 64 26t19 95l72 -15q0 -190 -138 -190q-58 0 -150 39.5t-125 39.5q-84 0 -84 -122z" />
<glyph unicode="&#xf6;" horiz-adv-x="1058" d="M123 435q0 223 111.5 333.5t294.5 110.5t294.5 -110.5t111.5 -333.5t-111.5 -333.5t-294.5 -110.5t-294.5 110.5t-111.5 333.5zM225 435q0 -170 79 -256.5t225 -86.5t225 86.5t79 256.5q0 167 -79.5 255t-224.5 88t-224.5 -88t-79.5 -255zM288 1171q0 38 21 56.5t56 18.5 q34 0 54.5 -18.5t20.5 -56.5t-20.5 -57.5t-54.5 -19.5q-35 0 -56 19.5t-21 57.5zM620 1171q0 75 76 75q34 0 54.5 -18.5t20.5 -56.5t-20.5 -57.5t-54.5 -19.5q-35 0 -55.5 19.5t-20.5 57.5z" />
<glyph unicode="&#xf7;" horiz-adv-x="1012" d="M171 461v92h670v-92h-670zM422 234q0 39 23 62t62 23t62 -23t23 -62q0 -41 -23 -63.5t-62 -22.5t-62 22.5t-23 63.5zM422 780q0 39 23 62t62 23t62 -23t23 -62q0 -41 -23 -63t-62 -22t-62 22t-23 63z" />
<glyph unicode="&#xf8;" horiz-adv-x="1024" d="M106 -15l109 140q-92 114 -92 310q0 223 111.5 333.5t294.5 110.5q132 0 229 -58l95 123l65 -58l-92 -120q109 -115 109 -331q0 -223 -111.5 -333.5t-294.5 -110.5q-151 0 -251 72l-107 -136zM225 435q0 -143 57 -225l411 529q-66 39 -164 39q-145 0 -224.5 -88 t-79.5 -255zM341 145q72 -53 188 -53q146 0 225 86.5t79 256.5q0 159 -74 248z" />
<glyph unicode="&#xf9;" horiz-adv-x="993" d="M142 276v594h102v-559q0 -122 50.5 -170.5t154.5 -48.5q177 0 299 145v633h102v-870h-79l-17 138q-142 -147 -331 -147q-140 0 -210.5 64.5t-70.5 220.5zM275 1280h119l171 -290h-91z" />
<glyph unicode="&#xfa;" horiz-adv-x="993" d="M142 276v594h102v-559q0 -122 50.5 -170.5t154.5 -48.5q177 0 299 145v633h102v-870h-79l-17 138q-142 -147 -331 -147q-140 0 -210.5 64.5t-70.5 220.5zM445 990l171 290h120l-200 -290h-91z" />
<glyph unicode="&#xfb;" horiz-adv-x="993" d="M142 276v594h102v-559q0 -122 50.5 -170.5t154.5 -48.5q177 0 299 145v633h102v-870h-79l-17 138q-142 -147 -331 -147q-140 0 -210.5 64.5t-70.5 220.5zM275 990l170 273h120l171 -273h-89l-142 193l-141 -193h-89z" />
<glyph unicode="&#xfc;" horiz-adv-x="993" d="M142 276v594h102v-559q0 -122 50.5 -170.5t154.5 -48.5q177 0 299 145v633h102v-870h-79l-17 138q-142 -147 -331 -147q-140 0 -210.5 64.5t-70.5 220.5zM265 1171q0 75 76 75q34 0 54.5 -18.5t20.5 -56.5t-20.5 -57.5t-54.5 -19.5q-35 0 -55.5 19.5t-20.5 57.5z M596 1171q0 75 76 75q34 0 55 -18.5t21 -56.5t-21 -57.5t-55 -19.5q-35 0 -55.5 19.5t-20.5 57.5z" />
<glyph unicode="&#xfd;" horiz-adv-x="836" d="M22 870h123q22 -55 73 -185.5t78 -200t69 -172t79 -186.5l259 744h121l-322 -865q-33 -90 -78.5 -153t-99.5 -96.5t-108 -48t-117 -14.5q-4 3 -10.5 9t-17.5 32.5t-11 60.5q117 0 195.5 40t131.5 148q-121 278 -365 887zM377 990l171 290h119l-199 -290h-91z" />
<glyph unicode="&#xfe;" horiz-adv-x="993" d="M142 -299v1545h102v-459q102 92 248 92q197 0 287.5 -112t90.5 -327q0 -220 -100 -334.5t-287 -114.5q-146 0 -239 70v-360h-102zM244 167q89 -75 234 -75q144 0 217 79.5t73 260.5q0 346 -287 346q-143 0 -237 -94v-517z" />
<glyph unicode="&#xff;" horiz-adv-x="836" d="M22 870h123q22 -55 73 -185.5t78 -200t69 -172t79 -186.5l259 744h121l-322 -865q-33 -90 -78.5 -153t-99.5 -96.5t-108 -48t-117 -14.5q-4 3 -10.5 9t-17.5 32.5t-11 60.5q117 0 195.5 40t131.5 148q-121 278 -365 887zM196 1171q0 38 21 56.5t56 18.5q34 0 54.5 -18.5 t20.5 -56.5t-20.5 -57.5t-54.5 -19.5q-35 0 -56 19.5t-21 57.5zM527 1171q0 38 21 56.5t56 18.5q34 0 54.5 -18.5t20.5 -56.5t-20.5 -57.5t-54.5 -19.5q-35 0 -56 19.5t-21 57.5z" />
<glyph unicode="&#x152;" horiz-adv-x="1937" d="M114 623q0 304 163.5 467.5t439.5 163.5q57 0 119 -8h999v-109h-731q205 -156 215 -482h430v-107h-433q-22 -289 -212 -439h756v-109h-1025q-68 -9 -118 -9q-275 0 -439 164.5t-164 467.5zM224 623q0 -136 37.5 -239t105.5 -164t155.5 -91t194.5 -30t194.5 30t155.5 91 t105.5 164t37.5 239q0 135 -37.5 237.5t-105 164t-155.5 92t-195 30.5t-195 -30.5t-155.5 -92t-105 -164t-37.5 -237.5z" />
<glyph unicode="&#x153;" horiz-adv-x="1693" d="M123 435q0 223 111.5 333.5t294.5 110.5q121 0 213.5 -48.5t141.5 -146.5q49 96 138.5 145.5t211.5 49.5q74 0 131.5 -17t94.5 -45.5t61 -68.5t34 -83.5t10 -92.5q0 -36 -3.5 -65t-7.5 -40l-4 -11h-615v-16q0 -187 81 -271t235 -84q55 0 103.5 10.5t79.5 25.5t54 30.5 t33 26.5l10 10q25 -31 39 -91q-4 -4 -12.5 -11.5t-38.5 -25.5t-64 -32t-89 -25.5t-115 -11.5q-273 0 -369 193q-50 -97 -141.5 -145t-211.5 -48q-183 0 -294.5 110.5t-111.5 333.5zM225 435q0 -170 79 -256.5t225 -86.5t225 86.5t79 256.5q0 167 -79.5 255t-224.5 88 t-224.5 -88t-79.5 -255zM942 534h519l2 33q0 45 -9.5 80.5t-34 68.5t-73.5 51t-121 18q-120 0 -191.5 -64t-91.5 -187z" />
<glyph unicode="&#x178;" horiz-adv-x="1012" d="M-29 1246h125q85 -162 187.5 -334t162.5 -263l61 -91q218 325 409 688h125q-112 -199 -231.5 -395t-183.5 -293l-63 -97v-461h-112v461q-226 339 -480 785zM271 1422q0 35 19 52.5t51 17.5t51 -17.5t19 -52.5t-19 -52.5t-51 -17.5t-51 17.5t-19 52.5zM602 1422 q0 35 19 52.5t51 17.5t51 -17.5t19 -52.5t-19 -52.5t-51 -17.5t-51 17.5t-19 52.5z" />
<glyph unicode="&#x2c6;" horiz-adv-x="802" d="M171 990l170 273h120l170 -273h-88l-142 193l-142 -193h-88z" />
<glyph unicode="&#x2dc;" horiz-adv-x="909" d="M171 1058q0 190 143 190q51 0 144 -38.5t126 -38.5q45 0 64 26t19 95l72 -15q0 -190 -138 -190q-58 0 -150 39.5t-125 39.5q-84 0 -84 -122z" />
<glyph unicode="&#x2000;" horiz-adv-x="776" />
<glyph unicode="&#x2001;" horiz-adv-x="1553" />
<glyph unicode="&#x2002;" horiz-adv-x="776" />
<glyph unicode="&#x2003;" horiz-adv-x="1553" />
<glyph unicode="&#x2004;" horiz-adv-x="517" />
<glyph unicode="&#x2005;" horiz-adv-x="388" />
<glyph unicode="&#x2006;" horiz-adv-x="258" />
<glyph unicode="&#x2007;" horiz-adv-x="258" />
<glyph unicode="&#x2008;" horiz-adv-x="194" />
<glyph unicode="&#x2009;" horiz-adv-x="310" />
<glyph unicode="&#x200a;" horiz-adv-x="86" />
<glyph unicode="&#x2010;" horiz-adv-x="733" d="M125 447v96h484v-96h-484z" />
<glyph unicode="&#x2011;" horiz-adv-x="733" d="M125 447v96h484v-96h-484z" />
<glyph unicode="&#x2012;" horiz-adv-x="733" d="M125 447v96h484v-96h-484z" />
<glyph unicode="&#x2013;" horiz-adv-x="977" d="M125 435v97h728v-97h-728z" />
<glyph unicode="&#x2014;" horiz-adv-x="1518" d="M114 435v97h1291v-97h-1291z" />
<glyph unicode="&#x2018;" horiz-adv-x="337" d="M73 1080q0 80 45.5 141.5t111.5 92.5l29 -48q-54 -27 -89 -71t-39 -99q22 22 60 22q29 0 51.5 -22t22.5 -58q0 -40 -24 -63t-64 -23q-49 0 -76.5 34.5t-27.5 93.5z" />
<glyph unicode="&#x2019;" horiz-adv-x="337" d="M73 1164q0 40 23.5 62.5t63.5 22.5q50 0 77.5 -34.5t27.5 -93.5q0 -80 -45.5 -141.5t-111.5 -92.5l-28 48q53 27 88 71t40 100q-24 -22 -60 -22q-30 0 -52.5 22t-22.5 58z" />
<glyph unicode="&#x201a;" horiz-adv-x="337" d="M73 72q0 40 23.5 62.5t63.5 22.5q50 0 77.5 -34.5t27.5 -93.5q0 -80 -45.5 -141.5t-111.5 -92.5l-28 48q53 27 88 71t40 100q-25 -23 -60 -23q-30 0 -52.5 22t-22.5 59z" />
<glyph unicode="&#x201c;" horiz-adv-x="610" d="M73 1104q0 80 45.5 141t111.5 91l29 -47q-54 -27 -89 -71.5t-39 -99.5q22 22 60 22q29 0 51.5 -21t22.5 -57q0 -41 -24 -63.5t-64 -22.5q-49 0 -76.5 34.5t-27.5 93.5zM346 1104q0 80 45.5 141t111.5 91l29 -47q-54 -27 -89 -71.5t-39 -99.5q22 22 60 22q29 0 51.5 -21 t22.5 -57q0 -41 -23.5 -63.5t-63.5 -22.5q-50 0 -77.5 34.5t-27.5 93.5z" />
<glyph unicode="&#x201d;" horiz-adv-x="610" d="M73 1164q0 40 23.5 62.5t63.5 22.5q50 0 77.5 -34.5t27.5 -93.5q0 -80 -45.5 -141.5t-111.5 -92.5l-28 48q53 27 88 71t40 100q-24 -22 -60 -22q-30 0 -52.5 22t-22.5 58zM346 1164q0 40 23.5 62.5t63.5 22.5q50 0 77.5 -34.5t27.5 -93.5q0 -80 -45.5 -141.5 t-111.5 -92.5l-28 48q53 27 88 71t40 100q-24 -22 -59 -22q-30 0 -53 22t-23 58z" />
<glyph unicode="&#x201e;" horiz-adv-x="610" d="M73 72q0 40 23.5 62.5t63.5 22.5q50 0 77.5 -34.5t27.5 -93.5q0 -80 -45.5 -141.5t-111.5 -92.5l-28 48q53 27 88 71t40 100q-25 -23 -60 -23q-30 0 -52.5 22t-22.5 59zM346 72q0 40 23.5 62.5t63.5 22.5q50 0 77.5 -34.5t27.5 -93.5q0 -80 -45.5 -141.5t-111.5 -92.5 l-28 48q53 27 88 71t40 100q-25 -23 -59 -23q-30 0 -53 22.5t-23 58.5z" />
<glyph unicode="&#x2022;" horiz-adv-x="472" d="M114 495q0 57 33.5 89t88.5 32q56 0 89 -32t33 -89t-33.5 -90t-88.5 -33t-88.5 33t-33.5 90z" />
<glyph unicode="&#x2026;" horiz-adv-x="1046" d="M73 77q0 40 23.5 62.5t62.5 22.5t62 -22t23 -63t-23 -63.5t-62 -22.5t-62.5 22.5t-23.5 63.5zM439 77q0 41 23 63t62 22t62 -22t23 -63t-23 -63.5t-62 -22.5t-62 22.5t-23 63.5zM802 77q0 41 23 63t62 22t62.5 -22.5t23.5 -62.5q0 -41 -23.5 -63.5t-62.5 -22.5t-62 22.5 t-23 63.5z" />
<glyph unicode="&#x202f;" horiz-adv-x="310" />
<glyph unicode="&#x2039;" horiz-adv-x="500" d="M97 415v58l299 295l8 -106l-227 -218l227 -202l-8 -105z" />
<glyph unicode="&#x203a;" horiz-adv-x="500" d="M97 242l226 202l-226 218l9 106l298 -295v-58l-298 -278z" />
<glyph unicode="&#x205f;" horiz-adv-x="388" />
<glyph unicode="&#x20ac;" horiz-adv-x="1385" d="M39 430v91h166q-5 53 -5 102q0 41 3 80h-164v91h176q43 218 189 335t361 117q330 0 464 -217q-6 -27 -21 -53t-27 -38l-12 -13q-20 33 -39.5 58t-54.5 55.5t-75.5 50.5t-101.5 34t-133 14q-165 0 -281 -87.5t-155 -255.5h570v-91h-585q-3 -39 -3 -80q0 -49 5 -102h583 v-91h-566q42 -165 155 -243t277 -78q295 0 413 205q39 -37 59 -97q-145 -217 -472 -217q-210 0 -355.5 108.5t-191.5 321.5h-179z" />
<glyph unicode="&#x2122;" horiz-adv-x="1527" d="M90 1161v85h576v-85h-243v-555h-90v555h-243zM717 606v640h82l278 -347l276 347h84v-640h-92v510l-261 -339h-14l-263 339v-510h-90z" />
<glyph unicode="&#x25fc;" horiz-adv-x="870" d="M0 0v870h870v-870h-870z" />
</font>
</defs>
</svg>
