<?xml version="1.0" standalone="no"?>
<!DOCTYPE svg PUBLIC "-//W3C//DTD SVG 1.1//EN" "http://www.w3.org/Graphics/SVG/1.1/DTD/svg11.dtd" >
<svg xmlns="http://www.w3.org/2000/svg" xmlns:xlink="http://www.w3.org/1999/xlink" version="1.1">
<metadata></metadata>
<defs>
<font id="schemebook" horiz-adv-x="1114" >
<font-face units-per-em="2048" ascent="1536" descent="-512" />
<missing-glyph horiz-adv-x="473" />
<glyph unicode="&#x28;C&#x29;" horiz-adv-x="1421" d="M47 694q0 197 89 362.5t241.5 261t333.5 95.5q135 0 258 -56.5t211.5 -152.5t141 -229t52.5 -281q0 -199 -88.5 -365.5t-241 -262t-333.5 -95.5t-333.5 95.5t-241.5 262t-89 365.5zM160 694q0 -261 157.5 -433.5t393.5 -172.5t393.5 172.5t157.5 433.5q0 168 -71.5 305 t-198 215t-281.5 78t-281.5 -78t-198 -215t-71.5 -305zM342 690q0 198 102.5 326.5t270.5 128.5q86 0 158 -37t110 -104q21 -34 21 -58q0 -22 -15.5 -36.5t-40.5 -14.5q-35 0 -49 35q-40 106 -192 106q-112 0 -183 -97t-71 -249q0 -155 71.5 -254.5t184.5 -99.5q82 0 131 43 q12 11 28.5 38.5t33.5 45.5t40 18t39 -13.5t16 -31.5q0 -27 -18 -63q-41 -70 -110.5 -107t-155.5 -37q-169 0 -270 129.5t-101 331.5z" />
<glyph unicode="&#x28;R&#x29;" horiz-adv-x="929" d="M47 1020q0 193 120.5 317.5t297.5 124.5q179 0 298.5 -124.5t119.5 -317.5q0 -199 -119.5 -327t-298.5 -128q-177 0 -297.5 128t-120.5 327zM125 1020q0 -168 96.5 -270.5t243.5 -102.5q148 0 244 102.5t96 270.5q0 162 -96 261t-244 99q-147 0 -243.5 -99t-96.5 -261z M317 793v456q0 15 12 26t27 11h78q94 0 147.5 -34t53.5 -124q0 -106 -90 -145l100 -172q6 -12 6 -18q0 -15 -11.5 -26t-25.5 -11q-23 0 -34 20l-115 195h-70v-178q0 -14 -13 -25.5t-26 -11.5q-15 0 -27 11t-12 26zM395 1047h72q41 0 66.5 19.5t25.5 61.5q0 41 -25.5 61.5 t-64.5 20.5h-74v-163z" />
<glyph horiz-adv-x="0" />
<glyph horiz-adv-x="682" />
<glyph horiz-adv-x="473" />
<glyph unicode=" "  horiz-adv-x="473" />
<glyph unicode="&#x09;" horiz-adv-x="473" />
<glyph unicode="&#xa0;" horiz-adv-x="473" />
<glyph unicode="!" horiz-adv-x="831" d="M305 96q0 44 32.5 76.5t78.5 32.5t79 -32.5t33 -76.5q0 -46 -33 -78t-79 -32t-78.5 32t-32.5 78zM313 1370q0 41 30.5 70.5t72.5 29.5q43 0 72.5 -29.5t29.5 -70.5l-24 -952q-2 -31 -24 -52.5t-54 -21.5q-31 0 -52.5 21.5t-23.5 52.5z" />
<glyph unicode="&#x22;" horiz-adv-x="628" d="M90 1409q0 32 25 57t57 25q34 0 59 -25t25 -57l-10 -322q-2 -28 -23.5 -48.5t-50.5 -20.5q-28 0 -49 20.5t-23 48.5zM367 1409q0 32 25 57t57 25t56.5 -25t24.5 -57l-10 -322q-2 -28 -22.5 -48.5t-48.5 -20.5t-49 20.5t-23 48.5z" />
<glyph unicode="#" horiz-adv-x="1015" d="M57 518q0 25 16.5 42.5t45.5 17.5h137l39 264h-129q-29 0 -45.5 17.5t-16.5 41.5q0 25 16.5 42.5t45.5 17.5h145l58 401q8 51 59 51q25 0 43 -16t18 -43l-57 -393h223l58 401q4 25 20.5 38t38.5 13q25 0 43.5 -16.5t18.5 -42.5l-56 -393h119q29 0 46.5 -17.5t17.5 -42.5 q0 -23 -17.5 -41t-46.5 -18h-137l-39 -264h129q29 0 45 -17.5t16 -42.5q0 -24 -16 -41.5t-45 -17.5h-143l-60 -418q-4 -25 -21.5 -38t-39.5 -13q-24 0 -42 16t-18 45l60 408h-224l-61 -418q-3 -25 -20 -38t-39 -13q-24 0 -42 16t-18 45l60 408h-123q-29 0 -45.5 17.5 t-16.5 41.5zM377 578h223l39 264h-223z" />
<glyph unicode="$" d="M211 418q0 31 20.5 51t51.5 20q25 0 49 -18.5t35 -44.5q21 -50 74 -78.5t116 -28.5q83 0 139 42.5t56 115.5q0 44 -22 76.5t-58 50t-82 34t-94 29t-94 34.5t-82 50t-58 77t-22 114q0 116 72 187.5t184 89.5v118q0 30 22.5 53t52.5 23t53 -23t23 -53v-120 q91 -19 160.5 -77.5t69.5 -135.5q0 -28 -20 -47t-48 -19q-67 0 -84 59q-13 40 -62 61t-110 21q-70 0 -118 -34t-48 -97q0 -37 22 -64t58 -42.5t82.5 -32t94.5 -30t94.5 -37.5t82.5 -54.5t58 -82t22 -118.5q0 -118 -69 -197t-185 -104v-114q0 -33 -22 -56.5t-54 -23.5 q-31 0 -53 21t-22 50v117q-101 10 -193 81t-92 157z" />
<glyph unicode="%" horiz-adv-x="1542" d="M96 1057q0 156 79.5 256t215.5 100t214.5 -100t78.5 -256q0 -162 -78 -262.5t-215 -100.5t-216 100.5t-79 262.5zM231 1057q0 -101 40.5 -166.5t119.5 -65.5q78 0 118 66t40 166q0 96 -40.5 160.5t-117.5 64.5q-79 0 -119.5 -64.5t-40.5 -160.5zM326 53q0 19 8 35 l741 1288q20 37 58 37q25 0 46 -18.5t21 -46.5q0 -13 -10 -33l-739 -1290q-21 -35 -58 -35q-29 0 -48 17t-19 46zM858 338q0 157 79 256.5t218 99.5q135 0 214 -100t79 -256q0 -160 -79 -262.5t-214 -102.5q-139 0 -218 102t-79 263zM995 338q0 -100 41 -166t119 -66 q76 0 117 66t41 166q0 95 -41 160t-117 65q-78 0 -119 -64.5t-41 -160.5z" />
<glyph unicode="&#x26;" horiz-adv-x="1173" d="M106 377q0 128 77 240.5t196 193.5q-133 198 -133 338q0 138 86.5 223.5t210.5 85.5q122 0 208.5 -78.5t86.5 -210.5q0 -63 -18.5 -118t-55.5 -102.5t-76.5 -84t-97.5 -80.5q145 -212 282 -381q54 101 84 295q1 6 3 23.5t3 26t4.5 24.5t7 24.5t10.5 20t16 17t22 10 t29 4.5q39 0 63.5 -29t24.5 -69q0 -119 -38.5 -248.5t-105.5 -233.5q6 -6 24 -25t31.5 -32.5t34.5 -31.5t41 -32q39 -25 39 -71q0 -34 -27.5 -59t-62.5 -25q-66 0 -190 139q-148 -154 -346 -154q-193 0 -313 110.5t-120 289.5zM281 397q0 -110 76 -181t178 -71 q120 0 243 113q-156 181 -315 422q-75 -60 -128.5 -136t-53.5 -147zM412 1141q0 -90 94 -234q30 24 47.5 39t43 42t39.5 50.5t25 56.5t11 68q0 57 -36 95t-91 38q-62 0 -97.5 -43.5t-35.5 -111.5z" />
<glyph unicode="'" horiz-adv-x="352" d="M90 1409q0 32 25 57t57 25q34 0 59 -25t25 -57l-10 -322q-2 -28 -23.5 -48.5t-50.5 -20.5q-28 0 -49 20.5t-23 48.5z" />
<glyph unicode="(" horiz-adv-x="559" d="M150 612q0 410 198 848q14 35 60 35q26 0 45.5 -19.5t19.5 -45.5q0 -8 -12 -44q-156 -379 -156 -774q0 -387 152 -764q16 -43 16 -51q0 -26 -19.5 -45.5t-45.5 -19.5q-31 0 -48 22t-47 88q-163 355 -163 770z" />
<glyph unicode=")" horiz-adv-x="561" d="M86 -203q0 8 16 51q152 366 152 764q0 395 -156 774q-12 36 -12 44q0 26 20 45.5t46 19.5q38 0 59 -35q89 -165 144 -388t55 -460q0 -174 -41 -382t-102.5 -353t-114.5 -145q-26 0 -46 19.5t-20 45.5z" />
<glyph unicode="*" horiz-adv-x="897" d="M127 1034q0 23 14 44.5t41 25.5l185 33l-129 149q-15 18 -15 41q0 29 23.5 51.5t50.5 22.5q40 0 59 -37l93 -168l96 168q18 32 55 37q29 0 52.5 -22.5t23.5 -51.5q0 -18 -17 -41l-124 -149l182 -33q27 -4 41 -25.5t14 -44.5q0 -29 -19 -50t-48 -21q-21 0 -33 6l-170 69 l18 -184q1 -36 -20 -55t-51 -19q-29 0 -50.5 19t-21.5 55l20 184l-170 -69q-18 -6 -30 -6q-30 0 -50 21t-20 50z" />
<glyph unicode="+" d="M133 582q0 29 22.5 51t51.5 22h274v275q0 30 22 52t52 22q29 0 51.5 -22.5t22.5 -51.5v-275h274q31 0 53.5 -22t22.5 -51t-22.5 -51.5t-53.5 -22.5h-274v-275q0 -31 -22.5 -53t-51.5 -22q-31 0 -52.5 22t-21.5 53v275h-274q-29 0 -51.5 22.5t-22.5 51.5z" />
<glyph unicode="," horiz-adv-x="593" d="M195 96q0 39 27 71t71 32q55 0 78.5 -39.5t23.5 -126.5q0 -96 -36.5 -192.5t-86.5 -96.5q-21 0 -31 12.5t-10 28.5q0 26 15.5 79t15.5 89q0 27 -2 41q-30 13 -47.5 41.5t-17.5 60.5z" />
<glyph unicode="-" horiz-adv-x="581" d="M25 549q0 32 27 58t61 26h356q34 0 61 -26t27 -58q0 -33 -27 -58.5t-61 -25.5h-356q-34 0 -61 25.5t-27 58.5z" />
<glyph unicode="." horiz-adv-x="614" d="M195 96q0 44 33 76.5t79 32.5t79.5 -32.5t33.5 -76.5q0 -45 -33.5 -77.5t-79.5 -32.5t-79 32t-33 78z" />
<glyph unicode="/" horiz-adv-x="618" d="M-47 -119q0 13 8 33l559 1513q8 23 27.5 39.5t44.5 16.5q28 0 50 -22t22 -50q0 -5 -9 -37l-559 -1509q-21 -55 -69 -55q-30 0 -52 21t-22 50z" />
<glyph unicode="0" d="M111 692q0 223 46.5 381.5t147.5 248t252 89.5q149 0 250 -89.5t147.5 -248t46.5 -381.5t-46.5 -381.5t-147.5 -248t-250 -89.5q-151 0 -252 89.5t-147.5 248t-46.5 381.5zM293 692q0 -161 25.5 -278t86 -188.5t152.5 -71.5q91 0 150.5 71.5t84.5 188.5t25 278 q0 119 -15 215.5t-45 170.5t-81 114.5t-119 40.5q-92 0 -152.5 -72.5t-86 -190t-25.5 -278.5z" />
<glyph unicode="1" d="M231 1106q0 28 19 50t47 32q61 23 119.5 69.5t89.5 96.5q37 57 86 57q38 0 67 -27.5t29 -64.5v-1241q0 -34 -27.5 -60t-62.5 -26t-62.5 26t-27.5 60v1042q-42 -37 -137 -90q-21 -12 -54 -12q-34 0 -60 27t-26 61z" />
<glyph unicode="2" d="M117 86q0 30 20 57q91 119 418 486q201 224 201 383q0 106 -55.5 166.5t-159.5 60.5q-174 0 -207 -197q-6 -32 -30.5 -55.5t-57.5 -23.5q-34 0 -62 28t-28 60q0 97 53.5 180.5t142 131.5t187.5 48q171 0 285 -108.5t114 -288.5q0 -73 -27.5 -151t-69 -144.5t-104.5 -145 t-117.5 -136t-127 -135.5t-115.5 -128h528q34 0 62 -25t28 -63t-27 -62t-63 -24h-682q-43 0 -74.5 24t-31.5 62z" />
<glyph unicode="3" d="M137 305q0 34 27 62t63 28q30 0 52.5 -17.5t31.5 -47.5q29 -93 84.5 -139t149.5 -46q112 0 183 69.5t71 197.5q0 81 -44.5 140t-112.5 85.5t-150 26.5q-31 0 -57.5 25.5t-26.5 58.5q0 37 30 60t70 23q118 0 184 52.5t66 158.5q0 94 -64 147.5t-155 53.5q-79 0 -133.5 -37 t-67.5 -104q-6 -32 -30 -53t-58 -21q-35 0 -63.5 27t-28.5 63q0 44 24 90q49 96 139.5 149.5t200.5 53.5q81 0 154 -23t131 -67t92.5 -115t34.5 -159q0 -114 -63 -192.5t-162 -106.5q115 -31 191.5 -126t76.5 -227q0 -124 -61 -221.5t-160.5 -148t-218.5 -50.5 q-97 0 -188.5 41.5t-151.5 118.5t-60 170z" />
<glyph unicode="4" d="M80 401q0 34 12 56l492 911q22 43 75 43q33 0 61 -26t28 -60q0 -20 -13 -43l-442 -807h389v270q0 36 25.5 62.5t60.5 26.5t60.5 -26t25.5 -60v-273h100q30 0 54 -25t24 -57q0 -31 -24.5 -55.5t-53.5 -24.5h-100v-239q0 -32 -26 -58t-60 -26t-60 26t-26 58v239h-516 q-40 0 -63 25.5t-23 62.5z" />
<glyph unicode="5" d="M141 258q0 34 26.5 61t61.5 27q68 0 84 -49q20 -64 82 -105.5t137 -41.5q125 0 194 91.5t69 243.5q0 142 -66 217.5t-176 75.5q-135 0 -184 -104q-13 -26 -38.5 -44t-54.5 -18q-38 0 -67 29.5t-29 69.5l27 534q1 25 1.5 34.5t3 33t8.5 35t16 26.5t26.5 21t38.5 6 q35 0 125.5 -2t157.5 -2q41 0 113.5 2t125.5 2q107 0 107 -88q0 -52 -29 -71t-88 -19q-262 0 -438 10l-21 -387q92 92 226 92q178 0 285.5 -127.5t107.5 -327.5q0 -140 -52 -255t-151 -184t-227 -69q-257 0 -379 209q-23 39 -23 74z" />
<glyph unicode="6" d="M125 578q0 69 4.5 137t17.5 153t34.5 159t58.5 146t86 123.5t120.5 83t157.5 31.5q101 0 175 -38.5t116 -102.5q37 -56 37 -96q0 -35 -24 -61t-58 -26q-31 0 -54.5 17t-31.5 41q-15 44 -60.5 71t-105.5 27q-61 0 -109 -29t-80 -77t-55 -119.5t-35 -147t-18 -168.5 q39 90 124 139.5t187 49.5q164 0 269.5 -123.5t105.5 -327.5q0 -211 -114.5 -339t-305.5 -128q-145 0 -246 78.5t-148.5 213t-47.5 313.5zM317 440q0 -121 69.5 -205.5t172.5 -84.5q115 0 181.5 75t66.5 211q0 140 -59.5 215.5t-172.5 75.5q-109 0 -183.5 -75.5 t-74.5 -211.5z" />
<glyph unicode="7" d="M121 1313q0 35 27.5 61.5t62.5 26.5h680q40 0 70 -26.5t30 -63.5q0 -32 -22 -68q-54 -79 -156.5 -340t-181 -487.5t-125.5 -376.5q-9 -29 -33 -47.5t-57 -18.5q-39 0 -65.5 27.5t-26.5 58.5q0 23 14 72q63 204 209 577t225 519h-561q-35 0 -62.5 26t-27.5 60z" />
<glyph unicode="8" d="M119 385q0 130 66.5 221.5t172.5 132.5q-91 30 -149.5 113.5t-58.5 198.5q0 112 57.5 195.5t148 124t199.5 40.5q107 0 196.5 -39.5t147 -123.5t57.5 -197q0 -114 -57 -194t-147 -118q104 -40 172.5 -131t68.5 -223q0 -128 -62.5 -223.5t-160.5 -142t-215 -46.5 q-118 0 -215.5 46.5t-159 142t-61.5 223.5zM295 403q0 -122 74 -191t184 -69q111 0 187.5 69.5t76.5 190.5t-76.5 191t-187.5 76q-108 -8 -183 -78.5t-75 -188.5zM328 1032q0 -97 63.5 -157.5t163.5 -69.5q102 9 163.5 69t61.5 158q0 103 -64.5 156t-160.5 53 q-97 0 -162 -53t-65 -156z" />
<glyph unicode="9" d="M125 946q0 211 114 338t304 127q145 0 246.5 -78.5t149.5 -212t48 -311.5q0 -72 -4.5 -141t-17.5 -155t-34.5 -159.5t-59 -145.5t-86.5 -122.5t-120.5 -81.5t-158.5 -31q-100 0 -174 39.5t-115 102.5q-39 57 -39 98q0 35 24 60.5t60 25.5q30 0 52.5 -16.5t31.5 -42.5 q15 -44 60.5 -71.5t105.5 -27.5q76 0 132 42.5t89.5 121t51.5 169.5t26 208q-40 -88 -125.5 -137t-187.5 -49q-164 0 -268.5 122t-104.5 328zM303 948q0 -140 60 -214.5t172 -74.5q110 0 184 75.5t74 211.5q0 121 -69 206t-171 85q-116 0 -183 -76t-67 -213z" />
<glyph unicode=":" horiz-adv-x="614" d="M195 98q0 46 33 78.5t79 32.5t79.5 -32.5t33.5 -78.5q0 -44 -33.5 -76t-79.5 -32t-79 32t-33 76zM195 860q0 44 33 76.5t79 32.5t79.5 -32.5t33.5 -76.5t-33.5 -76t-79.5 -32t-79 32t-33 76z" />
<glyph unicode=";" horiz-adv-x="528" d="M154 860q0 44 33 76.5t79 32.5t78.5 -32.5t32.5 -76.5q0 -46 -32.5 -78t-78.5 -32t-79 32t-33 78zM156 96q0 39 27 71t71 32q55 0 78.5 -39.5t23.5 -126.5q0 -96 -36.5 -192.5t-86.5 -96.5q-21 0 -30.5 12.5t-9.5 28.5v6q0 22 15 74t15 88q0 27 -2 41q-30 13 -47.5 41.5 t-17.5 60.5z" />
<glyph unicode="&#x3c;" d="M180 582q0 38 45 65l596 348q18 11 37 11q29 0 51.5 -21.5t22.5 -50.5q0 -18 -11.5 -36t-27.5 -26l-510 -290l510 -291q16 -8 27.5 -26t11.5 -36q0 -29 -22 -50t-52 -21q-17 0 -37 8l-596 350q-45 27 -45 66z" />
<glyph unicode="=" d="M133 410q0 29 22.5 51t51.5 22h696q31 0 53.5 -22t22.5 -51t-22.5 -51.5t-53.5 -22.5h-696q-29 0 -51.5 22.5t-22.5 51.5zM133 754q0 29 22.5 51t51.5 22h696q31 0 53.5 -22t22.5 -51t-22.5 -51.5t-53.5 -22.5h-696q-29 0 -51.5 22.5t-22.5 51.5z" />
<glyph unicode="&#x3e;" d="M180 229q0 19 11 36t28 26l510 291l-510 290q-16 8 -27.5 26t-11.5 36q0 29 22 50.5t50 21.5q19 0 37 -11l596 -348q47 -29 47 -65q0 -37 -47 -66l-596 -350q-16 -8 -37 -8q-28 0 -50 21t-22 50z" />
<glyph unicode="?" horiz-adv-x="1058" d="M205 1288q0 55 49 98q49 41 129.5 68t148.5 27q164 0 270.5 -94.5t106.5 -262.5q0 -60 -13.5 -112t-41.5 -97t-52.5 -75t-64.5 -72q-78 -81 -107.5 -146.5t-29.5 -179.5q0 -98 -80 -98q-88 0 -88 98q0 117 35 212.5t119 189.5q39 44 57.5 67t43.5 60.5t35.5 73.5t10.5 77 q0 80 -51.5 133.5t-132.5 53.5q-88 0 -148 -37q-9 -5 -32 -23t-43.5 -28.5t-38.5 -10.5q-33 0 -57.5 22.5t-24.5 55.5zM408 96q0 44 33 76.5t79 32.5t78.5 -32.5t32.5 -76.5q0 -45 -32.5 -76.5t-78.5 -31.5t-79 31.5t-33 76.5z" />
<glyph unicode="@" horiz-adv-x="1460" d="M78 475q0 175 58.5 329.5t156.5 261.5t230 168.5t276 61.5q169 0 300 -81t200 -216.5t69 -300.5q0 -127 -52.5 -248.5t-143 -199.5t-191.5 -78q-125 0 -150 121q-34 -57 -86.5 -88t-115.5 -31q-93 0 -152 71t-59 197q0 114 38.5 218.5t114.5 174.5t170 70q99 0 156 -88 q7 41 25.5 62.5t42.5 21.5q28 0 46.5 -16t18.5 -45q0 -11 -4 -35l-72 -451q1 -28 15 -41.5t32 -13.5q35 0 74.5 31.5t74 83.5t57 129t22.5 159q0 194 -119.5 320.5t-314.5 126.5q-116 0 -220.5 -50.5t-181 -138.5t-121.5 -216t-45 -275q0 -238 117.5 -378t319.5 -140 q164 0 264 72q23 20 53 20q27 0 45 -19.5t18 -46.5q0 -43 -28 -65q-63 -55 -161 -82t-198 -27q-178 0 -311 89t-200.5 240t-67.5 343zM545 444q0 -66 29.5 -104.5t74.5 -38.5q50 0 103 49q42 38 70 122.5t52 240.5q-10 33 -44.5 51t-73.5 18q-84 0 -147.5 -98t-63.5 -240z " />
<glyph unicode="A" horiz-adv-x="1093" d="M16 76q0 9 9 41l438 1265q8 25 32 42.5t52 17.5q29 0 54 -17.5t34 -42.5l436 -1267q6 -18 6 -37q0 -35 -26.5 -61.5t-61.5 -26.5q-29 0 -53 17t-33 44l-98 287h-522l-97 -289q-8 -25 -31.5 -42t-52.5 -17q-34 0 -60 25.5t-26 60.5zM336 502h418l-211 620z" />
<glyph unicode="B" horiz-adv-x="1226" d="M197 88v1255q0 37 27.5 64t62.5 27h334q179 0 289 -91.5t110 -257.5q0 -115 -52.5 -195.5t-140.5 -115.5q121 -31 194 -122.5t73 -241.5q0 -180 -106.5 -295t-301.5 -115h-399q-35 0 -62.5 26.5t-27.5 61.5zM377 178h231q148 0 224.5 56.5t76.5 195.5q0 140 -83.5 194 t-245.5 54h-203v-500zM377 836h215q246 0 246 221q0 111 -65.5 157t-184.5 46h-211v-424z" />
<glyph unicode="C" horiz-adv-x="1284" d="M119 715q0 214 71 382t204 263.5t306 95.5q160 0 275 -65.5t199 -202.5q18 -30 18 -55q0 -36 -26.5 -62.5t-65.5 -26.5q-22 0 -43 11.5t-31 29.5q-105 193 -324 193q-124 0 -216.5 -73.5t-139.5 -200.5t-47 -291q0 -165 44.5 -289.5t138 -198t225.5 -73.5 q90 0 176.5 45.5t115.5 124.5q9 27 35 46t56 19q37 0 63.5 -26.5t26.5 -61.5q0 -28 -27 -76q-63 -109 -189 -178.5t-262 -69.5q-268 0 -425.5 202t-157.5 538z" />
<glyph unicode="D" horiz-adv-x="1333" d="M180 88v1255q0 37 26.5 64t61.5 27h293q304 0 475.5 -181t171.5 -538q0 -361 -167.5 -538t-479.5 -177h-293q-35 0 -61.5 26.5t-26.5 61.5zM360 178h109q151 0 251.5 24.5t172 85t103.5 164.5t32 263q0 158 -32.5 263t-102.5 165.5t-165.5 85t-235.5 24.5h-132v-1075z " />
<glyph unicode="E" horiz-adv-x="1161" d="M201 88v1255q0 37 27.5 64t62.5 27h651q37 0 63.5 -27t26.5 -64q0 -35 -26.5 -61.5t-63.5 -26.5h-561v-426h481q34 0 60 -25t26 -59q0 -33 -26 -58t-60 -25h-481v-484h561q36 0 63 -27t27 -63q0 -35 -26.5 -61.5t-63.5 -26.5h-651q-35 0 -62.5 26.5t-27.5 61.5z" />
<glyph unicode="F" horiz-adv-x="1116" d="M186 78v1265q0 37 27 64t63 27h652q37 0 63.5 -27t26.5 -64q0 -35 -26.5 -61.5t-63.5 -26.5h-561v-426h469q34 0 60 -26t26 -60t-26 -59t-60 -25h-469v-581q0 -35 -27 -61.5t-64 -26.5q-35 0 -62.5 26.5t-27.5 61.5z" />
<glyph unicode="G" horiz-adv-x="1378" d="M127 715q0 216 70 384t202.5 262.5t307.5 94.5q165 0 275.5 -61.5t201.5 -210.5q14 -25 14 -49q0 -37 -26 -64t-64 -27q-23 0 -44 12t-30 29q-55 101 -133.5 148t-191.5 47q-123 0 -215 -73.5t-139.5 -201.5t-47.5 -292q0 -264 113 -413.5t313 -149.5q167 0 279 75v353 h-271q-35 0 -61.5 26t-26.5 60q0 35 26.5 60.5t61.5 25.5h346q37 0 64 -26.5t27 -61.5v-533q-186 -156 -465 -156q-265 0 -425.5 197.5t-160.5 544.5z" />
<glyph unicode="H" horiz-adv-x="1372" d="M195 78v1278q0 35 27.5 61.5t62.5 26.5q37 0 63.5 -26.5t26.5 -61.5v-520h620v520q0 35 26.5 61.5t63.5 26.5q36 0 63.5 -26.5t27.5 -61.5v-1278q0 -35 -27.5 -61.5t-63.5 -26.5q-37 0 -63.5 26.5t-26.5 61.5v586h-620v-586q0 -35 -26.5 -61.5t-63.5 -26.5 q-35 0 -62.5 26.5t-27.5 61.5z" />
<glyph unicode="I" horiz-adv-x="600" d="M211 78v1278q0 35 27.5 61.5t62.5 26.5q37 0 63.5 -26.5t26.5 -61.5v-1278q0 -35 -26.5 -61.5t-63.5 -26.5q-35 0 -62.5 26.5t-27.5 61.5z" />
<glyph unicode="J" horiz-adv-x="962" d="M25 221q0 35 27.5 61.5t62.5 26.5q57 0 84 -53q56 -100 180 -100q106 0 167.5 91t61.5 249v858q0 35 26.5 61.5t63.5 26.5q35 0 62.5 -26.5t27.5 -61.5v-842q0 -155 -48.5 -275.5t-141.5 -188.5t-217 -68q-111 0 -189.5 40.5t-140.5 133.5q-26 39 -26 67z" />
<glyph unicode="K" horiz-adv-x="1128" d="M209 78v1278q0 35 27.5 61.5t62.5 26.5q37 0 63.5 -26.5t26.5 -61.5v-535h174l346 580q21 41 72 41q32 0 57 -23t25 -57q0 -24 -12 -45l-344 -557l385 -625q18 -30 18 -53q0 -37 -30 -64.5t-68 -27.5q-56 0 -84 49l-375 633h-164v-594q0 -35 -26.5 -61.5t-63.5 -26.5 q-35 0 -62.5 26.5t-27.5 61.5z" />
<glyph unicode="L" horiz-adv-x="1056" d="M197 88v1266q0 35 27.5 61.5t62.5 26.5q37 0 63.5 -26.5t26.5 -61.5v-1176h534q36 0 63 -27t27 -63q0 -35 -26.5 -61.5t-63.5 -26.5h-624q-35 0 -62.5 26.5t-27.5 61.5z" />
<glyph unicode="M" horiz-adv-x="1712" d="M190 80l27 1276q1 43 33 66.5t78 23.5q36 0 64 -17t40 -49l426 -1093l428 1093q25 66 100 66q45 0 77.5 -24t33.5 -66l25 -1276q0 -37 -24.5 -62.5t-61.5 -25.5q-34 0 -61 24.5t-27 57.5l-11 1018l-397 -1047q-9 -23 -32.5 -38t-51.5 -15q-29 0 -52 14.5t-32 38.5 l-395 1047l-12 -1018q0 -33 -26 -57.5t-60 -24.5q-37 0 -63.5 26t-25.5 62z" />
<glyph unicode="N" horiz-adv-x="1388" d="M182 76v1286q0 36 27.5 61t66.5 25q55 0 84 -45l674 -1065v1018q0 34 26 60t60 26q35 0 61.5 -26t26.5 -60v-1290q0 -37 -27 -63t-67 -26q-58 0 -84 46l-674 1067v-1014q0 -35 -26.5 -60.5t-61.5 -25.5t-60.5 25.5t-25.5 60.5z" />
<glyph unicode="O" horiz-adv-x="1447" d="M131 717q0 342 162.5 540.5t429.5 198.5q265 0 428.5 -199t163.5 -540q0 -345 -162.5 -544.5t-429.5 -199.5t-429.5 199.5t-162.5 544.5zM311 715q0 -257 108 -410t304 -153t304 153t108 410t-108 411t-304 154t-304 -154.5t-108 -410.5z" />
<glyph unicode="P" d="M197 78v1265q0 37 27.5 64t62.5 27h219q93 0 168 -10.5t146 -39t119 -74.5t76.5 -121t28.5 -175q0 -115 -39 -199t-108 -131.5t-152.5 -69.5t-183.5 -22h-184v-514q0 -35 -26.5 -61.5t-63.5 -26.5q-35 0 -62.5 26.5t-27.5 61.5zM377 766h217q122 0 196 59.5t74 186.5 q0 124 -73 182.5t-195 58.5h-219v-487z" />
<glyph unicode="Q" horiz-adv-x="1447" d="M131 717q0 342 162.5 540.5t429.5 198.5q265 0 428.5 -199t163.5 -540q0 -347 -170 -551l174 -217q20 -26 20 -58q0 -35 -28.5 -62.5t-63.5 -27.5q-41 0 -69 35l-174 211q-126 -74 -281 -74q-267 0 -429.5 199.5t-162.5 544.5zM311 715q0 -257 108 -410t304 -153t304 153 t108 410t-108 411t-304 154t-304 -154.5t-108 -410.5z" />
<glyph unicode="R" horiz-adv-x="1226" d="M203 78v1265q0 35 27.5 63t62.5 28h219q93 0 168 -10.5t146 -39.5t119 -75t77 -122t29 -177q0 -157 -73.5 -254t-195.5 -135l303 -498q15 -24 15 -47q0 -35 -28.5 -59.5t-65.5 -24.5q-53 0 -76 43l-328 551h-219v-508q0 -35 -26.5 -60.5t-63.5 -25.5q-36 0 -63 25.5 t-27 60.5zM383 754h217q120 0 195 62.5t75 189.5q0 124 -74 185.5t-194 61.5h-219v-499z" />
<glyph unicode="S" horiz-adv-x="1118" d="M115 309q0 35 26.5 61.5t63.5 26.5q27 0 51 -18t33 -43q63 -184 270 -184q109 0 186.5 63t77.5 164q0 88 -45.5 139.5t-124.5 83.5q-30 11 -81.5 29.5t-82 30t-70 29t-69.5 34.5q-88 51 -144 137q-56 85 -56 199q0 116 56 208q55 90 148.5 138.5t208.5 48.5 q121 0 219 -46.5t154 -143.5q37 -68 37 -113q0 -34 -27 -62t-63 -28q-33 0 -57.5 22t-32.5 54q-14 70 -76 107.5t-146 37.5q-100 0 -170.5 -57.5t-70.5 -151.5q0 -49 18 -88t54 -67.5t74.5 -47.5t92.5 -38q165 -58 230 -94q152 -84 190 -228q15 -56 15 -123 q0 -100 -36 -180.5t-97.5 -130.5t-141 -76.5t-170.5 -26.5q-148 0 -266 68t-160 186q-18 45 -18 80z" />
<glyph unicode="T" horiz-adv-x="1089" d="M27 1343q0 37 27.5 64t62.5 27h854q37 0 63.5 -27t26.5 -64q0 -35 -26.5 -61.5t-63.5 -26.5h-336v-1177q0 -35 -27.5 -61.5t-62.5 -26.5q-37 0 -63.5 26.5t-26.5 61.5v1177h-338q-35 0 -62.5 26.5t-27.5 61.5z" />
<glyph unicode="U" horiz-adv-x="1349" d="M190 532v822q0 35 27.5 61.5t63.5 26.5q37 0 63.5 -26.5t26.5 -61.5v-871q0 -156 81.5 -243.5t221.5 -87.5t222.5 88.5t82.5 242.5v871q0 36 26 62t62 26q35 0 62.5 -26.5t27.5 -61.5v-875q0 -231 -128 -368.5t-355 -137.5q-245 0 -364.5 147t-119.5 412z" />
<glyph unicode="V" horiz-adv-x="1083" d="M10 1354q0 35 27.5 61.5t62.5 26.5q29 0 53 -17.5t33 -44.5l359 -1067l358 1069q8 25 31.5 42.5t50.5 17.5q35 0 60.5 -25t25.5 -59q0 -22 -8 -41l-436 -1266q-9 -27 -33 -44t-53 -17t-53 17t-33 44l-439 1266q-6 21 -6 37z" />
<glyph unicode="W" horiz-adv-x="1751" d="M18 1354q0 35 27.5 61.5t63.5 26.5q29 0 55.5 -19t32.5 -45l264 -1048l313 1038q21 74 98 74q81 0 103 -74l319 -1038l269 1050q6 26 31 44t53 18q34 0 60 -25t26 -59q0 -17 -2 -27l-332 -1263q-20 -78 -101 -78q-73 0 -96 76l-334 1042l-319 -1042q-23 -76 -96 -76 q-79 0 -99 78l-331 1259q-1 5 -2 10.5t-2 9t-1 7.5z" />
<glyph unicode="X" horiz-adv-x="1024" d="M14 72q0 22 13 43l383 622l-342 561q-17 27 -17 52q0 37 29 64.5t67 27.5q56 0 84 -49l285 -482l291 490q24 41 72 41q32 0 58 -23t26 -57q0 -24 -15 -45l-342 -557l385 -625q17 -28 17 -53q0 -37 -29.5 -64.5t-67.5 -27.5q-56 0 -84 49l-325 549l-330 -555 q-25 -43 -72 -43q-35 0 -60.5 23.5t-25.5 58.5z" />
<glyph unicode="Y" horiz-adv-x="1040" d="M14 1354q0 35 27.5 61.5t62.5 26.5q54 0 82 -51l338 -590l336 590q26 51 78 51q34 0 60 -25t26 -59q0 -25 -16 -49l-402 -676v-555q0 -35 -27.5 -61.5t-64.5 -26.5q-35 0 -61.5 26.5t-26.5 61.5v551l-397 678q-15 26 -15 47z" />
<glyph unicode="Z" horiz-adv-x="1089" d="M76 1343q0 37 27 64t63 27h729q37 0 63.5 -27t26.5 -64q0 -25 -14 -49l-649 -1116h602q35 0 62.5 -27.5t27.5 -62.5t-27.5 -61.5t-62.5 -26.5h-752q-35 0 -62.5 26.5t-27.5 61.5q0 25 20 57l646 1110h-582q-35 0 -62.5 26.5t-27.5 61.5z" />
<glyph unicode="[" horiz-adv-x="622" d="M166 -201v1610q0 29 21.5 50.5t48.5 21.5h204q29 0 50.5 -21.5t21.5 -50.5q0 -27 -21.5 -47.5t-50.5 -20.5h-125v-1476h125q29 0 50.5 -20t21.5 -46q0 -29 -21.5 -50t-50.5 -21h-204q-27 0 -48.5 21t-21.5 50z" />
<glyph unicode="\" horiz-adv-x="532" d="M-88 1411q0 28 22.5 50t51.5 22q25 0 44 -16.5t27 -39.5l557 -1513q9 -22 9 -33q0 -29 -22 -50t-52 -21q-24 0 -42 15.5t-26 39.5l-559 1509q-10 23 -10 37z" />
<glyph unicode="]" horiz-adv-x="622" d="M111 -203q0 26 20.5 46t48.5 20h127v1480h-127q-28 0 -48.5 20.5t-20.5 47.5q0 28 20.5 49t48.5 21h205q28 0 49 -21t21 -49v-1614q0 -29 -21 -49t-49 -20h-205q-28 0 -48.5 20t-20.5 49z" />
<glyph unicode="^" horiz-adv-x="1183" d="M166 766q0 20 10 37l350 596q23 45 66 45q42 0 65 -45l351 -596q10 -17 10 -37q0 -28 -22.5 -50t-51.5 -22q-40 0 -63 39l-289 508l-289 -508q-8 -15 -26.5 -27t-36.5 -12q-29 0 -51.5 22t-22.5 50z" />
<glyph unicode="_" horiz-adv-x="837" d="M-53 -244q0 28 21.5 50t49.5 22h801q29 0 51.5 -22t22.5 -50q0 -29 -22 -50t-52 -21h-801q-28 0 -49.5 21t-21.5 50z" />
<glyph unicode="`" horiz-adv-x="413" d="M31 1364q0 26 19.5 44.5t45.5 18.5q27 0 45 -18l221 -197q23 -23 23 -47q0 -21 -15 -36t-38 -15q-22 0 -39 14l-238 191q-24 21 -24 45z" />
<glyph unicode="a" horiz-adv-x="937" d="M78 231q0 80 26.5 135.5t67 83.5t100 46t113 23.5t119 16.5t106.5 25v123q0 79 -36.5 118.5t-114.5 39.5q-123 0 -174 -97q-29 -53 -82 -53q-36 0 -58 24t-22 58q0 99 99 165.5t233 66.5q78 0 134.5 -14.5t102.5 -49.5t69 -101t23 -163v-479q0 -33 22.5 -71t22.5 -56 q0 -34 -25.5 -57t-60.5 -23q-23 0 -41.5 9t-29.5 20.5t-19.5 31t-12 33t-7.5 33.5q-39 -64 -113.5 -103t-163.5 -39q-127 0 -202.5 65.5t-75.5 188.5zM248 248q0 -123 145 -123t221 127v197q-44 -18 -103 -30t-101 -19.5t-81.5 -22.5t-60 -46.5t-20.5 -82.5z" />
<glyph unicode="b" horiz-adv-x="1013" d="M127 162v1249q0 35 25.5 60.5t62.5 25.5q35 0 60.5 -25.5t25.5 -60.5v-522q38 51 106 85t154 34q90 0 160.5 -42.5t113.5 -116t65 -166t22 -198.5q0 -145 -37 -257t-120 -181.5t-204 -69.5q-79 0 -154.5 33t-111.5 86q-8 -53 -26.5 -76.5t-59.5 -23.5q-27 0 -44 12 t-25 37t-10.5 51t-2.5 66zM301 209q37 -35 94.5 -57.5t112.5 -22.5q115 0 177.5 94.5t62.5 257.5q0 166 -59.5 268.5t-174.5 102.5q-74 0 -129.5 -27.5t-83.5 -76.5v-539z" />
<glyph unicode="c" horiz-adv-x="952" d="M90 498q0 227 116 368.5t310 141.5q99 0 184.5 -43.5t128.5 -120.5q25 -42 25 -76q0 -35 -24.5 -58.5t-57.5 -23.5q-48 0 -76 47q-15 24 -21.5 33.5t-24.5 29.5t-34.5 29t-45 17t-62.5 8q-108 0 -177 -94t-69 -258q0 -167 70 -266t180 -99q39 0 68.5 9t50 27.5t31 33 t24.5 39.5q29 53 82 53q31 0 55.5 -23.5t24.5 -56.5q0 -64 -51 -115q-51 -56 -126 -89.5t-159 -33.5q-194 0 -308 144t-114 377z" />
<glyph unicode="d" horiz-adv-x="1040" d="M90 496q0 85 13.5 160t42 139.5t70.5 111t102 73t133 26.5q76 0 157 -38.5t115 -88.5v532q0 36 25 61t61 25t61 -25t25 -61v-1155q0 -43 12.5 -105t12.5 -79q0 -39 -19.5 -59.5t-52.5 -20.5q-86 0 -115 133q-35 -62 -106.5 -105t-173.5 -43q-91 0 -161.5 41t-114 113.5 t-65.5 164.5t-22 200zM264 500q0 -166 59.5 -268.5t174.5 -102.5q81 0 141.5 35t83.5 94v502q-37 40 -99 66t-120 26q-116 0 -178 -94.5t-62 -257.5z" />
<glyph unicode="e" horiz-adv-x="1013" d="M98 498q0 226 114 368t300 142q190 0 292.5 -127.5t102.5 -331.5q0 -38 -24.5 -62t-67.5 -24h-541q3 -152 69 -241t183 -89q123 0 195 111q25 41 72 41q36 0 60 -24.5t24 -57.5q0 -26 -23 -58q-60 -79 -149 -124.5t-193 -45.5q-189 0 -301.5 145.5t-112.5 377.5zM276 590 h455q-6 123 -63.5 191.5t-157.5 68.5q-96 0 -159.5 -72t-74.5 -188z" />
<glyph unicode="f" horiz-adv-x="727" d="M43 909q0 31 21 53.5t55 22.5h100v201q0 146 70 226.5t200 80.5q34 0 66 -5t63 -16.5t49.5 -35t18.5 -56.5q0 -31 -23.5 -51t-52.5 -20q-22 0 -51.5 15t-60.5 15q-56 0 -80.5 -39t-24.5 -122v-193h148q34 0 54.5 -22.5t20.5 -53.5q0 -30 -20.5 -50.5t-54.5 -20.5h-148 v-713q0 -65 -17.5 -99t-70.5 -34q-29 0 -47 9.5t-26 29.5t-10.5 40.5t-2.5 53.5v713h-100q-34 0 -55 21t-21 50z" />
<glyph unicode="g" horiz-adv-x="1011" d="M88 541q0 135 37 237.5t119 165t202 62.5q73 0 153 -35.5t116 -85.5q4 49 20.5 75.5t59.5 26.5q29 0 48 -11.5t27 -34t10.5 -43.5t2.5 -54v-846q0 -201 -97.5 -324t-275.5 -123q-92 0 -178.5 31.5t-124.5 85.5q-29 42 -29 74q0 34 23.5 59t58.5 25q46 0 84 -45 q62 -70 174 -70q96 0 145.5 70.5t49.5 189.5v211q-38 -51 -106 -86t-158 -35q-92 0 -163 37.5t-113.5 104t-63.5 151.5t-21 187zM262 545q0 -150 59.5 -241t174.5 -91q156 0 217 106v449q-38 38 -96 61t-115 23q-116 0 -178 -80.5t-62 -226.5z" />
<glyph unicode="h" horiz-adv-x="1064" d="M158 74v1337q0 35 25.5 60.5t60.5 25.5q37 0 62.5 -25.5t25.5 -60.5v-510q88 107 258 107q141 0 226 -109t85 -289v-354q0 -44 11.5 -106t11.5 -78q0 -35 -25.5 -57.5t-62.5 -22.5q-35 0 -58 23t-33.5 65t-14 81.5t-3.5 92.5v369q0 96 -46.5 164.5t-141.5 68.5 q-75 0 -128.5 -26t-78.5 -72v-684q0 -35 -25.5 -58.5t-62.5 -23.5q-36 0 -61 23.5t-25 58.5z" />
<glyph unicode="i" horiz-adv-x="507" d="M150 1292q0 39 27.5 66.5t68.5 27.5q40 0 68 -28t28 -66q-2 -40 -29 -67t-67 -27q-41 0 -68.5 27t-27.5 67zM160 254v641q0 41 23.5 69.5t62.5 28.5q37 0 61.5 -24.5t24.5 -59.5v-653q0 -43 11 -102.5t11 -79.5q0 -35 -24.5 -58.5t-61.5 -23.5q-34 0 -57 22t-33.5 63.5 t-14 81.5t-3.5 95z" />
<glyph unicode="j" horiz-adv-x="548" d="M-35 -334q0 34 20 54t46 20q19 0 50 -14.5t56 -14.5q47 0 62.5 41.5t15.5 132.5v1024q0 35 25.5 59.5t62.5 24.5q35 0 60.5 -24.5t25.5 -59.5v-1038q0 -320 -242 -320q-28 0 -69.5 11t-59.5 22q-53 31 -53 82zM205 1292q0 39 28.5 66.5t69.5 27.5q40 0 68 -28t28 -66 q-2 -40 -29 -67t-67 -27q-41 0 -69.5 27t-28.5 67z" />
<glyph unicode="k" horiz-adv-x="958" d="M168 76v1335q0 37 23.5 61.5t64.5 24.5q35 0 60.5 -25.5t25.5 -60.5v-848h135l240 383q28 47 74 47q33 0 56 -22.5t23 -55.5q0 -21 -16 -45l-229 -354l256 -387q20 -27 20 -55q0 -35 -26.5 -58.5t-63.5 -23.5q-52 0 -86 53l-246 385h-137v-354q0 -35 -23 -59.5t-63 -24.5 t-64 24t-24 60z" />
<glyph unicode="l" horiz-adv-x="495" d="M160 254v1157q0 35 25.5 60.5t60.5 25.5q36 0 61 -25t25 -61v-1155q0 -43 12 -105t12 -79q0 -35 -25.5 -57.5t-62.5 -22.5q-35 0 -58 22t-33 63.5t-13.5 81t-3.5 95.5z" />
<glyph unicode="m" horiz-adv-x="1540" d="M104 911q0 32 21 55t55 23q78 0 105 -119q98 136 252 136q89 0 154.5 -46.5t101.5 -130.5q42 84 118.5 131.5t161.5 47.5q142 0 221.5 -109.5t79.5 -288.5v-354q0 -51 11.5 -108t10.5 -74q0 -35 -24.5 -58.5t-60.5 -23.5q-29 0 -50 13t-32.5 32.5t-18 50t-8.5 58.5t-2 65 v412q0 47 -8 85.5t-25.5 73.5t-51.5 54.5t-81 19.5q-135 0 -207 -149q9 -61 9 -89v-364q0 -39 3 -97t3 -83q0 -35 -25.5 -58.5t-62.5 -23.5q-44 0 -68 33.5t-24 113.5v484q0 47 -8 85.5t-26 73.5t-52 54.5t-82 19.5q-138 0 -193 -121v-661q0 -34 -25.5 -58t-60.5 -24 q-29 0 -48 12t-27 36t-10.5 45.5t-2.5 55.5v584q0 44 -11.5 103t-11.5 83z" />
<glyph unicode="n" horiz-adv-x="1036" d="M104 909q0 35 23 59.5t63 24.5q34 0 59 -33t36 -90q99 138 274 138q142 0 226.5 -108.5t84.5 -289.5v-354q0 -45 11.5 -106t12.5 -78q0 -33 -27 -55.5t-62 -22.5t-58 23t-33.5 65t-14 81.5t-3.5 90.5v369q0 91 -47.5 162t-140.5 71q-70 0 -125 -30.5t-82 -90.5v-661 q0 -34 -25.5 -58t-60.5 -24q-29 0 -48 12t-27 36t-10.5 45.5t-2.5 55.5v584q0 57 -11.5 112t-11.5 72z" />
<glyph unicode="o" horiz-adv-x="1034" d="M86 498q0 227 115 368.5t317 141.5q133 0 231 -66t147.5 -181t49.5 -263q0 -152 -49.5 -269.5t-147.5 -185.5t-231 -68q-202 0 -317 145t-115 378zM260 498q0 -160 68.5 -259.5t189.5 -99.5q119 0 187.5 100t68.5 259q0 153 -68.5 249.5t-187.5 96.5q-121 0 -189.5 -96 t-68.5 -250z" />
<glyph unicode="p" horiz-adv-x="1024" d="M104 911q0 35 25 58.5t61 23.5q26 0 44 -11t28.5 -33.5t15.5 -41.5t11 -51q36 61 106 102t176 41q92 0 162.5 -40.5t113.5 -112t65 -163t22 -198.5q0 -143 -37 -255t-120 -182.5t-202 -70.5q-84 0 -162 35.5t-112 89.5v-458q0 -35 -25.5 -60.5t-62.5 -25.5 q-35 0 -60.5 25.5t-25.5 60.5v1081q0 40 -11.5 102.5t-11.5 83.5zM301 221q37 -40 98 -65t121 -25q115 0 177.5 94t62.5 256q0 166 -60 268.5t-174 102.5q-83 0 -143 -35t-82 -94v-502z" />
<glyph unicode="q" horiz-adv-x="1013" d="M90 496q0 86 13 160t41 138t70 109.5t103.5 71.5t137.5 26t150 -32t112 -84q6 43 29.5 74.5t50.5 31.5q61 0 74.5 -45t13.5 -219v-1083q0 -35 -25.5 -60.5t-62.5 -25.5q-35 0 -60.5 25.5t-25.5 60.5v446q-38 -50 -106 -82.5t-154 -32.5q-92 0 -163 43t-113.5 117 t-63.5 165.5t-21 195.5zM264 500q0 -166 59.5 -268.5t174.5 -102.5q74 0 129.5 27.5t83.5 76.5v537q-37 37 -94 59.5t-113 22.5q-115 0 -177.5 -94.5t-62.5 -257.5z" />
<glyph unicode="r" horiz-adv-x="753" d="M104 911q0 31 25 53.5t55 22.5q42 0 71 -41t34 -92q55 75 125.5 114.5t146.5 39.5q80 0 124 -31.5t44 -79.5q0 -33 -25.5 -55.5t-58.5 -22.5q-34 0 -77.5 9.5t-82.5 9.5q-47 0 -101.5 -29.5t-82.5 -83.5v-600q0 -133 -86 -133q-51 0 -69.5 35.5t-18.5 99.5v598 q0 41 -11.5 101t-11.5 85z" />
<glyph unicode="s" horiz-adv-x="897" d="M86 211q0 33 22.5 54.5t53.5 21.5q49 0 76 -39q33 -53 86 -87t114 -34q77 0 130 38t53 101q0 88 -101 131q-33 13 -90.5 32.5t-94.5 32t-83 37.5t-72.5 52.5t-45.5 73.5t-19 104q0 89 47 154t120 95t162 30q216 0 295 -129q27 -44 27 -78q0 -31 -23.5 -54.5t-54.5 -23.5 q-19 0 -42 12t-30 25q-56 100 -186 100q-57 0 -102 -35.5t-45 -83.5q0 -41 28 -70t73 -47t99.5 -34t109 -38t99.5 -52.5t73 -84t28 -126.5q0 -148 -101 -230t-262 -82q-98 0 -191 47.5t-137 122.5q-16 27 -16 64z" />
<glyph unicode="t" horiz-adv-x="722" d="M45 911q0 29 21.5 51.5t54.5 22.5h100v189q0 46 23.5 69t64.5 23q86 0 86 -92v-189h174q28 0 52 -22.5t24 -51.5q0 -30 -21 -51.5t-55 -21.5h-174v-512q0 -109 20 -152t64 -43q22 0 51.5 14.5t53.5 14.5q31 0 52 -18t21 -54q0 -59 -54.5 -85t-131.5 -26q-139 0 -194.5 90 t-55.5 269v502h-100q-32 0 -54 20t-22 53z" />
<glyph unicode="u" horiz-adv-x="1050" d="M158 373v536q0 35 25.5 59.5t60.5 24.5q37 0 62.5 -24.5t25.5 -59.5v-544q0 -109 51 -166.5t152 -57.5q196 0 196 219v549q0 35 25.5 59.5t60.5 24.5t60.5 -24.5t25.5 -59.5v-538q0 -396 -368 -396q-107 0 -184 34t-117.5 93t-58 125.5t-17.5 145.5z" />
<glyph unicode="v" horiz-adv-x="849" d="M27 907q0 37 26 61.5t64 24.5q62 0 88 -75l223 -648l229 666q9 26 30.5 41.5t49.5 15.5q35 0 59.5 -23t24.5 -57q0 -17 -6 -32l-303 -832q-10 -27 -33 -43t-51 -16q-62 0 -84 59l-307 815q-10 30 -10 43z" />
<glyph unicode="w" horiz-adv-x="1353" d="M31 909q0 36 24 60t62 24q30 0 53.5 -17t32.5 -48l194 -654l199 662q8 25 29.5 41t50.5 16q64 0 80 -57l209 -662l198 664q8 25 29 40t49 15q36 0 59 -23t23 -57q0 -16 -4 -28l-281 -836q-19 -59 -77 -59q-59 0 -78 59l-207 649l-201 -649q-16 -59 -78 -59q-59 0 -78 59 l-280 815q-8 24 -8 45z" />
<glyph unicode="x" horiz-adv-x="817" d="M33 66q0 24 14 45l262 395l-231 348q-17 24 -17 51q0 37 25.5 62.5t63.5 25.5q50 0 75 -39l191 -303l186 295q28 47 72 47q34 0 57 -22t23 -53q0 -24 -17 -48l-229 -354l256 -385q20 -27 20 -57q0 -35 -26 -59.5t-64 -24.5q-49 0 -76 41l-219 342l-215 -342 q-26 -41 -71 -41q-34 0 -57 22t-23 54z" />
<glyph unicode="y" horiz-adv-x="843" d="M14 907q0 35 25.5 60.5t64.5 25.5q36 0 55 -17t31 -50l226 -656l229 666q8 25 29.5 41t50.5 16q34 0 59 -24t25 -58q0 -18 -6 -30l-387 -1057q-51 -138 -111 -203q-57 -63 -119 -63q-42 0 -65 21.5t-23 51.5q0 28 16.5 49t51.5 48q24 19 52 64t50 104l60 161l-303 805 q-11 33 -11 45z" />
<glyph unicode="z" horiz-adv-x="888" d="M78 901q0 35 25.5 59.5t60.5 24.5h528q36 0 62 -25t26 -59q0 -25 -16 -49l-451 -688h412q35 0 59.5 -24.5t24.5 -59.5t-24 -57.5t-60 -22.5h-555q-36 0 -61 23.5t-25 58.5q0 28 18 53l451 686h-389q-35 0 -60.5 23t-25.5 57z" />
<glyph unicode="{" horiz-adv-x="653" d="M74 604q0 24 16 42t41 26q64 21 82 108.5t18 272.5q0 93 6 158.5t21 114t35.5 77.5t55.5 46.5t75.5 23.5t99.5 6q28 0 49 -21.5t21 -50.5q0 -26 -21 -46t-49 -20q-78 0 -110 -24.5t-35 -106.5q-2 -57 -4 -166.5t-4 -160.5q-12 -207 -117 -279q106 -75 117 -280 q2 -50 4 -160.5t4 -167.5q3 -81 35 -105t110 -24q28 0 49 -20t21 -46q0 -29 -21 -50t-49 -21q-80 0 -130 13t-89.5 50.5t-56.5 107t-17 179.5q0 221 -18 327.5t-82 127.5q-24 8 -40.5 26.5t-16.5 42.5z" />
<glyph unicode="|" horiz-adv-x="468" d="M160 -362v1804q0 29 22 51.5t51 22.5q31 0 53.5 -22.5t22.5 -51.5v-1804q0 -29 -22.5 -50.5t-53.5 -21.5q-29 0 -51 21.5t-22 50.5z" />
<glyph unicode="}" horiz-adv-x="653" d="M57 -199q0 26 22 46t50 20q77 0 108.5 24t34.5 105q1 35 2.5 103t2.5 96.5t4 82.5t6.5 78t9.5 64t15 60.5t21 47t28.5 44t37.5 32.5q-19 13 -34 30.5t-27 34.5t-21 44t-15 47.5t-10.5 58t-7 61.5t-4.5 72t-3 77t-2.5 88t-2.5 93q-3 82 -34.5 106.5t-108.5 24.5 q-28 0 -50 20t-22 46q0 29 22 50.5t50 21.5q78 0 128.5 -13.5t90 -51t57 -107.5t17.5 -179q0 -75 1 -119.5t4 -101t9.5 -89.5t17 -66.5t27.5 -52t41 -27.5q25 -8 41.5 -26t16.5 -42t-16.5 -42.5t-41.5 -26.5q-65 -21 -82.5 -105t-17.5 -262q0 -115 -9.5 -190t-28 -125.5 t-55 -76.5t-82.5 -36t-118 -10q-28 0 -50 21t-22 50z" />
<glyph unicode="~" d="M170 524q0 36 25 68q88 113 219 113q38 0 80 -17.5t73 -39t67 -39t64 -17.5q31 0 56 17t38 37t35.5 37t49.5 17q26 0 45.5 -19.5t19.5 -47.5q0 -37 -24 -68q-88 -112 -220 -112q-39 0 -82.5 17.5t-74.5 38.5t-66 38.5t-61 17.5q-31 0 -55.5 -17t-38 -37t-35.5 -37 t-49 -17q-26 0 -46 19.5t-20 47.5z" />
<glyph unicode="&#xa1;" horiz-adv-x="831" d="M303 1065q0 46 33.5 78.5t79.5 32.5t78 -32.5t32 -78.5q0 -45 -32 -77t-78 -32t-79.5 32.5t-33.5 76.5zM313 -209l25 952q2 31 24 52.5t54 21.5q31 0 52.5 -21.5t23.5 -52.5l26 -952q0 -41 -30.5 -70.5t-71.5 -29.5q-43 0 -73 29.5t-30 70.5z" />
<glyph unicode="&#xa2;" d="M174 709q0 197 93 336t251 169v123q0 30 23 53t53 23t53 -23t23 -53v-118q96 -15 182 -81.5t86 -146.5q0 -29 -26 -47t-58 -18q-48 0 -61 43q-17 47 -75 79.5t-126 32.5q-118 0 -194 -104.5t-76 -267.5q0 -169 76 -278t196 -109q81 0 131 38q10 10 32 45t45.5 57.5 t51.5 22.5q31 0 53.5 -21.5t22.5 -49.5q0 -71 -84 -140.5t-176 -89.5v-121q0 -29 -23 -50t-53 -21q-31 0 -53.5 21t-22.5 50v123q-160 32 -252 174.5t-92 348.5z" />
<glyph unicode="&#xa3;" d="M111 61q0 36 38.5 64.5t86.5 40.5q42 195 49 457h-64q-26 0 -48.5 23.5t-22.5 49.5q0 27 22 49.5t49 22.5h64q2 60 4.5 101.5t9 99.5t15 99t24 90.5t35.5 83.5t49.5 68t66 54.5t86 33.5t107.5 13q101 0 192 -65t91 -158q0 -31 -23.5 -49.5t-56.5 -18.5q-23 0 -41.5 12 t-22.5 33q-25 99 -155 99q-54 0 -92.5 -20.5t-63 -56.5t-40 -100.5t-23.5 -137t-13 -181.5h246q27 0 51.5 -24t24.5 -48q0 -28 -23.5 -50.5t-52.5 -22.5h-250q-7 -304 -47 -439q123 0 234 -23.5t163 -23.5q37 0 82 11.5t62 11.5q34 0 55.5 -23t21.5 -55q0 -27 -26 -46 t-68.5 -28t-83 -12.5t-84.5 -3.5q-80 0 -187.5 25.5t-174.5 25.5q-56 0 -113 -25.5t-76 -25.5q-33 0 -55 19.5t-22 49.5z" />
<glyph unicode="&#xa4;" horiz-adv-x="1196" d="M94 270q0 35 21 56l145 143q-45 109 -45 233q0 125 45 234l-145 143q-21 21 -21 56q0 29 22 51t52 22q33 0 55 -22l123 -125q102 102 254 102t254 -102l123 125q22 22 55 22q30 0 52 -22t22 -51q0 -35 -21 -56l-145 -143q45 -109 45 -234q0 -124 -45 -233l145 -143 q21 -21 21 -56q0 -30 -22 -51.5t-52 -21.5q-33 0 -55 22l-123 125q-102 -102 -254 -102t-254 102l-123 -125q-22 -22 -55 -22q-30 0 -52 21.5t-22 51.5zM356 702q0 -142 64.5 -232.5t179.5 -90.5t179.5 90.5t64.5 232.5t-64.5 233t-179.5 91t-179.5 -91t-64.5 -233z" />
<glyph unicode="&#xa5;" d="M92 1339q0 29 22.5 51.5t51.5 22.5q42 0 67 -47l322 -561l324 563q25 45 67 45q29 0 51.5 -22.5t22.5 -51.5q0 -19 -10 -36l-369 -621h207q29 0 50.5 -21t21.5 -49q0 -29 -21.5 -50t-50.5 -21h-221v-129h221q29 0 50.5 -21t21.5 -49q0 -29 -21.5 -49.5t-50.5 -20.5h-221 v-209q0 -28 -22.5 -49.5t-51.5 -21.5t-51.5 21.5t-22.5 49.5v209h-215q-29 0 -50 20.5t-21 49.5q0 28 21 49t50 21h215v129h-215q-29 0 -50 21t-21 50q0 28 21 49t50 21h201l-363 618q-10 20 -10 39z" />
<glyph unicode="&#xa6;" horiz-adv-x="468" d="M160 319q0 29 22 51.5t51 22.5q31 0 53.5 -22.5t22.5 -51.5v-665q0 -29 -22.5 -50.5t-53.5 -21.5q-29 0 -51 21.5t-22 50.5v665zM160 758v663q0 29 22 51.5t51 22.5q31 0 53.5 -22.5t22.5 -51.5v-663q0 -29 -22.5 -51.5t-53.5 -22.5q-29 0 -51 22.5t-22 51.5z" />
<glyph unicode="&#xa7;" horiz-adv-x="1140" d="M219 215q0 35 23.5 58.5t60.5 23.5q51 0 72 -47q55 -123 200 -123q34 0 73 15.5t70.5 49t31.5 76.5q0 49 -28 78.5t-81 52.5q-33 13 -89 31.5t-92 30.5t-80.5 35.5t-70 50.5t-43.5 72.5t-18 103.5q0 148 129 221q-131 70 -131 219q0 133 90.5 206t234.5 73 q84 0 155.5 -23t118 -71.5t46.5 -114.5q0 -34 -23.5 -58t-58.5 -24q-62 0 -80 55q-33 90 -170 90q-61 0 -104 -33t-43 -85q0 -42 28 -71.5t72.5 -46.5t98.5 -32t108 -36t98.5 -51.5t72.5 -85.5t28 -130q0 -151 -117 -225q62 -35 90.5 -83.5t28.5 -127.5q0 -146 -100 -229 t-261 -83q-79 0 -157.5 31.5t-130.5 87.5t-52 119zM406 737q0 -27 11.5 -49t28.5 -36.5t47 -28.5t55 -22.5t66 -22t68 -23.5q74 53 74 147q0 31 -15 56.5t-33 41.5t-57.5 33.5t-62.5 25.5t-74 24q-48 -15 -78 -54.5t-30 -91.5z" />
<glyph unicode="&#xa8;" horiz-adv-x="542" d="M29 1305q0 32 23 53.5t57 21.5q32 0 54.5 -21.5t22.5 -53.5q0 -34 -22.5 -57t-54.5 -23q-34 0 -57 23t-23 57zM354 1305q0 32 22.5 53.5t55.5 21.5q34 0 57 -21.5t23 -53.5q0 -34 -23 -57t-57 -23q-32 0 -55 23t-23 57z" />
<glyph unicode="&#xaa;" horiz-adv-x="778" d="M104 780q0 60 20 103t49.5 65t74 36t83.5 18.5t88 11t77 14.5v86q0 56 -25 79.5t-78 23.5q-33 0 -57.5 -11t-39 -26.5t-27 -31.5t-28.5 -27t-36 -11q-31 0 -50.5 20.5t-19.5 49.5q0 76 77 128t177 52q60 0 103.5 -11t79 -38t53.5 -77.5t18 -125.5v-352q0 -27 16.5 -54 t16.5 -38q0 -28 -19 -48t-47 -20q-46 0 -65 21.5t-29 58.5q-78 -94 -199 -94q-98 0 -155.5 50.5t-57.5 147.5zM248 793q0 -82 96 -82q102 0 154 88v129q-19 -7 -69 -15.5t-85.5 -16.5t-65.5 -34.5t-30 -68.5z" />
<glyph unicode="&#xab;" horiz-adv-x="1124" d="M201 555l213 352q23 31 57 31q26 0 46 -20t20 -46q0 -18 -11 -36l-157 -281l157 -279q11 -18 11 -36q0 -26 -20 -46t-46 -20q-38 0 -57 31zM557 555l213 352q19 31 55 31q28 0 48 -20t20 -46q0 -19 -10 -36l-160 -281l160 -279q10 -17 10 -36q0 -26 -20 -46t-48 -20 q-36 0 -55 31z" />
<glyph unicode="&#xac;" d="M133 582q0 29 22.5 51t51.5 22h696q31 0 53.5 -22t22.5 -51v-299q0 -31 -22.5 -52.5t-53.5 -21.5q-30 0 -52 22t-22 52v225h-622q-29 0 -51.5 22.5t-22.5 51.5z" />
<glyph unicode="&#xad;" horiz-adv-x="0" />
<glyph unicode="&#xaf;" horiz-adv-x="534" d="M29 1284q0 26 20.5 47t48.5 21h338q28 0 49 -21t21 -47t-21 -46.5t-49 -20.5h-338q-28 0 -48.5 20.5t-20.5 46.5z" />
<glyph unicode="&#xb0;" horiz-adv-x="675" d="M96 1163q0 114 69.5 190.5t172.5 76.5q102 0 171 -76.5t69 -190.5q0 -115 -69 -189.5t-171 -74.5q-103 0 -172.5 74.5t-69.5 189.5zM201 1163q0 -72 38 -117t99 -45q60 0 97.5 45t37.5 117t-37.5 116t-99.5 44q-61 0 -98 -44t-37 -116z" />
<glyph unicode="&#xb1;" d="M133 -61q0 29 22.5 51t51.5 22h696q31 0 53.5 -22t22.5 -51t-22.5 -51.5t-53.5 -22.5h-696q-29 0 -51.5 22.5t-22.5 51.5zM133 582q0 29 22.5 51t51.5 22h274v275q0 30 22 52t52 22q29 0 51.5 -22.5t22.5 -51.5v-275h274q31 0 53.5 -22t22.5 -51t-22.5 -51.5t-53.5 -22.5 h-274v-275q0 -31 -22.5 -53t-51.5 -22q-31 0 -52.5 22t-21.5 53v275h-274q-29 0 -51.5 22.5t-22.5 51.5z" />
<glyph unicode="&#xb2;" horiz-adv-x="733" d="M102 666q0 12 13 34q75 98 252 291q118 134 118 230q0 64 -33 100.5t-96 36.5q-106 0 -123 -119q-5 -20 -19.5 -33.5t-33.5 -13.5q-20 0 -36.5 16.5t-16.5 36.5q0 88 68.5 151.5t160.5 63.5q103 0 171.5 -64.5t68.5 -172.5q0 -52 -21.5 -106t-62 -108t-78.5 -97 t-93 -101.5t-83 -91.5h317q22 0 39 -14.5t17 -38.5q0 -22 -17.5 -37t-38.5 -15h-409q-26 0 -45 14.5t-19 37.5z" />
<glyph unicode="&#xb3;" horiz-adv-x="733" d="M115 797q0 22 16 38.5t39 16.5q18 0 31.5 -10.5t17.5 -28.5q18 -57 51 -84t90 -27q67 0 109.5 41.5t42.5 118.5q0 71 -54 110.5t-130 39.5q-19 0 -35.5 15.5t-16.5 35.5q0 22 19 36.5t43 14.5q70 0 109.5 31t39.5 94q0 57 -38.5 89t-92.5 32q-47 0 -80 -22t-40 -62 q-3 -19 -18 -32t-36 -13t-38 16t-17 39q0 22 14 53q30 58 84 89.5t121 31.5q103 0 175.5 -57t72.5 -160q0 -69 -38 -116.5t-97 -63.5q69 -18 114 -75t45 -136q0 -112 -77.5 -182t-186.5 -70q-91 0 -165 57t-74 140z" />
<glyph unicode="&#xb4;" horiz-adv-x="413" d="M25 1165q0 28 22 47l219 197q21 18 47 18q27 0 46.5 -18.5t19.5 -44.5q0 -24 -27 -45l-235 -191q-17 -14 -41 -14q-21 0 -36 15t-15 36z" />
<glyph unicode="&#xb5;" d="M174 -369v1291q0 31 21 51t53 20q30 0 50.5 -20.5t20.5 -50.5v-711q39 -45 97 -71.5t123 -26.5q213 0 213 243v566q0 31 21 51t52 20q28 0 49 -20.5t21 -50.5v-742q0 -31 22.5 -68.5t22.5 -52.5q0 -13 -28 -37t-50 -24q-32 0 -59 31t-31 75q-66 -129 -233 -129 q-60 0 -122.5 27.5t-97.5 75.5v-447q0 -31 -21 -52t-50 -21q-32 0 -53 21t-21 52z" />
<glyph unicode="&#xb6;" horiz-adv-x="1083" d="M129 1024v90q0 299 225 299h500q22 0 36.5 -14.5t14.5 -32.5v-1311q0 -65 -71 -65q-72 0 -72 65v1219h-197v-1219q0 -31 -19 -48t-54 -17q-68 0 -68 65v672h-70q-225 0 -225 297z" />
<glyph unicode="&#xb7;" horiz-adv-x="600" d="M188 582q0 44 33.5 76t79.5 32t78.5 -32t32.5 -76q0 -46 -32.5 -78.5t-78.5 -32.5t-79.5 32.5t-33.5 78.5z" />
<glyph unicode="&#xb8;" horiz-adv-x="233" d="M29 -125q0 34 23.5 60t62.5 26q79 0 88 -100v-47q0 -84 -32.5 -169t-74.5 -85q-19 0 -28 10t-9 24v7q0 22 14.5 68t14.5 77q0 25 -2 39q-27 12 -42 36.5t-15 53.5z" />
<glyph unicode="&#xb9;" horiz-adv-x="733" d="M162 1278q0 33 39 49q37 13 71.5 41t53.5 59q22 33 51 33q24 0 41.5 -16t17.5 -39v-743q0 -20 -16.5 -36t-38.5 -16q-21 0 -37 16t-16 36v624q-33 -30 -82 -53q-13 -8 -33 -8t-35.5 16.5t-15.5 36.5z" />
<glyph unicode="&#xba;" horiz-adv-x="839" d="M80 975q0 172 86 279.5t240 107.5q152 0 239.5 -108t87.5 -279q0 -174 -87.5 -283.5t-239.5 -109.5q-154 0 -240 109t-86 284zM227 975q0 -112 47.5 -183t131.5 -71t131 71t47 183q0 109 -47 177.5t-131 68.5t-131.5 -68.5t-47.5 -177.5z" />
<glyph unicode="&#xbb;" horiz-adv-x="1124" d="M231 240q0 18 11 36l157 279l-157 281q-11 18 -11 36q0 26 20 46t46 20q34 0 57 -31l213 -352l-213 -350q-19 -31 -57 -31q-26 0 -46 20t-20 46zM586 240q0 19 10 36l160 279l-160 281q-10 17 -10 36q0 26 20 46t47 20q37 0 56 -31l213 -352l-213 -350q-19 -31 -56 -31 q-27 0 -47 20t-20 46z" />
<glyph unicode="&#xbc;" horiz-adv-x="1585" d="M16 1278q0 33 39 49q37 13 71.5 41t53.5 59q22 33 51 33q24 0 42 -16t18 -39v-743q0 -20 -16.5 -36t-38.5 -16t-38 16t-16 36v624q-33 -30 -82 -53q-13 -8 -32 -8q-20 0 -36 16.5t-16 36.5zM369 -8q0 14 4 24l692 1397q13 31 47 31q20 0 35.5 -14t15.5 -37q0 -14 -8 -27 l-688 -1393q-13 -30 -47 -30q-20 0 -35.5 13.5t-15.5 35.5zM889 119q0 17 8 33l295 546q12 25 45 25q21 0 37 -15t16 -36q0 -14 -8 -25l-264 -485h233v162q0 22 15 37.5t37 15.5q21 0 36 -15t15 -36v-164h61q18 0 31.5 -14.5t13.5 -34.5q0 -19 -14 -33t-31 -14h-61v-144 q0 -20 -15.5 -35.5t-35.5 -15.5t-36 15.5t-16 35.5v144h-309q-25 0 -39 15t-14 38z" />
<glyph unicode="&#xbd;" horiz-adv-x="1589" d="M4 1278q0 33 39 49q37 13 71.5 41t53.5 59q22 33 51 33q24 0 42 -16t18 -39v-743q0 -20 -17 -36t-39 -16q-21 0 -37 16t-16 36v624q-33 -30 -82 -53q-13 -8 -33 -8t-35.5 16.5t-15.5 36.5zM365 -8q0 14 4 24l692 1397q13 31 47 31q20 0 35.5 -14t15.5 -37q0 -14 -8 -27 l-688 -1393q-13 -30 -47 -30q-20 0 -35.5 13.5t-15.5 35.5zM948 -72q0 13 13 35q81 105 251 291q119 136 119 229q0 65 -33 101.5t-96 36.5q-106 0 -123 -119q-5 -20 -19.5 -33.5t-33.5 -13.5q-20 0 -36.5 16.5t-16.5 36.5q0 88 68.5 151.5t160.5 63.5q103 0 171.5 -65 t68.5 -173q0 -52 -21.5 -106t-62 -108t-78.5 -97t-93 -101t-83 -91h317q22 0 39 -15t17 -39q0 -22 -17 -36.5t-39 -14.5h-409q-26 0 -45 14.5t-19 36.5z" />
<glyph unicode="&#xbe;" horiz-adv-x="1587" d="M100 797q0 22 16.5 38.5t39.5 16.5q18 0 31.5 -10.5t17.5 -28.5q18 -57 51 -84t90 -27q67 0 109.5 41.5t42.5 118.5q0 71 -54.5 110.5t-130.5 39.5q-19 0 -35 15.5t-16 35.5q0 22 19 36.5t43 14.5q70 0 109.5 31t39.5 94q0 57 -38.5 89t-92.5 32q-47 0 -80.5 -22 t-40.5 -62q-3 -19 -17.5 -32t-35.5 -13t-38 16t-17 39q0 22 14 53q30 58 84 89.5t121 31.5q103 0 175.5 -57t72.5 -160q0 -69 -38.5 -116.5t-97.5 -63.5q69 -18 114.5 -75t45.5 -136q0 -112 -77.5 -182t-186.5 -70q-91 0 -165.5 57t-74.5 140zM434 -8q0 14 4 24l692 1397 q13 31 48 31q20 0 35.5 -14t15.5 -37q0 -14 -8 -27l-689 -1393q-13 -30 -47 -30q-20 0 -35.5 13.5t-15.5 35.5zM946 119q0 17 8 33l295 546q13 25 45 25q21 0 37.5 -15t16.5 -36q0 -13 -9 -25l-264 -485h234v162q0 22 14.5 37.5t36.5 15.5q21 0 36 -15t15 -36v-164h62 q18 0 31.5 -14.5t13.5 -34.5q0 -19 -14 -33t-31 -14h-62v-144q0 -20 -15.5 -35.5t-35.5 -15.5t-35.5 15.5t-15.5 35.5v144h-310q-25 0 -39 15t-14 38z" />
<glyph unicode="&#xbf;" horiz-adv-x="1058" d="M147 49q0 60 13.5 112t41.5 97.5t52.5 75.5t64.5 72q79 82 108.5 146.5t29.5 178.5q0 98 80 98q88 0 88 -98q0 -117 -35 -212t-119 -189q-38 -43 -57 -66.5t-44 -61.5t-35.5 -74t-10.5 -77q0 -80 51.5 -133t132.5 -53q87 0 147 37q8 5 32 22.5t44.5 28t38.5 10.5 q33 0 57.5 -22.5t24.5 -55.5q0 -55 -49 -98q-49 -41 -129.5 -67.5t-149.5 -26.5q-164 0 -270.5 94t-106.5 262zM426 1077q0 46 32.5 77.5t78.5 31.5t79 -32t33 -77q0 -44 -33 -76t-79 -32t-78.5 32t-32.5 76z" />
<glyph unicode="&#xc0;" horiz-adv-x="1093" d="M16 76q0 9 9 41l438 1265q8 25 32 42.5t52 17.5q29 0 54 -17.5t34 -42.5l436 -1267q6 -18 6 -37q0 -35 -26.5 -61.5t-61.5 -26.5q-29 0 -53 17t-33 44l-98 287h-522l-97 -289q-8 -25 -31.5 -42t-52.5 -17q-34 0 -60 25.5t-26 60.5zM309 1819q0 26 19.5 44.5t46.5 18.5 t45 -18l221 -197q23 -23 23 -47q0 -21 -15.5 -36t-38.5 -15q-22 0 -39 14l-237 191q-25 22 -25 45zM336 502h418l-211 620z" />
<glyph unicode="&#xc1;" horiz-adv-x="1093" d="M16 76q0 9 9 41l438 1265q8 25 32 42.5t52 17.5q29 0 54 -17.5t34 -42.5l436 -1267q6 -18 6 -37q0 -35 -26.5 -61.5t-61.5 -26.5q-29 0 -53 17t-33 44l-98 287h-522l-97 -289q-8 -25 -31.5 -42t-52.5 -17q-34 0 -60 25.5t-26 60.5zM336 502h418l-211 620zM426 1620 q0 27 23 47l219 197q21 18 47 18t45.5 -18.5t19.5 -44.5q0 -25 -26 -45l-236 -191q-17 -14 -41 -14q-21 0 -36 15t-15 36z" />
<glyph unicode="&#xc2;" horiz-adv-x="1093" d="M16 76q0 9 9 41l438 1265q8 25 32 42.5t52 17.5q29 0 54 -17.5t34 -42.5l436 -1267q6 -18 6 -37q0 -35 -26.5 -61.5t-61.5 -26.5q-29 0 -53 17t-33 44l-98 287h-522l-97 -289q-8 -25 -31.5 -42t-52.5 -17q-34 0 -60 25.5t-26 60.5zM322 1616q0 16 10 33l106 161 q24 37 46.5 54.5t60.5 17.5q27 0 48 -11.5t30.5 -23t27.5 -37.5l109 -161q10 -17 10 -33q0 -20 -15 -33.5t-36 -13.5q-30 0 -47 22l-127 146l-125 -146q-20 -22 -49 -22q-20 0 -34.5 13.5t-14.5 33.5zM336 502h418l-211 620z" />
<glyph unicode="&#xc3;" horiz-adv-x="1093" d="M16 76q0 9 9 41l438 1265q8 25 32 42.5t52 17.5q29 0 54 -17.5t34 -42.5l436 -1267q6 -18 6 -37q0 -35 -26.5 -61.5t-61.5 -26.5q-29 0 -53 17t-33 44l-98 287h-522l-97 -289q-8 -25 -31.5 -42t-52.5 -17q-34 0 -60 25.5t-26 60.5zM287 1671q0 15 10 35q55 109 156 109 q39 0 96 -33t82 -33q30 0 47.5 10.5t32.5 32.5q17 23 43 23q21 0 35 -15t14 -37t-8 -34q-57 -109 -156 -109q-41 0 -97.5 33t-80.5 33q-51 0 -80 -44q-17 -22 -45 -22q-22 0 -35.5 14.5t-13.5 36.5zM336 502h418l-211 620z" />
<glyph unicode="&#xc4;" horiz-adv-x="1093" d="M16 76q0 9 9 41l438 1265q8 25 32 42.5t52 17.5q29 0 54 -17.5t34 -42.5l436 -1267q6 -18 6 -37q0 -35 -26.5 -61.5t-61.5 -26.5q-29 0 -53 17t-33 44l-98 287h-522l-97 -289q-8 -25 -31.5 -42t-52.5 -17q-34 0 -60 25.5t-26 60.5zM303 1759q0 32 23 54t57 22 q32 0 55 -22t23 -54q0 -34 -23 -57t-55 -23q-34 0 -57 23t-23 57zM336 502h418l-211 620zM629 1759q0 32 23 54t55 22q34 0 56.5 -22t22.5 -54q0 -34 -22.5 -57t-56.5 -23q-32 0 -55 23t-23 57z" />
<glyph unicode="&#xc5;" horiz-adv-x="1093" d="M16 76q0 9 9 41l438 1265q8 25 32 42.5t52 17.5q29 0 54 -17.5t34 -42.5l436 -1267q6 -18 6 -37q0 -35 -26.5 -61.5t-61.5 -26.5q-29 0 -53 17t-33 44l-98 287h-522l-97 -289q-8 -25 -31.5 -42t-52.5 -17q-34 0 -60 25.5t-26 60.5zM336 502h418l-211 620zM369 1737 q0 79 51 132.5t125 53.5q76 0 127 -53t51 -133q0 -82 -51 -136.5t-127 -54.5q-74 0 -125 55t-51 136zM442 1737q0 -44 31 -77.5t72 -33.5q43 0 72.5 33t29.5 78q0 46 -29 77t-73 31q-42 0 -72.5 -31.5t-30.5 -76.5z" />
<glyph unicode="&#xc6;" horiz-adv-x="1716" d="M14 78q0 12 9 43l434 1251q9 26 33.5 44t52.5 18h952q35 0 62.5 -27t27.5 -64q0 -35 -27.5 -61.5t-62.5 -26.5h-561v-426h479q35 0 61.5 -25t26.5 -59t-26.5 -58.5t-61.5 -24.5h-479v-484h561q35 0 62.5 -27.5t27.5 -62.5t-27.5 -61.5t-62.5 -26.5h-651q-37 0 -63.5 26.5 t-26.5 61.5v250h-465l-99 -287q-9 -27 -33 -44t-53 -17q-35 0 -62.5 26.5t-27.5 61.5zM344 502h410v755h-152z" />
<glyph unicode="&#xc7;" horiz-adv-x="1284" d="M119 715q0 214 71 382t204 263.5t306 95.5q160 0 275 -65.5t199 -202.5q18 -30 18 -55q0 -36 -26.5 -62.5t-65.5 -26.5q-22 0 -43 11.5t-31 29.5q-105 193 -324 193q-124 0 -216.5 -73.5t-139.5 -200.5t-47 -291q0 -165 44.5 -289.5t138 -198t225.5 -73.5 q90 0 176.5 45.5t115.5 124.5q9 27 35 46t56 19q37 0 63.5 -26.5t26.5 -61.5q0 -28 -27 -76q-63 -109 -189 -178.5t-262 -69.5q-268 0 -425.5 202t-157.5 538zM618 -125q0 34 24 60t63 26q79 0 88 -100v-47q0 -84 -32.5 -169t-74.5 -85q-19 0 -28 10t-9 24v7q0 22 14.5 68 t14.5 77q0 25 -2 39q-27 12 -42.5 36.5t-15.5 53.5z" />
<glyph unicode="&#xc8;" horiz-adv-x="1161" d="M201 88v1255q0 37 27.5 64t62.5 27h651q37 0 63.5 -27t26.5 -64q0 -35 -26.5 -61.5t-63.5 -26.5h-561v-426h481q34 0 60 -25t26 -59q0 -33 -26 -58t-60 -25h-481v-484h561q36 0 63 -27t27 -63q0 -35 -26.5 -61.5t-63.5 -26.5h-651q-35 0 -62.5 26.5t-27.5 61.5zM383 1819 q0 26 19.5 44.5t46.5 18.5t45 -18l221 -197q22 -22 22 -47q0 -21 -15 -36t-38 -15q-22 0 -39 14l-237 191q-25 22 -25 45z" />
<glyph unicode="&#xc9;" horiz-adv-x="1161" d="M201 88v1255q0 37 27.5 64t62.5 27h651q37 0 63.5 -27t26.5 -64q0 -35 -26.5 -61.5t-63.5 -26.5h-561v-426h481q34 0 60 -25t26 -59q0 -33 -26 -58t-60 -25h-481v-484h561q36 0 63 -27t27 -63q0 -35 -26.5 -61.5t-63.5 -26.5h-651q-35 0 -62.5 26.5t-27.5 61.5zM500 1620 q0 28 22 47l219 197q21 18 47 18q27 0 46.5 -18.5t19.5 -44.5q0 -24 -27 -45l-235 -191q-17 -14 -41 -14q-21 0 -36 15t-15 36z" />
<glyph unicode="&#xca;" horiz-adv-x="1161" d="M201 88v1255q0 37 27.5 64t62.5 27h651q37 0 63.5 -27t26.5 -64q0 -35 -26.5 -61.5t-63.5 -26.5h-561v-426h481q34 0 60 -25t26 -59q0 -33 -26 -58t-60 -25h-481v-484h561q36 0 63 -27t27 -63q0 -35 -26.5 -61.5t-63.5 -26.5h-651q-35 0 -62.5 26.5t-27.5 61.5zM395 1616 q0 14 11 33l106 161q24 37 46.5 54.5t59.5 17.5q27 0 48 -11.5t31.5 -23.5t27.5 -37l109 -161q10 -17 10 -33q0 -20 -15 -33.5t-36 -13.5q-31 0 -48 22l-127 146l-124 -146q-20 -22 -50 -22q-20 0 -34.5 13.5t-14.5 33.5z" />
<glyph unicode="&#xcb;" horiz-adv-x="1161" d="M201 88v1255q0 37 27.5 64t62.5 27h651q37 0 63.5 -27t26.5 -64q0 -35 -26.5 -61.5t-63.5 -26.5h-561v-426h481q34 0 60 -25t26 -59q0 -33 -26 -58t-60 -25h-481v-484h561q36 0 63 -27t27 -63q0 -35 -26.5 -61.5t-63.5 -26.5h-651q-35 0 -62.5 26.5t-27.5 61.5zM379 1759 q0 32 23 54t57 22q32 0 55 -22t23 -54q0 -34 -23 -57t-55 -23q-34 0 -57 23t-23 57zM705 1759q0 32 22.5 54t54.5 22q34 0 57 -22t23 -54q0 -34 -23 -57t-57 -23q-32 0 -54.5 23t-22.5 57z" />
<glyph unicode="&#xcc;" horiz-adv-x="600" d="M61 1819q0 26 19.5 44.5t46.5 18.5t45 -18l221 -197q23 -23 23 -47q0 -21 -15.5 -36t-38.5 -15q-21 0 -38 14l-238 191q-25 22 -25 45zM211 78v1278q0 35 27.5 61.5t62.5 26.5q37 0 63.5 -26.5t26.5 -61.5v-1278q0 -35 -26.5 -61.5t-63.5 -26.5q-35 0 -62.5 26.5 t-27.5 61.5z" />
<glyph unicode="&#xcd;" horiz-adv-x="600" d="M178 1620q0 27 23 47l219 197q21 18 47 18t45.5 -18.5t19.5 -44.5q0 -25 -26 -45l-236 -191q-17 -14 -41 -14q-21 0 -36 15t-15 36zM211 78v1278q0 35 27.5 61.5t62.5 26.5q37 0 63.5 -26.5t26.5 -61.5v-1278q0 -35 -26.5 -61.5t-63.5 -26.5q-35 0 -62.5 26.5t-27.5 61.5 z" />
<glyph unicode="&#xce;" horiz-adv-x="600" d="M74 1616q0 16 10 33l106 161q24 37 46.5 54.5t60.5 17.5q27 0 48 -11.5t30.5 -23t27.5 -37.5l109 -161q10 -17 10 -33q0 -20 -15 -33.5t-36 -13.5q-30 0 -47 22l-127 146l-125 -146q-20 -22 -49 -22q-20 0 -34.5 13.5t-14.5 33.5zM211 78v1278q0 35 27.5 61.5t62.5 26.5 q37 0 63.5 -26.5t26.5 -61.5v-1278q0 -35 -26.5 -61.5t-63.5 -26.5q-35 0 -62.5 26.5t-27.5 61.5z" />
<glyph unicode="&#xcf;" horiz-adv-x="600" d="M57 1759q0 32 23 54t57 22q32 0 55 -22t23 -54q0 -34 -23 -57t-55 -23q-34 0 -57 23t-23 57zM211 78v1278q0 35 27.5 61.5t62.5 26.5q37 0 63.5 -26.5t26.5 -61.5v-1278q0 -35 -26.5 -61.5t-63.5 -26.5q-35 0 -62.5 26.5t-27.5 61.5zM383 1759q0 32 23 54t55 22 q34 0 57 -22t23 -54q0 -34 -23 -57t-57 -23q-32 0 -55 23t-23 57z" />
<glyph unicode="&#xd0;" horiz-adv-x="1333" d="M31 745q0 34 26 59t60 25h63v514q0 37 26.5 64t61.5 27h293q304 0 475.5 -181t171.5 -538q0 -361 -167.5 -538t-479.5 -177h-293q-35 0 -61.5 26.5t-26.5 61.5v574h-63q-34 0 -60 25t-26 58zM360 178h109q151 0 251.5 24.5t172 85t103.5 164.5t32 263q0 158 -32.5 263 t-102.5 165.5t-165.5 85t-235.5 24.5h-132v-424h252q34 0 60 -25t26 -59q0 -33 -26 -58t-60 -25h-252v-484z" />
<glyph unicode="&#xd1;" horiz-adv-x="1388" d="M182 76v1286q0 36 27.5 61t66.5 25q55 0 84 -45l674 -1065v1018q0 34 26 60t60 26q35 0 61.5 -26t26.5 -60v-1290q0 -37 -27 -63t-67 -26q-58 0 -84 46l-674 1067v-1014q0 -35 -26.5 -60.5t-61.5 -25.5t-60.5 25.5t-25.5 60.5zM434 1671q0 15 10 35q55 109 156 109 q39 0 96 -33t82 -33q30 0 47.5 10.5t32.5 32.5q17 23 43 23q21 0 35 -15t14 -37t-8 -34q-57 -109 -156 -109q-41 0 -97.5 33t-80.5 33q-51 0 -80 -44q-16 -22 -45 -22q-22 0 -35.5 14.5t-13.5 36.5z" />
<glyph unicode="&#xd2;" horiz-adv-x="1447" d="M131 717q0 342 162.5 540.5t429.5 198.5q265 0 428.5 -199t163.5 -540q0 -345 -162.5 -544.5t-429.5 -199.5t-429.5 199.5t-162.5 544.5zM311 715q0 -257 108 -410t304 -153t304 153t108 410t-108 411t-304 154t-304 -154.5t-108 -410.5zM483 1819q0 26 19.5 44.5 t46.5 18.5t45 -18l221 -197q23 -23 23 -47q0 -21 -15.5 -36t-38.5 -15q-22 0 -39 14l-237 191q-25 22 -25 45z" />
<glyph unicode="&#xd3;" horiz-adv-x="1447" d="M131 717q0 342 162.5 540.5t429.5 198.5q265 0 428.5 -199t163.5 -540q0 -345 -162.5 -544.5t-429.5 -199.5t-429.5 199.5t-162.5 544.5zM311 715q0 -257 108 -410t304 -153t304 153t108 410t-108 411t-304 154t-304 -154.5t-108 -410.5zM600 1620q0 27 23 47l219 197 q21 18 47 18t45.5 -18.5t19.5 -44.5q0 -25 -26 -45l-236 -191q-17 -14 -41 -14q-21 0 -36 15t-15 36z" />
<glyph unicode="&#xd4;" horiz-adv-x="1447" d="M131 717q0 342 162.5 540.5t429.5 198.5q265 0 428.5 -199t163.5 -540q0 -345 -162.5 -544.5t-429.5 -199.5t-429.5 199.5t-162.5 544.5zM311 715q0 -257 108 -410t304 -153t304 153t108 410t-108 411t-304 154t-304 -154.5t-108 -410.5zM498 1616q0 16 10 33l106 161 q24 37 46.5 54.5t60.5 17.5q27 0 48 -11.5t30.5 -23t27.5 -37.5l109 -161q10 -17 10 -33q0 -20 -15 -33.5t-36 -13.5q-30 0 -47 22l-127 146l-125 -146q-20 -22 -49 -22q-20 0 -34.5 13.5t-14.5 33.5z" />
<glyph unicode="&#xd5;" horiz-adv-x="1447" d="M131 717q0 342 162.5 540.5t429.5 198.5q265 0 428.5 -199t163.5 -540q0 -345 -162.5 -544.5t-429.5 -199.5t-429.5 199.5t-162.5 544.5zM311 715q0 -257 108 -410t304 -153t304 153t108 410t-108 411t-304 154t-304 -154.5t-108 -410.5zM465 1671q0 15 10 35 q55 109 156 109q39 0 96 -33t82 -33q30 0 47.5 10.5t32.5 32.5q17 23 43 23q21 0 35 -15t14 -37t-8 -34q-57 -109 -156 -109q-41 0 -97.5 33t-80.5 33q-51 0 -80 -44q-17 -22 -45 -22q-22 0 -35.5 14.5t-13.5 36.5z" />
<glyph unicode="&#xd6;" horiz-adv-x="1447" d="M131 717q0 342 162.5 540.5t429.5 198.5q265 0 428.5 -199t163.5 -540q0 -345 -162.5 -544.5t-429.5 -199.5t-429.5 199.5t-162.5 544.5zM311 715q0 -257 108 -410t304 -153t304 153t108 410t-108 411t-304 154t-304 -154.5t-108 -410.5zM479 1759q0 32 23 54t57 22 q32 0 55 -22t23 -54q0 -34 -23 -57t-55 -23q-34 0 -57 23t-23 57zM805 1759q0 32 23 54t55 22q34 0 57 -22t23 -54q0 -34 -23 -57t-57 -23q-32 0 -55 23t-23 57z" />
<glyph unicode="&#xd7;" d="M238 332q0 28 22 53l193 197l-193 192q-22 22 -22 53t21 51.5t52 20.5t54 -20l194 -195l193 195q17 20 53 20q29 0 50.5 -21.5t21.5 -50.5q0 -28 -21 -53l-194 -192l194 -197q21 -21 21 -53q0 -31 -20.5 -51.5t-51.5 -20.5q-33 0 -53 23l-193 194l-197 -194 q-23 -23 -53 -23q-29 0 -50 21.5t-21 50.5z" />
<glyph unicode="&#xd8;" horiz-adv-x="1447" d="M131 717q0 342 162.5 540.5t429.5 198.5q220 0 371 -139l98 135q19 25 43 25q22 0 38.5 -17t16.5 -39q0 -17 -12 -35l-111 -151q148 -200 148 -518q0 -345 -162.5 -544.5t-429.5 -199.5q-217 0 -371 138l-100 -138q-20 -26 -45 -26q-22 0 -38.5 16t-16.5 39q0 17 12 35 l115 158q-148 197 -148 522zM311 715q0 -221 82 -363l596 819q-109 109 -266 109q-196 0 -304 -154.5t-108 -410.5zM459 256q101 -104 264 -104q196 0 304 153t108 410q0 217 -82 362z" />
<glyph unicode="&#xd9;" horiz-adv-x="1349" d="M190 532v822q0 35 27.5 61.5t63.5 26.5q37 0 63.5 -26.5t26.5 -61.5v-871q0 -156 81.5 -243.5t221.5 -87.5t222.5 88.5t82.5 242.5v871q0 36 26 62t62 26q35 0 62.5 -26.5t27.5 -61.5v-875q0 -231 -128 -368.5t-355 -137.5q-245 0 -364.5 147t-119.5 412zM436 1819 q0 26 19.5 44.5t46.5 18.5t45 -18l221 -197q23 -23 23 -47q0 -21 -15.5 -36t-38.5 -15q-22 0 -39 14l-237 191q-25 22 -25 45z" />
<glyph unicode="&#xda;" horiz-adv-x="1349" d="M190 532v822q0 35 27.5 61.5t63.5 26.5q37 0 63.5 -26.5t26.5 -61.5v-871q0 -156 81.5 -243.5t221.5 -87.5t222.5 88.5t82.5 242.5v871q0 36 26 62t62 26q35 0 62.5 -26.5t27.5 -61.5v-875q0 -231 -128 -368.5t-355 -137.5q-245 0 -364.5 147t-119.5 412zM553 1620 q0 28 22 47l220 197q21 18 47 18t45.5 -18.5t19.5 -44.5q0 -25 -26 -45l-236 -191q-17 -14 -41 -14q-21 0 -36 15t-15 36z" />
<glyph unicode="&#xdb;" horiz-adv-x="1349" d="M190 532v822q0 35 27.5 61.5t63.5 26.5q37 0 63.5 -26.5t26.5 -61.5v-871q0 -156 81.5 -243.5t221.5 -87.5t222.5 88.5t82.5 242.5v871q0 36 26 62t62 26q35 0 62.5 -26.5t27.5 -61.5v-875q0 -231 -128 -368.5t-355 -137.5q-245 0 -364.5 147t-119.5 412zM449 1616 q0 16 10 33l106 161q24 37 46.5 54.5t60.5 17.5q27 0 48 -11.5t30.5 -23t27.5 -37.5l109 -161q10 -17 10 -33q0 -20 -15 -33.5t-36 -13.5q-30 0 -47 22l-127 146l-125 -146q-20 -22 -49 -22q-20 0 -34.5 13.5t-14.5 33.5z" />
<glyph unicode="&#xdc;" horiz-adv-x="1349" d="M190 532v822q0 35 27.5 61.5t63.5 26.5q37 0 63.5 -26.5t26.5 -61.5v-871q0 -156 81.5 -243.5t221.5 -87.5t222.5 88.5t82.5 242.5v871q0 36 26 62t62 26q35 0 62.5 -26.5t27.5 -61.5v-875q0 -231 -128 -368.5t-355 -137.5q-245 0 -364.5 147t-119.5 412zM432 1759 q0 32 23 54t57 22q32 0 55 -22t23 -54q0 -34 -23 -57t-55 -23q-34 0 -57 23t-23 57zM758 1759q0 32 23 54t55 22q34 0 56.5 -22t22.5 -54q0 -34 -22.5 -57t-56.5 -23q-32 0 -55 23t-23 57z" />
<glyph unicode="&#xdd;" horiz-adv-x="1040" d="M14 1354q0 35 27.5 61.5t62.5 26.5q54 0 82 -51l338 -590l336 590q26 51 78 51q34 0 60 -25t26 -59q0 -25 -16 -49l-402 -676v-555q0 -35 -27.5 -61.5t-64.5 -26.5q-35 0 -61.5 26.5t-26.5 61.5v551l-397 678q-15 26 -15 47zM399 1620q0 27 23 47l219 197q21 18 47 18 q27 0 46.5 -18.5t19.5 -44.5q0 -24 -27 -45l-235 -191q-17 -14 -41 -14q-21 0 -36.5 15.5t-15.5 35.5z" />
<glyph unicode="&#xde;" horiz-adv-x="1105" d="M197 78v1278q0 35 27.5 61.5t62.5 26.5q37 0 63.5 -26.5t26.5 -61.5v-187h190q82 0 149 -11.5t128 -40.5t102.5 -75t65.5 -118t24 -166q0 -91 -23 -162.5t-63 -118t-96.5 -77t-119.5 -43.5t-136 -13h-221v-266q0 -35 -26.5 -61.5t-63.5 -26.5q-35 0 -62.5 26.5 t-27.5 61.5zM377 514h229q111 0 180.5 60.5t69.5 183.5t-69.5 182t-182.5 59h-227v-485z" />
<glyph unicode="&#xdf;" horiz-adv-x="1140" d="M170 72v1013q0 86 20.5 159t61.5 130.5t110 90t160 32.5q150 0 247 -80t97 -213q0 -56 -17.5 -107.5t-42.5 -87.5t-50 -67t-42.5 -60t-17.5 -53q0 -30 27 -59t67 -53t87.5 -59.5t87.5 -74.5t67 -101.5t27 -137.5q0 -168 -93.5 -267.5t-240.5 -99.5q-110 0 -197.5 62 t-87.5 143q0 32 22.5 55t53.5 23q25 0 43 -11t30 -26.5t25.5 -31t37.5 -26.5t57 -11q78 0 130 46t52 132q0 44 -19.5 83.5t-51 69.5t-69.5 58.5l-76 57t-69.5 59t-51 70.5t-19.5 85q0 39 16.5 78.5t40.5 73t47.5 67t40 74.5t16.5 82q0 68 -49 107.5t-121 39.5 q-98 0 -140 -68.5t-42 -191.5q0 -333 -4 -1005q0 -33 -26 -56.5t-56 -23.5q-37 0 -62.5 22.5t-25.5 57.5z" />
<glyph unicode="&#xe0;" horiz-adv-x="937" d="M78 231q0 80 26.5 135.5t67 83.5t100 46t113 23.5t119 16.5t106.5 25v123q0 79 -36.5 118.5t-114.5 39.5q-123 0 -174 -97q-29 -53 -82 -53q-36 0 -58 24t-22 58q0 99 99 165.5t233 66.5q78 0 134.5 -14.5t102.5 -49.5t69 -101t23 -163v-479q0 -33 22.5 -71t22.5 -56 q0 -34 -25.5 -57t-60.5 -23q-23 0 -41.5 9t-29.5 20.5t-19.5 31t-12 33t-7.5 33.5q-39 -64 -113.5 -103t-163.5 -39q-127 0 -202.5 65.5t-75.5 188.5zM221 1364q0 26 19.5 44.5t46.5 18.5t45 -18l221 -197q22 -22 22 -47q0 -21 -15 -36t-38 -15q-22 0 -39 14l-237 191 q-25 22 -25 45zM248 248q0 -123 145 -123t221 127v197q-44 -18 -103 -30t-101 -19.5t-81.5 -22.5t-60 -46.5t-20.5 -82.5z" />
<glyph unicode="&#xe1;" horiz-adv-x="937" d="M78 231q0 80 26.5 135.5t67 83.5t100 46t113 23.5t119 16.5t106.5 25v123q0 79 -36.5 118.5t-114.5 39.5q-123 0 -174 -97q-29 -53 -82 -53q-36 0 -58 24t-22 58q0 99 99 165.5t233 66.5q78 0 134.5 -14.5t102.5 -49.5t69 -101t23 -163v-479q0 -33 22.5 -71t22.5 -56 q0 -34 -25.5 -57t-60.5 -23q-23 0 -41.5 9t-29.5 20.5t-19.5 31t-12 33t-7.5 33.5q-39 -64 -113.5 -103t-163.5 -39q-127 0 -202.5 65.5t-75.5 188.5zM248 248q0 -123 145 -123t221 127v197q-44 -18 -103 -30t-101 -19.5t-81.5 -22.5t-60 -46.5t-20.5 -82.5zM338 1165 q0 28 22 47l220 197q21 18 47 18t45.5 -18.5t19.5 -44.5q0 -25 -26 -45l-236 -191q-17 -14 -41 -14q-21 0 -36 15t-15 36z" />
<glyph unicode="&#xe2;" horiz-adv-x="937" d="M78 231q0 80 26.5 135.5t67 83.5t100 46t113 23.5t119 16.5t106.5 25v123q0 79 -36.5 118.5t-114.5 39.5q-123 0 -174 -97q-29 -53 -82 -53q-36 0 -58 24t-22 58q0 99 99 165.5t233 66.5q78 0 134.5 -14.5t102.5 -49.5t69 -101t23 -163v-479q0 -33 22.5 -71t22.5 -56 q0 -34 -25.5 -57t-60.5 -23q-23 0 -41.5 9t-29.5 20.5t-19.5 31t-12 33t-7.5 33.5q-39 -64 -113.5 -103t-163.5 -39q-127 0 -202.5 65.5t-75.5 188.5zM233 1161q0 14 11 33l106 162q24 36 46.5 53.5t60.5 17.5q27 0 47.5 -11t30.5 -23t28 -37l109 -162q10 -18 10 -33 q0 -20 -15 -33.5t-36 -13.5q-29 0 -47 23l-127 145l-125 -145q-20 -23 -49 -23q-21 0 -35.5 13.5t-14.5 33.5zM248 248q0 -123 145 -123t221 127v197q-44 -18 -103 -30t-101 -19.5t-81.5 -22.5t-60 -46.5t-20.5 -82.5z" />
<glyph unicode="&#xe3;" horiz-adv-x="937" d="M78 231q0 80 26.5 135.5t67 83.5t100 46t113 23.5t119 16.5t106.5 25v123q0 79 -36.5 118.5t-114.5 39.5q-123 0 -174 -97q-29 -53 -82 -53q-36 0 -58 24t-22 58q0 99 99 165.5t233 66.5q78 0 134.5 -14.5t102.5 -49.5t69 -101t23 -163v-479q0 -33 22.5 -71t22.5 -56 q0 -34 -25.5 -57t-60.5 -23q-23 0 -41.5 9t-29.5 20.5t-19.5 31t-12 33t-7.5 33.5q-39 -64 -113.5 -103t-163.5 -39q-127 0 -202.5 65.5t-75.5 188.5zM199 1217q0 14 10 34q55 109 156 109q39 0 96 -33t82 -33q30 0 47.5 10.5t32.5 32.5q17 23 43 23q22 0 35.5 -14.5 t13.5 -36.5q0 -23 -8 -35q-57 -109 -156 -109q-41 0 -97.5 33t-80.5 33q-30 0 -47.5 -10.5t-32.5 -32.5q-17 -23 -45 -23q-21 0 -35 15t-14 37zM248 248q0 -123 145 -123t221 127v197q-44 -18 -103 -30t-101 -19.5t-81.5 -22.5t-60 -46.5t-20.5 -82.5z" />
<glyph unicode="&#xe4;" horiz-adv-x="937" d="M78 231q0 80 26.5 135.5t67 83.5t100 46t113 23.5t119 16.5t106.5 25v123q0 79 -36.5 118.5t-114.5 39.5q-123 0 -174 -97q-29 -53 -82 -53q-36 0 -58 24t-22 58q0 99 99 165.5t233 66.5q78 0 134.5 -14.5t102.5 -49.5t69 -101t23 -163v-479q0 -33 22.5 -71t22.5 -56 q0 -34 -25.5 -57t-60.5 -23q-23 0 -41.5 9t-29.5 20.5t-19.5 31t-12 33t-7.5 33.5q-39 -64 -113.5 -103t-163.5 -39q-127 0 -202.5 65.5t-75.5 188.5zM215 1305q0 32 23 53.5t57 21.5q33 0 55.5 -21.5t22.5 -53.5q0 -34 -23 -57t-55 -23q-34 0 -57 23t-23 57zM248 248 q0 -123 145 -123t221 127v197q-44 -18 -103 -30t-101 -19.5t-81.5 -22.5t-60 -46.5t-20.5 -82.5zM541 1305q0 32 22.5 53.5t54.5 21.5q34 0 57 -21.5t23 -53.5q0 -34 -23 -57t-57 -23q-32 0 -54.5 23t-22.5 57z" />
<glyph unicode="&#xe5;" horiz-adv-x="937" d="M78 231q0 80 26.5 135.5t67 83.5t100 46t113 23.5t119 16.5t106.5 25v123q0 79 -36.5 118.5t-114.5 39.5q-123 0 -174 -97q-29 -53 -82 -53q-36 0 -58 24t-22 58q0 99 99 165.5t233 66.5q78 0 134.5 -14.5t102.5 -49.5t69 -101t23 -163v-479q0 -33 22.5 -71t22.5 -56 q0 -34 -25.5 -57t-60.5 -23q-23 0 -41.5 9t-29.5 20.5t-19.5 31t-12 33t-7.5 33.5q-39 -64 -113.5 -103t-163.5 -39q-127 0 -202.5 65.5t-75.5 188.5zM248 248q0 -123 145 -123t221 127v197q-44 -18 -103 -30t-101 -19.5t-81.5 -22.5t-60 -46.5t-20.5 -82.5zM281 1282 q0 79 51 132.5t125 53.5q76 0 127 -53t51 -133q0 -82 -50.5 -136t-127.5 -54q-74 0 -125 54.5t-51 135.5zM354 1282q0 -44 31 -77.5t72 -33.5q43 0 72.5 33t29.5 78q0 46 -29 77.5t-73 31.5q-42 0 -72.5 -32t-30.5 -77z" />
<glyph unicode="&#xe6;" horiz-adv-x="1533" d="M78 231q0 79 26.5 134.5t66.5 83t99 45.5t112.5 24.5t119.5 17.5t108 25v123q0 84 -33.5 119t-109.5 35q-55 0 -106.5 -19.5t-73.5 -70.5q-25 -56 -84 -56q-36 0 -58 24t-22 58q0 99 99 165.5t233 66.5q224 0 282 -152q44 72 123 113t170 41q189 0 292 -127t103 -328 q0 -39 -26.5 -64.5t-67.5 -25.5h-540q3 -152 68.5 -241t182.5 -89q124 0 195 111q25 41 74 41q34 0 58 -24t24 -56q0 -27 -23 -62q-48 -79 -142 -122.5t-200 -43.5q-115 0 -203 53.5t-141 153.5q-122 -207 -328 -207q-127 0 -202.5 65.5t-75.5 188.5zM248 248 q0 -123 145 -123q45 0 80 10.5t64.5 36.5t48 48t49.5 65q-21 95 -21 164q-38 -15 -87 -26.5t-86 -17t-75 -16.5t-62.5 -26t-40 -44t-15.5 -71zM793 590h454q0 107 -56 183.5t-165 76.5q-96 0 -159 -71.5t-74 -188.5z" />
<glyph unicode="&#xe7;" horiz-adv-x="952" d="M90 498q0 227 116 368.5t310 141.5q99 0 184.5 -43.5t128.5 -120.5q25 -42 25 -76q0 -35 -24.5 -58.5t-57.5 -23.5q-48 0 -76 47q-15 24 -21.5 33.5t-24.5 29.5t-34.5 29t-45 17t-62.5 8q-108 0 -177 -94t-69 -258q0 -167 70 -266t180 -99q39 0 68.5 9t50 27.5t31 33 t24.5 39.5q29 53 82 53q31 0 55.5 -23.5t24.5 -56.5q0 -64 -51 -115q-51 -56 -126 -89.5t-159 -33.5q-194 0 -308 144t-114 377zM420 -125q0 34 23.5 60t62.5 26q79 0 88 -100v-47q0 -84 -32.5 -169t-74.5 -85q-19 0 -27.5 10t-8.5 24v7q0 22 14 68t14 77q0 25 -2 39 q-27 12 -42 36.5t-15 53.5z" />
<glyph unicode="&#xe8;" horiz-adv-x="1013" d="M98 498q0 226 114 368t300 142q190 0 292.5 -127.5t102.5 -331.5q0 -38 -24.5 -62t-67.5 -24h-541q3 -152 69 -241t183 -89q123 0 195 111q25 41 72 41q36 0 60 -24.5t24 -57.5q0 -26 -23 -58q-60 -79 -149 -124.5t-193 -45.5q-189 0 -301.5 145.5t-112.5 377.5z M268 1364q0 26 19.5 44.5t46.5 18.5t45 -18l221 -197q23 -23 23 -47q0 -21 -15.5 -36t-38.5 -15q-22 0 -39 14l-237 191q-25 22 -25 45zM276 590h455q-6 123 -63.5 191.5t-157.5 68.5q-96 0 -159.5 -72t-74.5 -188z" />
<glyph unicode="&#xe9;" horiz-adv-x="1013" d="M98 498q0 226 114 368t300 142q190 0 292.5 -127.5t102.5 -331.5q0 -38 -24.5 -62t-67.5 -24h-541q3 -152 69 -241t183 -89q123 0 195 111q25 41 72 41q36 0 60 -24.5t24 -57.5q0 -26 -23 -58q-60 -79 -149 -124.5t-193 -45.5q-189 0 -301.5 145.5t-112.5 377.5zM276 590 h455q-6 123 -63.5 191.5t-157.5 68.5q-96 0 -159.5 -72t-74.5 -188zM385 1165q0 27 23 47l219 197q21 18 47 18t45.5 -18.5t19.5 -44.5q0 -25 -26 -45l-236 -191q-17 -14 -41 -14q-21 0 -36 15t-15 36z" />
<glyph unicode="&#xea;" horiz-adv-x="1013" d="M98 498q0 226 114 368t300 142q190 0 292.5 -127.5t102.5 -331.5q0 -38 -24.5 -62t-67.5 -24h-541q3 -152 69 -241t183 -89q123 0 195 111q25 41 72 41q36 0 60 -24.5t24 -57.5q0 -26 -23 -58q-60 -79 -149 -124.5t-193 -45.5q-189 0 -301.5 145.5t-112.5 377.5zM276 590 h455q-6 123 -63.5 191.5t-157.5 68.5q-96 0 -159.5 -72t-74.5 -188zM281 1161q0 15 10 33l106 162q24 36 46.5 53.5t60.5 17.5q27 0 47.5 -11t30.5 -23t28 -37l109 -162q10 -18 10 -33q0 -20 -15 -33.5t-36 -13.5q-29 0 -47 23l-127 145l-125 -145q-20 -23 -49 -23 q-20 0 -34.5 13.5t-14.5 33.5z" />
<glyph unicode="&#xeb;" horiz-adv-x="1013" d="M98 498q0 226 114 368t300 142q190 0 292.5 -127.5t102.5 -331.5q0 -38 -24.5 -62t-67.5 -24h-541q3 -152 69 -241t183 -89q123 0 195 111q25 41 72 41q36 0 60 -24.5t24 -57.5q0 -26 -23 -58q-60 -79 -149 -124.5t-193 -45.5q-189 0 -301.5 145.5t-112.5 377.5z M262 1305q0 32 23 53.5t57 21.5q33 0 55.5 -21.5t22.5 -53.5q0 -34 -23 -57t-55 -23q-34 0 -57 23t-23 57zM276 590h455q-6 123 -63.5 191.5t-157.5 68.5q-96 0 -159.5 -72t-74.5 -188zM588 1305q0 32 22.5 53.5t55.5 21.5q34 0 56.5 -21.5t22.5 -53.5q0 -34 -22.5 -57 t-56.5 -23q-32 0 -55 23t-23 57z" />
<glyph unicode="&#xec;" horiz-adv-x="456" d="M-6 1364q0 26 19.5 44.5t45.5 18.5q27 0 45 -18l222 -197q22 -22 22 -47q0 -21 -15 -36t-38 -15q-22 0 -39 14l-238 191q-24 21 -24 45zM139 254v641q0 41 23.5 69.5t64.5 28.5q35 0 60.5 -24.5t25.5 -59.5v-653q0 -45 11.5 -105t11.5 -77q0 -35 -25 -58.5t-61 -23.5 t-59.5 22.5t-34 64.5t-14 81.5t-3.5 93.5z" />
<glyph unicode="&#xed;" horiz-adv-x="456" d="M106 1165q0 27 23 47l219 197q21 18 47 18q27 0 46.5 -18.5t19.5 -44.5q0 -24 -27 -45l-235 -191q-17 -14 -41 -14q-22 0 -37 15t-15 36zM139 254v641q0 41 23.5 69.5t64.5 28.5q35 0 60.5 -24.5t25.5 -59.5v-653q0 -45 11.5 -105t11.5 -77q0 -35 -25 -58.5t-61 -23.5 t-59.5 22.5t-34 64.5t-14 81.5t-3.5 93.5z" />
<glyph unicode="&#xee;" horiz-adv-x="456" d="M4 1161q0 15 10 33l107 162q24 37 46 54t60 17q27 0 48 -11t31.5 -23t27.5 -37l108 -162q11 -19 11 -33q0 -20 -15.5 -33.5t-36.5 -13.5q-29 0 -47 23l-127 145l-125 -145q-20 -23 -49 -23q-20 0 -34.5 13.5t-14.5 33.5zM139 254v641q0 41 23.5 69.5t64.5 28.5 q35 0 60.5 -24.5t25.5 -59.5v-653q0 -45 11.5 -105t11.5 -77q0 -35 -25 -58.5t-61 -23.5t-59.5 22.5t-34 64.5t-14 81.5t-3.5 93.5z" />
<glyph unicode="&#xef;" horiz-adv-x="456" d="M-12 1305q0 32 23 53.5t57 21.5q32 0 54.5 -21.5t22.5 -53.5q0 -34 -22.5 -57t-54.5 -23q-34 0 -57 23t-23 57zM139 254v641q0 41 23.5 69.5t64.5 28.5q35 0 60.5 -24.5t25.5 -59.5v-653q0 -45 11.5 -105t11.5 -77q0 -35 -25 -58.5t-61 -23.5t-59.5 22.5t-34 64.5 t-14 81.5t-3.5 93.5zM313 1305q0 32 22.5 53.5t55.5 21.5q34 0 57 -21.5t23 -53.5q0 -34 -23 -57t-57 -23q-32 0 -55 23t-23 57z" />
<glyph unicode="&#xf0;" horiz-adv-x="1001" d="M86 475q0 188 103.5 316.5t277.5 128.5q177 0 274 -154q-43 245 -172 414l-168 -129q-20 -13 -41 -13q-27 0 -45 17.5t-18 44.5q0 37 35 61l151 115q-12 11 -53.5 40t-58.5 49.5t-17 45.5q0 34 25 60t61 26q61 0 181 -125l120 92q25 21 47 21q27 0 45.5 -18.5t18.5 -45.5 q0 -34 -31 -55l-121 -92q104 -147 158.5 -337.5t54.5 -385.5q0 -283 -107.5 -428.5t-309.5 -145.5q-126 0 -220 66t-142 178.5t-48 253.5zM260 469q0 -140 62.5 -234t173.5 -94q117 0 182 101.5t65 269.5q-7 51 -24 97.5t-43.5 86t-66.5 63t-89 23.5q-132 0 -196 -85 t-64 -228z" />
<glyph unicode="&#xf1;" horiz-adv-x="1060" d="M104 909q0 35 23 59.5t63 24.5q34 0 59 -33t36 -90q99 138 274 138q142 0 226.5 -108.5t84.5 -289.5v-354q0 -45 11.5 -106t11.5 -78q0 -33 -26.5 -55.5t-61.5 -22.5t-58 23t-33.5 65t-14 81.5t-3.5 90.5v369q0 91 -47.5 162t-140.5 71q-70 0 -125 -30.5t-82 -90.5v-661 q0 -34 -25.5 -58t-60.5 -24q-29 0 -48 12t-27 36t-10.5 45.5t-2.5 55.5v584q0 57 -11.5 112t-11.5 72zM270 1217q0 12 11 34q55 109 155 109q39 0 96 -33t82 -33q30 0 47.5 10.5t32.5 32.5q17 23 43 23q22 0 35.5 -14.5t13.5 -36.5q0 -23 -8 -35q-57 -109 -155 -109 q-41 0 -98 33t-81 33q-30 0 -47 -10.5t-32 -32.5q-17 -23 -46 -23q-21 0 -35 15t-14 37z" />
<glyph unicode="&#xf2;" horiz-adv-x="1034" d="M86 498q0 227 115 368.5t317 141.5q133 0 231 -66t147.5 -181t49.5 -263q0 -152 -49.5 -269.5t-147.5 -185.5t-231 -68q-202 0 -317 145t-115 378zM260 498q0 -160 68.5 -259.5t189.5 -99.5q119 0 187.5 100t68.5 259q0 153 -68.5 249.5t-187.5 96.5q-121 0 -189.5 -96 t-68.5 -250zM279 1364q0 26 19.5 44.5t45.5 18.5q27 0 45 -18l221 -197q23 -23 23 -47q0 -21 -15 -36t-38 -15q-22 0 -39 14l-238 191q-24 21 -24 45z" />
<glyph unicode="&#xf3;" horiz-adv-x="1034" d="M86 498q0 227 115 368.5t317 141.5q133 0 231 -66t147.5 -181t49.5 -263q0 -152 -49.5 -269.5t-147.5 -185.5t-231 -68q-202 0 -317 145t-115 378zM260 498q0 -160 68.5 -259.5t189.5 -99.5q119 0 187.5 100t68.5 259q0 153 -68.5 249.5t-187.5 96.5q-121 0 -189.5 -96 t-68.5 -250zM395 1165q0 27 23 47l219 197q21 18 47 18q27 0 46.5 -18.5t19.5 -44.5q0 -24 -27 -45l-236 -191q-17 -14 -41 -14q-21 0 -36 15t-15 36z" />
<glyph unicode="&#xf4;" horiz-adv-x="1034" d="M86 498q0 227 115 368.5t317 141.5q133 0 231 -66t147.5 -181t49.5 -263q0 -152 -49.5 -269.5t-147.5 -185.5t-231 -68q-202 0 -317 145t-115 378zM260 498q0 -160 68.5 -259.5t189.5 -99.5q119 0 187.5 100t68.5 259q0 153 -68.5 249.5t-187.5 96.5q-121 0 -189.5 -96 t-68.5 -250zM291 1161q0 15 10 33l107 162q24 37 46 54t60 17q27 0 48 -11t31.5 -23t27.5 -37l108 -162q10 -18 10 -33q0 -20 -15 -33.5t-36 -13.5q-29 0 -47 23l-127 145l-125 -145q-20 -23 -49 -23q-20 0 -34.5 13.5t-14.5 33.5z" />
<glyph unicode="&#xf5;" horiz-adv-x="1034" d="M86 498q0 227 115 368.5t317 141.5q133 0 231 -66t147.5 -181t49.5 -263q0 -152 -49.5 -269.5t-147.5 -185.5t-231 -68q-202 0 -317 145t-115 378zM256 1217q0 14 10 34q55 109 156 109q39 0 96 -33t82 -33q30 0 47.5 10.5t32.5 32.5q17 23 43 23q22 0 35.5 -14.5 t13.5 -36.5q0 -23 -8 -35q-57 -109 -156 -109q-41 0 -97.5 33t-80.5 33q-30 0 -47.5 -10.5t-32.5 -32.5q-17 -23 -45 -23q-21 0 -35 15t-14 37zM260 498q0 -160 68.5 -259.5t189.5 -99.5q119 0 187.5 100t68.5 259q0 153 -68.5 249.5t-187.5 96.5q-121 0 -189.5 -96 t-68.5 -250z" />
<glyph unicode="&#xf6;" horiz-adv-x="1034" d="M86 498q0 227 115 368.5t317 141.5q133 0 231 -66t147.5 -181t49.5 -263q0 -152 -49.5 -269.5t-147.5 -185.5t-231 -68q-202 0 -317 145t-115 378zM260 498q0 -160 68.5 -259.5t189.5 -99.5q119 0 187.5 100t68.5 259q0 153 -68.5 249.5t-187.5 96.5q-121 0 -189.5 -96 t-68.5 -250zM272 1305q0 32 23 53.5t57 21.5q33 0 55.5 -21.5t22.5 -53.5q0 -34 -23 -57t-55 -23q-34 0 -57 23t-23 57zM598 1305q0 32 22.5 53.5t55.5 21.5q34 0 57 -21.5t23 -53.5q0 -34 -23 -57t-57 -23q-32 0 -55 23t-23 57z" />
<glyph unicode="&#xf7;" d="M133 582q0 29 22.5 51t51.5 22h696q31 0 53.5 -22t22.5 -51t-22.5 -51.5t-53.5 -22.5h-696q-29 0 -51.5 22.5t-22.5 51.5zM455 201q0 46 33 78t79 32t79.5 -32.5t33.5 -77.5q0 -44 -33.5 -76.5t-79.5 -32.5t-79 32.5t-33 76.5zM455 963q0 44 33 76t79 32t79.5 -32 t33.5 -76t-33.5 -76.5t-79.5 -32.5t-79 32.5t-33 76.5z" />
<glyph unicode="&#xf8;" horiz-adv-x="1034" d="M86 498q0 227 115 368.5t317 141.5q144 0 244 -78l63 84q18 24 43 24q22 0 39 -17t17 -40q0 -17 -13 -33l-69 -96q104 -138 104 -354q0 -152 -49.5 -269.5t-147.5 -185.5t-231 -68q-153 0 -256 86l-67 -90q-18 -24 -43 -24q-22 0 -39 16t-17 37t13 37l75 104 q-98 140 -98 357zM254 498q0 -118 41 -205l373 510q-63 53 -150 53q-126 0 -195 -98.5t-69 -259.5zM356 190q63 -63 162 -63q123 0 192.5 103t69.5 268q0 122 -49 204z" />
<glyph unicode="&#xf9;" horiz-adv-x="1050" d="M158 373v536q0 35 25.5 59.5t60.5 24.5q37 0 62.5 -24.5t25.5 -59.5v-544q0 -109 51 -166.5t152 -57.5q196 0 196 219v549q0 35 25.5 59.5t60.5 24.5t60.5 -24.5t25.5 -59.5v-538q0 -396 -368 -396q-107 0 -184 34t-117.5 93t-58 125.5t-17.5 145.5zM287 1364 q0 26 19.5 44.5t45.5 18.5q27 0 45 -18l221 -197q23 -23 23 -47q0 -21 -15 -36t-38 -15q-22 0 -39 14l-238 191q-24 21 -24 45z" />
<glyph unicode="&#xfa;" horiz-adv-x="1050" d="M158 373v536q0 35 25.5 59.5t60.5 24.5q37 0 62.5 -24.5t25.5 -59.5v-544q0 -109 51 -166.5t152 -57.5q196 0 196 219v549q0 35 25.5 59.5t60.5 24.5t60.5 -24.5t25.5 -59.5v-538q0 -396 -368 -396q-107 0 -184 34t-117.5 93t-58 125.5t-17.5 145.5zM403 1165q0 27 23 47 l219 197q21 18 47 18q27 0 46.5 -18.5t19.5 -44.5q0 -24 -27 -45l-235 -191q-17 -14 -41 -14q-21 0 -36.5 15t-15.5 36z" />
<glyph unicode="&#xfb;" horiz-adv-x="1050" d="M158 373v536q0 35 25.5 59.5t60.5 24.5q37 0 62.5 -24.5t25.5 -59.5v-544q0 -109 51 -166.5t152 -57.5q196 0 196 219v549q0 35 25.5 59.5t60.5 24.5t60.5 -24.5t25.5 -59.5v-538q0 -396 -368 -396q-107 0 -184 34t-117.5 93t-58 125.5t-17.5 145.5zM299 1161q0 15 10 33 l107 162q24 37 46 54t60 17q27 0 48 -11t31.5 -23t27.5 -37l108 -162q11 -19 11 -33q0 -20 -15.5 -33.5t-36.5 -13.5q-29 0 -47 23l-127 145l-125 -145q-20 -23 -49 -23q-20 0 -34.5 13.5t-14.5 33.5z" />
<glyph unicode="&#xfc;" horiz-adv-x="1050" d="M158 373v536q0 35 25.5 59.5t60.5 24.5q37 0 62.5 -24.5t25.5 -59.5v-544q0 -109 51 -166.5t152 -57.5q196 0 196 219v549q0 35 25.5 59.5t60.5 24.5t60.5 -24.5t25.5 -59.5v-538q0 -396 -368 -396q-107 0 -184 34t-117.5 93t-58 125.5t-17.5 145.5zM283 1305 q0 32 22.5 53.5t56.5 21.5q33 0 55.5 -21.5t22.5 -53.5q0 -34 -23 -57t-55 -23q-34 0 -56.5 23t-22.5 57zM608 1305q0 32 22.5 53.5t55.5 21.5q34 0 57 -21.5t23 -53.5q0 -34 -23 -57t-57 -23q-32 0 -55 23t-23 57z" />
<glyph unicode="&#xfd;" horiz-adv-x="843" d="M14 907q0 35 25.5 60.5t64.5 25.5q36 0 55 -17t31 -50l226 -656l229 666q8 25 29.5 41t50.5 16q34 0 59 -24t25 -58q0 -18 -6 -30l-387 -1057q-51 -138 -111 -203q-57 -63 -119 -63q-42 0 -65 21.5t-23 51.5q0 28 16.5 49t51.5 48q24 19 52 64t50 104l60 161l-303 805 q-11 33 -11 45zM299 1165q0 27 23 47l219 197q21 18 47 18t45.5 -18.5t19.5 -44.5q0 -25 -26 -45l-236 -191q-17 -14 -41 -14q-21 0 -36 15t-15 36z" />
<glyph unicode="&#xfe;" horiz-adv-x="1032" d="M137 -358v1769q0 35 25.5 60.5t62.5 25.5q36 0 61 -25t25 -61v-522q40 52 107.5 85.5t152.5 33.5q118 0 203 -73.5t125.5 -190t40.5 -259.5q0 -107 -22 -198t-64.5 -162t-113 -111.5t-160.5 -40.5q-81 0 -156.5 35.5t-112.5 89.5v-456q0 -36 -25 -61t-61 -25 q-37 0 -62.5 25.5t-25.5 60.5zM311 219q36 -39 96 -63.5t119 -24.5q116 0 179 92.5t63 259.5q0 163 -63.5 266t-178.5 103q-75 0 -131 -27t-84 -77v-529z" />
<glyph unicode="&#xff;" horiz-adv-x="843" d="M14 907q0 35 25.5 60.5t64.5 25.5q36 0 55 -17t31 -50l226 -656l229 666q8 25 29.5 41t50.5 16q34 0 59 -24t25 -58q0 -18 -6 -30l-387 -1057q-51 -138 -111 -203q-57 -63 -119 -63q-42 0 -65 21.5t-23 51.5q0 28 16.5 49t51.5 48q24 19 52 64t50 104l60 161l-303 805 q-11 33 -11 45zM178 1305q0 32 23 53.5t57 21.5q33 0 55.5 -21.5t22.5 -53.5q0 -34 -23 -57t-55 -23q-34 0 -57 23t-23 57zM504 1305q0 32 22.5 53.5t55.5 21.5q34 0 57 -21.5t23 -53.5q0 -34 -23 -57t-57 -23q-32 0 -55 23t-23 57z" />
<glyph unicode="&#x152;" horiz-adv-x="1939" d="M119 717q0 342 162.5 540.5t429.5 198.5q174 0 307 -94q4 22 24.5 47t47.5 25h651q35 0 62.5 -28t27.5 -63t-27.5 -61.5t-62.5 -26.5h-561v-426h479q35 0 60.5 -25t25.5 -59q0 -35 -25.5 -60.5t-60.5 -25.5h-479v-483h561q35 0 62.5 -26.5t27.5 -61.5t-27.5 -61.5 t-62.5 -26.5h-651q-43 0 -70 63q-131 -88 -309 -88q-267 0 -429.5 198.5t-162.5 543.5zM299 715q0 -257 108 -410t304 -153q180 0 288 133v858q-112 135 -288 135q-196 0 -304 -153.5t-108 -409.5z" />
<glyph unicode="&#x153;" horiz-adv-x="1679" d="M86 498q0 227 115 368.5t317 141.5q114 0 201 -51.5t141 -143.5q54 91 138.5 143t189.5 52q127 0 218 -60.5t134 -162t43 -232.5q0 -38 -26 -64t-66 -26h-543q3 -152 69 -241t183 -89q128 0 197 111q25 41 71 41q36 0 60 -24.5t24 -57.5q0 -27 -22 -58 q-60 -80 -149.5 -125t-194.5 -45q-107 0 -191.5 51.5t-136.5 143.5q-115 -195 -340 -195q-202 0 -317 145t-115 378zM260 498q0 -160 68.5 -259.5t189.5 -99.5q119 0 187.5 100t68.5 259q0 153 -68.5 249.5t-187.5 96.5q-121 0 -189.5 -96t-68.5 -250zM950 590h457 q-6 123 -63.5 191.5t-157.5 68.5q-97 0 -161 -71.5t-75 -188.5z" />
<glyph unicode="&#x178;" horiz-adv-x="1040" d="M14 1354q0 35 27.5 61.5t62.5 26.5q54 0 82 -51l338 -590l336 590q26 51 78 51q34 0 60 -25t26 -59q0 -25 -16 -49l-402 -676v-555q0 -35 -27.5 -61.5t-64.5 -26.5q-35 0 -61.5 26.5t-26.5 61.5v551l-397 678q-15 26 -15 47zM276 1759q0 32 23 54t57 22q32 0 55 -22 t23 -54q0 -34 -23 -57t-55 -23q-34 0 -57 23t-23 57zM602 1759q0 32 23 54t55 22q34 0 57 -22t23 -54q0 -34 -23 -57t-57 -23q-32 0 -55 23t-23 57z" />
<glyph unicode="&#x2c6;" horiz-adv-x="505" d="M29 1161q0 15 10 33l106 162q24 36 46.5 53.5t60.5 17.5q27 0 47.5 -11t30.5 -23t28 -37l109 -162q10 -18 10 -33q0 -20 -15 -33.5t-36 -13.5q-29 0 -47 23l-127 145l-125 -145q-20 -23 -49 -23q-20 0 -34.5 13.5t-14.5 33.5z" />
<glyph unicode="&#x2dc;" horiz-adv-x="575" d="M29 1217q0 14 10 34q55 109 156 109q39 0 96 -33t82 -33q30 0 47.5 10.5t32.5 32.5q17 23 43 23q22 0 35.5 -14.5t13.5 -36.5q0 -23 -8 -35q-57 -109 -156 -109q-41 0 -97.5 33t-80.5 33q-30 0 -47.5 -10.5t-32.5 -32.5q-17 -23 -45 -23q-21 0 -35 15t-14 37z" />
<glyph unicode="&#x2000;" horiz-adv-x="961" />
<glyph unicode="&#x2001;" horiz-adv-x="1923" />
<glyph unicode="&#x2002;" horiz-adv-x="961" />
<glyph unicode="&#x2003;" horiz-adv-x="1923" />
<glyph unicode="&#x2004;" horiz-adv-x="641" />
<glyph unicode="&#x2005;" horiz-adv-x="480" />
<glyph unicode="&#x2006;" horiz-adv-x="320" />
<glyph unicode="&#x2007;" horiz-adv-x="320" />
<glyph unicode="&#x2008;" horiz-adv-x="240" />
<glyph unicode="&#x2009;" horiz-adv-x="384" />
<glyph unicode="&#x200a;" horiz-adv-x="106" />
<glyph unicode="&#x2010;" horiz-adv-x="581" d="M25 549q0 32 27 58t61 26h356q34 0 61 -26t27 -58q0 -33 -27 -58.5t-61 -25.5h-356q-34 0 -61 25.5t-27 58.5z" />
<glyph unicode="&#x2011;" horiz-adv-x="581" d="M25 549q0 32 27 58t61 26h356q34 0 61 -26t27 -58q0 -33 -27 -58.5t-61 -25.5h-356q-34 0 -61 25.5t-27 58.5z" />
<glyph unicode="&#x2012;" horiz-adv-x="581" d="M25 549q0 32 27 58t61 26h356q34 0 61 -26t27 -58q0 -33 -27 -58.5t-61 -25.5h-356q-34 0 -61 25.5t-27 58.5z" />
<glyph unicode="&#x2013;" horiz-adv-x="948" d="M0 549q0 32 26 58t60 26h776q34 0 60 -26t26 -58q0 -34 -26 -59t-60 -25h-776q-34 0 -60 25t-26 59z" />
<glyph unicode="&#x2014;" horiz-adv-x="1636" d="M0 549q0 32 26 58t60 26h1464q34 0 60 -26t26 -58q0 -34 -26 -59t-60 -25h-1464q-34 0 -60 25t-26 59z" />
<glyph unicode="&#x2018;" horiz-adv-x="391" d="M90 1186q0 60 15.5 126.5t45.5 115.5t64 49q21 0 31 -12.5t10 -28.5q0 -26 -15.5 -80t-15.5 -88q0 -27 2 -43q30 -13 48 -42t18 -61q0 -40 -26.5 -71t-71.5 -31q-54 0 -79.5 40t-25.5 126z" />
<glyph unicode="&#x2019;" horiz-adv-x="391" d="M90 1374q0 39 27 71t71 32q53 0 78 -40t25 -126q0 -96 -37.5 -193.5t-85.5 -97.5q-41 0 -41 47q0 22 15.5 73.5t15.5 86.5q0 13 -4 45q-30 13 -47 41.5t-17 60.5z" />
<glyph unicode="&#x201a;" horiz-adv-x="391" d="M90 96q0 39 27 71t71 32q54 0 78.5 -40t24.5 -126q0 -94 -37.5 -191.5t-85.5 -97.5q-41 0 -41 47q0 22 15.5 74t15.5 88q0 13 -4 41q-30 13 -47 41.5t-17 60.5z" />
<glyph unicode="&#x201c;" horiz-adv-x="704" d="M90 1186q0 60 15.5 126.5t45.5 115.5t64 49q21 0 31 -12.5t10 -28.5q0 -26 -15.5 -80t-15.5 -88q0 -27 2 -43q30 -13 48 -42t18 -61q0 -40 -26.5 -71t-71.5 -31q-54 0 -79.5 40t-25.5 126zM406 1186q0 97 36 194t86 97q21 0 31 -12.5t10 -28.5q0 -25 -15 -77.5t-15 -90.5 q0 -11 4 -43q29 -13 46 -42t17 -61q0 -40 -26 -71t-72 -31q-55 0 -78.5 39.5t-23.5 126.5z" />
<glyph unicode="&#x201d;" horiz-adv-x="704" d="M90 1374q0 39 27 71t71 32q53 0 78 -40t25 -126q0 -96 -37.5 -193.5t-85.5 -97.5q-41 0 -41 41q0 26 15.5 79t15.5 87q0 13 -4 45q-30 13 -47 41.5t-17 60.5zM403 1374q0 39 27.5 71t71.5 32q55 0 78.5 -39.5t23.5 -126.5q0 -61 -15.5 -127.5t-44.5 -115t-63 -48.5 q-41 0 -41 41q0 26 15.5 79t15.5 87q0 29 -2 45q-30 13 -48 41.5t-18 60.5z" />
<glyph unicode="&#x201e;" horiz-adv-x="704" d="M90 96q0 39 27 71t71 32q54 0 78.5 -40t24.5 -126q0 -94 -37.5 -191.5t-85.5 -97.5q-21 0 -31 12.5t-10 28.5q0 26 15.5 79t15.5 89q0 13 -4 41q-30 13 -47 41.5t-17 60.5zM403 96q0 39 27.5 71t71.5 32q55 0 78.5 -39.5t23.5 -126.5q0 -96 -36.5 -192.5t-86.5 -96.5 q-41 0 -41 47q0 22 15.5 74t15.5 88q0 27 -2 41q-30 13 -48 41.5t-18 60.5z" />
<glyph unicode="&#x2022;" horiz-adv-x="870" d="M117 696q0 135 92 228.5t223 93.5q136 0 229 -93.5t93 -228.5t-93 -228t-229 -93q-131 0 -223 93t-92 228z" />
<glyph unicode="&#x2026;" horiz-adv-x="1740" d="M195 96q0 44 33 76.5t79 32.5t79.5 -32.5t33.5 -76.5q0 -45 -33.5 -77.5t-79.5 -32.5t-79 32t-33 78zM778 96q0 44 33.5 76.5t79.5 32.5t79.5 -32.5t33.5 -76.5q0 -45 -33.5 -77.5t-79.5 -32.5t-79.5 32.5t-33.5 77.5zM1362 96q0 44 33.5 76.5t79.5 32.5t79 -32.5 t33 -76.5q0 -46 -33 -78t-79 -32t-79.5 32.5t-33.5 77.5z" />
<glyph unicode="&#x202f;" horiz-adv-x="384" />
<glyph unicode="&#x2039;" horiz-adv-x="768" d="M201 555l213 352q17 31 57 31q26 0 46 -20t20 -46q0 -18 -11 -36l-157 -281l157 -279q11 -18 11 -36q0 -26 -20 -46t-46 -20q-38 0 -57 31z" />
<glyph unicode="&#x203a;" horiz-adv-x="768" d="M231 240q0 18 11 36l157 279l-157 281q-11 18 -11 36q0 26 20 46t46 20q40 0 57 -31l213 -352l-213 -350q-19 -31 -57 -31q-26 0 -46 20t-20 46z" />
<glyph unicode="&#x205f;" horiz-adv-x="480" />
<glyph unicode="&#x20ac;" d="M98 543q0 28 20.5 47.5t49.5 19.5h61q-2 25 -2 78q0 45 2 68h-61q-27 0 -48.5 19.5t-21.5 49.5q0 28 20.5 48t49.5 20h72q31 242 137.5 381t290.5 139q59 0 126 -23.5t115.5 -64.5t48.5 -86q0 -28 -22 -50t-51 -22q-35 0 -51 21q-61 76 -166 76q-78 0 -136 -51 t-90.5 -131t-48.5 -189h406q27 0 48 -20.5t21 -47.5q0 -29 -20 -49t-49 -20h-418q-2 -23 -2 -68q0 -53 2 -78h278q29 0 49.5 -20t20.5 -47q0 -28 -20 -49t-50 -21h-262q25 -161 91.5 -255.5t179.5 -94.5q148 0 204 123q21 47 68 47q29 0 51.5 -22.5t22.5 -51.5 q0 -20 -21 -53q-60 -94 -137 -142.5t-188 -48.5q-179 0 -287 132.5t-141 365.5h-72q-27 0 -48.5 21.5t-21.5 48.5z" />
<glyph unicode="&#x2122;" horiz-adv-x="1540" d="M57 1380q0 21 13.5 35.5t31.5 14.5h441q20 0 33.5 -14t13.5 -36q0 -18 -13.5 -32.5t-33.5 -14.5h-172v-600q0 -21 -14.5 -36t-32.5 -15q-21 0 -34.5 14.5t-13.5 36.5v600h-174q-17 0 -31 15t-14 32zM698 737l15 649q0 25 17 38.5t42 13.5q18 0 33.5 -10t21.5 -27 l215 -547l218 547q16 37 57 37q24 0 39.5 -14t15.5 -38l12 -653q0 -22 -13 -36.5t-32 -14.5q-20 0 -34.5 15.5t-14.5 35.5l-6 484l-199 -504q-12 -31 -43 -31q-16 0 -28 9t-15 22l-198 506l-4 -486q0 -20 -15.5 -35.5t-33.5 -15.5q-21 0 -35.5 15.5t-14.5 39.5z" />
<glyph unicode="&#x25fc;" horiz-adv-x="993" d="M0 0v993h993v-993h-993z" />
<glyph unicode="&#xfb01;" horiz-adv-x="1234" d="M43 909q0 31 21 53.5t55 22.5h100v201q0 146 70 226.5t200 80.5q34 0 66 -5t63 -16.5t49.5 -35t18.5 -56.5q0 -31 -23.5 -51t-52.5 -20q-22 0 -51.5 15t-60.5 15q-56 0 -80.5 -39t-24.5 -122v-193h148q34 0 54.5 -22.5t20.5 -53.5q0 -30 -20.5 -50.5t-54.5 -20.5h-148 v-713q0 -65 -17.5 -99t-70.5 -34q-29 0 -47 9.5t-26 29.5t-10.5 40.5t-2.5 53.5v713h-100q-34 0 -55 21t-21 50zM877 1292q0 39 27.5 66.5t68.5 27.5q40 0 68 -28t28 -66q-2 -40 -29 -67t-67 -27q-41 0 -68.5 27t-27.5 67zM887 254v641q0 41 23.5 69.5t62.5 28.5 q37 0 61.5 -24.5t24.5 -59.5v-653q0 -43 11 -102.5t11 -79.5q0 -35 -24.5 -58.5t-61.5 -23.5q-34 0 -57 22t-33.5 63.5t-14 81.5t-3.5 95z" />
<glyph unicode="&#xfb02;" horiz-adv-x="1236" d="M43 909q0 31 21 53.5t55 22.5h100v201q0 146 70 226.5t200 80.5q34 0 66 -5t63 -16.5t49.5 -35t18.5 -56.5q0 -31 -23.5 -51t-52.5 -20q-22 0 -51.5 15t-60.5 15q-56 0 -80.5 -39t-24.5 -122v-193h148q34 0 54.5 -22.5t20.5 -53.5q0 -30 -20.5 -50.5t-54.5 -20.5h-148 v-713q0 -65 -17.5 -99t-70.5 -34q-29 0 -47 9.5t-26 29.5t-10.5 40.5t-2.5 53.5v713h-100q-34 0 -55 21t-21 50zM887 254v1157q0 35 25.5 60.5t60.5 25.5q36 0 61 -25t25 -61v-1155q0 -43 12 -105t12 -79q0 -35 -25.5 -57.5t-62.5 -22.5q-35 0 -58 22t-33 63.5t-13.5 81 t-3.5 95.5z" />
</font>
</defs>
</svg>
