<?xml version="1.0" standalone="no"?>
<!DOCTYPE svg PUBLIC "-//W3C//DTD SVG 1.1//EN" "http://www.w3.org/Graphics/SVG/1.1/DTD/svg11.dtd" >
<svg xmlns="http://www.w3.org/2000/svg" xmlns:xlink="http://www.w3.org/1999/xlink" version="1.1">
<metadata></metadata>
<defs>
<font id="schemebold" horiz-adv-x="1173" >
<font-face units-per-em="2048" ascent="1536" descent="-512" />
<missing-glyph horiz-adv-x="440" />
<glyph unicode="&#x28;C&#x29;" horiz-adv-x="1417" d="M45 694q0 197 89 362.5t242 261t335 95.5q135 0 258 -56.5t211.5 -152.5t141 -229t52.5 -281q0 -199 -88.5 -365.5t-241 -262t-333.5 -95.5q-182 0 -335 95.5t-242 262t-89 365.5zM180 694q0 -124 40.5 -232.5t110.5 -185.5t168.5 -121t211.5 -44q227 0 377.5 165.5 t150.5 417.5q0 163 -68.5 295.5t-189.5 207.5t-270 75q-228 0 -379.5 -165t-151.5 -413zM336 690q0 201 104 330t275 129q88 0 161 -38t113 -105q21 -38 21 -62q0 -27 -18.5 -45t-47.5 -18q-43 0 -59 43q-11 27 -51 59q-48 39 -127 39q-106 0 -172 -92.5t-66 -239.5 t66.5 -241.5t173.5 -94.5q111 0 165 99q25 45 66 45q26 0 45 -19t19 -47q0 -23 -15 -47q-41 -70 -106 -113q-73 -45 -170 -45q-172 0 -274.5 130t-102.5 333z" />
<glyph unicode="&#x28;R&#x29;" horiz-adv-x="923" d="M45 1020q0 193 120.5 317.5t297.5 124.5t297.5 -124.5t120.5 -317.5q0 -197 -120.5 -326t-297.5 -129t-297.5 129t-120.5 326zM139 1020q0 -159 92 -256.5t232 -97.5t230.5 97.5t90.5 256.5q0 156 -90.5 250t-230.5 94q-141 0 -232.5 -94t-91.5 -250zM309 799v446 q0 19 14 32t33 13h76q97 0 152 -36t55 -128q0 -106 -86 -147l92 -152q10 -17 10 -28q0 -19 -14.5 -32t-30.5 -13q-30 0 -43 22l-110 187h-54v-164q0 -19 -15.5 -32t-31.5 -13q-19 0 -33 12.5t-14 32.5zM403 1055h62q36 0 59 17.5t23 53.5q0 35 -23 53.5t-57 18.5h-64v-143z " />
<glyph horiz-adv-x="0" />
<glyph horiz-adv-x="682" />
<glyph horiz-adv-x="440" />
<glyph unicode=" "  horiz-adv-x="440" />
<glyph unicode="&#x09;" horiz-adv-x="440" />
<glyph unicode="&#xa0;" horiz-adv-x="440" />
<glyph unicode="!" horiz-adv-x="907" d="M285 145q0 67 50.5 115.5t119.5 48.5q71 0 121.5 -48.5t50.5 -115.5t-50.5 -115t-121.5 -48q-69 0 -119.5 48t-50.5 115zM293 1315q0 65 47.5 110t114.5 45q69 0 116 -45t47 -110l-22 -783q-2 -54 -43 -92.5t-98 -38.5q-56 0 -97.5 38.5t-42.5 92.5z" />
<glyph unicode="&#x22;" horiz-adv-x="819" d="M84 1358q0 53 41 93t94 40q56 0 97.5 -39.5t41.5 -93.5l-8 -262q-2 -47 -40.5 -83t-90.5 -36q-49 0 -87 36.5t-40 82.5zM455 1358q0 53 41 93t94 40q56 0 97.5 -39.5t41.5 -93.5l-8 -262q-2 -47 -40.5 -83t-90.5 -36q-49 0 -87 36.5t-40 82.5z" />
<glyph unicode="#" horiz-adv-x="1085" d="M53 530q0 38 27 65.5t74 27.5h90l28 174h-75q-47 0 -73 28t-26 68q0 38 26 65t73 27h102l49 348q6 40 33 60t63 20q40 0 70.5 -27t30.5 -71l-49 -330h172l49 348q6 39 33.5 59.5t62.5 20.5q40 0 70 -27t30 -71l-47 -330h66q47 0 73.5 -27t26.5 -65q0 -39 -26.5 -67.5 t-73.5 -28.5h-92l-29 -174h76q47 0 72.5 -27.5t25.5 -65.5q0 -39 -25.5 -67.5t-72.5 -28.5h-99l-53 -362q-6 -39 -33.5 -59.5t-62.5 -20.5q-40 0 -69 27t-29 75l49 340h-170l-53 -362q-6 -39 -34 -59.5t-63 -20.5q-40 0 -69 27t-29 75l49 340h-67q-47 0 -74 29t-27 67z M442 623h170l29 174h-170z" />
<glyph unicode="$" d="M219 434q0 46 32.5 77.5t78.5 31.5q38 0 66 -19.5t40 -52.5q17 -43 58 -66.5t94 -23.5q61 0 101 28.5t40 79.5q0 23 -10.5 42t-23.5 31t-40.5 24t-45.5 18t-54 17q-41 12 -64 19.5t-60.5 22.5t-59.5 29.5t-49 38t-41.5 51t-24.5 65.5t-10 83q0 117 67 192t174 101v80 q0 44 34 77t79 33q46 0 79.5 -33t33.5 -77v-82q65 -17 116 -58.5t80 -99.5q23 -40 23 -74q0 -45 -32.5 -74.5t-80.5 -29.5q-41 0 -69 20.5t-39 57.5q-18 59 -127 59q-49 0 -82 -22.5t-33 -63.5q0 -20 11.5 -36t37.5 -29t48 -20.5t63 -19.5q40 -11 67 -19.5t64 -24t62 -32 t52 -42t43 -54.5t26.5 -70t10.5 -89q0 -122 -62.5 -202.5t-178.5 -111.5v-86q0 -43 -33.5 -75.5t-79.5 -32.5q-44 0 -78.5 32.5t-34.5 75.5v78q-134 23 -221 137q-47 59 -47 119z" />
<glyph unicode="%" horiz-adv-x="1634" d="M90 1038q0 164 86.5 269.5t235.5 105.5q147 0 232 -105.5t85 -269.5q0 -170 -84.5 -275.5t-232.5 -105.5q-149 0 -235.5 106t-86.5 275zM301 1038q0 -79 28 -129.5t83 -50.5q52 0 79 51t27 129q0 73 -27.5 123.5t-78.5 50.5q-55 0 -83 -50t-28 -124zM365 90q0 21 10 51 l700 1219q30 53 92 53q39 0 72 -29t33 -71q0 -23 -15 -47l-700 -1223q-30 -51 -88 -51q-45 0 -74.5 27t-29.5 71zM909 358q0 166 86 271.5t236 105.5q146 0 231.5 -106t85.5 -271q0 -167 -85.5 -275t-231.5 -108q-150 0 -236 107.5t-86 275.5zM1120 358q0 -77 28.5 -128.5 t82.5 -51.5q51 0 78.5 51.5t27.5 128.5q0 74 -27.5 125.5t-78.5 51.5q-54 0 -82.5 -51t-28.5 -126z" />
<glyph unicode="&#x26;" horiz-adv-x="1163" d="M100 377q0 137 57 234.5t173 191.5q-111 165 -111 321q0 151 95.5 242.5t236.5 91.5q135 0 231.5 -85.5t96.5 -229.5q0 -105 -55.5 -192.5t-170.5 -184.5q29 -46 156 -215q27 93 27 172q0 56 43.5 100.5t107.5 44.5q60 0 105 -43.5t45 -101.5q0 -101 -28.5 -211 t-82.5 -207q42 -36 66 -51q30 -18 47.5 -50.5t17.5 -68.5q0 -57 -44.5 -100t-104.5 -43q-50 0 -90 28q-55 38 -78 60q-134 -100 -293 -100q-205 0 -326 108t-121 289zM393 412q0 -64 46 -106t104 -42q54 0 110 37q-135 174 -196 285q-64 -73 -64 -174zM481 1135 q0 -83 41 -172q90 86 90 180q0 25 -16.5 43t-48.5 18q-30 0 -48 -20t-18 -49z" />
<glyph unicode="'" horiz-adv-x="448" d="M84 1358q0 53 41 93t94 40q56 0 97.5 -39.5t41.5 -93.5l-8 -262q-2 -47 -40.5 -83t-90.5 -36q-49 0 -87 36.5t-40 82.5z" />
<glyph unicode="(" horiz-adv-x="612" d="M139 616q0 217 48.5 433.5t146.5 394.5q32 53 94 53q41 0 71.5 -30.5t30.5 -71.5q0 -14 -4 -28.5t-13 -35.5t-11 -26q-129 -335 -129 -689q0 -322 121 -667q2 -7 13.5 -33t17 -45t5.5 -37q0 -40 -30.5 -71t-71.5 -31q-62 0 -94 53q-195 375 -195 831z" />
<glyph unicode=")" horiz-adv-x="614" d="M82 -166q0 17 6 37t17 45t14 33q121 345 121 667q0 354 -129 689q-2 6 -11 26t-13.5 35t-4.5 29q0 41 30.5 71.5t71.5 30.5q63 0 95 -53q98 -178 146 -394t48 -434q0 -458 -194 -831q-32 -53 -95 -53q-41 0 -71.5 31t-30.5 71z" />
<glyph unicode="*" horiz-adv-x="878" d="M119 1036q0 27 16.5 50.5t48.5 29.5l154 27l-109 127q-18 20 -18 49q0 32 26.5 57t59.5 25q41 0 68 -49l75 -135l76 135q27 49 68 49q33 0 59.5 -25t26.5 -57q0 -28 -19 -49l-108 -127l153 -27q32 -6 49 -29.5t17 -50.5q0 -33 -22.5 -56.5t-55.5 -23.5q-16 0 -37 9 l-143 59l16 -160q0 -40 -23.5 -62t-56.5 -22t-56.5 22t-23.5 62l17 160l-144 -59q-21 -9 -36 -9q-33 0 -55.5 23.5t-22.5 56.5z" />
<glyph unicode="+" d="M156 575q0 43 32.5 75t75.5 32h215v215q0 43 32 76t75 33q42 0 74 -33t32 -76v-215h215q44 0 77.5 -32t33.5 -75t-33.5 -74.5t-77.5 -31.5h-215v-215q0 -44 -31.5 -77.5t-74.5 -33.5t-75 33.5t-32 77.5v215h-215q-43 0 -75.5 31.5t-32.5 74.5z" />
<glyph unicode="," horiz-adv-x="688" d="M182 152q0 64 42.5 110.5t117.5 46.5q77 0 120.5 -47t43.5 -141q0 -51 -13 -114.5t-36.5 -123t-60.5 -99.5t-79 -40q-65 0 -65 59q0 19 14.5 67t14.5 89q0 4 -5 49q-49 17 -71.5 59.5t-22.5 84.5z" />
<glyph unicode="-" horiz-adv-x="653" d="M25 541q0 56 45.5 99.5t103.5 43.5h307q57 0 103.5 -44t46.5 -99t-46.5 -98.5t-103.5 -43.5h-307q-58 0 -103.5 43t-45.5 99z" />
<glyph unicode="." horiz-adv-x="706" d="M182 145q0 67 50.5 115.5t119.5 48.5q71 0 121.5 -48.5t50.5 -115.5t-50.5 -115t-121.5 -48q-69 0 -119.5 48t-50.5 115z" />
<glyph unicode="/" horiz-adv-x="669" d="M-43 -86q0 24 10 47l535 1446q11 33 38 54.5t64 21.5q43 0 76 -32t33 -73q0 -10 -13 -49l-534 -1444q-13 -33 -39 -54t-61 -21q-43 0 -76 31.5t-33 72.5z" />
<glyph unicode="0" d="M111 692q0 356 116.5 536.5t360.5 180.5q243 0 359 -180.5t116 -536.5q0 -355 -116 -535t-359 -180q-244 0 -360.5 179.5t-116.5 535.5zM430 692q0 -220 36 -313.5t122 -93.5q84 0 118.5 93t34.5 314t-35 315.5t-118 94.5q-86 0 -122 -94.5t-36 -315.5z" />
<glyph unicode="1" d="M205 1061q0 50 31.5 88.5t78.5 54.5q40 13 82 48t66 73q57 84 143 84q65 0 114.5 -47.5t49.5 -108.5v-1110q0 -58 -49 -103.5t-111 -45.5t-109.5 45.5t-47.5 103.5v791l-15 -6q-28 -17 -88 -17q-59 0 -102 45.5t-43 104.5z" />
<glyph unicode="2" d="M115 152q0 47 35 94q81 105 378 440q164 183 164 293q0 135 -119 135q-89 0 -112 -121q-10 -55 -50.5 -93t-103.5 -38q-61 0 -109 46.5t-48 105.5q0 40 20 110q42 126 151.5 205.5t249.5 79.5q185 0 310 -117.5t125 -310.5q0 -98 -45.5 -193t-124.5 -200 q-114 -146 -267 -287h330q60 0 109 -45.5t49 -103.5t-49 -105t-109 -47h-627q-61 0 -109 46.5t-48 105.5z" />
<glyph unicode="3" d="M131 317q0 65 47 112.5t111 47.5q92 0 141 -82q37 -66 70.5 -94.5t95.5 -28.5q61 0 97 43t36 125q0 164 -194 164q-55 0 -97.5 41.5t-42.5 95.5t43 95t99 41q83 0 120 32t37 101q0 56 -31.5 87t-84.5 31q-79 0 -119 -86q-46 -98 -144 -98q-64 0 -113.5 47t-49.5 115 q0 58 30 106q115 197 371 197q87 0 166.5 -25t143 -71.5t101 -121.5t37.5 -167q0 -190 -163 -279q98 -47 150 -131.5t52 -193.5q0 -130 -66 -232.5t-173 -156.5t-234 -54q-136 0 -247.5 67t-165.5 181q-23 48 -23 92z" />
<glyph unicode="4" d="M86 428q0 42 20 86l402 821q17 34 54 54t79 20q58 0 104 -43t46 -102q0 -28 -19 -72l-315 -647h178v94q0 63 44 108.5t105 45.5t105.5 -44t44.5 -100v-104h31q48 0 85 -39.5t37 -91.5q0 -51 -37.5 -92t-84.5 -41h-31v-146q0 -56 -46 -99.5t-104 -43.5t-103.5 43.5 t-45.5 99.5v146h-397q-69 0 -110.5 43t-41.5 104z" />
<glyph unicode="5" d="M135 268q-11 64 34.5 120t111.5 56q106 0 151 -82q19 -37 55 -59t80 -22q156 0 156 227q0 105 -38 154t-103 49q-78 0 -111 -60q-22 -40 -59 -65t-84 -25q-62 0 -108 45t-46 105l27 544q3 59 48 102.5t111 43.5q3 0 81.5 -3t185.5 -3q79 0 143 3t74 3q61 0 109 -46.5 t48 -107.5q0 -59 -51 -105t-121 -46q-190 0 -354 24l-8 -200q70 47 188 47q175 0 279 -131.5t104 -329.5q0 -145 -55.5 -265t-161.5 -192t-243 -72q-136 0 -232.5 43.5t-167.5 147.5q-34 43 -43 100z" />
<glyph unicode="6" d="M123 590q0 74 4 141.5t17 153t34.5 156t60.5 141t91 119t129 78.5t172 30q215 0 311 -115q66 -76 66 -157q0 -61 -38.5 -103.5t-101.5 -42.5q-51 0 -84 19.5t-59 56.5q-45 61 -119 61q-49 0 -85 -33t-55.5 -90t-28.5 -119.5t-11 -135.5q31 76 101 116.5t159 40.5 q161 0 263 -113.5t102 -332.5q0 -232 -120 -358t-333 -126q-155 0 -263.5 79.5t-160 215.5t-51.5 318zM453 461q0 -85 38 -132.5t99 -47.5q71 0 108 41.5t37 136.5q0 99 -31.5 139.5t-97.5 40.5q-67 0 -110 -43.5t-43 -134.5z" />
<glyph unicode="7" d="M119 1247q0 61 47.5 107.5t109.5 46.5h609q68 0 118 -40.5t50 -98.5q0 -41 -10 -67.5t-35 -61.5q-29 -42 -71.5 -140t-91 -233.5t-87.5 -248.5t-85.5 -252t-58.5 -175q-16 -47 -56 -77t-97 -30q-70 0 -116 46.5t-46 101.5q0 33 23 113q45 157 144 406.5t214 451.5h-404 q-61 0 -109 46t-48 105z" />
<glyph unicode="8" d="M117 395q0 122 58.5 210.5t150.5 129.5q-82 43 -131.5 123.5t-49.5 188.5q0 109 62.5 193t161.5 126.5t215 42.5q115 0 214 -42.5t161.5 -126.5t62.5 -193q0 -108 -51.5 -186.5t-128.5 -123.5q85 -48 149 -137t64 -205q0 -127 -66.5 -223.5t-172.5 -145.5t-232 -49 t-231 49t-170.5 145.5t-65.5 223.5zM420 444q0 -91 43.5 -135.5t120.5 -44.5t122.5 45t45.5 135q0 83 -49 131.5t-119 53.5q-67 -8 -115.5 -57.5t-48.5 -127.5zM457 987q0 -60 35 -98t92 -47q60 9 94.5 47t34.5 98q0 135 -129 135q-127 0 -127 -135z" />
<glyph unicode="9" d="M123 926q0 232 119.5 357.5t332.5 125.5q155 0 263.5 -79t160.5 -215t52 -318q0 -83 -3.5 -152t-16.5 -156.5t-34 -156t-60 -137.5t-91 -115t-129.5 -74.5t-173.5 -28.5q-216 0 -312 115q-65 75 -65 158q0 61 38 103t101 42q89 0 144 -76q45 -61 118 -61q49 0 85 33 t55.5 90.5t29 120t11.5 135.5q-31 -76 -101.5 -117t-159.5 -41q-161 0 -262.5 114t-101.5 333zM438 928q0 -99 31.5 -139.5t97.5 -40.5q67 0 110.5 43.5t43.5 134.5q0 85 -38 132.5t-99 47.5q-146 0 -146 -178z" />
<glyph unicode=":" horiz-adv-x="706" d="M182 156q0 67 50.5 115t119.5 48q71 0 121.5 -48t50.5 -115t-50.5 -115.5t-121.5 -48.5q-69 0 -119.5 48.5t-50.5 115.5zM182 809q0 67 50.5 115.5t119.5 48.5q71 0 121.5 -48.5t50.5 -115.5t-50.5 -115.5t-121.5 -48.5q-69 0 -119.5 48.5t-50.5 115.5z" />
<glyph unicode=";" horiz-adv-x="628" d="M143 152q0 64 42.5 110.5t117.5 46.5q77 0 120.5 -47t43.5 -141q0 -51 -13 -114.5t-36 -123t-60 -99.5t-79 -40q-66 0 -66 59q0 19 14.5 67t14.5 89q0 13 -4 49q-49 17 -72 59.5t-23 84.5zM145 809q0 67 50.5 115.5t121.5 48.5q69 0 119.5 -48.5t50.5 -115.5 t-50.5 -115.5t-119.5 -48.5q-71 0 -121.5 48.5t-50.5 115.5z" />
<glyph unicode="&#x3c;" d="M199 575q0 56 63 93l551 323q26 15 53 15q41 0 74 -32t33 -73q0 -27 -15.5 -51.5t-39.5 -38.5l-414 -236l414 -235q25 -14 40 -38t15 -52q0 -41 -33 -73t-74 -32q-27 0 -53 13l-551 325q-63 37 -63 92z" />
<glyph unicode="=" d="M156 389q0 41 32.5 73t75.5 32h643q44 0 77.5 -32t33.5 -73q0 -43 -33.5 -74.5t-77.5 -31.5h-643q-43 0 -75.5 31.5t-32.5 74.5zM156 762q0 43 32.5 74.5t75.5 31.5h643q44 0 77.5 -31.5t33.5 -74.5q0 -41 -33.5 -73t-77.5 -32h-643q-43 0 -75.5 32t-32.5 73z" />
<glyph unicode="&#x3e;" d="M199 250q0 28 15 52t40 38l414 235l-414 236q-24 14 -39.5 38.5t-15.5 51.5q0 41 32.5 73t73.5 32q27 0 53 -15l551 -323q26 -15 45 -40t19 -53q0 -55 -64 -92l-551 -325q-26 -13 -53 -13q-41 0 -73.5 32t-32.5 73z" />
<glyph unicode="?" horiz-adv-x="1085" d="M193 1249q0 54 38 99q55 65 139.5 99t178.5 34q172 0 284.5 -95t112.5 -258q0 -62 -14.5 -113.5t-38 -87.5t-51.5 -68.5t-56 -64t-51.5 -66t-38 -82.5t-14.5 -105q0 -54 -45 -97t-102 -43q-55 0 -98 41t-48 95q-6 81 18 151.5t62.5 121.5t78.5 98t68.5 102t28.5 112 q0 37 -22.5 59.5t-63.5 22.5q-51 0 -104 -53q-45 -45 -111 -45q-61 0 -106 43t-45 100zM367 145q0 67 50.5 115.5t119.5 48.5q71 0 121.5 -48.5t50.5 -115.5t-50.5 -115t-121.5 -48q-69 0 -119.5 48t-50.5 115z" />
<glyph unicode="@" horiz-adv-x="1466" d="M74 479q0 175 59 329t157.5 260t231 167t277.5 61q173 0 306.5 -81t204 -218t70.5 -305q0 -83 -33.5 -173t-88.5 -163t-132 -120.5t-157 -47.5q-65 0 -109 18t-72 73q-68 -89 -159 -89q-90 0 -142.5 69t-52.5 196q0 53 10.5 110.5t34.5 116.5t58 105.5t85.5 76 t112.5 29.5q94 0 135 -80q27 74 88 74q78 0 78 -86q0 -25 -2 -37l-61 -389q6 -15 22 -15q33 0 76.5 43t78 125t34.5 174q0 164 -110 271.5t-279 107.5q-209 0 -353.5 -172t-144.5 -436q0 -210 100 -332.5t273 -122.5q140 0 243 54q29 16 74 16q43 0 71.5 -28.5t28.5 -75.5 q0 -44 -42.5 -80.5t-108.5 -57.5t-137 -32t-135 -11q-181 0 -316.5 89t-204.5 241.5t-69 345.5zM616 457q0 -40 16 -63t40 -23q79 0 106 35l51 288q-22 29 -73 29q-61 0 -100.5 -77t-39.5 -189z" />
<glyph unicode="A" horiz-adv-x="1132" d="M16 133q0 25 13 62l393 1146q14 42 55 71.5t90 29.5q50 0 92 -29.5t56 -71.5l393 -1138q10 -29 10 -62q0 -60 -45.5 -104.5t-107.5 -44.5q-49 0 -90.5 29.5t-55.5 72.5l-55 170h-410l-55 -176q-12 -40 -52 -68t-87 -28q-57 0 -100.5 42t-43.5 99zM434 526h250l-125 389z " />
<glyph unicode="B" horiz-adv-x="1263" d="M184 152v1130q0 61 46.5 106.5t109.5 45.5h301q191 0 311.5 -94.5t120.5 -254.5q0 -132 -49.5 -200.5t-144.5 -110.5q260 -65 260 -348q0 -119 -48 -214t-149.5 -153.5t-243.5 -58.5h-358q-63 0 -109.5 45.5t-46.5 106.5zM494 303h135q196 0 196 164q0 87 -54.5 123.5 t-154.5 36.5h-122v-324zM494 872h122q148 0 148 138q0 70 -36.5 100.5t-115.5 30.5h-118v-269z" />
<glyph unicode="C" horiz-adv-x="1310" d="M113 715q0 214 73.5 381.5t209.5 262.5t313 95q163 0 289.5 -71.5t195.5 -194.5q31 -60 31 -94q0 -62 -45.5 -107t-110.5 -45q-39 0 -75.5 20.5t-55.5 53.5q-23 42 -31 51q-69 86 -196 86q-134 0 -211.5 -122.5t-77.5 -317.5t75 -314.5t218 -119.5q61 0 118.5 28.5 t75.5 79.5q15 42 58.5 73.5t91.5 31.5q63 0 109 -45t46 -107q0 -35 -20 -86q-47 -115 -189 -196t-294 -81q-276 0 -437 201t-161 537z" />
<glyph unicode="D" horiz-adv-x="1357" d="M168 152v1130q0 61 46 106.5t108 45.5h264q308 0 481.5 -181.5t173.5 -537.5q0 -361 -169.5 -538t-485.5 -177h-264q-62 0 -108 45.5t-46 106.5zM477 303h25q84 0 142 6t109 22.5t82.5 45.5t54.5 75t32.5 110t9.5 153q0 127 -21.5 207.5t-73 127t-125 63.5t-190.5 17h-45 v-827z" />
<glyph unicode="E" horiz-adv-x="1204" d="M188 152v1130q0 61 46.5 106.5t109.5 45.5h586q62 0 108.5 -45.5t46.5 -106.5q0 -60 -46.5 -104.5t-108.5 -44.5h-432v-250h368q58 0 101 -42t43 -98q0 -57 -42.5 -98t-101.5 -41h-368v-301h432q62 0 108.5 -45.5t46.5 -105.5q0 -61 -46.5 -106.5t-108.5 -45.5h-586 q-63 0 -109.5 45.5t-46.5 106.5z" />
<glyph unicode="F" horiz-adv-x="1163" d="M174 141v1141q0 61 46.5 106.5t109.5 45.5h585q62 0 109 -45.5t47 -106.5q0 -60 -47 -104.5t-109 -44.5h-432v-250h357q58 0 100.5 -42t42.5 -98q0 -57 -42 -98t-101 -41h-357v-463q0 -60 -45.5 -104.5t-107.5 -44.5q-63 0 -109.5 44.5t-46.5 104.5z" />
<glyph unicode="G" horiz-adv-x="1400" d="M119 715q0 216 72 383.5t208 261.5t316 94q171 0 285 -63t208 -215q25 -45 25 -82q0 -62 -45.5 -107t-110.5 -45q-41 0 -76.5 20.5t-54.5 53.5q-73 137 -229 137q-133 0 -211 -123t-78 -317q0 -205 82.5 -324t228.5 -119q148 0 199 35v227h-143q-58 0 -102 43.5 t-44 100.5q0 58 43.5 100.5t102.5 42.5h264q63 0 109 -45t46 -106v-527q-188 -164 -493 -164q-272 0 -437 196.5t-165 541.5z" />
<glyph unicode="H" horiz-adv-x="1396" d="M182 141v1151q0 61 47 106.5t109 45.5t108 -45.5t46 -106.5v-403h411v403q0 61 46.5 106.5t109.5 45.5q62 0 107.5 -45.5t45.5 -106.5v-1151q0 -60 -45.5 -104.5t-107.5 -44.5q-63 0 -109.5 44.5t-46.5 104.5v465h-411v-465q0 -60 -46 -104.5t-108 -44.5t-109 44.5 t-47 104.5z" />
<glyph unicode="I" horiz-adv-x="700" d="M197 141v1151q0 61 46.5 106.5t108.5 45.5t108 -45.5t46 -106.5v-1151q0 -60 -46 -104.5t-108 -44.5t-108.5 44.5t-46.5 104.5z" />
<glyph unicode="J" horiz-adv-x="1019" d="M25 270q0 61 45.5 106.5t107.5 45.5q93 0 141 -88q26 -51 97 -51q65 0 99 53.5t34 181.5v774q0 60 46.5 105t109.5 45q61 0 107 -45t46 -105v-760q0 -245 -119.5 -397.5t-320.5 -152.5q-211 0 -330 145q-63 79 -63 143z" />
<glyph unicode="K" horiz-adv-x="1185" d="M195 141v1151q0 61 46.5 106.5t108.5 45.5t108 -45.5t46 -106.5v-430h63l297 512q40 68 121 68q55 0 98 -39.5t43 -97.5q0 -33 -22 -72l-297 -469l334 -535q26 -45 26 -84q0 -61 -48 -107t-113 -46q-92 0 -140 80l-323 555h-39v-486q0 -60 -46 -104.5t-108 -44.5 t-108.5 44.5t-46.5 104.5z" />
<glyph unicode="L" horiz-adv-x="1110" d="M184 152v1140q0 60 46.5 105t109.5 45q62 0 108 -45t46 -105v-989h407q63 0 109.5 -45.5t46.5 -105.5q0 -61 -46.5 -106.5t-109.5 -45.5h-561q-63 0 -109.5 45.5t-46.5 106.5z" />
<glyph unicode="M" horiz-adv-x="1703" d="M180 131l23 1165q1 71 50.5 110.5t119.5 39.5q56 0 102 -27.5t64 -75.5l319 -841l320 841q19 49 59 76t94 27q70 0 119.5 -39.5t50.5 -110.5l23 -1165q1 -55 -43 -97t-101 -42q-56 0 -100.5 42t-44.5 97l-8 641l-232 -686q-14 -40 -54 -67t-89 -27t-89 27t-54 67 l-232 686l-8 -641q0 -55 -44.5 -97t-100.5 -42q-57 0 -101 42t-43 97z" />
<glyph unicode="N" horiz-adv-x="1411" d="M170 133v1165q0 62 46.5 106t113.5 44q88 0 137 -74l483 -766v688q0 57 43.5 99.5t102.5 42.5q60 0 103.5 -42.5t43.5 -99.5v-1165q0 -62 -46.5 -105.5t-113.5 -43.5q-89 0 -137 73l-483 766v-688q0 -57 -43.5 -99t-102.5 -42q-60 0 -103.5 42t-43.5 99z" />
<glyph unicode="O" horiz-adv-x="1460" d="M123 717q0 342 165.5 539.5t440.5 197.5q271 0 438.5 -198t167.5 -539q0 -344 -165.5 -542t-440.5 -198t-440.5 198t-165.5 542zM432 715q0 -199 77.5 -317.5t219.5 -118.5t219.5 118.5t77.5 317.5q0 200 -77.5 319t-219.5 119t-219.5 -119t-77.5 -319z" />
<glyph unicode="P" horiz-adv-x="1161" d="M184 141v1141q0 61 46.5 106.5t109.5 45.5h197q97 0 174.5 -11t151.5 -41.5t123.5 -79.5t79.5 -129.5t30 -187.5q0 -99 -27.5 -177t-74.5 -128.5t-113 -83.5t-138.5 -47t-156.5 -14h-92v-394q0 -60 -46 -104.5t-108 -44.5q-63 0 -109.5 44.5t-46.5 104.5zM494 823h122 q76 0 123 38t47 118q0 78 -46.5 114.5t-123.5 36.5h-122v-307z" />
<glyph unicode="Q" horiz-adv-x="1460" d="M123 717q0 342 165.5 539.5t440.5 197.5q271 0 438.5 -198t167.5 -539q0 -293 -133 -496l121 -151q35 -43 35 -97q0 -60 -48 -105.5t-108 -45.5q-71 0 -121 59l-118 142q-111 -46 -234 -46q-275 0 -440.5 198t-165.5 542zM432 715q0 -199 77.5 -317.5t219.5 -118.5 t219.5 118.5t77.5 317.5q0 200 -77.5 319t-219.5 119t-219.5 -119t-77.5 -319z" />
<glyph unicode="R" horiz-adv-x="1263" d="M190 141v1141q0 61 46 106.5t108 45.5h197q97 0 174.5 -11t151.5 -41t123.5 -79t79.5 -130t30 -188q0 -144 -59.5 -241t-155.5 -138l237 -389q23 -41 23 -76q0 -62 -47.5 -105.5t-110.5 -43.5q-89 0 -133 76l-274 471h-80v-398q0 -60 -46.5 -104.5t-109.5 -44.5 q-62 0 -108 44.5t-46 104.5zM500 811h121q76 0 123 40t47 122q0 79 -46.5 118t-121.5 39h-123v-319z" />
<glyph unicode="S" horiz-adv-x="1163" d="M106 350q0 60 46.5 106t109.5 46q48 0 89.5 -30.5t56.5 -74.5q43 -118 174 -118q69 0 117.5 37t48.5 98q0 62 -39.5 94t-112.5 55q-102 34 -182 70q-62 28 -108 61t-85.5 80t-60.5 112t-21 146q0 187 127.5 304.5t319.5 117.5q111 0 207.5 -35t156.5 -108q42 -52 58 -97 q20 -53 20 -104q0 -60 -46.5 -106t-109.5 -46q-56 0 -98 36.5t-53 88.5q-9 37 -45.5 61.5t-83.5 24.5q-59 0 -101 -35.5t-42 -93.5q0 -55 43 -88.5t122 -60.5q162 -58 221 -89q149 -78 196 -211q26 -74 26 -169q0 -109 -38.5 -194.5t-107 -140t-160 -82.5t-200.5 -28 q-116 0 -225 59t-168 159q-52 94 -52 155z" />
<glyph unicode="T" horiz-adv-x="1130" d="M27 1282q0 61 45.5 106.5t107.5 45.5h770q62 0 108 -45.5t46 -106.5q0 -60 -46 -104.5t-108 -44.5h-231v-992q0 -60 -46 -104.5t-108 -44.5t-108.5 44.5t-46.5 104.5v992h-230q-62 0 -107.5 44.5t-45.5 104.5z" />
<glyph unicode="U" horiz-adv-x="1376" d="M178 551v741q0 60 46 105t108 45q63 0 109 -45t46 -105v-784q0 -107 53.5 -168t145.5 -61q93 0 147 61t54 168v784q0 60 45 105t108 45q62 0 109 -45t47 -105v-788q0 -240 -135 -383.5t-375 -143.5q-258 0 -383 150.5t-125 423.5z" />
<glyph unicode="V" horiz-adv-x="1122" d="M10 1292q0 60 46 105t108 45q49 0 90 -30t55 -73l260 -813l260 820q12 40 52.5 68t87.5 28q57 0 100 -42.5t43 -99.5q0 -26 -12 -61l-393 -1147q-14 -42 -55.5 -71t-90.5 -29q-50 0 -91.5 29t-55.5 71l-394 1139q-10 29 -10 61z" />
<glyph unicode="W" horiz-adv-x="1722" d="M18 1292q0 60 46.5 105t109.5 45q48 0 95 -33t57 -78l172 -751l207 745q15 57 55.5 87t99.5 30q60 0 103.5 -31t60.5 -88l213 -743l184 757q10 43 52 74t88 31q58 0 101.5 -42.5t43.5 -99.5q0 -24 -4 -40l-299 -1145q-33 -123 -162 -123q-122 0 -158 117l-229 763 l-217 -761q-19 -63 -55.5 -91t-98.5 -28q-126 0 -159 123l-299 1134q-7 23 -7 43z" />
<glyph unicode="X" horiz-adv-x="1071" d="M14 129q0 39 19 70l336 530l-295 475q-27 38 -27 84q0 61 48.5 107.5t113.5 46.5q93 0 137 -78l199 -352l209 362q40 68 120 68q55 0 98.5 -39.5t43.5 -97.5q0 -31 -23 -72l-297 -469l334 -535q27 -46 27 -84q0 -61 -48.5 -107t-113.5 -46q-91 0 -139 80l-234 407 l-241 -416q-42 -71 -123 -71q-58 0 -101 39.5t-43 97.5z" />
<glyph unicode="Y" horiz-adv-x="1085" d="M14 1292q0 60 47 105t109 45q89 0 135 -82l246 -459l248 461q45 80 127 80q58 0 101.5 -42.5t43.5 -99.5q0 -37 -22 -77l-355 -600v-482q0 -60 -46.5 -104.5t-108.5 -44.5t-108 44.5t-46 104.5v480l-346 585q-25 45 -25 86z" />
<glyph unicode="Z" horiz-adv-x="1134" d="M72 1282q0 61 45.5 106.5t107.5 45.5h658q63 0 109 -45t46 -107q0 -38 -26 -84l-525 -895h420q63 0 109.5 -45.5t46.5 -105.5q0 -61 -46.5 -106.5t-109.5 -45.5h-676q-62 0 -107.5 45.5t-45.5 106.5q0 40 28 90l523 891h-404q-62 0 -107.5 44.5t-45.5 104.5z" />
<glyph unicode="[" horiz-adv-x="657" d="M156 -170v1548q0 41 31.5 72t72.5 31h189q43 0 74.5 -31t31.5 -72q0 -39 -32 -69.5t-74 -30.5h-76v-1350h76q42 0 74 -29.5t32 -68.5q0 -41 -31.5 -71.5t-74.5 -30.5h-189q-41 0 -72.5 30.5t-31.5 71.5z" />
<glyph unicode="\" horiz-adv-x="589" d="M-82 1378q0 41 33 73t76 32q37 0 64 -21.5t38 -54.5l535 -1446q10 -23 10 -47q0 -41 -33 -72.5t-76 -31.5q-35 0 -61 21t-39 54l-535 1444q-12 36 -12 49z" />
<glyph unicode="]" horiz-adv-x="657" d="M102 -170q0 38 32 68t75 30h76v1350h-76q-42 0 -74.5 30.5t-32.5 69.5q0 41 32 72t75 31h188q41 0 73 -31t32 -72v-1548q0 -41 -31.5 -71.5t-73.5 -30.5h-188q-43 0 -75 30.5t-32 71.5z" />
<glyph unicode="^" horiz-adv-x="1179" d="M156 782q0 28 14 49l324 553q33 60 96 60t96 -60l322 -553q16 -28 16 -49q0 -41 -33 -72.5t-76 -31.5q-29 0 -54.5 15t-39.5 40l-231 406l-232 -406q-12 -22 -39.5 -38.5t-54.5 -16.5q-43 0 -75.5 31.5t-32.5 72.5z" />
<glyph unicode="_" horiz-adv-x="854" d="M-49 -276q0 41 32.5 72.5t73.5 31.5h740q43 0 75.5 -31.5t32.5 -72.5t-32.5 -73t-75.5 -32h-740q-41 0 -73.5 32t-32.5 73z" />
<glyph unicode="`" horiz-adv-x="434" d="M27 1339q0 35 28.5 61.5t65.5 26.5q39 0 63 -22l193 -172q31 -28 31 -64q0 -32 -24.5 -55.5t-59.5 -23.5q-32 0 -58 20l-203 164q-36 28 -36 65z" />
<glyph unicode="a" horiz-adv-x="968" d="M74 225q0 111 45 168q31 42 87.5 67t109.5 33.5t115.5 25.5t98.5 42v113q0 78 -65 78q-32 0 -46.5 -15.5t-25.5 -46.5q-14 -41 -52 -65.5t-93 -24.5q-64 0 -98.5 44t-34.5 104q0 106 98 181t258 75q85 0 146 -15t111 -52.5t75.5 -108t25.5 -175.5v-397q0 -24 18.5 -62.5 t18.5 -60.5q0 -61 -42.5 -101t-104.5 -40q-20 0 -37 4.5t-29.5 9.5t-24.5 16.5t-18.5 19t-14.5 23t-11 22t-9.5 23t-7.5 19.5q-82 -149 -237 -149q-110 0 -183 69.5t-73 175.5zM362 281q0 -27 17 -47.5t49 -20.5q69 0 111 72v141q-32 -25 -81.5 -49.5t-72.5 -43.5t-23 -52z " />
<glyph unicode="b" horiz-adv-x="1034" d="M119 289v1065q0 60 43 101.5t106 41.5t106.5 -41.5t43.5 -101.5v-457q80 109 221 109q63 0 112.5 -20t83 -57t56.5 -83.5t35.5 -107t18 -119t5.5 -127.5t-5.5 -127.5t-18 -119t-35.5 -107.5t-56.5 -84t-83 -57t-112.5 -20q-69 0 -133 35.5t-105 104.5q-9 -59 -45.5 -92 t-87.5 -33q-121 0 -143 119q-6 31 -6 178zM418 254q43 -27 94 -27q72 0 105.5 62.5t33.5 202.5q0 142 -32 203t-107 61q-54 0 -94 -25v-477z" />
<glyph unicode="c" horiz-adv-x="980" d="M84 498q0 233 119 370.5t321 137.5q107 0 198.5 -46t135.5 -131q31 -60 31 -100q0 -60 -40.5 -99.5t-94.5 -39.5q-56 0 -86 25t-47 71q-10 27 -38 46.5t-67 19.5q-63 0 -99 -56.5t-36 -197.5q0 -265 133 -265q35 0 56.5 20t39.5 56q49 88 138 88q56 0 95.5 -40t39.5 -93 q0 -47 -33 -106q-50 -84 -139 -131t-191 -47q-202 0 -319 140.5t-117 377.5z" />
<glyph unicode="d" horiz-adv-x="1056" d="M84 492q0 69 5.5 127.5t18 119t35.5 107t56.5 83.5t83 57t112.5 20q67 0 129 -34.5t103 -99.5v482q0 60 43 101.5t106 41.5q62 0 105 -41.5t43 -101.5v-1063q0 -54 10 -99t10 -59q0 -61 -43 -101t-106 -40q-55 0 -95 30t-53 84l-6 21q-39 -78 -104 -114t-142 -36 q-63 0 -112.5 20t-83 57t-56.5 84t-35.5 107.5t-18 119t-5.5 127.5zM383 492q0 -143 32 -204t107 -61q61 0 105 31v463q-46 35 -105 35q-72 0 -105.5 -62t-33.5 -202z" />
<glyph unicode="e" horiz-adv-x="1034" d="M92 498q0 233 119 370.5t321 137.5q178 0 291 -119.5t113 -288.5q0 -62 -47.5 -107t-120.5 -45h-377q11 -213 131 -213q75 0 127 58q19 21 31 32.5t35.5 22t52.5 10.5q62 0 100.5 -41t38.5 -94q0 -67 -55 -125q-113 -116 -324 -116q-202 0 -319 140.5t-117 377.5z M391 612h240q-13 140 -111 140q-111 0 -129 -140z" />
<glyph unicode="f" horiz-adv-x="765" d="M41 872q0 44 35.5 78.5t81.5 34.5h35v174q0 158 79.5 248t227.5 90q71 0 130 -17t101.5 -60.5t42.5 -108.5q0 -52 -37.5 -82.5t-79.5 -30.5q-55 0 -82 35q-15 20 -45 20q-16 0 -27 -13t-11 -38v-217h79q43 0 80 -34.5t37 -78.5q0 -41 -37 -74.5t-80 -33.5h-79v-631 q0 -61 -43 -101t-107 -40q-63 0 -106 40t-43 101v631h-35q-46 0 -81.5 33.5t-35.5 74.5z" />
<glyph unicode="g" horiz-adv-x="1032" d="M82 545q0 81 7.5 144.5t28 125t54.5 102t90 65t131 24.5q69 0 132 -35.5t104 -104.5q3 57 42.5 91t92.5 34q121 0 143 -119q6 -31 6 -178v-678q0 -120 -46 -223t-138 -169t-211 -66q-82 0 -162 25t-135 77q-67 64 -67 145q0 55 39 96.5t96 41.5q72 0 114 -56 q18 -23 31 -36.5t34.5 -25t45.5 -11.5q60 0 87.5 43t27.5 143v193q-79 -130 -236 -130q-75 0 -131 27t-90 70t-54.5 108t-28 130.5t-7.5 146.5zM381 545q0 -125 32 -178.5t107 -53.5q63 0 109 33v373q-52 37 -109 37q-74 0 -106.5 -45.5t-32.5 -165.5z" />
<glyph unicode="h" horiz-adv-x="1085" d="M147 135v1219q0 59 43.5 101t106.5 42t106 -42t43 -101v-422q17 16 27.5 24t37 22t65 21t88.5 7q113 0 191.5 -105.5t78.5 -304.5v-305q0 -54 10 -99t10 -59q0 -61 -43 -101t-106 -40q-50 0 -84 22t-51.5 64.5t-25 92.5t-7.5 118v332q0 39 -9.5 71t-37 56t-70.5 24 q-38 0 -74 -12v-625q0 -60 -43 -101.5t-106 -41.5t-106.5 41.5t-43.5 101.5z" />
<glyph unicode="i" horiz-adv-x="608" d="M139 1253q0 63 45.5 106.5t112.5 43.5q66 0 111 -43.5t45 -106.5q0 -64 -45 -107.5t-111 -43.5q-67 0 -112.5 43t-45.5 108zM150 289v561q0 60 43 101.5t106 41.5q62 0 104.5 -41.5t42.5 -101.5v-559q0 -54 10.5 -99t10.5 -59q0 -61 -43 -101t-107 -40q-55 0 -94.5 29.5 t-52.5 84.5q-20 76 -20 183z" />
<glyph unicode="j" horiz-adv-x="653" d="M-70 -256q0 52 37.5 82.5t79.5 30.5q55 0 82 -35q16 -21 45 -21q15 0 23 9t9 17.5t1 25.5v999q0 61 43 101t106 40t105.5 -40t42.5 -101v-956q0 -159 -75.5 -248.5t-223.5 -89.5q-52 0 -99 10t-87.5 31t-64.5 58.5t-24 86.5zM199 1253q0 63 45.5 106.5t111.5 43.5 t112 -43.5t46 -106.5q0 -64 -46 -107.5t-112 -43.5t-111.5 43.5t-45.5 107.5z" />
<glyph unicode="k" horiz-adv-x="999" d="M158 135v1219q0 59 43 101t106 42q61 0 104.5 -42t43.5 -101v-776l207 340q46 75 120 75q55 0 95.5 -38t40.5 -91q0 -37 -25 -73l-180 -269l198 -295q35 -56 35 -92q0 -59 -44 -101t-107 -42q-86 0 -133 74l-207 325v-256q0 -60 -43 -101.5t-105 -41.5q-63 0 -106 41.5 t-43 101.5z" />
<glyph unicode="l" horiz-adv-x="595" d="M150 289v1065q0 60 43 101.5t106 41.5q62 0 104.5 -41.5t42.5 -101.5v-1063q0 -54 10.5 -99t10.5 -59q0 -61 -43 -101t-107 -40q-55 0 -94.5 29.5t-52.5 84.5q-20 76 -20 183z" />
<glyph unicode="m" horiz-adv-x="1497" d="M98 852q0 61 43 101t107 40q47 0 84.5 -25t54.5 -69q30 30 44.5 43t42 31.5t58.5 25.5t72 7q66 0 123 -35.5t94 -104.5q112 140 246 140q117 0 196.5 -105t79.5 -305v-305q0 -54 10.5 -99t10.5 -59q0 -61 -43 -101t-107 -40q-50 0 -84 22t-51.5 64.5t-24.5 92.5t-7 118 v332q0 63 -21.5 107t-71.5 44q-37 0 -86 -20q13 -67 13 -136v-325q0 -54 10 -99t9 -59q0 -61 -42.5 -101t-105.5 -40q-50 0 -84 22t-51.5 64.5t-25 92.5t-7.5 118v332q0 63 -21 107t-71 44q-38 0 -74 -12v-625q0 -60 -43.5 -101.5t-106.5 -41.5t-106 41.5t-43 101.5v559 q0 54 -10.5 99t-10.5 59z" />
<glyph unicode="n" horiz-adv-x="1058" d="M98 852q0 61 43 101t107 40q47 0 84.5 -25t54.5 -69q30 30 45.5 43t45.5 31.5t68 25.5t89 7q113 0 191.5 -105.5t78.5 -304.5v-305q0 -54 10.5 -99t10.5 -59q0 -61 -43 -101t-107 -40q-50 0 -84 22t-51.5 64.5t-25 92.5t-7.5 118v332q0 39 -9 71t-36.5 56t-70.5 24 q-38 0 -74 -12v-625q0 -60 -43.5 -101.5t-106.5 -41.5t-106 41.5t-43 101.5v559q0 54 -10.5 99t-10.5 59z" />
<glyph unicode="o" horiz-adv-x="1050" d="M82 498q0 241 115.5 374.5t328.5 133.5q211 0 327 -134t116 -374q0 -241 -116.5 -379.5t-326.5 -138.5q-212 0 -328 138t-116 380zM381 498q0 -128 36.5 -187t108.5 -59q146 0 146 246q0 126 -37 179.5t-109 53.5q-73 0 -109 -53.5t-36 -179.5z" />
<glyph unicode="p" horiz-adv-x="1042" d="M98 852q0 61 43 101t107 40q55 0 94.5 -29.5t52.5 -84.5l4 -23q39 78 105 114t143 36q75 0 131.5 -29.5t90 -76.5t54 -116t28 -138t7.5 -152q0 -69 -5.5 -127.5t-18 -119t-35.5 -107t-56.5 -83.5t-83 -57t-112.5 -20q-67 0 -128.5 33t-102.5 98v-410q0 -60 -43.5 -101.5 t-106.5 -41.5q-62 0 -104.5 41.5t-42.5 101.5v993q0 54 -10.5 99t-10.5 59zM416 262q47 -33 104 -33q72 0 105.5 62.5t33.5 202.5q0 142 -32 202t-107 60q-57 0 -104 -33v-461z" />
<glyph unicode="q" horiz-adv-x="1036" d="M84 492q0 69 5.5 127.5t18 119t35.5 107t56.5 83.5t83 57t112.5 20q69 0 132 -36t104 -106q9 60 46 93.5t89 33.5q121 0 143 -119q6 -31 6 -178v-993q0 -60 -43 -101.5t-106 -41.5t-106.5 41.5t-43.5 101.5v383q-78 -107 -221 -107q-63 0 -112.5 20t-83 57t-56.5 84 t-35.5 107.5t-18 119t-5.5 127.5zM383 492q0 -143 32 -204t107 -61q51 0 94 25v475q-50 29 -94 29q-72 0 -105.5 -62t-33.5 -202z" />
<glyph unicode="r" horiz-adv-x="880" d="M98 852q0 61 43 101t107 40q60 0 99 -39.5t48 -101.5q103 156 246 156q77 0 142 -51t65 -132q0 -65 -45 -110t-115 -45q-63 0 -106 43q-67 63 -101 63q-43 0 -63 -47v-594q0 -60 -43.5 -101.5t-106.5 -41.5t-106 41.5t-43 101.5v559q0 54 -10.5 99t-10.5 59z" />
<glyph unicode="s" horiz-adv-x="942" d="M78 244q0 53 35 88q40 37 92 37q40 0 78 -20.5t61 -55.5q25 -38 54.5 -60t76.5 -22q43 0 65.5 18t22.5 47q0 55 -61 76q-170 56 -242 92q-76 39 -119 108t-43 155q0 95 54.5 165t137 102t179.5 32q214 0 307 -93q49 -49 49 -118q0 -59 -40.5 -94t-96.5 -35q-78 0 -123 63 q-45 64 -112 64q-35 0 -53.5 -16.5t-18.5 -41.5q0 -35 34 -56.5t120 -51.5q16 -6 69 -21t89.5 -31t66.5 -40q92 -74 92 -213q0 -109 -57 -197q-90 -143 -334 -143q-214 0 -328 124q-55 59 -55 138z" />
<glyph unicode="t" horiz-adv-x="815" d="M43 877q0 41 35.5 74.5t81.5 33.5h35v137q0 61 43 101.5t106 40.5t106.5 -40.5t43.5 -101.5v-137h141q43 0 80 -33.5t37 -74.5q0 -44 -37 -78.5t-80 -34.5h-141v-490q0 -25 11 -38t27 -13q30 0 46 21q27 35 81 35q42 0 79.5 -30.5t37.5 -82.5q0 -65 -42.5 -108.5 t-101.5 -60.5t-130 -17q-149 0 -228 89.5t-79 247.5v447h-35q-46 0 -81.5 34.5t-35.5 78.5z" />
<glyph unicode="u" horiz-adv-x="1103" d="M147 391v461q0 60 43.5 100.5t106.5 40.5t106 -40.5t43 -100.5v-469q0 -121 113 -121q111 0 111 119v471q0 60 42.5 100.5t104.5 40.5q61 0 104.5 -41t43.5 -100v-463q0 -65 -8 -117.5t-34 -109t-69.5 -95t-118.5 -63t-176 -24.5q-412 0 -412 411z" />
<glyph unicode="v" horiz-adv-x="882" d="M27 850q0 62 42.5 102.5t108.5 40.5q115 0 148 -112l123 -412l131 428q12 43 50 69.5t87 26.5q60 0 100.5 -38.5t40.5 -94.5q0 -26 -10 -49l-260 -721q-17 -46 -55.5 -72t-88.5 -26q-53 0 -89.5 26t-51.5 72l-264 696q-12 32 -12 64z" />
<glyph unicode="w" horiz-adv-x="1310" d="M29 852q0 60 41 100.5t106 40.5q52 0 94.5 -28t53.5 -78l94 -406l106 414q11 43 49.5 70.5t90.5 27.5t87 -26t46 -70l108 -416l111 422q11 40 46.5 65t82.5 25q59 0 98 -37t39 -92q0 -13 -8 -45l-240 -729q-15 -46 -52 -72t-87 -26q-52 0 -88 26t-51 72l-105 383 l-96 -381q-15 -47 -51 -73.5t-86 -26.5q-52 0 -88 26t-51 72l-240 701q-10 30 -10 61z" />
<glyph unicode="x" horiz-adv-x="856" d="M31 121q0 34 28 78l201 297l-178 272q-25 36 -25 72q0 63 43 108t109 45q39 0 73 -16.5t52 -46.5l106 -176l101 164q46 75 121 75q55 0 95 -38t40 -91q0 -37 -25 -73l-180 -269l199 -295q34 -55 34 -92q0 -59 -44 -101t-107 -42q-86 0 -133 74l-127 200l-133 -211 q-43 -63 -115 -63q-55 0 -95 38t-40 91z" />
<glyph unicode="y" horiz-adv-x="878" d="M14 850q0 62 43 102.5t109 40.5q114 0 147 -112l123 -412l131 428q12 43 50.5 69.5t87.5 26.5q60 0 100.5 -38.5t40.5 -94.5q0 -26 -10 -49l-355 -981q-60 -158 -182 -242q-42 -30 -94 -30q-64 0 -107 40t-43 101q0 85 74 123q28 14 43.5 24t32 29t24.5 43l62 172 l-264 696q-13 35 -13 64z" />
<glyph unicode="z" horiz-adv-x="923" d="M74 848q0 57 42 97t103 40h457q63 0 106 -41t43 -100q0 -45 -26 -82l-340 -486h248q60 0 101.5 -41t41.5 -98q0 -59 -41 -98t-102 -39h-480q-63 0 -106 40t-43 101q0 38 31 86l333 486h-223q-62 0 -103.5 38.5t-41.5 96.5z" />
<glyph unicode="{" horiz-adv-x="686" d="M70 606q0 34 23 61t57 38q16 5 26 13.5t18 30.5t11.5 47t6 78t3 106t0.5 148q0 196 71.5 273.5t237.5 77.5q43 0 75 -31t32 -72q0 -38 -32 -68t-75 -30q-49 0 -70 -16t-22 -68q-2 -54 -2 -119.5t-0.5 -105t-2 -87.5t-6 -77t-13.5 -62t-23 -55t-36 -43.5t-52 -38.5 q30 -17 52 -38.5t36 -43.5t23 -55.5t13.5 -63t6 -78t2 -88t0.5 -105.5t2 -120q1 -52 22 -68t70 -16q43 0 75 -30t32 -68q0 -41 -32 -71.5t-75 -30.5q-166 0 -237.5 77t-71.5 273q0 263 -10.5 339t-54.5 89q-34 11 -57 37.5t-23 60.5z" />
<glyph unicode="|" horiz-adv-x="516" d="M150 -330v1741q0 41 32.5 73t75.5 32t76 -32t33 -73v-1741q0 -41 -33 -72.5t-76 -31.5t-75.5 31.5t-32.5 72.5z" />
<glyph unicode="}" horiz-adv-x="686" d="M55 -168q0 38 32 68t75 30q49 0 70 16t22 68q2 54 2 120t0.5 105.5t2 88t6 78t13.5 63t23 55.5t36 43.5t52 38.5q-30 17 -52 38.5t-36 43.5t-23 55t-13.5 62t-6 77t-2 87.5t-0.5 105t-2 119.5q-1 52 -22 68t-70 16q-43 0 -75 30t-32 68q0 41 32 72t75 31 q166 0 237.5 -77.5t71.5 -273.5q0 -93 0.5 -147.5t3 -106.5t6.5 -77.5t12 -47.5t18 -30.5t26 -13.5q34 -11 56.5 -38t22.5 -61t-22.5 -60.5t-56.5 -37.5q-16 -5 -26 -14t-18 -31.5t-12 -48.5t-6.5 -78.5t-3 -107.5t-0.5 -148q0 -196 -71.5 -273t-237.5 -77q-43 0 -75 30.5 t-32 71.5z" />
<glyph unicode="~" d="M190 516q0 37 23 70q102 141 231 141q52 0 103.5 -26t96 -52t77.5 -26q19 0 37.5 16.5t32 35.5t38 35.5t54.5 16.5q40 0 70 -30t30 -68t-22 -70q-102 -141 -232 -141q-54 0 -106 26t-95 52t-75 26q-19 0 -37.5 -16t-32 -36t-38 -36t-54.5 -16q-40 0 -70.5 30t-30.5 68z " />
<glyph unicode="&#xa1;" horiz-adv-x="907" d="M283 1016q0 67 50.5 115.5t121.5 48.5q69 0 119.5 -48.5t50.5 -115.5t-50.5 -115.5t-119.5 -48.5q-71 0 -121.5 48.5t-50.5 115.5zM291 -154l22 783q1 54 43 92.5t99 38.5q56 0 97 -38.5t42 -92.5l22 -783q0 -65 -47 -110t-114 -45q-69 0 -116.5 45t-47.5 110z" />
<glyph unicode="&#xa2;" d="M184 709q0 188 88 327t236 183v84q0 44 34.5 77t80.5 33q44 0 78 -33t34 -77v-80q158 -39 223 -160q29 -48 29 -86q0 -44 -32 -74.5t-78 -30.5q-37 0 -66 19.5t-41 50.5q-17 41 -57 61.5t-92 20.5q-94 0 -153.5 -88.5t-59.5 -226.5q0 -142 60 -235t155 -93q97 0 139 82 q45 74 106 74q47 0 80 -31.5t33 -75.5q0 -38 -31 -82q-63 -111 -215 -166v-82q0 -43 -34 -75.5t-78 -32.5q-46 0 -80.5 32.5t-34.5 75.5v84q-149 46 -236.5 188t-87.5 337z" />
<glyph unicode="&#xa3;" d="M123 98q0 44 35 77t88 52q35 174 41 363h-19q-43 0 -75.5 31.5t-32.5 74.5t32.5 76t75.5 33h21q3 54 6 95.5t10.5 94t17.5 93t26.5 85.5t38 78t52 65t68.5 51.5t88 31.5t109 12q94 0 174 -48t116 -134q17 -43 17 -66q0 -46 -31.5 -77t-77.5 -31q-37 0 -69 21.5t-39 53.5 q-17 66 -107 66t-127.5 -91t-48.5 -300h190q43 0 77 -33t34 -76q0 -42 -34 -74t-77 -32h-196q-6 -198 -33 -336q78 -2 171 -24.5t153 -22.5q24 0 70.5 12t72.5 12q46 0 78.5 -31t32.5 -75q0 -133 -293 -133q-76 0 -178.5 25.5t-163.5 25.5q-42 0 -98.5 -25.5t-84.5 -25.5 q-46 0 -78 31t-32 75z" />
<glyph unicode="&#xa4;" horiz-adv-x="1050" d="M88 369q0 49 33 82l112 112q-16 69 -16 139q0 71 16 140l-112 112q-33 33 -33 82q0 44 31.5 75.5t75.5 31.5q48 0 81 -33l86 -86q68 39 166 39t166 -39l86 86q29 29 82 33q44 0 75.5 -31.5t31.5 -75.5q0 -49 -33 -82l-113 -112q17 -73 17 -140q0 -66 -17 -139l113 -112 q33 -33 33 -82q0 -44 -31.5 -75.5t-75.5 -31.5q-49 0 -82 33l-86 86q-68 -39 -166 -39t-166 39l-86 -86q-33 -33 -81 -33q-44 0 -75.5 31.5t-31.5 75.5zM416 702q0 -91 25.5 -128t86.5 -37t87 37t26 128t-26 128.5t-87 37.5t-86.5 -37.5t-25.5 -128.5z" />
<glyph unicode="&#xa5;" d="M106 1305q0 43 34.5 75.5t78.5 32.5q65 0 98 -63l269 -469l268 471q14 26 41 43.5t59 17.5q44 0 78.5 -32.5t34.5 -75.5q0 -22 -16 -54l-316 -528h127q43 0 76 -32t33 -73q0 -42 -33 -74t-76 -32h-166v-88h166q43 0 76 -32t33 -75q0 -41 -33 -71.5t-76 -30.5h-166v-115 q0 -43 -34 -75.5t-78 -32.5q-43 0 -77 33t-34 75v115h-164q-43 0 -74.5 30.5t-31.5 71.5q0 43 31.5 75t74.5 32h164v88h-164q-43 0 -74.5 31.5t-31.5 74.5q0 42 31.5 73.5t74.5 31.5h121l-307 524q-17 34 -17 58z" />
<glyph unicode="&#xa6;" horiz-adv-x="516" d="M150 -281v615q0 41 32.5 72.5t75.5 31.5t76 -31.5t33 -72.5v-615q0 -41 -33 -72.5t-76 -31.5t-75.5 31.5t-32.5 72.5zM150 737v615q0 41 32.5 72.5t75.5 31.5t76 -31.5t33 -72.5v-615q0 -41 -33 -72.5t-76 -31.5t-75.5 31.5t-32.5 72.5z" />
<glyph unicode="&#xa7;" horiz-adv-x="1171" d="M205 240q0 53 36 94t103 41q32 0 55 -9.5t33 -20.5t25 -32q16 -24 25 -36t27 -28.5t40 -24t51 -7.5q46 0 65 16t19 48q0 47 -61 71q-30 12 -99 35t-104 39q-191 84 -191 279q0 139 136 213q-138 80 -138 223q0 147 94 224t267 77q159 0 253.5 -56t94.5 -163 q0 -57 -39 -97.5t-98 -40.5q-57 0 -82.5 20.5t-42.5 59.5q-27 56 -113 56q-61 0 -61 -50q0 -19 8.5 -32.5t32 -27t44.5 -22.5t68 -26q17 -6 47.5 -15t52.5 -15.5t51 -18.5t49.5 -25t42.5 -34.5t36 -47.5t22.5 -63t8.5 -82q0 -88 -33.5 -139t-100.5 -84q79 -35 107.5 -83 t28.5 -130q0 -169 -102.5 -256.5t-280.5 -87.5q-130 0 -223.5 51t-133.5 133q-20 33 -20 74zM481 737q0 -44 39 -69t139 -60q41 35 41 107q0 67 -180 125q-39 -42 -39 -103z" />
<glyph unicode="&#xa8;" horiz-adv-x="622" d="M27 1288q0 43 31 72t75 29t73.5 -29t29.5 -72q0 -44 -29.5 -74t-73.5 -30t-75 30t-31 74zM385 1288q0 42 30.5 71.5t73.5 29.5q44 0 75.5 -29t31.5 -72q0 -44 -31 -74t-76 -30q-43 0 -73.5 30t-30.5 74z" />
<glyph unicode="&#xaa;" horiz-adv-x="788" d="M98 776q0 58 18 98t45.5 59t66 32t74 18t74.5 16.5t64 28.5v86q0 57 -49 57q-24 0 -35 -11.5t-18 -33.5q-11 -31 -39.5 -49t-69.5 -18q-48 0 -74 32.5t-26 77.5q0 78 73 134.5t193 56.5q64 0 110.5 -11t84.5 -39t57 -81t19 -131v-297q0 -19 13 -47.5t13 -44.5 q0 -45 -32 -76t-78 -31q-29 0 -50 9.5t-33.5 28.5t-17.5 31.5t-12 33.5q-64 -113 -178 -113q-83 0 -138 53t-55 131zM315 819q0 -21 12.5 -36t37.5 -15q52 0 81 53v107q-24 -19 -61 -37.5t-53.5 -32.5t-16.5 -39z" />
<glyph unicode="&#xab;" horiz-adv-x="1210" d="M188 551l209 344q28 47 86 47q41 0 72 -30t31 -68q0 -25 -15 -51l-137 -242l137 -240q15 -26 15 -51q0 -40 -31 -69t-72 -29q-62 0 -86 43zM598 551l209 344q28 47 86 47q41 0 71.5 -29.5t30.5 -68.5q0 -26 -14 -51l-137 -242l137 -240q14 -24 14 -51q0 -40 -30.5 -69 t-71.5 -29q-62 0 -86 43z" />
<glyph unicode="&#xac;" d="M156 575q0 43 32.5 75t75.5 32h643q44 0 77.5 -32t33.5 -75v-276q0 -43 -33.5 -74.5t-77.5 -31.5q-43 0 -75.5 31.5t-32.5 74.5v170h-535q-43 0 -75.5 31.5t-32.5 74.5z" />
<glyph unicode="&#xad;" horiz-adv-x="0" />
<glyph unicode="&#xaf;" horiz-adv-x="538" d="M27 1272q0 35 30 63.5t68 28.5h289q38 0 67 -28t29 -64q0 -38 -29 -66t-67 -28h-289q-39 0 -68.5 28t-29.5 66z" />
<glyph unicode="&#xb0;" horiz-adv-x="673" d="M90 1163q0 114 71 190.5t177 76.5q104 0 174 -76.5t70 -190.5t-69.5 -189t-174.5 -75q-106 0 -177 75t-71 189zM238 1163q0 -59 27 -94t73 -35q43 0 70.5 35.5t27.5 93.5q0 59 -27.5 94t-72.5 35t-71.5 -34.5t-26.5 -94.5z" />
<glyph unicode="&#xb1;" d="M156 -68q0 43 32.5 75t75.5 32h643q44 0 77.5 -32t33.5 -75t-33.5 -74.5t-77.5 -31.5h-643q-43 0 -75.5 31.5t-32.5 74.5zM156 575q0 43 32.5 75t75.5 32h215v215q0 43 32 76t75 33q42 0 74 -33t32 -76v-215h215q44 0 77.5 -32t33.5 -75t-33.5 -74.5t-77.5 -31.5h-215 v-215q0 -44 -31.5 -77.5t-74.5 -33.5t-75 33.5t-32 77.5v215h-215q-43 0 -75.5 31.5t-32.5 74.5z" />
<glyph unicode="&#xb2;" horiz-adv-x="759" d="M96 705q0 29 21 57q72 92 227 264q98 109 98 176q0 80 -71 80q-54 0 -68 -72q-6 -33 -30 -55t-62 -22q-37 0 -65.5 27.5t-28.5 62.5q0 25 12 65q25 76 90.5 124t149.5 48q112 0 187 -70.5t75 -187.5q0 -58 -27 -113.5t-76 -121.5q-74 -92 -159 -172h196q37 0 67 -27.5 t30 -62.5q0 -34 -30 -62.5t-67 -28.5h-375q-36 0 -65 28.5t-29 62.5z" />
<glyph unicode="&#xb3;" horiz-adv-x="759" d="M106 805q0 39 29 67.5t68 28.5q56 0 84 -49q17 -28 26.5 -40.5t28.5 -23t45 -10.5q35 0 57.5 26t22.5 75q0 98 -117 98q-34 0 -59 25t-25 57t26 57t58 25q50 0 72 19t22 61q0 34 -18.5 52.5t-50.5 18.5q-47 0 -72 -53q-25 -57 -86 -57q-38 0 -68 27.5t-30 68.5 q0 28 18 63q71 119 223 119q110 0 189.5 -61.5t79.5 -169.5q0 -113 -99 -168q123 -57 123 -195q0 -118 -83 -192t-201 -74q-81 0 -148.5 41t-99.5 109q-15 30 -15 55z" />
<glyph unicode="&#xb4;" horiz-adv-x="434" d="M27 1169q0 39 32 64l189 172q24 22 65 22q37 0 66 -26.5t29 -61.5t-37 -65l-203 -164q-23 -20 -57 -20q-35 0 -59.5 23.5t-24.5 55.5z" />
<glyph unicode="&#xb5;" d="M193 -338v1229q0 43 30.5 72.5t77.5 29.5q44 0 75.5 -29.5t31.5 -72.5v-660q33 -30 70.5 -40.5t90.5 -10.5q158 0 158 189v522q0 43 31.5 72.5t75.5 29.5q43 0 74.5 -30t31.5 -72v-686q0 -23 20.5 -58t20.5 -55q0 -42 -31 -71t-76 -29q-47 0 -76.5 28.5t-29.5 85.5 q-35 -72 -82.5 -101.5t-116.5 -29.5q-54 0 -92.5 13t-68.5 51v-377q0 -44 -31 -74t-76 -30q-47 0 -77.5 29.5t-30.5 74.5z" />
<glyph unicode="&#xb6;" horiz-adv-x="1167" d="M121 1016v84q0 313 248 313h546q37 0 61.5 -24.5t24.5 -55.5v-1243q0 -98 -106 -98q-52 0 -79.5 25.5t-27.5 72.5v1118h-186v-1118q0 -47 -27.5 -72.5t-78.5 -25.5q-105 0 -105 98v615h-22q-248 0 -248 311z" />
<glyph unicode="&#xb7;" horiz-adv-x="692" d="M176 582q0 68 50 115.5t120 47.5t120 -47.5t50 -115.5q0 -69 -49.5 -117.5t-120.5 -48.5t-120.5 48.5t-49.5 117.5z" />
<glyph unicode="&#xb8;" horiz-adv-x="299" d="M27 -145q0 46 31.5 79t88.5 33q59 0 92 -34t33 -101q0 -51 -16 -111.5t-50.5 -109.5t-76.5 -49q-49 0 -49 43q0 14 10 47.5t10 62.5q0 23 -2 37q-37 11 -54 41.5t-17 61.5z" />
<glyph unicode="&#xb9;" horiz-adv-x="759" d="M152 1251q0 30 18.5 53.5t46.5 32.5q25 7 50.5 28t39.5 44q30 51 86 51q38 0 68.5 -28.5t30.5 -65.5v-666q0 -35 -30 -62.5t-67 -27.5t-65.5 27.5t-28.5 62.5v476l-10 -5q-15 -10 -51 -10t-62 27t-26 63z" />
<glyph unicode="&#xba;" horiz-adv-x="841" d="M76 981q0 181 87 281t247 100q158 0 244.5 -100t86.5 -281t-87 -285t-244 -104q-160 0 -247 103.5t-87 285.5zM299 981q0 -184 111 -184q108 0 108 184q0 95 -27.5 135.5t-80.5 40.5q-56 0 -83.5 -40.5t-27.5 -135.5z" />
<glyph unicode="&#xbb;" horiz-adv-x="1210" d="M215 260q0 26 14 51l138 240l-138 242q-14 25 -14 51q0 39 30.5 68.5t71.5 29.5q58 0 86 -47l209 -344l-209 -346q-24 -43 -86 -43q-41 0 -71.5 29t-30.5 69zM625 260q0 26 14 51l137 240l-137 242q-14 25 -14 51q0 39 30.5 68.5t71.5 29.5q58 0 86 -47l209 -344 l-209 -346q-24 -43 -86 -43q-41 0 -71.5 29t-30.5 69z" />
<glyph unicode="&#xbc;" horiz-adv-x="1603" d="M76 1251q0 30 18.5 53.5t46.5 32.5q25 7 50.5 28t39.5 44q30 51 86 51q38 0 68.5 -28.5t30.5 -65.5v-666q0 -35 -30 -62.5t-67 -27.5t-65.5 27.5t-28.5 62.5v476l-10 -5q-15 -10 -51 -10t-62 27t-26 63zM379 27q0 20 8 39l660 1329q28 49 79 49q35 0 61.5 -23t26.5 -61 q0 -20 -12 -47l-655 -1317q-26 -53 -80 -53q-33 0 -60.5 23.5t-27.5 60.5zM881 133q0 26 12 53l242 492q9 21 31 33t48 12q35 0 63 -26t28 -62q0 -13 -13 -43l-188 -387h106v55q0 38 26.5 65t63.5 27t64 -26t27 -60v-61h18q28 0 51 -24t23 -56q0 -31 -23 -55.5t-51 -24.5 h-18v-86q0 -34 -28 -60t-63 -26t-62.5 26t-27.5 60v86h-237q-42 0 -67 26t-25 62z" />
<glyph unicode="&#xbd;" horiz-adv-x="1613" d="M63 1251q0 29 19 53t47 33q25 7 50.5 28t39.5 44q30 51 86 51q38 0 68 -28.5t30 -65.5v-666q0 -35 -29.5 -62.5t-66.5 -27.5t-65.5 27.5t-28.5 62.5v476l-10 -5q-15 -10 -51 -10t-62.5 27t-26.5 63zM375 27q0 20 8 39l659 1329q28 49 80 49q35 0 61.5 -23t26.5 -61 q0 -20 -12 -47l-655 -1317q-26 -53 -80 -53q-33 0 -60.5 23.5t-27.5 60.5zM942 -33q0 30 21 58q72 92 227 264q98 109 98 176q0 80 -71 80q-54 0 -68 -72q-6 -33 -30 -55.5t-62 -22.5q-37 0 -65.5 27.5t-28.5 62.5q0 26 12 66q25 76 90 124t149 48q112 0 187.5 -70.5 t75.5 -187.5q0 -58 -27 -114t-76 -122q-71 -89 -160 -172h197q37 0 66.5 -27.5t29.5 -62.5q0 -34 -29.5 -62t-66.5 -28h-375q-36 0 -65 28t-29 62z" />
<glyph unicode="&#xbe;" horiz-adv-x="1609" d="M90 805q0 39 28.5 67.5t67.5 28.5q56 0 84 -49q24 -40 43.5 -57t57.5 -17q35 0 57.5 26t22.5 75q0 98 -117 98q-34 0 -59 25t-25 57t26 57t58 25q50 0 72 19t22 61q0 33 -19 52t-51 19q-46 0 -71 -53q-25 -57 -86 -57q-38 0 -68.5 27.5t-30.5 68.5q0 27 19 63 q71 119 223 119q110 0 189 -61.5t79 -169.5q0 -114 -98 -168q123 -57 123 -195q0 -118 -83.5 -192t-201.5 -74q-81 0 -148.5 41t-99.5 109q-14 28 -14 55zM444 27q0 18 9 39l659 1329q28 49 80 49q35 0 61.5 -23t26.5 -61q0 -20 -12 -47l-656 -1317q-26 -53 -80 -53 q-33 0 -60.5 23.5t-27.5 60.5zM938 133q0 26 12 53l242 492q9 21 31.5 33t48.5 12q35 0 62.5 -26t27.5 -62q0 -15 -12 -43l-189 -387h107v55q0 38 26.5 65t63.5 27q36 0 63 -26t27 -60v-61h18q28 0 51 -24t23 -56q0 -31 -23 -55.5t-51 -24.5h-18v-86q0 -34 -27.5 -60 t-62.5 -26t-62.5 26t-27.5 60v86h-238q-42 0 -67 26t-25 62z" />
<glyph unicode="&#xbf;" horiz-adv-x="1085" d="M137 45q0 62 14.5 113.5t38 87.5t51.5 69t56 64.5t51.5 66t38 82.5t14.5 105q0 54 45.5 96.5t102.5 42.5q55 0 97.5 -40.5t47.5 -94.5q6 -81 -18 -151.5t-62.5 -122t-78.5 -98.5t-68.5 -102t-28.5 -112q0 -37 22.5 -59.5t63.5 -22.5q51 0 105 54q45 45 110 45 q61 0 106.5 -43.5t45.5 -100.5q0 -52 -39 -98q-55 -65 -139 -99t-178 -34q-173 0 -285.5 94.5t-112.5 257.5zM375 1028q0 67 50.5 115.5t121.5 48.5q69 0 119.5 -48.5t50.5 -115.5t-50.5 -115.5t-119.5 -48.5q-71 0 -121.5 48.5t-50.5 115.5z" />
<glyph unicode="&#xc0;" horiz-adv-x="1132" d="M16 133q0 25 13 62l393 1146q14 42 55 71.5t90 29.5q50 0 92 -29.5t56 -71.5l393 -1138q10 -29 10 -62q0 -60 -45.5 -104.5t-107.5 -44.5q-49 0 -90.5 29.5t-55.5 72.5l-55 170h-410l-55 -176q-12 -40 -52 -68t-87 -28q-57 0 -100.5 42t-43.5 99zM313 1788q0 35 29 61.5 t66 26.5t63 -23l193 -172q30 -27 30 -63q0 -33 -24.5 -56.5t-59.5 -23.5q-30 0 -57 21l-203 163q-37 29 -37 66zM434 526h250l-125 389z" />
<glyph unicode="&#xc1;" horiz-adv-x="1132" d="M16 133q0 25 13 62l393 1146q14 42 55 71.5t90 29.5q50 0 92 -29.5t56 -71.5l393 -1138q10 -29 10 -62q0 -60 -45.5 -104.5t-107.5 -44.5q-49 0 -90.5 29.5t-55.5 72.5l-55 170h-410l-55 -176q-12 -40 -52 -68t-87 -28q-57 0 -100.5 42t-43.5 99zM434 526h250l-125 389z M436 1618q0 37 33 63l188 172q26 23 66 23q37 0 65.5 -26.5t28.5 -61.5q0 -36 -37 -66l-202 -163q-24 -21 -58 -21q-35 0 -59.5 23.5t-24.5 56.5z" />
<glyph unicode="&#xc2;" horiz-adv-x="1132" d="M16 133q0 25 13 62l393 1146q14 42 55 71.5t90 29.5q50 0 92 -29.5t56 -71.5l393 -1138q10 -29 10 -62q0 -60 -45.5 -104.5t-107.5 -44.5q-49 0 -90.5 29.5t-55.5 72.5l-55 170h-410l-55 -176q-12 -40 -52 -68t-87 -28q-57 0 -100.5 42t-43.5 99zM336 1614q0 24 16 45 l90 139q26 40 51.5 59t71.5 19q48 0 73.5 -19t49.5 -59l92 -139q17 -25 17 -45q0 -32 -24.5 -54t-57.5 -22q-46 0 -68 31l-82 92l-80 -92q-25 -31 -69 -31q-33 0 -56.5 22t-23.5 54zM434 526h250l-125 389z" />
<glyph unicode="&#xc3;" horiz-adv-x="1132" d="M16 133q0 25 13 62l393 1146q14 42 55 71.5t90 29.5q50 0 92 -29.5t56 -71.5l393 -1138q10 -29 10 -62q0 -60 -45.5 -104.5t-107.5 -44.5q-49 0 -90.5 29.5t-55.5 72.5l-55 170h-410l-55 -176q-12 -40 -52 -68t-87 -28q-57 0 -100.5 42t-43.5 99zM307 1661q0 24 8 37 q62 121 172 121q33 0 82 -29t68 -29q20 0 41 25q24 33 67 33q35 0 57.5 -22.5t22.5 -55.5q0 -21 -8 -37q-58 -123 -170 -123q-36 0 -85.5 29.5t-65.5 29.5q-22 0 -41 -26q-26 -33 -68 -33q-35 0 -57.5 23t-22.5 57zM434 526h250l-125 389z" />
<glyph unicode="&#xc4;" horiz-adv-x="1132" d="M16 133q0 25 13 62l393 1146q14 42 55 71.5t90 29.5q50 0 92 -29.5t56 -71.5l393 -1138q10 -29 10 -62q0 -60 -45.5 -104.5t-107.5 -44.5q-49 0 -90.5 29.5t-55.5 72.5l-55 170h-410l-55 -176q-12 -40 -52 -68t-87 -28q-57 0 -100.5 42t-43.5 99zM281 1737q0 43 31 71.5 t75 28.5t73 -28.5t29 -71.5q0 -45 -29 -75t-73 -30t-75 30.5t-31 74.5zM434 526h250l-125 389zM639 1737q0 42 30.5 71t73.5 29q45 0 76 -29t31 -71q0 -44 -31.5 -74.5t-75.5 -30.5q-43 0 -73.5 30.5t-30.5 74.5z" />
<glyph unicode="&#xc5;" horiz-adv-x="1132" d="M16 133q0 25 13 62l393 1146q14 42 55 71.5t90 29.5q50 0 92 -29.5t56 -71.5l393 -1138q10 -29 10 -62q0 -60 -45.5 -104.5t-107.5 -44.5q-49 0 -90.5 29.5t-55.5 72.5l-55 170h-410l-55 -176q-12 -40 -52 -68t-87 -28q-57 0 -100.5 42t-43.5 99zM375 1718q0 83 55 139 t135 56t135.5 -56t55.5 -139q0 -85 -55.5 -141.5t-135.5 -56.5t-135 56.5t-55 141.5zM434 526h250l-125 389zM459 1718q0 -47 31 -80.5t75 -33.5t75.5 33.5t31.5 80.5q0 46 -31.5 81.5t-75.5 35.5t-75 -35.5t-31 -81.5z" />
<glyph unicode="&#xc6;" horiz-adv-x="1769" d="M14 141q0 29 13 66l389 1124q15 44 56 73.5t91 29.5h930q62 0 109 -45.5t47 -106.5q0 -60 -47 -104.5t-109 -44.5h-432v-250h369q58 0 100.5 -42t42.5 -98q0 -57 -42 -98t-101 -41h-369v-301h432q62 0 109 -45.5t47 -105.5q0 -61 -47 -106.5t-109 -45.5h-586 q-63 0 -109 45t-46 107v112h-379l-58 -172q-14 -42 -55 -71t-90 -29q-62 0 -109 44.5t-47 104.5zM463 526h289v609h-80z" />
<glyph unicode="&#xc7;" horiz-adv-x="1310" d="M113 715q0 214 73.5 381.5t209.5 262.5t313 95q163 0 289.5 -71.5t195.5 -194.5q31 -60 31 -94q0 -62 -45.5 -107t-110.5 -45q-39 0 -75.5 20.5t-55.5 53.5q-23 42 -31 51q-69 86 -196 86q-134 0 -211.5 -122.5t-77.5 -317.5t75 -314.5t218 -119.5q61 0 118.5 28.5 t75.5 79.5q15 42 58.5 73.5t91.5 31.5q63 0 109 -45t46 -107q0 -35 -20 -86q-47 -115 -189 -196t-294 -81q-276 0 -437 201t-161 537zM588 -145q0 46 32 79t89 33q59 0 92 -34t33 -101q0 -51 -16.5 -111.5t-51 -109.5t-76.5 -49q-49 0 -49 43q0 14 10.5 47.5t10.5 62.5 q0 16 -3 37q-37 11 -54 41.5t-17 61.5z" />
<glyph unicode="&#xc8;" horiz-adv-x="1204" d="M188 152v1130q0 61 46.5 106.5t109.5 45.5h586q62 0 108.5 -45.5t46.5 -106.5q0 -60 -46.5 -104.5t-108.5 -44.5h-432v-250h368q58 0 101 -42t43 -98q0 -57 -42.5 -98t-101.5 -41h-368v-301h432q62 0 108.5 -45.5t46.5 -105.5q0 -61 -46.5 -106.5t-108.5 -45.5h-586 q-63 0 -109.5 45.5t-46.5 106.5zM391 1788q0 35 28.5 61.5t65.5 26.5q38 0 64 -23l192 -172q31 -28 31 -63q0 -33 -24.5 -56.5t-59.5 -23.5q-30 0 -57 21l-203 163q-37 29 -37 66z" />
<glyph unicode="&#xc9;" horiz-adv-x="1204" d="M188 152v1130q0 61 46.5 106.5t109.5 45.5h586q62 0 108.5 -45.5t46.5 -106.5q0 -60 -46.5 -104.5t-108.5 -44.5h-432v-250h368q58 0 101 -42t43 -98q0 -57 -42.5 -98t-101.5 -41h-368v-301h432q62 0 108.5 -45.5t46.5 -105.5q0 -61 -46.5 -106.5t-108.5 -45.5h-586 q-63 0 -109.5 45.5t-46.5 106.5zM514 1618q0 37 33 63l188 172q26 23 66 23q37 0 65.5 -26.5t28.5 -61.5q0 -36 -37 -66l-203 -163q-24 -21 -57 -21q-35 0 -59.5 23.5t-24.5 56.5z" />
<glyph unicode="&#xca;" horiz-adv-x="1204" d="M188 152v1130q0 61 46.5 106.5t109.5 45.5h586q62 0 108.5 -45.5t46.5 -106.5q0 -60 -46.5 -104.5t-108.5 -44.5h-432v-250h368q58 0 101 -42t43 -98q0 -57 -42.5 -98t-101.5 -41h-368v-301h432q62 0 108.5 -45.5t46.5 -105.5q0 -61 -46.5 -106.5t-108.5 -45.5h-586 q-63 0 -109.5 45.5t-46.5 106.5zM412 1614q0 24 16 45l90 139q26 40 51.5 59t71.5 19q48 0 73.5 -19t49.5 -59l92 -139q16 -24 16 -45q0 -32 -24 -54t-57 -22q-46 0 -68 31l-82 92l-80 -92q-25 -31 -69 -31q-33 0 -56.5 22t-23.5 54z" />
<glyph unicode="&#xcb;" horiz-adv-x="1204" d="M188 152v1130q0 61 46.5 106.5t109.5 45.5h586q62 0 108.5 -45.5t46.5 -106.5q0 -60 -46.5 -104.5t-108.5 -44.5h-432v-250h368q58 0 101 -42t43 -98q0 -57 -42.5 -98t-101.5 -41h-368v-301h432q62 0 108.5 -45.5t46.5 -105.5q0 -61 -46.5 -106.5t-108.5 -45.5h-586 q-63 0 -109.5 45.5t-46.5 106.5zM358 1737q0 42 31 71t76 29q44 0 73 -28.5t29 -71.5q0 -45 -29 -75t-73 -30t-75.5 30.5t-31.5 74.5zM717 1737q0 42 30.5 71t73.5 29q45 0 76 -29t31 -71q0 -44 -31.5 -74.5t-75.5 -30.5q-43 0 -73.5 30.5t-30.5 74.5z" />
<glyph unicode="&#xcc;" horiz-adv-x="700" d="M98 1788q0 35 29 61.5t66 26.5t63 -23l193 -172q30 -27 30 -63q0 -33 -24.5 -56.5t-59.5 -23.5q-30 0 -57 21l-203 163q-37 29 -37 66zM197 141v1151q0 61 46.5 106.5t108.5 45.5t108 -45.5t46 -106.5v-1151q0 -60 -46 -104.5t-108 -44.5t-108.5 44.5t-46.5 104.5z" />
<glyph unicode="&#xcd;" horiz-adv-x="700" d="M197 141v1151q0 61 46.5 106.5t108.5 45.5t108 -45.5t46 -106.5v-1151q0 -60 -46 -104.5t-108 -44.5t-108.5 44.5t-46.5 104.5zM221 1618q0 37 33 63l188 172q26 23 66 23q37 0 65.5 -26.5t28.5 -61.5q0 -36 -37 -66l-203 -163q-24 -21 -57 -21q-35 0 -59.5 23.5 t-24.5 56.5z" />
<glyph unicode="&#xce;" horiz-adv-x="700" d="M119 1614q0 24 16 45l90 139q26 40 51.5 59t71.5 19q48 0 73.5 -19t49.5 -59l92 -139q17 -25 17 -45q0 -32 -24.5 -54t-57.5 -22q-46 0 -68 31l-82 92l-80 -92q-25 -31 -69 -31q-33 0 -56.5 22t-23.5 54zM197 141v1151q0 61 46.5 106.5t108.5 45.5t108 -45.5t46 -106.5 v-1151q0 -60 -46 -104.5t-108 -44.5t-108.5 44.5t-46.5 104.5z" />
<glyph unicode="&#xcf;" horiz-adv-x="700" d="M66 1737q0 43 31 71.5t75 28.5t73 -28.5t29 -71.5q0 -45 -29 -75t-73 -30t-75 30.5t-31 74.5zM197 141v1151q0 61 46.5 106.5t108.5 45.5t108 -45.5t46 -106.5v-1151q0 -60 -46 -104.5t-108 -44.5t-108.5 44.5t-46.5 104.5zM424 1737q0 42 30.5 71t73.5 29q45 0 76 -29 t31 -71q0 -44 -31.5 -74.5t-75.5 -30.5q-43 0 -73.5 30.5t-30.5 74.5z" />
<glyph unicode="&#xd0;" horiz-adv-x="1357" d="M-6 743q0 56 42.5 98t100.5 42h31v399q0 61 46 106.5t108 45.5h264q308 0 481.5 -181.5t173.5 -537.5q0 -361 -169.5 -538t-485.5 -177h-264q-62 0 -108 45.5t-46 106.5v452h-31q-59 0 -101 41t-42 98zM477 303h25q84 0 142 6t109 22.5t82.5 45.5t54.5 75t32.5 110 t9.5 153q0 127 -21.5 207.5t-73 127t-125 63.5t-190.5 17h-45v-247h103q58 0 100.5 -42t42.5 -98q0 -57 -42 -98t-101 -41h-103v-301z" />
<glyph unicode="&#xd1;" horiz-adv-x="1411" d="M170 133v1165q0 62 46.5 106t113.5 44q88 0 137 -74l483 -766v688q0 57 43.5 99.5t102.5 42.5q60 0 103.5 -42.5t43.5 -99.5v-1165q0 -62 -46.5 -105.5t-113.5 -43.5q-89 0 -137 73l-483 766v-688q0 -57 -43.5 -99t-102.5 -42q-60 0 -103.5 42t-43.5 99zM446 1661 q0 22 9 37q62 121 172 121q33 0 81.5 -29t67.5 -29q20 0 41 25q24 33 68 33q35 0 57.5 -22.5t22.5 -55.5q0 -19 -9 -37q-58 -123 -170 -123q-36 0 -85.5 29.5t-65.5 29.5q-22 0 -41 -26q-26 -33 -68 -33q-35 0 -57.5 23t-22.5 57z" />
<glyph unicode="&#xd2;" horiz-adv-x="1460" d="M123 717q0 342 165.5 539.5t440.5 197.5q271 0 438.5 -198t167.5 -539q0 -344 -165.5 -542t-440.5 -198t-440.5 198t-165.5 542zM432 715q0 -199 77.5 -317.5t219.5 -118.5t219.5 118.5t77.5 317.5q0 200 -77.5 319t-219.5 119t-219.5 -119t-77.5 -319zM477 1788 q0 35 28.5 61.5t65.5 26.5q38 0 64 -23l192 -172q31 -28 31 -63q0 -33 -24.5 -56.5t-59.5 -23.5q-30 0 -57 21l-203 163q-37 29 -37 66z" />
<glyph unicode="&#xd3;" horiz-adv-x="1460" d="M123 717q0 342 165.5 539.5t440.5 197.5q271 0 438.5 -198t167.5 -539q0 -344 -165.5 -542t-440.5 -198t-440.5 198t-165.5 542zM432 715q0 -199 77.5 -317.5t219.5 -118.5t219.5 118.5t77.5 317.5q0 200 -77.5 319t-219.5 119t-219.5 -119t-77.5 -319zM600 1618 q0 37 33 63l188 172q26 23 66 23q37 0 65.5 -26.5t28.5 -61.5q0 -36 -37 -66l-203 -163q-24 -21 -57 -21q-35 0 -59.5 23.5t-24.5 56.5z" />
<glyph unicode="&#xd4;" horiz-adv-x="1460" d="M123 717q0 342 165.5 539.5t440.5 197.5q271 0 438.5 -198t167.5 -539q0 -344 -165.5 -542t-440.5 -198t-440.5 198t-165.5 542zM432 715q0 -199 77.5 -317.5t219.5 -118.5t219.5 118.5t77.5 317.5q0 200 -77.5 319t-219.5 119t-219.5 -119t-77.5 -319zM500 1614 q0 24 16 45l90 139q26 40 51.5 59t71.5 19q48 0 73.5 -19t49.5 -59l92 -139q17 -25 17 -45q0 -32 -24.5 -54t-57.5 -22q-46 0 -68 31l-82 92l-80 -92q-25 -31 -69 -31q-33 0 -56.5 22t-23.5 54z" />
<glyph unicode="&#xd5;" horiz-adv-x="1460" d="M123 717q0 342 165.5 539.5t440.5 197.5q271 0 438.5 -198t167.5 -539q0 -344 -165.5 -542t-440.5 -198t-440.5 198t-165.5 542zM432 715q0 -199 77.5 -317.5t219.5 -118.5t219.5 118.5t77.5 317.5q0 200 -77.5 319t-219.5 119t-219.5 -119t-77.5 -319zM471 1661 q0 24 8 37q62 121 172 121q33 0 82 -29t68 -29q20 0 41 25q24 33 67 33q35 0 57.5 -22.5t22.5 -55.5q0 -21 -8 -37q-58 -123 -170 -123q-36 0 -86 29.5t-66 29.5q-22 0 -41 -26q-26 -33 -67 -33q-35 0 -57.5 23t-22.5 57z" />
<glyph unicode="&#xd6;" horiz-adv-x="1460" d="M123 717q0 342 165.5 539.5t440.5 197.5q271 0 438.5 -198t167.5 -539q0 -344 -165.5 -542t-440.5 -198t-440.5 198t-165.5 542zM432 715q0 -199 77.5 -317.5t219.5 -118.5t219.5 118.5t77.5 317.5q0 200 -77.5 319t-219.5 119t-219.5 -119t-77.5 -319zM444 1737 q0 42 31 71t76 29q44 0 73 -28.5t29 -71.5q0 -45 -29 -75t-73 -30t-75.5 30.5t-31.5 74.5zM803 1737q0 42 30.5 71t73.5 29q45 0 76 -29t31 -71q0 -44 -31.5 -74.5t-75.5 -30.5q-43 0 -73.5 30.5t-30.5 74.5z" />
<glyph unicode="&#xd7;" d="M250 344q0 45 33 78l151 153l-151 152q-33 33 -33 78q0 43 30.5 72.5t73.5 29.5q48 0 78 -30l154 -152l151 152q30 30 78 30q43 0 73 -29.5t30 -72.5q0 -47 -31 -78l-152 -152l152 -153q36 -41 33 -80q0 -42 -31 -72t-74 -30q-50 0 -78 32l-151 152l-154 -152 q-37 -32 -78 -32q-43 0 -73.5 30.5t-30.5 73.5z" />
<glyph unicode="&#xd8;" horiz-adv-x="1460" d="M123 717q0 342 165.5 539.5t440.5 197.5q210 0 356 -119l78 105q25 37 68 37q32 0 57 -23.5t25 -56.5q0 -26 -19 -51l-96 -129q137 -195 137 -500q0 -344 -165.5 -542t-440.5 -198q-209 0 -360 117l-80 -108q-29 -39 -68 -39q-33 0 -57.5 24.5t-24.5 57.5q0 22 19 51 l100 135q-135 196 -135 502zM432 715q0 -123 31 -221l440 593q-76 66 -174 66q-142 0 -219.5 -119t-77.5 -319zM553 344q71 -65 176 -65q142 0 219.5 118.5t77.5 317.5q0 119 -33 223z" />
<glyph unicode="&#xd9;" horiz-adv-x="1376" d="M178 551v741q0 60 46 105t108 45q63 0 109 -45t46 -105v-784q0 -107 53.5 -168t145.5 -61q93 0 147 61t54 168v784q0 60 45 105t108 45q62 0 109 -45t47 -105v-788q0 -240 -135 -383.5t-375 -143.5q-258 0 -383 150.5t-125 423.5zM436 1788q0 35 28.5 61.5t65.5 26.5 q38 0 64 -23l192 -172q31 -28 31 -63q0 -33 -24.5 -56.5t-59.5 -23.5q-30 0 -57 21l-203 163q-37 29 -37 66z" />
<glyph unicode="&#xda;" horiz-adv-x="1376" d="M178 551v741q0 60 46 105t108 45q63 0 109 -45t46 -105v-784q0 -107 53.5 -168t145.5 -61q93 0 147 61t54 168v784q0 60 45 105t108 45q62 0 109 -45t47 -105v-788q0 -240 -135 -383.5t-375 -143.5q-258 0 -383 150.5t-125 423.5zM559 1618q0 37 33 63l188 172 q26 23 66 23q37 0 65.5 -26.5t28.5 -61.5q0 -36 -37 -66l-203 -163q-24 -21 -57 -21q-35 0 -59.5 23.5t-24.5 56.5z" />
<glyph unicode="&#xdb;" horiz-adv-x="1376" d="M178 551v741q0 60 46 105t108 45q63 0 109 -45t46 -105v-784q0 -107 53.5 -168t145.5 -61q93 0 147 61t54 168v784q0 60 45 105t108 45q62 0 109 -45t47 -105v-788q0 -240 -135 -383.5t-375 -143.5q-258 0 -383 150.5t-125 423.5zM457 1614q0 24 16 45l90 139 q26 40 51.5 59t71.5 19q48 0 73.5 -19t49.5 -59l92 -139q17 -25 17 -45q0 -32 -24.5 -54t-57.5 -22q-46 0 -68 31l-82 92l-80 -92q-25 -31 -69 -31q-33 0 -56.5 22t-23.5 54z" />
<glyph unicode="&#xdc;" horiz-adv-x="1376" d="M178 551v741q0 60 46 105t108 45q63 0 109 -45t46 -105v-784q0 -107 53.5 -168t145.5 -61q93 0 147 61t54 168v784q0 60 45 105t108 45q62 0 109 -45t47 -105v-788q0 -240 -135 -383.5t-375 -143.5q-258 0 -383 150.5t-125 423.5zM403 1737q0 42 31 71t76 29 q44 0 73 -28.5t29 -71.5q0 -45 -29 -75t-73 -30t-75.5 30.5t-31.5 74.5zM762 1737q0 42 30.5 71t73.5 29q45 0 76 -29t31 -71q0 -44 -31.5 -74.5t-75.5 -30.5q-43 0 -73.5 30.5t-30.5 74.5z" />
<glyph unicode="&#xdd;" horiz-adv-x="1085" d="M14 1292q0 60 47 105t109 45q89 0 135 -82l246 -459l248 461q45 80 127 80q58 0 101.5 -42.5t43.5 -99.5q0 -37 -22 -77l-355 -600v-482q0 -60 -46.5 -104.5t-108.5 -44.5t-108 44.5t-46 104.5v480l-346 585q-25 45 -25 86zM414 1618q0 38 32 63l189 172q26 23 65 23 q37 0 66 -26.5t29 -61.5q0 -36 -37 -66l-203 -163q-24 -21 -57 -21q-35 0 -59.5 23.5t-24.5 56.5z" />
<glyph unicode="&#xde;" horiz-adv-x="1150" d="M184 141v1151q0 61 46.5 106.5t109.5 45.5q62 0 108 -45.5t46 -106.5v-96h98q109 0 194 -21t155 -69.5t108 -137t38 -214.5q0 -97 -25 -174t-67.5 -126.5t-103 -82.5t-127.5 -46.5t-146 -13.5h-124v-170q0 -60 -46 -104.5t-108 -44.5q-63 0 -109.5 44.5t-46.5 104.5z M494 586h133q68 0 109.5 42t41.5 126q0 85 -42 125.5t-111 40.5h-131v-334z" />
<glyph unicode="&#xdf;" horiz-adv-x="1220" d="M160 133v942q0 179 108 300.5t293 121.5q191 0 300.5 -86.5t109.5 -236.5q0 -57 -15 -105t-37 -78.5t-44 -54.5t-37 -42.5t-15 -31.5q0 -31 37 -63.5t97.5 -74t91.5 -73.5q44 -47 70 -116.5t26 -149.5q0 -179 -102.5 -292t-260.5 -113q-54 0 -105.5 15.5t-94.5 45t-69 78 t-26 108.5q0 53 31.5 97.5t85.5 44.5q29 0 52.5 -11t38 -26.5t27.5 -31.5t28 -27t32 -11q78 0 78 111t-141 194q-80 47 -119 103.5t-39 134.5q0 40 12.5 75.5t30.5 62.5t36.5 54.5t31 65.5t12.5 82q0 42 -32.5 68t-71.5 26q-57 0 -88.5 -44.5t-32.5 -127.5l-13 -934 q-1 -58 -46.5 -99.5t-90.5 -41.5q-63 0 -106 40t-43 101z" />
<glyph unicode="&#xe0;" horiz-adv-x="968" d="M74 225q0 111 45 168q31 42 87.5 67t109.5 33.5t115.5 25.5t98.5 42v113q0 78 -65 78q-32 0 -46.5 -15.5t-25.5 -46.5q-14 -41 -52 -65.5t-93 -24.5q-64 0 -98.5 44t-34.5 104q0 106 98 181t258 75q85 0 146 -15t111 -52.5t75.5 -108t25.5 -175.5v-397q0 -24 18.5 -62.5 t18.5 -60.5q0 -61 -42.5 -101t-104.5 -40q-20 0 -37 4.5t-29.5 9.5t-24.5 16.5t-18.5 19t-14.5 23t-11 22t-9.5 23t-7.5 19.5q-82 -149 -237 -149q-110 0 -183 69.5t-73 175.5zM231 1339q0 35 29 61.5t66 26.5q39 0 63 -22l193 -172q30 -27 30 -64q0 -32 -24.5 -55.5 t-59.5 -23.5q-31 0 -57 20l-203 164q-37 29 -37 65zM362 281q0 -27 17 -47.5t49 -20.5q69 0 111 72v141q-32 -25 -81.5 -49.5t-72.5 -43.5t-23 -52z" />
<glyph unicode="&#xe1;" horiz-adv-x="968" d="M74 225q0 111 45 168q31 42 87.5 67t109.5 33.5t115.5 25.5t98.5 42v113q0 78 -65 78q-32 0 -46.5 -15.5t-25.5 -46.5q-14 -41 -52 -65.5t-93 -24.5q-64 0 -98.5 44t-34.5 104q0 106 98 181t258 75q85 0 146 -15t111 -52.5t75.5 -108t25.5 -175.5v-397q0 -24 18.5 -62.5 t18.5 -60.5q0 -61 -42.5 -101t-104.5 -40q-20 0 -37 4.5t-29.5 9.5t-24.5 16.5t-18.5 19t-14.5 23t-11 22t-9.5 23t-7.5 19.5q-82 -149 -237 -149q-110 0 -183 69.5t-73 175.5zM354 1169q0 38 33 64l188 172q24 22 66 22q37 0 65.5 -26.5t28.5 -61.5t-37 -65l-202 -164 q-23 -20 -58 -20t-59.5 23.5t-24.5 55.5zM362 281q0 -27 17 -47.5t49 -20.5q69 0 111 72v141q-32 -25 -81.5 -49.5t-72.5 -43.5t-23 -52z" />
<glyph unicode="&#xe2;" horiz-adv-x="968" d="M74 225q0 111 45 168q31 42 87.5 67t109.5 33.5t115.5 25.5t98.5 42v113q0 78 -65 78q-32 0 -46.5 -15.5t-25.5 -46.5q-14 -41 -52 -65.5t-93 -24.5q-64 0 -98.5 44t-34.5 104q0 106 98 181t258 75q85 0 146 -15t111 -52.5t75.5 -108t25.5 -175.5v-397q0 -24 18.5 -62.5 t18.5 -60.5q0 -61 -42.5 -101t-104.5 -40q-20 0 -37 4.5t-29.5 9.5t-24.5 16.5t-18.5 19t-14.5 23t-11 22t-9.5 23t-7.5 19.5q-82 -149 -237 -149q-110 0 -183 69.5t-73 175.5zM254 1165q0 24 16 45l90 140q26 40 51 58.5t72 18.5q48 0 73.5 -18.5t49.5 -58.5l92 -140 q17 -26 17 -45q0 -32 -24.5 -53.5t-57.5 -21.5q-46 0 -68 30l-82 92l-80 -92q-24 -30 -69 -30q-33 0 -56.5 21.5t-23.5 53.5zM362 281q0 -27 17 -47.5t49 -20.5q69 0 111 72v141q-32 -25 -81.5 -49.5t-72.5 -43.5t-23 -52z" />
<glyph unicode="&#xe3;" horiz-adv-x="968" d="M74 225q0 111 45 168q31 42 87.5 67t109.5 33.5t115.5 25.5t98.5 42v113q0 78 -65 78q-32 0 -46.5 -15.5t-25.5 -46.5q-14 -41 -52 -65.5t-93 -24.5q-64 0 -98.5 44t-34.5 104q0 106 98 181t258 75q85 0 146 -15t111 -52.5t75.5 -108t25.5 -175.5v-397q0 -24 18.5 -62.5 t18.5 -60.5q0 -61 -42.5 -101t-104.5 -40q-20 0 -37 4.5t-29.5 9.5t-24.5 16.5t-18.5 19t-14.5 23t-11 22t-9.5 23t-7.5 19.5q-82 -149 -237 -149q-110 0 -183 69.5t-73 175.5zM225 1212q0 24 8 37q62 121 173 121q33 0 81.5 -28.5t67.5 -28.5q20 0 41 24q24 33 68 33 q35 0 57 -22.5t22 -55.5q0 -21 -8 -37q-58 -122 -170 -122q-36 0 -85.5 29.5t-65.5 29.5q-22 0 -41 -27q-26 -32 -68 -32q-35 0 -57.5 22.5t-22.5 56.5zM362 281q0 -27 17 -47.5t49 -20.5q69 0 111 72v141q-32 -25 -81.5 -49.5t-72.5 -43.5t-23 -52z" />
<glyph unicode="&#xe4;" horiz-adv-x="968" d="M74 225q0 111 45 168q31 42 87.5 67t109.5 33.5t115.5 25.5t98.5 42v113q0 78 -65 78q-32 0 -46.5 -15.5t-25.5 -46.5q-14 -41 -52 -65.5t-93 -24.5q-64 0 -98.5 44t-34.5 104q0 106 98 181t258 75q85 0 146 -15t111 -52.5t75.5 -108t25.5 -175.5v-397q0 -24 18.5 -62.5 t18.5 -60.5q0 -61 -42.5 -101t-104.5 -40q-20 0 -37 4.5t-29.5 9.5t-24.5 16.5t-18.5 19t-14.5 23t-11 22t-9.5 23t-7.5 19.5q-82 -149 -237 -149q-110 0 -183 69.5t-73 175.5zM199 1288q0 43 31 72t75 29t73.5 -29t29.5 -72q0 -44 -29.5 -74t-73.5 -30t-75 30t-31 74z M362 281q0 -27 17 -47.5t49 -20.5q69 0 111 72v141q-32 -25 -81.5 -49.5t-72.5 -43.5t-23 -52zM557 1288q0 42 31 71.5t74 29.5q44 0 75 -29t31 -72q0 -44 -31 -74t-75 -30q-43 0 -74 30t-31 74z" />
<glyph unicode="&#xe5;" horiz-adv-x="968" d="M74 225q0 111 45 168q31 42 87.5 67t109.5 33.5t115.5 25.5t98.5 42v113q0 78 -65 78q-32 0 -46.5 -15.5t-25.5 -46.5q-14 -41 -52 -65.5t-93 -24.5q-64 0 -98.5 44t-34.5 104q0 106 98 181t258 75q85 0 146 -15t111 -52.5t75.5 -108t25.5 -175.5v-397q0 -24 18.5 -62.5 t18.5 -60.5q0 -61 -42.5 -101t-104.5 -40q-20 0 -37 4.5t-29.5 9.5t-24.5 16.5t-18.5 19t-14.5 23t-11 22t-9.5 23t-7.5 19.5q-82 -149 -237 -149q-110 0 -183 69.5t-73 175.5zM293 1270q0 83 55 138.5t135 55.5t135.5 -55.5t55.5 -138.5q0 -85 -55.5 -142t-135.5 -57 t-135 56.5t-55 142.5zM362 281q0 -27 17 -47.5t49 -20.5q69 0 111 72v141q-32 -25 -81.5 -49.5t-72.5 -43.5t-23 -52zM377 1270q0 -47 31 -81t75 -34t75.5 34t31.5 81q0 46 -31.5 81t-75.5 35t-75 -35t-31 -81z" />
<glyph unicode="&#xe6;" horiz-adv-x="1484" d="M74 225q0 111 45 168q31 41 87 66.5t109 34.5t115.5 26t99.5 41v113q0 78 -65 78q-17 0 -29 -4t-20 -14.5t-12 -18.5t-11 -25q-14 -42 -51.5 -66t-93.5 -24q-64 0 -98.5 44t-34.5 104q0 106 98 181t258 75q182 0 254 -105q29 50 103 78.5t151 28.5q177 0 290 -118.5 t113 -279.5q0 -69 -47 -115.5t-121 -46.5h-376q11 -213 131 -213q75 0 127 58q1 2 9.5 11t10.5 11t10 9.5t11.5 9.5t11.5 7.5t14 7t14.5 4.5t17.5 4t19 1q63 0 101.5 -41t38.5 -94q0 -66 -56 -125q-113 -116 -323 -116q-257 0 -369 213q-43 -93 -112.5 -153t-163.5 -60 q-110 0 -183 69.5t-73 175.5zM362 281q0 -28 16.5 -48t49.5 -20q69 0 111 72v141q-32 -27 -81 -51t-72.5 -43t-23.5 -51zM838 612h239q-13 140 -110 140q-111 0 -129 -140z" />
<glyph unicode="&#xe7;" horiz-adv-x="980" d="M84 498q0 233 119 370.5t321 137.5q107 0 198.5 -46t135.5 -131q31 -60 31 -100q0 -60 -40.5 -99.5t-94.5 -39.5q-56 0 -86 25t-47 71q-10 27 -38 46.5t-67 19.5q-63 0 -99 -56.5t-36 -197.5q0 -265 133 -265q35 0 56.5 20t39.5 56q49 88 138 88q56 0 95.5 -40t39.5 -93 q0 -47 -33 -106q-50 -84 -139 -131t-191 -47q-202 0 -319 140.5t-117 377.5zM395 -145q0 46 32 79t89 33q59 0 92 -34t33 -101q0 -51 -16 -111.5t-50.5 -109.5t-76.5 -49q-49 0 -49 43q0 14 10 47.5t10 62.5q0 23 -2 37q-37 11 -54.5 41.5t-17.5 61.5z" />
<glyph unicode="&#xe8;" horiz-adv-x="1034" d="M92 498q0 233 119 370.5t321 137.5q178 0 291 -119.5t113 -288.5q0 -62 -47.5 -107t-120.5 -45h-377q11 -213 131 -213q75 0 127 58q19 21 31 32.5t35.5 22t52.5 10.5q62 0 100.5 -41t38.5 -94q0 -67 -55 -125q-113 -116 -324 -116q-202 0 -319 140.5t-117 377.5z M264 1339q0 35 28.5 61.5t65.5 26.5q40 0 64 -22l192 -172q31 -28 31 -64q0 -32 -24.5 -55.5t-59.5 -23.5q-31 0 -57 20l-203 164q-37 29 -37 65zM391 612h240q-13 140 -111 140q-111 0 -129 -140z" />
<glyph unicode="&#xe9;" horiz-adv-x="1034" d="M92 498q0 233 119 370.5t321 137.5q178 0 291 -119.5t113 -288.5q0 -62 -47.5 -107t-120.5 -45h-377q11 -213 131 -213q75 0 127 58q19 21 31 32.5t35.5 22t52.5 10.5q62 0 100.5 -41t38.5 -94q0 -67 -55 -125q-113 -116 -324 -116q-202 0 -319 140.5t-117 377.5z M387 1169q0 38 33 64l188 172q24 22 66 22q37 0 65.5 -26.5t28.5 -61.5t-37 -65l-203 -164q-23 -20 -57 -20q-35 0 -59.5 23.5t-24.5 55.5zM391 612h240q-13 140 -111 140q-111 0 -129 -140z" />
<glyph unicode="&#xea;" horiz-adv-x="1034" d="M92 498q0 233 119 370.5t321 137.5q178 0 291 -119.5t113 -288.5q0 -62 -47.5 -107t-120.5 -45h-377q11 -213 131 -213q75 0 127 58q19 21 31 32.5t35.5 22t52.5 10.5q62 0 100.5 -41t38.5 -94q0 -67 -55 -125q-113 -116 -324 -116q-202 0 -319 140.5t-117 377.5z M287 1165q0 24 16 45l90 140q26 40 51 58.5t72 18.5q48 0 73.5 -18.5t49.5 -58.5l92 -140q17 -26 17 -45q0 -32 -24.5 -53.5t-57.5 -21.5q-46 0 -68 30l-82 92l-80 -92q-24 -30 -69 -30q-33 0 -56.5 21.5t-23.5 53.5zM391 612h240q-13 140 -111 140q-111 0 -129 -140z" />
<glyph unicode="&#xeb;" horiz-adv-x="1034" d="M92 498q0 233 119 370.5t321 137.5q178 0 291 -119.5t113 -288.5q0 -62 -47.5 -107t-120.5 -45h-377q11 -213 131 -213q75 0 127 58q19 21 31 32.5t35.5 22t52.5 10.5q62 0 100.5 -41t38.5 -94q0 -67 -55 -125q-113 -116 -324 -116q-202 0 -319 140.5t-117 377.5z M231 1288q0 43 31.5 72t75.5 29t73 -29t29 -72q0 -44 -29 -74t-73 -30q-45 0 -76 30t-31 74zM391 612h240q-13 140 -111 140q-111 0 -129 -140zM590 1288q0 42 30.5 71.5t73.5 29.5q44 0 75.5 -29t31.5 -72q0 -44 -31 -74t-76 -30q-43 0 -73.5 30t-30.5 74z" />
<glyph unicode="&#xec;" horiz-adv-x="561" d="M29 1339q0 35 28.5 61.5t65.5 26.5q39 0 63 -22l193 -172q31 -28 31 -64q0 -32 -24.5 -55.5t-59.5 -23.5q-32 0 -58 20l-202 164q-37 29 -37 65zM131 289v561q0 60 43.5 101.5t106.5 41.5q62 0 104.5 -41.5t42.5 -101.5v-559q0 -54 10.5 -99t10.5 -59q0 -61 -43 -101 t-107 -40q-55 0 -94.5 29.5t-52.5 84.5q-21 80 -21 183z" />
<glyph unicode="&#xed;" horiz-adv-x="561" d="M131 289v561q0 60 43.5 101.5t106.5 41.5q62 0 104.5 -41.5t42.5 -101.5v-559q0 -54 10.5 -99t10.5 -59q0 -61 -43 -101t-107 -40q-55 0 -94.5 29.5t-52.5 84.5q-21 80 -21 183zM152 1169q0 39 32 64l189 172q24 22 65 22q37 0 65.5 -26.5t28.5 -61.5q0 -36 -36 -65 l-203 -164q-23 -20 -57 -20q-35 0 -59.5 23.5t-24.5 55.5z" />
<glyph unicode="&#xee;" horiz-adv-x="561" d="M49 1165q0 23 17 45l90 140q26 40 51 58.5t72 18.5q48 0 73 -18.5t49 -58.5l93 -140q16 -24 16 -45q0 -32 -24.5 -53.5t-57.5 -21.5q-46 0 -68 30l-81 92l-80 -92q-24 -30 -70 -30q-33 0 -56.5 21.5t-23.5 53.5zM131 289v561q0 60 43.5 101.5t106.5 41.5 q62 0 104.5 -41.5t42.5 -101.5v-559q0 -54 10.5 -99t10.5 -59q0 -61 -43 -101t-107 -40q-55 0 -94.5 29.5t-52.5 84.5q-21 80 -21 183z" />
<glyph unicode="&#xef;" horiz-adv-x="561" d="M-4 1288q0 43 31 72t75 29t73.5 -29t29.5 -72q0 -44 -29.5 -74t-73.5 -30t-75 30t-31 74zM131 289v561q0 60 43.5 101.5t106.5 41.5q62 0 104.5 -41.5t42.5 -101.5v-559q0 -54 10.5 -99t10.5 -59q0 -61 -43 -101t-107 -40q-55 0 -94.5 29.5t-52.5 84.5q-21 80 -21 183z M354 1288q0 42 31 71.5t74 29.5q44 0 75 -29t31 -72q0 -44 -31 -74t-75 -30q-43 0 -74 30t-31 74z" />
<glyph unicode="&#xf0;" horiz-adv-x="1024" d="M82 492q0 99 39 185.5t118 143t181 56.5q148 0 229 -103q-25 152 -137 301l-137 -92q-20 -14 -47 -14q-34 0 -58 21.5t-24 56.5q0 47 35 71l122 82q-59 61 -77.5 89.5t-18.5 64.5q0 59 43.5 101t106.5 42q45 0 99 -37.5t91 -93.5l119 82q17 14 47 14q33 0 56.5 -22 t23.5 -58q0 -48 -35 -69l-117 -80q92 -154 146.5 -338.5t54.5 -349.5q0 -278 -112.5 -421.5t-321.5 -143.5q-197 0 -311.5 143.5t-114.5 368.5zM381 473q0 -91 33.5 -151t93.5 -60q65 0 102 68.5t37 179.5q-12 68 -42 115t-77 47q-75 0 -111 -54t-36 -145z" />
<glyph unicode="&#xf1;" horiz-adv-x="1058" d="M98 852q0 61 43 101t107 40q47 0 84.5 -25t54.5 -69q30 30 45.5 43t45.5 31.5t68 25.5t89 7q113 0 191.5 -105.5t78.5 -304.5v-305q0 -54 10.5 -99t10.5 -59q0 -61 -43 -101t-107 -40q-50 0 -84 22t-51.5 64.5t-25 92.5t-7.5 118v332q0 39 -9 71t-36.5 56t-70.5 24 q-38 0 -74 -12v-625q0 -60 -43.5 -101.5t-106.5 -41.5t-106 41.5t-43 101.5v559q0 54 -10.5 99t-10.5 59zM270 1212q0 22 9 37q62 121 172 121q33 0 81.5 -28.5t67.5 -28.5q20 0 41 24q24 33 68 33q35 0 57 -22.5t22 -55.5q0 -21 -8 -37q-58 -122 -170 -122 q-36 0 -85.5 29.5t-65.5 29.5q-22 0 -41 -27q-26 -32 -68 -32q-35 0 -57.5 22.5t-22.5 56.5z" />
<glyph unicode="&#xf2;" horiz-adv-x="1050" d="M82 498q0 241 115.5 374.5t328.5 133.5q211 0 327 -134t116 -374q0 -241 -116.5 -379.5t-326.5 -138.5q-212 0 -328 138t-116 380zM272 1339q0 35 29 61.5t66 26.5q39 0 63 -22l193 -172q30 -27 30 -64q0 -32 -24.5 -55.5t-59.5 -23.5q-31 0 -57 20l-203 164 q-37 29 -37 65zM381 498q0 -128 36.5 -187t108.5 -59q146 0 146 246q0 126 -37 179.5t-109 53.5q-73 0 -109 -53.5t-36 -179.5z" />
<glyph unicode="&#xf3;" horiz-adv-x="1050" d="M82 498q0 241 115.5 374.5t328.5 133.5q211 0 327 -134t116 -374q0 -241 -116.5 -379.5t-326.5 -138.5q-212 0 -328 138t-116 380zM381 498q0 -128 36.5 -187t108.5 -59q146 0 146 246q0 126 -37 179.5t-109 53.5q-73 0 -109 -53.5t-36 -179.5zM395 1169q0 38 33 64 l188 172q24 22 66 22q37 0 65.5 -26.5t28.5 -61.5t-37 -65l-202 -164q-23 -20 -58 -20t-59.5 23.5t-24.5 55.5z" />
<glyph unicode="&#xf4;" horiz-adv-x="1050" d="M82 498q0 241 115.5 374.5t328.5 133.5q211 0 327 -134t116 -374q0 -241 -116.5 -379.5t-326.5 -138.5q-212 0 -328 138t-116 380zM295 1165q0 24 16 45l90 140q26 40 51 58.5t72 18.5q48 0 73.5 -18.5t49.5 -58.5l92 -140q17 -26 17 -45q0 -32 -24.5 -53.5t-57.5 -21.5 q-46 0 -68 30l-82 92l-80 -92q-24 -30 -69 -30q-33 0 -56.5 21.5t-23.5 53.5zM381 498q0 -128 36.5 -187t108.5 -59q146 0 146 246q0 126 -37 179.5t-109 53.5q-73 0 -109 -53.5t-36 -179.5z" />
<glyph unicode="&#xf5;" horiz-adv-x="1050" d="M82 498q0 241 115.5 374.5t328.5 133.5q211 0 327 -134t116 -374q0 -241 -116.5 -379.5t-326.5 -138.5q-212 0 -328 138t-116 380zM266 1212q0 24 8 37q62 121 172 121q33 0 82 -28.5t68 -28.5q20 0 41 24q24 33 68 33q35 0 57 -22.5t22 -55.5q0 -21 -8 -37 q-58 -122 -170 -122q-36 0 -85.5 29.5t-65.5 29.5q-22 0 -41 -27q-26 -32 -68 -32q-35 0 -57.5 22.5t-22.5 56.5zM381 498q0 -128 36.5 -187t108.5 -59q146 0 146 246q0 126 -37 179.5t-109 53.5q-73 0 -109 -53.5t-36 -179.5z" />
<glyph unicode="&#xf6;" horiz-adv-x="1050" d="M82 498q0 241 115.5 374.5t328.5 133.5q211 0 327 -134t116 -374q0 -241 -116.5 -379.5t-326.5 -138.5q-212 0 -328 138t-116 380zM240 1288q0 43 31 72t75 29t73.5 -29t29.5 -72q0 -44 -29.5 -74t-73.5 -30t-75 30t-31 74zM381 498q0 -128 36.5 -187t108.5 -59 q146 0 146 246q0 126 -37 179.5t-109 53.5q-73 0 -109 -53.5t-36 -179.5zM598 1288q0 42 30.5 71.5t73.5 29.5q44 0 75.5 -29t31.5 -72q0 -44 -31 -74t-76 -30q-43 0 -73.5 30t-30.5 74z" />
<glyph unicode="&#xf7;" d="M156 575q0 43 32.5 75t75.5 32h643q44 0 77.5 -32t33.5 -75t-33.5 -74.5t-77.5 -31.5h-643q-43 0 -75.5 31.5t-32.5 74.5zM418 258q0 67 50.5 115.5t119.5 48.5q71 0 121.5 -48.5t50.5 -115.5t-50.5 -115.5t-121.5 -48.5q-69 0 -119.5 48.5t-50.5 115.5zM418 911 q0 67 50.5 115.5t119.5 48.5q71 0 121.5 -48.5t50.5 -115.5t-50.5 -115t-121.5 -48q-69 0 -119.5 48t-50.5 115z" />
<glyph unicode="&#xf8;" horiz-adv-x="1050" d="M82 498q0 241 115.5 374.5t328.5 133.5q139 0 236 -60l43 58q24 34 65 34q33 0 58.5 -24.5t25.5 -57.5q0 -27 -18 -51l-53 -74q86 -131 86 -333q0 -241 -116.5 -379.5t-326.5 -138.5q-134 0 -231 57l-43 -57q-27 -37 -66 -37q-34 0 -59 24t-25 58q0 29 19 53l53 72 q-92 130 -92 348zM358 498q0 -38 4 -92l248 339q-38 23 -84 23q-85 0 -126.5 -61.5t-41.5 -208.5zM442 238q36 -23 84 -23q168 0 168 283q0 31 -4 77z" />
<glyph unicode="&#xf9;" horiz-adv-x="1103" d="M147 391v461q0 60 43.5 100.5t106.5 40.5t106 -40.5t43 -100.5v-469q0 -121 113 -121q111 0 111 119v471q0 60 42.5 100.5t104.5 40.5q61 0 104.5 -41t43.5 -100v-463q0 -65 -8 -117.5t-34 -109t-69.5 -95t-118.5 -63t-176 -24.5q-412 0 -412 411zM299 1339 q0 35 28.5 61.5t65.5 26.5q40 0 64 -22l192 -172q31 -28 31 -64q0 -32 -24.5 -55.5t-59.5 -23.5q-31 0 -57 20l-203 164q-37 29 -37 65z" />
<glyph unicode="&#xfa;" horiz-adv-x="1103" d="M147 391v461q0 60 43.5 100.5t106.5 40.5t106 -40.5t43 -100.5v-469q0 -121 113 -121q111 0 111 119v471q0 60 42.5 100.5t104.5 40.5q61 0 104.5 -41t43.5 -100v-463q0 -65 -8 -117.5t-34 -109t-69.5 -95t-118.5 -63t-176 -24.5q-412 0 -412 411zM422 1169q0 38 33 64 l188 172q24 22 66 22q37 0 65.5 -26.5t28.5 -61.5t-37 -65l-203 -164q-23 -20 -57 -20q-35 0 -59.5 23.5t-24.5 55.5z" />
<glyph unicode="&#xfb;" horiz-adv-x="1103" d="M147 391v461q0 60 43.5 100.5t106.5 40.5t106 -40.5t43 -100.5v-469q0 -121 113 -121q111 0 111 119v471q0 60 42.5 100.5t104.5 40.5q61 0 104.5 -41t43.5 -100v-463q0 -65 -8 -117.5t-34 -109t-69.5 -95t-118.5 -63t-176 -24.5q-412 0 -412 411zM322 1165q0 24 16 45 l90 140q26 40 51 58.5t72 18.5q48 0 73.5 -18.5t49.5 -58.5l92 -140q16 -24 16 -45q0 -32 -24.5 -53.5t-57.5 -21.5q-45 0 -67 30l-82 92l-80 -92q-24 -30 -70 -30q-33 0 -56 21.5t-23 53.5z" />
<glyph unicode="&#xfc;" horiz-adv-x="1103" d="M147 391v461q0 60 43.5 100.5t106.5 40.5t106 -40.5t43 -100.5v-469q0 -121 113 -121q111 0 111 119v471q0 60 42.5 100.5t104.5 40.5q61 0 104.5 -41t43.5 -100v-463q0 -65 -8 -117.5t-34 -109t-69.5 -95t-118.5 -63t-176 -24.5q-412 0 -412 411zM266 1288q0 43 31.5 72 t75.5 29t73 -29t29 -72q0 -44 -29 -74t-73 -30q-45 0 -76 30t-31 74zM625 1288q0 42 30.5 71.5t73.5 29.5q44 0 75.5 -29t31.5 -72q0 -44 -31 -74t-76 -30q-43 0 -73.5 30t-30.5 74z" />
<glyph unicode="&#xfd;" horiz-adv-x="878" d="M14 850q0 62 43 102.5t109 40.5q114 0 147 -112l123 -412l131 428q12 43 50.5 69.5t87.5 26.5q60 0 100.5 -38.5t40.5 -94.5q0 -26 -10 -49l-355 -981q-60 -158 -182 -242q-42 -30 -94 -30q-64 0 -107 40t-43 101q0 85 74 123q28 14 43.5 24t32 29t24.5 43l62 172 l-264 696q-13 35 -13 64zM309 1169q0 38 33 64l188 172q24 22 66 22q37 0 65.5 -26.5t28.5 -61.5t-37 -65l-202 -164q-23 -20 -58 -20t-59.5 23.5t-24.5 55.5z" />
<glyph unicode="&#xfe;" horiz-adv-x="1046" d="M129 -301v1655q0 60 43.5 101.5t106.5 41.5t106 -41.5t43 -101.5v-457q80 109 221 109q312 0 312 -514q0 -515 -312 -515q-64 0 -122 29.5t-99 87.5v-395q0 -60 -43 -101.5t-106 -41.5t-106.5 41.5t-43.5 101.5zM428 254q44 -27 94 -27q72 0 106 62.5t34 202.5 q0 142 -32.5 203t-107.5 61q-54 0 -94 -25v-477z" />
<glyph unicode="&#xff;" horiz-adv-x="878" d="M14 850q0 62 43 102.5t109 40.5q114 0 147 -112l123 -412l131 428q12 43 50.5 69.5t87.5 26.5q60 0 100.5 -38.5t40.5 -94.5q0 -26 -10 -49l-355 -981q-60 -158 -182 -242q-42 -30 -94 -30q-64 0 -107 40t-43 101q0 85 74 123q28 14 43.5 24t32 29t24.5 43l62 172 l-264 696q-13 35 -13 64zM154 1288q0 43 31 72t75 29t73 -29t29 -72q0 -44 -29 -74t-73 -30t-75 30t-31 74zM512 1288q0 42 30.5 71.5t73.5 29.5q44 0 75.5 -29t31.5 -72q0 -44 -31 -74t-76 -30q-43 0 -73.5 30t-30.5 74z" />
<glyph unicode="&#x152;" horiz-adv-x="1914" d="M113 717q0 342 165.5 539.5t440.5 197.5q136 0 256 -57q43 37 98 37h586q62 0 109 -45.5t47 -106.5q0 -60 -47 -104.5t-109 -44.5h-432v-250h368q58 0 101 -42t43 -98q0 -57 -42.5 -98t-101.5 -41h-368v-301h432q62 0 109 -45.5t47 -105.5q0 -61 -47 -106.5t-109 -45.5 h-586q-49 0 -94 33q-118 -56 -260 -56q-275 0 -440.5 198t-165.5 542zM422 715q0 -199 77.5 -317.5t219.5 -118.5q124 0 199 90v692q-79 92 -199 92q-142 0 -219.5 -119t-77.5 -319z" />
<glyph unicode="&#x153;" horiz-adv-x="1605" d="M82 498q0 241 115.5 374.5t328.5 133.5q183 0 297 -105q114 105 289 105q89 0 165.5 -33t128.5 -88t81 -127t29 -150q0 -69 -47 -115.5t-121 -46.5h-377q11 -213 131 -213q75 0 127 58q19 21 31 32.5t35.5 22t52.5 10.5q62 0 100.5 -41t38.5 -94q0 -67 -55 -125 q-113 -116 -324 -116q-177 0 -287 104q-113 -104 -295 -104q-212 0 -328 138t-116 380zM381 498q0 -128 36.5 -187t108.5 -59q146 0 146 246q0 126 -37 179.5t-109 53.5q-73 0 -109 -53.5t-36 -179.5zM971 612h239q-13 140 -110 140q-111 0 -129 -140z" />
<glyph unicode="&#x178;" horiz-adv-x="1085" d="M14 1292q0 60 47 105t109 45q89 0 135 -82l246 -459l248 461q45 80 127 80q58 0 101.5 -42.5t43.5 -99.5q0 -37 -22 -77l-355 -600v-482q0 -60 -46.5 -104.5t-108.5 -44.5t-108 44.5t-46 104.5v480l-346 585q-25 45 -25 86zM258 1737q0 42 31 71t76 29q44 0 73 -28.5 t29 -71.5q0 -45 -29 -75t-73 -30t-75.5 30.5t-31.5 74.5zM616 1737q0 42 31 71t74 29q44 0 75 -28.5t31 -71.5q0 -44 -31 -74.5t-75 -30.5q-43 0 -74 30.5t-31 74.5z" />
<glyph unicode="&#x2c6;" horiz-adv-x="514" d="M27 1165q0 24 16 45l90 140q26 40 51 58.5t72 18.5q48 0 73.5 -18.5t49.5 -58.5l92 -140q16 -24 16 -45q0 -32 -24 -53.5t-57 -21.5q-46 0 -68 30l-82 92l-80 -92q-24 -30 -70 -30q-33 0 -56 21.5t-23 53.5z" />
<glyph unicode="&#x2dc;" horiz-adv-x="573" d="M27 1212q0 24 8 37q62 121 172 121q33 0 81.5 -28.5t67.5 -28.5q20 0 41 24q24 33 68 33q35 0 57.5 -22.5t22.5 -55.5q0 -21 -8 -37q-58 -122 -170 -122q-36 0 -86 29.5t-66 29.5q-22 0 -41 -27q-26 -32 -68 -32q-35 0 -57 22.5t-22 56.5z" />
<glyph unicode="&#x2000;" horiz-adv-x="956" />
<glyph unicode="&#x2001;" horiz-adv-x="1913" />
<glyph unicode="&#x2002;" horiz-adv-x="956" />
<glyph unicode="&#x2003;" horiz-adv-x="1913" />
<glyph unicode="&#x2004;" horiz-adv-x="637" />
<glyph unicode="&#x2005;" horiz-adv-x="478" />
<glyph unicode="&#x2006;" horiz-adv-x="318" />
<glyph unicode="&#x2007;" horiz-adv-x="318" />
<glyph unicode="&#x2008;" horiz-adv-x="239" />
<glyph unicode="&#x2009;" horiz-adv-x="382" />
<glyph unicode="&#x200a;" horiz-adv-x="106" />
<glyph unicode="&#x2010;" horiz-adv-x="653" d="M25 541q0 56 45.5 99.5t103.5 43.5h307q57 0 103.5 -44t46.5 -99t-46.5 -98.5t-103.5 -43.5h-307q-58 0 -103.5 43t-45.5 99z" />
<glyph unicode="&#x2011;" horiz-adv-x="653" d="M25 541q0 56 45.5 99.5t103.5 43.5h307q57 0 103.5 -44t46.5 -99t-46.5 -98.5t-103.5 -43.5h-307q-58 0 -103.5 43t-45.5 99z" />
<glyph unicode="&#x2012;" horiz-adv-x="653" d="M25 541q0 56 45.5 99.5t103.5 43.5h307q57 0 103.5 -44t46.5 -99t-46.5 -98.5t-103.5 -43.5h-307q-58 0 -103.5 43t-45.5 99z" />
<glyph unicode="&#x2013;" horiz-adv-x="964" d="M0 541q0 56 46 99.5t104 43.5h665q57 0 103.5 -44t46.5 -99t-46.5 -98.5t-103.5 -43.5h-665q-59 0 -104.5 43.5t-45.5 98.5z" />
<glyph unicode="&#x2014;" horiz-adv-x="1642" d="M0 541q0 56 46 99.5t104 43.5h1345q57 0 102 -44t45 -99t-45 -98.5t-102 -43.5h-1345q-59 0 -104.5 43.5t-45.5 98.5z" />
<glyph unicode="&#x2018;" horiz-adv-x="499" d="M84 1100q0 51 13 114.5t36 123t60 99.5t79 40q66 0 66 -60q0 -19 -14.5 -66.5t-14.5 -88.5q0 -14 4 -50q49 -17 72 -59.5t23 -83.5q0 -65 -42.5 -111.5t-117.5 -46.5q-77 0 -120.5 47.5t-43.5 141.5z" />
<glyph unicode="&#x2019;" horiz-adv-x="499" d="M84 1319q0 65 42.5 111.5t117.5 46.5q77 0 120.5 -47.5t43.5 -141.5q0 -51 -13 -114.5t-36.5 -123t-60.5 -99.5t-79 -40q-65 0 -65 60q0 19 14 66.5t14 88.5q0 14 -4 50q-49 17 -71.5 59t-22.5 84z" />
<glyph unicode="&#x201a;" horiz-adv-x="499" d="M84 152q0 64 42.5 110.5t117.5 46.5q77 0 120.5 -47t43.5 -141q0 -51 -13 -114.5t-36.5 -123t-60.5 -99.5t-79 -40q-65 0 -65 59q0 19 14 67t14 89q0 13 -4 49q-49 17 -71.5 59.5t-22.5 84.5z" />
<glyph unicode="&#x201c;" horiz-adv-x="909" d="M84 1100q0 51 13 114.5t36 123t60 99.5t79 40q66 0 66 -60q0 -19 -14.5 -66.5t-14.5 -88.5q0 -14 4 -50q49 -17 72 -59.5t23 -83.5q0 -65 -42.5 -111.5t-117.5 -46.5q-77 0 -120.5 47.5t-43.5 141.5zM494 1100q0 51 13 114.5t36 123t60 99.5t79 40q66 0 66 -60 q0 -19 -14.5 -66.5t-14.5 -88.5q0 -14 4 -50q49 -17 71.5 -59t22.5 -84q0 -65 -42.5 -111.5t-117.5 -46.5q-77 0 -120 47.5t-43 141.5z" />
<glyph unicode="&#x201d;" horiz-adv-x="909" d="M84 1319q0 65 42.5 111.5t117.5 46.5q77 0 120.5 -47.5t43.5 -141.5q0 -51 -13 -114.5t-36.5 -123t-60.5 -99.5t-79 -40q-65 0 -65 60q0 19 14 66.5t14 88.5q0 14 -4 50q-49 17 -71.5 59t-22.5 84zM494 1319q0 65 42 111.5t117 46.5q77 0 120.5 -47.5t43.5 -141.5 q0 -51 -13 -114.5t-36 -123t-60 -99.5t-79 -40q-66 0 -66 60q0 19 14.5 66.5t14.5 88.5q0 14 -4 50q-49 17 -71.5 59t-22.5 84z" />
<glyph unicode="&#x201e;" horiz-adv-x="909" d="M84 152q0 64 42.5 110.5t117.5 46.5q77 0 120.5 -47t43.5 -141q0 -51 -13 -114.5t-36.5 -123t-60.5 -99.5t-79 -40q-65 0 -65 59q0 19 14 67t14 89q0 13 -4 49q-49 17 -71.5 59.5t-22.5 84.5zM494 152q0 65 42 111t117 46q77 0 120.5 -47t43.5 -141q0 -51 -13 -114.5 t-36 -123t-60 -99.5t-79 -40q-66 0 -66 59q0 19 14.5 67t14.5 89q0 13 -4 49q-49 17 -71.5 59.5t-22.5 84.5z" />
<glyph unicode="&#x2022;" horiz-adv-x="886" d="M109 696q0 139 97 236.5t234 97.5q142 0 240 -97t98 -237q0 -141 -98 -238.5t-240 -97.5q-137 0 -234 98t-97 238z" />
<glyph unicode="&#x2026;" horiz-adv-x="1941" d="M182 145q0 67 50.5 115.5t119.5 48.5q71 0 121.5 -48.5t50.5 -115.5t-50.5 -115t-121.5 -48q-69 0 -119.5 48t-50.5 115zM797 145q0 67 50.5 115.5t119.5 48.5q71 0 121.5 -48.5t50.5 -115.5t-50.5 -115t-121.5 -48q-69 0 -119.5 48t-50.5 115zM1411 145q0 67 50.5 115.5 t119.5 48.5q71 0 121.5 -48.5t50.5 -115.5t-50.5 -115t-121.5 -48q-69 0 -119.5 48t-50.5 115z" />
<glyph unicode="&#x202f;" horiz-adv-x="382" />
<glyph unicode="&#x2039;" horiz-adv-x="800" d="M188 551l209 344q28 47 86 47q41 0 72 -30t31 -68q0 -25 -15 -51l-137 -242l137 -240q15 -26 15 -51q0 -40 -31 -69t-72 -29q-62 0 -86 43z" />
<glyph unicode="&#x203a;" horiz-adv-x="800" d="M215 260q0 26 14 51l138 240l-138 242q-14 25 -14 51q0 39 30.5 68.5t71.5 29.5q58 0 86 -47l209 -344l-209 -346q-24 -43 -86 -43q-41 0 -71.5 29t-30.5 69z" />
<glyph unicode="&#x205f;" horiz-adv-x="478" />
<glyph unicode="&#x20ac;" d="M100 553q0 41 31.5 71.5t75.5 30.5h41v62h-41q-45 0 -76 30t-31 74q0 41 31.5 71t75.5 30h55q39 226 150 358.5t293 132.5q174 0 282 -121q33 -42 33 -80q0 -43 -33.5 -75.5t-77.5 -32.5q-50 0 -80 35q-45 57 -124 57q-152 0 -211 -274h335q44 0 75.5 -30t31.5 -71 q0 -44 -31 -74t-76 -30h-356v-62h223q47 0 78 -30t31 -72t-31 -72t-78 -30h-198q24 -124 74 -189t133 -65q114 0 157 92q12 30 39 47.5t62 17.5q43 0 76.5 -32.5t33.5 -75.5q0 -29 -24 -70q-64 -97 -146.5 -149t-197.5 -52q-177 0 -290 129t-151 347h-57q-44 0 -75.5 30.5 t-31.5 71.5z" />
<glyph unicode="&#x2122;" horiz-adv-x="1544" d="M53 1374q0 26 17 43t41 17h428q25 0 42 -17t17 -43q0 -22 -17.5 -39.5t-41.5 -17.5h-156v-574q0 -25 -18 -43t-39 -18q-26 0 -42 17t-16 44v574h-157q-23 0 -40.5 17.5t-17.5 39.5zM707 748l14 632q0 29 20.5 45.5t49.5 16.5q20 0 39 -12t26 -31l199 -506l200 506 q7 20 25.5 31.5t40.5 11.5q27 0 47.5 -17.5t20.5 -44.5l12 -637q0 -26 -17 -43.5t-41 -17.5q-23 0 -40 18t-19 43l-4 412l-174 -438q-16 -35 -51 -35q-21 0 -36 11.5t-20 27.5l-170 436l-4 -414q-1 -24 -19.5 -42.5t-39.5 -18.5q-25 0 -42.5 18.5t-16.5 47.5z" />
<glyph unicode="&#x25fc;" horiz-adv-x="993" d="M0 0v993h993v-993h-993z" />
<glyph unicode="&#xfb01;" horiz-adv-x="1374" d="M41 872q0 44 35.5 78.5t81.5 34.5h35v174q0 158 79.5 248t227.5 90q71 0 130 -17t101.5 -60.5t42.5 -108.5q0 -52 -37.5 -82.5t-79.5 -30.5q-55 0 -82 35q-15 20 -45 20q-16 0 -27 -13t-11 -38v-217h79q43 0 80 -34.5t37 -78.5q0 -41 -37 -74.5t-80 -33.5h-79v-631 q0 -61 -43 -101t-107 -40q-63 0 -106 40t-43 101v631h-35q-46 0 -81.5 33.5t-35.5 74.5zM905 1253q0 63 45.5 106.5t112.5 43.5q66 0 111 -43.5t45 -106.5q0 -64 -45 -107.5t-111 -43.5q-67 0 -112.5 43t-45.5 108zM915 289v561q0 60 43.5 101.5t106.5 41.5 q62 0 104.5 -41.5t42.5 -101.5v-559q0 -54 10.5 -99t10.5 -59q0 -61 -43 -101t-107 -40q-55 0 -94.5 29.5t-52.5 84.5q-21 80 -21 183z" />
<glyph unicode="&#xfb02;" horiz-adv-x="1361" d="M41 872q0 44 35.5 78.5t81.5 34.5h35v174q0 158 79.5 248t227.5 90q71 0 130 -17t101.5 -60.5t42.5 -108.5q0 -52 -37.5 -82.5t-79.5 -30.5q-55 0 -82 35q-15 20 -45 20q-16 0 -27 -13t-11 -38v-217h79q43 0 80 -34.5t37 -78.5q0 -41 -37 -74.5t-80 -33.5h-79v-631 q0 -61 -43 -101t-107 -40q-63 0 -106 40t-43 101v631h-35q-46 0 -81.5 33.5t-35.5 74.5zM915 289v1065q0 60 43.5 101.5t106.5 41.5q62 0 104.5 -41.5t42.5 -101.5v-1063q0 -54 10.5 -99t10.5 -59q0 -61 -43 -101t-107 -40q-55 0 -94.5 29.5t-52.5 84.5q-21 80 -21 183z" />
</font>
</defs>
</svg>
