<?xml version="1.0" encoding="UTF-8"?>
<svg width="36px" height="38px" viewBox="0 0 36 38" version="1.1" xmlns="http://www.w3.org/2000/svg" xmlns:xlink="http://www.w3.org/1999/xlink">
    <!-- Generator: Sketch 50.2 (55047) - http://www.bohemiancoding.com/sketch -->
    <title>Branding/Logo/Logomark</title>
    <desc>Created with Sketch.</desc>
    <defs>
        <linearGradient x1="100%" y1="50%" x2="3.061617e-15%" y2="50%" id="linearGradient-1">
            <stop stop-color="#F86800" offset="0%"></stop>
            <stop stop-color="#BD4701" offset="100%"></stop>
        </linearGradient>
        <linearGradient x1="99.0074936%" y1="50%" x2="0.223214286%" y2="50%" id="linearGradient-2">
            <stop stop-color="#FFA25F" offset="0%"></stop>
            <stop stop-color="#FF6D02" offset="100%"></stop>
        </linearGradient>
        <path d="M18.2081661,0.00169426752 C18.3185471,0.00072611465 18.4018625,0 18.4771758,0 C18.7097056,0 18.8645685,0.00701910828 19.4974356,0.0353375796 C20.2225614,0.084955414 20.2877545,0.0943949045 21.3783851,0.253656051 C22.8444055,0.542649682 23.1508365,0.64188535 24.440812,1.06061146 C24.4412827,1.06061146 24.4415181,1.0608535 24.4419888,1.0608535 C24.9143444,1.24504459 25.4975517,1.49628025 26.0174488,1.72984713 C26.088055,1.7644586 26.1586612,1.79979618 26.2287967,1.83561783 C23.8401885,0.975414013 17.1180061,1.71145223 11.2139144,3.47978344 C7.69160571,4.53458599 5.256162,5.71887898 4.37217219,6.68509554 L5.11730311,5.82852229 C6.11755782,4.79792357 6.34655731,4.6113121 7.44754356,3.71407643 C8.70080387,2.76698089 9.57608558,2.30928662 10.4226541,1.86635669 C11.5259939,1.33193631 12.3193724,1.04584713 13.2412542,0.757095541 C13.4641345,0.690292994 13.4641345,0.690292994 13.9035405,0.572178344 C14.1094753,0.519171975 14.1170066,0.517235669 14.5201681,0.424292994 C14.7221019,0.379757962 14.7221019,0.379757962 15.1273816,0.301095541 C15.3361406,0.262369427 15.3439073,0.261159236 15.757189,0.196050955 C15.9850117,0.161923567 15.9850117,0.161923567 16.4444228,0.107464968 C16.7080194,0.0784203822 16.7080194,0.0784203822 17.2361538,0.0382420382 C17.5644727,0.0171847134 17.5644727,0.0171847134 18.2081661,0.00169426752 Z M24.4419888,1.0608535 C24.9790667,1.25448408 25.5048477,1.47788535 26.0174488,1.72984713 C26.0176842,1.72984713 26.0179195,1.73008917 26.0181549,1.73008917 C25.5055537,1.47812739 24.9793021,1.25448408 24.4415181,1.0608535 C24.4417534,1.0608535 24.4417534,1.0608535 24.4419888,1.0608535 Z M26.2287967,1.83561783 C26.1588966,1.80003822 26.0887611,1.76470064 26.0181549,1.73008917 C26.1494824,1.7891465 26.276809,1.84675159 26.3970749,1.90217834 C26.3443556,1.87918471 26.288106,1.8569172 26.2287967,1.83561783 Z M26.4966296,1.94792357 C26.4648569,1.93219108 26.4316719,1.91694268 26.3970749,1.90217834 C26.4309659,1.91742675 26.4639154,1.93267516 26.4966296,1.94792357 Z M4.29238716,6.77707006 L4.37217219,6.68509554 C4.3439297,6.71607643 4.31733469,6.74657325 4.29238716,6.77707006 Z M19.021785,8.3897707 C16.3076821,8.87892994 13.4787264,9.54211465 10.7676831,10.3543949 C4.40041467,12.261172 0.459881814,14.4564586 0.225233826,15.9834777 L0.140506368,16.612293 C-0.0160040754,18.5752229 -0.018828324,18.6124968 0.0225939888,19.6789172 C0.184988283,21.6897707 0.187812532,21.7280127 0.405515028,22.7995159 C0.851746307,24.6080255 0.944475802,24.9843949 1.66795415,26.7505478 C2.01180642,27.4507643 2.4902812,28.366879 2.88661742,29.0528153 C2.0774702,27.5398344 6.17004177,25.0274777 13.3386908,22.8801146 C16.0497341,22.0683185 18.8784544,21.4048917 21.5927927,20.9157325 C25.7724452,19.7004586 26.3881314,16.6282675 26.383189,14.9051975 C26.3777759,13.147758 25.1249862,8.36217834 19.7525593,8.36169427 C19.5167346,8.36145223 19.2736139,8.37064968 19.021785,8.3897707 Z M2.91909628,29.1087261 C2.90826999,29.0903312 2.89767906,29.0716943 2.88661742,29.0528153 C2.89673765,29.0716943 2.90756393,29.0903312 2.91909628,29.1087261 Z M9.81073357,35.4912739 C8.47203974,33.5915159 20.8869659,29.152293 28.5604493,29.152535 C29.8395986,29.1527771 30.9881263,29.2762166 31.9180102,29.5552866 C29.560704,33.0416051 26.1570138,35.7342803 22.0896251,36.9524586 C26.1570138,35.7342803 29.5609394,33.0416051 31.9180102,29.5552866 C32.8295364,29.8837325 32.9780448,30.3973376 32.4847427,31.0048535 L32.4821538,31.008 C31.6468823,32.0059236 31.4736617,32.1700255 30.3456098,33.237172 C29.2679236,34.1755541 28.5719817,34.6228408 27.6912868,35.1889682 C26.3238798,35.9947134 25.0781508,36.5472866 23.5262262,37.0366879 C23.3033459,37.1034904 23.3033459,37.1034904 22.8639399,37.2216051 C22.6580051,37.2748535 22.6427071,37.2784841 22.2473123,37.3694904 C22.0456139,37.4140255 22.0456139,37.4140255 21.6400988,37.4929299 C21.4313398,37.531414 21.4235731,37.5326242 21.010056,37.5979745 C20.7824687,37.6316178 20.7824687,37.6316178 20.3230576,37.6865605 C20.059461,37.7153631 20.059461,37.7153631 19.5310912,37.7555414 C19.2030076,37.7765987 19.2030076,37.7765987 18.559079,37.7920892 C18.1076699,37.7959618 18.1076699,37.7959618 17.2700448,37.7586879 C16.544919,37.708828 16.4794906,37.6991465 15.3890953,37.5401274 C13.9230749,37.2513758 13.6168793,37.1518981 12.3266684,36.733414 C11.6968609,36.4877452 10.8712389,36.1234777 10.2569648,35.8388408 C9.94229648,35.6776433 9.84321243,35.5372611 9.81073357,35.4912739 Z" id="path-3"></path>
    </defs>
    <g id="Chat" stroke="none" stroke-width="1" fill="none" fill-rule="evenodd">
        <g id="420-599" transform="translate(-562.000000, -121.000000)">
            <g id="Bars/Header-Bar/Header-Bar" transform="translate(502.000000, 109.000000)">
                <g id="Branding/Logo/Logomark" transform="translate(49.000000, 0.000000)">
                    <rect id="Bounds" x="0" y="0" width="60" height="60"></rect>
                    <g id="Logo-Icon" transform="translate(11.000000, 12.000000)">
                        <g id="Group-5">
                            <g id="Logo-Back" fill="url(#linearGradient-1)">
                                <path d="M17.46,0.0382420382 C17.1872583,0.0556687898 17.1669934,0.0576050955 16.6579868,0.107464968 C16.4231523,0.132636943 16.4140927,0.133847134 15.9618278,0.196050955 C15.7477351,0.227273885 15.7396291,0.228726115 15.3238411,0.301095541 C15.1185695,0.338369427 15.1185695,0.338369427 14.7087417,0.424292994 C14.5010861,0.46955414 14.5010861,0.46955414 14.084106,0.572178344 C13.8621457,0.628815287 13.8621457,0.628815287 13.4132185,0.757095541 C12.0154172,1.18090446 11.2074437,1.56090446 10.5580132,1.86635669 C9.16664901,2.55277707 8.41446358,3.09107006 7.5442649,3.71407643 C6.42540397,4.59364331 6.23562914,4.78219108 5.18376159,5.82852229 L4.34813245,6.77707006 C3.8362649,7.39015287 3.9824106,7.90835669 4.91245033,8.23922293 C7.33184106,9.09942675 14.1413245,8.36338854 20.1218543,6.59505732 C25.8565828,4.89933758 28.7468344,2.87033121 26.8407417,1.94792357 C26.2258808,1.65941401 25.3900132,1.31112102 24.7589404,1.0608535 C24.3696159,0.922407643 23.9745695,0.799210191 23.5742781,0.691745223 C22.9477351,0.512394904 22.5083444,0.424292994 21.6560265,0.253656051 C20.910755,0.133363057 20.7786755,0.122229299 19.750649,0.0353375796 C19.2824106,0.0072611465 19.2349669,0.00701910828 18.4446358,0.00169426752 C18.1041854,0.00532484076 18.0798675,0.00653503185 17.46,0.0382420382" id="Path"></path>
                                <path d="M20.672106,0.200649682 C18.7850861,0.0619617834 16.8284503,0.261643312 14.8682384,0.841324841 C16.8284503,0.261643312 18.7850861,0.0619617834 20.672106,0.200649682" id="Path"></path>
                                <path d="M23.575947,0.692229299 C23.9755232,0.799452229 24.3698543,0.922407643 24.7582252,1.06061146 C24.2628079,0.898687898 23.8951788,0.783719745 23.575947,0.692229299" id="Path"></path>
                                <path d="M30.5363444,12.3950191 C28.7811656,13.2375541 26.4802649,14.1021146 23.733298,14.9141529 C14.9793377,17.5027516 5.01139073,18.5800637 1.46980132,17.3207389 C0.557403974,16.9966497 0.160450331,16.548879 0.223390728,16.0185732 L0.142331126,16.612293 C0.0181192053,17.5855287 0.0185960265,17.7835159 0.0228874172,19.6789172 C0.0703311258,20.7555032 0.0703311258,20.7555032 0.410781457,22.7995159 C0.862331126,24.6932229 1.02111258,25.0882293 1.68961589,26.7505478 C2.04198675,27.4725478 2.55456954,28.4140764 2.95700662,29.1087261 C3.13915232,29.3957834 3.50701987,29.6453248 4.07443709,29.8469427 C7.61602649,31.1060255 17.5837351,30.0287134 26.337457,27.4403567 C29.0844238,26.6283185 31.3855629,25.763758 33.1405033,24.9207389 C33.7136424,24.5426752 34.4267285,24.0716688 35.0344371,22.9089172 C37.0056159,19.1372357 35.5618013,12.2159108 31.658543,12.2166369 C31.3045033,12.2166369 30.9299603,12.2735159 30.5363444,12.3950191" id="Path"></path>
                                <path d="M0.223390728,16.0185732 L0.228195096,15.9834777 C0.226273349,15.9953376 0.22459182,16.0069554 0.223390728,16.0185732" id="Path"></path>
                                <path d="M32.9025695,31.0096943 C32.90305,31.0092102 32.9035304,31.0087261 32.9040108,31.008 L32.9066532,31.0048535 C32.9052119,31.0065478 32.9037706,31.008242 32.9025695,31.0096943" id="Path"></path>
                                <path d="M32.8541722,31.0646369 C32.8709875,31.046242 32.8870821,31.0280892 32.9029365,31.0096943 C32.8863614,31.0283312 32.8702668,31.0464841 32.8541722,31.0646369" id="Path"></path>
                                <path d="M10.3901722,35.8388408 C11.0095629,36.1295287 11.8511523,36.4814522 12.486755,36.733414 C13.6413775,37.1499618 14.7213775,37.3661019 15.5889536,37.5401274 C16.3342252,37.6604204 16.4663046,37.6717962 17.4943311,37.7586879 C17.9628079,37.7865223 18.0100132,37.7870064 18.800106,37.7920892 C19.1410331,37.7882166 19.165351,37.7872484 19.7847417,37.7555414 C20.0579603,37.7381146 20.0777483,37.7361783 20.5869934,37.6865605 C20.8220662,37.6611465 20.830649,37.6599363 21.2829139,37.5979745 C21.4974834,37.5662675 21.4974834,37.5662675 21.9211391,37.4929299 C22.126649,37.455172 22.126649,37.455172 22.5362384,37.3694904 C22.7436556,37.3242293 22.7436556,37.3242293 23.1608742,37.2216051 C23.3828344,37.1649682 23.3828344,37.1649682 23.8317616,37.0366879 C25.9660132,36.3841529 27.3223311,35.6067261 28.0509139,35.1889682 C29.259894,34.4558344 29.9126623,33.9180255 30.7397086,33.237172 C31.6861987,32.3866497 31.8337748,32.2225478 32.8541722,31.0646369 C30.1970861,33.9937834 14.9137748,37.683172 10.3901722,35.8388408" id="Path"></path>
                            </g>
                            <g id="Logo-Front">
                                <mask id="mask-4" fill="white">
                                    <use xlink:href="#path-3"></use>
                                </mask>
                                <use id="Clip-27" fill="url(#linearGradient-2)" xlink:href="#path-3"></use>
                            </g>
                        </g>
                    </g>
                </g>
            </g>
        </g>
    </g>
</svg>