<?xml version="1.0" encoding="UTF-8"?>
<svg width="25px" height="25px" viewBox="0 0 25 25" version="1.1" xmlns="http://www.w3.org/2000/svg" xmlns:xlink="http://www.w3.org/1999/xlink">
    <!-- Generator: Sketch 51 (57462) - http://www.bohemiancoding.com/sketch -->
    <title>nav_chat@2x</title>
    <desc>Created with Sketch.</desc>
    <defs></defs>
    <g id="Chat" stroke="none" stroke-width="1" fill="none" fill-rule="evenodd">
        <g id="nav_chat" fill="#FFFFFF">
            <path d="M8.59375,14.8830414 L8.63304138,14.84375 L16.4148687,14.84375 C18.1266107,14.84375 19.53125,13.442473 19.53125,11.7139103 L19.53125,7.03125 L22.6493844,7.03125 C23.9475935,7.03125 25,8.07340741 25,9.37509862 L25,17.9686514 C25,19.2301494 24.0016318,20.2588798 22.7481842,20.3104706 L22.7481842,24.9711073 L18.0895769,20.3125 L10.9443656,20.3125 C9.64615646,20.3125 8.59375,19.2703426 8.59375,17.9686514 L8.59375,14.8830414 Z" id="Combined-Shape" fill-opacity="0.5"></path>
            <path d="M8.63304138,14.84375 L3.95774841,19.519043 L3.95774841,14.84375 L3.1163813,14.84375 C1.39525144,14.84375 0,13.447286 0,11.7139103 L0,3.12983967 C0,1.40127695 1.40463933,0 3.1163813,0 L16.4148687,0 C18.1359986,0 19.53125,1.39646396 19.53125,3.12983967 L19.53125,11.7139103 C19.53125,13.442473 18.1266107,14.84375 16.4148687,14.84375 L8.63304138,14.84375 Z M5.46875,8.59375 C6.33169492,8.59375 7.03125,7.89419492 7.03125,7.03125 C7.03125,6.16830508 6.33169492,5.46875 5.46875,5.46875 C4.60580508,5.46875 3.90625,6.16830508 3.90625,7.03125 C3.90625,7.89419492 4.60580508,8.59375 5.46875,8.59375 Z M10.15625,8.59375 C11.0191949,8.59375 11.71875,7.89419492 11.71875,7.03125 C11.71875,6.16830508 11.0191949,5.46875 10.15625,5.46875 C9.29330508,5.46875 8.59375,6.16830508 8.59375,7.03125 C8.59375,7.89419492 9.29330508,8.59375 10.15625,8.59375 Z M14.84375,8.59375 C15.7066949,8.59375 16.40625,7.89419492 16.40625,7.03125 C16.40625,6.16830508 15.7066949,5.46875 14.84375,5.46875 C13.9808051,5.46875 13.28125,6.16830508 13.28125,7.03125 C13.28125,7.89419492 13.9808051,8.59375 14.84375,8.59375 Z" id="Combined-Shape"></path>
        </g>
    </g>
</svg>