<?xml version="1.0" encoding="UTF-8"?>
<svg width="28px" height="24px" viewBox="0 0 28 24" version="1.1" xmlns="http://www.w3.org/2000/svg" xmlns:xlink="http://www.w3.org/1999/xlink">
    <!-- Generator: Sketch 51 (57462) - http://www.bohemiancoding.com/sketch -->
    <title>nav_meet@2x</title>
    <desc>Created with Sketch.</desc>
    <defs>
        <path d="M17.5,19.515625 L17.5,21.3967391 L21,21.3967391 L21,23.375 L7,23.375 L7,21.3967391 L10.5,21.3967391 L10.5,19.515625 L1.59584416,19.515625 C0.714483765,19.515625 1.84290411e-15,18.8011412 -2.22044605e-16,17.9197808 L-2.22044605e-16,2.22084416 C-3.29980123e-16,1.33948377 0.714483765,0.625 1.59584416,0.625 L26.4041558,0.625 C27.2855162,0.625 28,1.33948377 28,2.22084416 L28,17.9197808 C28,18.8011412 27.2855162,19.515625 26.4041558,19.515625 L17.5,19.515625 Z M13.9996528,17.0668403 C13.6132452,17.0668403 13.3,17.3800855 13.3,17.7664931 C13.3,18.1529006 13.6132452,18.4661458 13.9996528,18.4661458 L14.0003472,18.4661458 C14.3867548,18.4661458 14.7,18.1529006 14.7,17.7664931 C14.7,17.3800855 14.3867548,17.0668403 14.0003472,17.0668403 L13.9996528,17.0668403 Z M1.9354114,1.75305345 C1.4947312,1.75305345 1.13748932,2.11029534 1.13748932,2.55097553 L1.13748932,14.4401312 C1.13748932,14.8808114 1.4947312,15.2380533 1.9354114,15.2380533 L26.0645669,15.2380533 C26.5052471,15.2380533 26.862489,14.8808114 26.862489,14.4401312 L26.862489,2.55097553 C26.862489,2.11029534 26.5052471,1.75305345 26.0645669,1.75305345 L1.9354114,1.75305345 Z M19.1733033,4.68478261 C19.6449852,4.69972826 20.0144927,5.08152174 19.9995631,5.53759058 C19.9417109,7.24365942 19.1775022,8.74818841 17.7293315,10.0194746 L17.7288649,10.0208333 C17.7288649,10.0208333 17.294507,10.5914855 17.1424117,11.5493659 L16.9030717,13.4836957 L12.4909097,13.4705616 L12.3696067,11.6009964 C12.3728726,11.59375 12.3644747,11.5797101 12.3644747,11.5720109 C12.3644747,11.5307971 12.3271507,11.4968297 12.2804957,11.4968297 C12.2431717,11.4968297 12.2156453,11.522192 12.2058477,11.5529891 L12.2021153,11.5529891 C11.9511115,12.1838768 11.7644916,12.884058 11.652053,13.4678442 L10,13.4628623 C10.3508455,11.4447464 11.2806794,8.50588768 13.7207351,8.50588768 L15.6088624,8.50588768 L15.6121282,8.49728261 C15.6121282,8.49728261 15.6391881,8.5013587 15.6821107,8.50588768 L16.3231502,8.50588768 C16.6138108,8.47554348 16.9375964,8.39492754 17.1839347,8.20471014 C17.7269987,7.57789855 18.2509342,6.67844203 18.291524,5.48369565 C18.3069202,5.02762681 18.7128186,4.66757246 19.1733033,4.68478261 Z M14.8595833,7.72056159 C13.963341,7.72056159 13.2364564,7.01811594 13.2364564,6.15081522 C13.2364564,5.28442029 13.963341,4.58152174 14.8595833,4.58152174 C15.7558256,4.58152174 16.4827103,5.28442029 16.4827103,6.15081522 C16.4827103,7.01811594 15.7558256,7.72056159 14.8595833,7.72056159 Z" id="path-1"></path>
    </defs>
    <g id="Chat" stroke="none" stroke-width="1" fill="none" fill-rule="evenodd">
        <g id="nav_meet">
            <mask id="mask-2" fill="white">
                <use xlink:href="#path-1"></use>
            </mask>
            <g id="Icon"></g>
            <g id="Color/Grayscale/50" mask="url(#mask-2)" fill="#FBFCFD">
                <g transform="translate(0.000000, -2.342391)">
                    <rect x="0" y="0" width="27.954023" height="27.954023"></rect>
                </g>
            </g>
        </g>
    </g>
</svg>