<?xml version="1.0" encoding="UTF-8"?>
<svg width="18px" height="20px" viewBox="0 0 18 20" version="1.1" xmlns="http://www.w3.org/2000/svg" xmlns:xlink="http://www.w3.org/1999/xlink">
    <!-- Generator: Sketch 50.2 (55047) - http://www.bohemiancoding.com/sketch -->
    <title>Notification Icon - State</title>
    <desc>Created with Sketch.</desc>
    <defs>
        <path d="M10.2484472,19.8757764 C11.3411854,19.8757764 12.2332166,18.9774362 12.2332166,17.8769695 L8.26367781,17.8769695 C8.26367781,18.9774362 9.155709,19.8757764 10.2484472,19.8757764 L10.2484472,19.8757764 Z M16.648771,13.9018142 L16.648771,8.44439766 C16.648771,5.39004106 14.5524977,2.82977155 11.7202987,2.15601642 L11.7202987,1.48226129 C11.7202987,0.651296628 11.0512753,0 10.2484472,0 C9.44561914,0 8.77659574,0.673755132 8.77659574,1.48226129 L8.77659574,2.15601642 C5.94439672,2.82977155 3.84812343,5.39004106 3.84812343,8.44439766 L3.84812343,13.9018142 L1.86335404,15.9006211 L1.86335404,16.8887953 L18.6335404,16.8887953 L18.6335404,15.9006211 L16.648771,13.9018142 L16.648771,13.9018142 Z" id="path-1"></path>
    </defs>
    <g id="Symbols" stroke="none" stroke-width="1" fill="none" fill-rule="evenodd">
        <g id="Bars/Header-Bar/Overrides/Right/Notifications-and-Support" transform="translate(-16.000000, -20.000000)">
            <g id="Icons/Toggle-Icon/Light-UI/Inactive/Normal">
                <g transform="translate(5.000000, 10.000000)">
                    <g>
                        <circle id="Bounds" cx="20" cy="20" r="20"></circle>
                        <g id="Icons/--Container/--Box-(Med-40)-w-Icon-(Med2-20)">
                            <g id="Icons/Sidebar-Item/Normal">
                                <rect id="Bounds" x="0" y="0" width="40" height="40"></rect>
                                <g id="Icons/--Overrides/Notifications" transform="translate(10.000000, 10.000000)">
                                    <g>
                                        <rect id="Bounds" x="0" y="0" width="19.8757764" height="19.8757764"></rect>
                                        <mask id="mask-2" fill="white">
                                            <use xlink:href="#path-1"></use>
                                        </mask>
                                        <g id="Icon"></g>
                                        <g id="Color/Grayscale/300" mask="url(#mask-2)" fill="#C5D1DC">
                                            <rect x="0" y="0" width="20.1058201" height="20.1058201"></rect>
                                        </g>
                                    </g>
                                </g>
                            </g>
                        </g>
                    </g>
                </g>
            </g>
        </g>
    </g>
</svg>