<?xml version="1.0" encoding="UTF-8"?>
<svg width="20px" height="20px" viewBox="0 0 20 20" version="1.1" xmlns="http://www.w3.org/2000/svg" xmlns:xlink="http://www.w3.org/1999/xlink">
    <!-- Generator: Sketch 57 (83077) - https://sketch.com -->
    <title>Shape</title>
    <desc>Created with Sketch.</desc>
    <defs>
        <path d="M14.2073732,7.37600278 L13.3050652,7.37600278 L12.9914166,7.68736078 C14.0994144,8.97938283 14.7733044,10.6543525 14.7733044,12.4895465 C14.7733044,16.5690181 11.466357,19.8757764 7.38665218,19.8757764 C3.30694736,19.8757764 0,16.5690181 0,12.4895465 C0,8.41007496 3.30694736,5.10331667 7.38665218,5.10331667 C9.22195114,5.10331667 10.8958802,5.77603176 12.1879761,6.88282989 L12.5016247,6.57147189 L12.5016247,5.67148819 L18.181392,0 L19.8757764,1.6942875 L14.2073732,7.37600278 L14.2073732,7.37600278 Z M7.38665218,7.37600278 C4.56154182,7.37600278 2.27281605,9.66459769 2.27281605,12.4895465 C2.27281605,15.313359 4.56154182,17.6030903 7.38665218,17.6030903 C10.2106261,17.6030903 12.5004883,15.313359 12.5004883,12.4895465 C12.5004883,9.66459769 10.2106261,7.37600278 7.38665218,7.37600278 L7.38665218,7.37600278 Z" id="path-1"></path>
    </defs>
    <g id="Global-Search" stroke="none" stroke-width="1" fill="none" fill-rule="evenodd">
        <mask id="mask-2" fill="white">
            <use xlink:href="#path-1"></use>
        </mask>
        <use id="Shape" fill="#6E6E6E" transform="translate(9.937888, 9.937888) scale(1, -1) translate(-9.937888, -9.937888) " xlink:href="#path-1"></use>
    </g>
</svg>